<svg width="459" height="336" viewBox="0 0 459 336" fill="none" xmlns="http://www.w3.org/2000/svg">
<g filter="url(#filter0_d_52_453)">
<path fill-rule="evenodd" clip-rule="evenodd" d="M35.1259 323H35.9766H88.8086H444.977C447.186 323 448.977 321.209 448.977 319V11C448.977 8.79088 447.186 7.00002 444.977 7.00002H88.8189C88.8155 7.00001 88.812 7 88.8086 7H35.1259C32.2706 7 29.9579 10.4759 29.9579 14.7675V125.027C29.9579 126.91 29.4928 128.736 28.6659 130.153L11.2886 159.864C9.57019 162.796 9.57019 167.185 11.2886 170.117L28.6659 199.847C29.5057 201.264 29.9579 203.09 29.9579 204.973V315.233C29.9579 319.524 32.2706 323 35.1259 323Z" fill="white"/>
</g>
<defs>
<filter id="filter0_d_52_453" x="0.3" y="0.3" width="458.377" height="335.4" filterUnits="userSpaceOnUse" color-interpolation-filters="sRGB">
<feFlood flood-opacity="0" result="BackgroundImageFix"/>
<feColorMatrix in="SourceAlpha" type="matrix" values="0 0 0 0 0 0 0 0 0 0 0 0 0 0 0 0 0 0 127 0" result="hardAlpha"/>
<feOffset dy="3"/>
<feGaussianBlur stdDeviation="4.85"/>
<feComposite in2="hardAlpha" operator="out"/>
<feColorMatrix type="matrix" values="0 0 0 0 0 0 0 0 0 0 0 0 0 0 0 0 0 0 0.17 0"/>
<feBlend mode="normal" in2="BackgroundImageFix" result="effect1_dropShadow_52_453"/>
<feBlend mode="normal" in="SourceGraphic" in2="effect1_dropShadow_52_453" result="shape"/>
</filter>
</defs>
</svg>
