<svg width="170" height="187" viewBox="0 0 170 187" fill="none" xmlns="http://www.w3.org/2000/svg">
<path d="M141.734 145.098L116.728 130.652C115.878 130.153 114.499 130.153 113.648 130.652L50.1447 167.507L46.7275 168.343V170.015C46.7275 170.338 46.9329 170.661 47.3728 170.91L73.053 185.752C73.9036 186.251 75.2822 186.251 76.1328 185.752L142.423 147.283C142.834 147.048 143.039 146.74 143.054 146.432V144.79L141.734 145.112V145.098Z" fill="#C5C9D8"/>
<path d="M142.409 143.881L116.729 129.039C115.878 128.54 114.5 128.54 113.649 129.039L47.3587 167.507C46.508 168.006 46.508 168.798 47.3587 169.297L73.0388 184.139C73.8895 184.637 75.268 184.637 76.1187 184.139L142.409 145.67C143.26 145.171 143.26 144.379 142.409 143.881Z" fill="#DADAE8"/>
<path d="M59.8107 169.209V168.857H59.532L56.6135 167.171C56.3202 166.995 55.8362 166.995 55.5429 167.171L52.6244 168.872H52.375V169.209V169.224C52.375 169.326 52.463 169.429 52.595 169.517L55.5722 171.233C55.8655 171.409 56.3495 171.409 56.6575 171.233L59.62 169.517C59.7667 169.429 59.84 169.312 59.84 169.209H59.8107Z" fill="#E7E7F0"/>
<path d="M78.5978 180.048V179.696H78.3191L75.4006 178.009C75.1073 177.833 74.6233 177.833 74.33 178.009L71.4115 179.71H71.1621V180.048V180.062C71.1621 180.165 71.2501 180.268 71.3821 180.356L74.3593 182.071C74.6526 182.247 75.1367 182.247 75.4446 182.071L78.4071 180.356C78.5538 180.268 78.6271 180.15 78.6271 180.048H78.5978Z" fill="#E7E7F0"/>
<path d="M83.2325 177.363V177.011H82.9539L80.0354 175.325C79.742 175.149 79.258 175.149 78.9647 175.325L76.0462 177.026H75.7969V177.363V177.378C75.7969 177.481 75.8848 177.583 76.0168 177.671L78.994 179.387C79.2874 179.563 79.7713 179.563 80.0793 179.387L83.0419 177.671C83.1885 177.583 83.2618 177.466 83.2618 177.363H83.2325Z" fill="#E7E7F0"/>
<path d="M87.8663 174.665V174.313H87.5877L84.6692 172.627C84.3758 172.451 83.8919 172.451 83.5986 172.627L80.68 174.328H80.4307V174.665V174.68C80.4307 174.783 80.5187 174.885 80.6507 174.973L83.6278 176.689C83.9212 176.865 84.4051 176.865 84.7131 176.689L87.6757 174.973C87.8223 174.885 87.8957 174.768 87.8957 174.665H87.8663Z" fill="#E7E7F0"/>
<path d="M92.5011 171.966V171.614H92.2224L89.3038 169.927C89.0105 169.751 88.5266 169.751 88.2332 169.927L85.3147 171.629H85.0654V171.966V171.981C85.0654 172.083 85.1534 172.186 85.2854 172.274L88.2626 173.99C88.5559 174.166 89.0399 174.166 89.3479 173.99L92.3104 172.274C92.4571 172.186 92.5304 172.069 92.5304 171.966H92.5011Z" fill="#E7E7F0"/>
<path d="M64.4454 166.511V166.159H64.1668L61.2482 164.472C60.9548 164.296 60.4709 164.296 60.1776 164.472L57.2591 166.174H57.0098V166.511V166.526C57.0098 166.628 57.0977 166.731 57.2297 166.819L60.2069 168.535C60.5003 168.711 60.9842 168.711 61.2922 168.535L64.2548 166.819C64.4014 166.731 64.4747 166.614 64.4747 166.511H64.4454Z" fill="#E7E7F0"/>
<path d="M71.7345 167.684V167.332H71.4558L68.5373 165.645C68.244 165.469 67.7601 165.469 67.4667 165.645L64.5481 167.346H64.2988V167.684V167.698C64.2988 167.801 64.3869 167.904 64.5189 167.992L67.496 169.708C67.7893 169.884 68.2733 169.884 68.5813 169.708L71.5438 167.992C71.6905 167.904 71.7639 167.786 71.7639 167.684H71.7345Z" fill="#E7E7F0"/>
<path d="M76.3693 164.986V164.634H76.0906L73.172 162.947C72.8787 162.771 72.3947 162.771 72.1014 162.947L69.1829 164.648H68.9336V164.986V165C68.9336 165.103 69.0215 165.205 69.1535 165.293L72.1308 167.009C72.4241 167.185 72.9081 167.185 73.216 167.009L76.1786 165.293C76.3253 165.205 76.3985 165.088 76.3985 164.986H76.3693Z" fill="#E7E7F0"/>
<path d="M78.7736 169.062V168.71H78.4949L75.5764 167.024C75.2831 166.848 74.7991 166.848 74.5058 167.024L71.5873 168.725H71.3379V169.062V169.077C71.3379 169.179 71.4259 169.282 71.5579 169.37L74.5352 171.086C74.8285 171.262 75.3124 171.262 75.6204 171.086L78.5829 169.37C78.7296 169.282 78.8029 169.165 78.8029 169.062H78.7736Z" fill="#E7E7F0"/>
<path d="M83.4962 171.791V171.439H83.2176L80.299 169.752C80.0057 169.576 79.5217 169.576 79.2284 169.752L76.3098 171.453H76.0605V171.791V171.805C76.0605 171.908 76.1485 172.011 76.2805 172.099L79.2577 173.815C79.551 173.991 80.035 173.991 80.343 173.815L83.3055 172.099C83.4522 172.011 83.5255 171.893 83.5255 171.791H83.4962Z" fill="#E7E7F0"/>
<path d="M88.131 169.107V168.755H87.8523L84.9338 167.068C84.6405 166.892 84.1565 166.892 83.8632 167.068L80.9447 168.769H80.6953V169.107V169.121C80.6953 169.224 80.7833 169.327 80.9153 169.415L83.8925 171.131C84.1858 171.306 84.6699 171.306 84.9778 171.131L87.9403 169.415C88.087 169.327 88.1603 169.209 88.1603 169.107H88.131Z" fill="#E7E7F0"/>
<path d="M92.7657 166.408V166.056H92.4871L89.5686 164.37C89.2753 164.194 88.7912 164.194 88.4979 164.37L85.5794 166.071H85.3301V166.408V166.423C85.3301 166.526 85.418 166.628 85.55 166.716L88.5273 168.432C88.8206 168.608 89.3045 168.608 89.6125 168.432L92.5751 166.716C92.7217 166.628 92.795 166.511 92.795 166.408H92.7657Z" fill="#E7E7F0"/>
<path d="M97.3995 163.709V163.357H97.1209L94.2024 161.671C93.909 161.495 93.4251 161.495 93.1318 161.671L90.2132 163.372H89.9639V163.709V163.724C89.9639 163.826 90.0519 163.929 90.1839 164.017L93.161 165.733C93.4544 165.909 93.9383 165.909 94.2463 165.733L97.2089 164.017C97.3555 163.929 97.4289 163.812 97.4289 163.709H97.3995Z" fill="#E7E7F0"/>
<path d="M102.034 161.026V160.674H101.756L98.837 158.987C98.5437 158.811 98.0598 158.811 97.7664 158.987L94.8479 160.688H94.5986V161.026V161.04C94.5986 161.143 94.6866 161.246 94.8186 161.334L97.7958 163.049C98.0891 163.225 98.5731 163.225 98.8811 163.049L101.844 161.334C101.99 161.246 102.064 161.128 102.064 161.026H102.034Z" fill="#E7E7F0"/>
<path d="M106.669 158.327V157.975H106.39L103.472 156.288C103.179 156.112 102.695 156.112 102.401 156.288L99.4827 157.989H99.2334V158.327V158.341C99.2334 158.444 99.3214 158.547 99.4534 158.635L102.431 160.351C102.724 160.527 103.208 160.527 103.516 160.351L106.478 158.635C106.625 158.547 106.698 158.429 106.698 158.327H106.669Z" fill="#E7E7F0"/>
<path d="M111.303 155.643V155.291H111.024L108.106 153.605C107.812 153.429 107.328 153.429 107.035 153.605L104.116 155.306H103.867V155.643V155.658C103.867 155.761 103.955 155.863 104.087 155.951L107.064 157.667C107.358 157.843 107.842 157.843 108.15 157.667L111.112 155.951C111.259 155.863 111.332 155.746 111.332 155.643H111.303Z" fill="#E7E7F0"/>
<path d="M115.938 152.945V152.593H115.659L112.74 150.906C112.447 150.73 111.963 150.73 111.67 150.906L108.751 152.608H108.502V152.945V152.96C108.502 153.062 108.59 153.165 108.722 153.253L111.699 154.969C111.992 155.145 112.476 155.145 112.784 154.969L115.747 153.253C115.894 153.165 115.967 153.048 115.967 152.945H115.938Z" fill="#E7E7F0"/>
<path d="M120.572 150.246V149.894H120.294L117.375 148.208C117.082 148.032 116.598 148.032 116.305 148.208L113.386 149.909H113.137V150.246V150.261C113.137 150.364 113.225 150.466 113.357 150.554L116.334 152.27C116.627 152.446 117.111 152.446 117.419 152.27L120.382 150.554C120.528 150.466 120.602 150.349 120.602 150.246H120.572Z" fill="#E7E7F0"/>
<path d="M125.543 152.769V152.417H125.264L122.346 150.73C122.053 150.554 121.569 150.554 121.275 150.73L118.357 152.431H118.107V152.769V152.783C118.107 152.886 118.195 152.989 118.327 153.077L121.305 154.793C121.598 154.969 122.082 154.969 122.39 154.793L125.352 153.077C125.499 152.989 125.572 152.871 125.572 152.769H125.543Z" fill="#E7E7F0"/>
<path d="M130.178 150.07V149.718H129.899L126.981 148.032C126.687 147.856 126.203 147.856 125.91 148.032L122.991 149.733H122.742V150.07V150.085C122.742 150.188 122.83 150.29 122.962 150.378L125.939 152.094C126.233 152.27 126.717 152.27 127.025 152.094L129.987 150.378C130.134 150.29 130.207 150.173 130.207 150.07H130.178Z" fill="#E7E7F0"/>
<path d="M139.564 144.629V144.277H139.285L136.366 142.59C136.073 142.414 135.589 142.414 135.296 142.59L132.377 144.292H132.128V144.629V144.644C132.128 144.746 132.216 144.849 132.348 144.937L135.325 146.653C135.618 146.829 136.102 146.829 136.41 146.653L139.373 144.937C139.52 144.849 139.593 144.732 139.593 144.629H139.564Z" fill="#E7E7F0"/>
<path d="M134.608 141.578L131.689 139.892C131.396 139.716 130.912 139.716 130.619 139.892L130.208 140.126L127.7 141.593H127.451V141.74L127.289 141.828H127.04V142.165V142.18C127.04 142.282 127.128 142.385 127.26 142.473L130.237 144.189C130.531 144.365 131.014 144.365 131.322 144.189L134.696 142.224C134.842 142.136 134.916 142.018 134.916 141.916V141.564H134.637L134.608 141.578Z" fill="#E7E7F0"/>
<path d="M125.206 147.563V147.211H124.928L122.009 145.524C121.716 145.348 121.232 145.348 120.938 145.524L118.02 147.225H117.771V147.563V147.577C117.771 147.68 117.858 147.783 117.99 147.871L120.968 149.587C121.261 149.763 121.745 149.763 122.053 149.587L125.016 147.871C125.162 147.783 125.235 147.665 125.235 147.563H125.206Z" fill="#E7E7F0"/>
<path d="M129.841 144.863V144.511H129.562L126.644 142.825C126.35 142.649 125.866 142.649 125.573 142.825L122.655 144.526H122.405V144.863V144.878C122.405 144.981 122.493 145.083 122.625 145.171L125.602 146.887C125.896 147.063 126.38 147.063 126.688 146.887L129.65 145.171C129.797 145.083 129.87 144.966 129.87 144.863H129.841Z" fill="#E7E7F0"/>
<path d="M83.4083 166.379V166.027H83.1297L80.2111 164.34C79.9178 164.164 79.4338 164.164 79.1405 164.34L76.222 166.042H75.9727V166.379V166.394C75.9727 166.496 76.0606 166.599 76.1926 166.687L79.1698 168.403C79.4632 168.579 79.9471 168.579 80.2551 168.403L83.2177 166.687C83.3643 166.599 83.4376 166.482 83.4376 166.379H83.4083Z" fill="#E7E7F0"/>
<path d="M88.0431 163.68V163.328H87.7644L84.8459 161.641C84.5526 161.465 84.0686 161.465 83.7753 161.641L80.8568 163.343H80.6074V163.68V163.695C80.6074 163.797 80.6955 163.9 80.8274 163.988L83.8046 165.704C84.0979 165.88 84.582 165.88 84.89 165.704L87.8524 163.988C87.9991 163.9 88.0724 163.783 88.0724 163.68H88.0431Z" fill="#E7E7F0"/>
<path d="M92.6779 160.982V160.63H92.3992L89.4806 158.943C89.1873 158.767 88.7033 158.767 88.41 158.943L85.4915 160.644H85.2422V160.982V160.996C85.2422 161.099 85.3301 161.202 85.4621 161.29L88.4394 163.006C88.7327 163.182 89.2166 163.182 89.5246 163.006L92.4872 161.29C92.6338 161.202 92.7071 161.084 92.7071 160.982H92.6779Z" fill="#E7E7F0"/>
<path d="M97.3116 158.298V157.946H97.033L94.1145 156.259C93.8211 156.083 93.3372 156.083 93.0439 156.259L90.1253 157.96H89.876V158.298V158.312C89.876 158.415 89.964 158.518 90.096 158.606L93.0732 160.321C93.3665 160.497 93.8504 160.497 94.1584 160.321L97.121 158.606C97.2676 158.518 97.341 158.4 97.341 158.298H97.3116Z" fill="#E7E7F0"/>
<path d="M101.946 155.599V155.247H101.668L98.7491 153.561C98.4558 153.385 97.9719 153.385 97.6786 153.561L94.76 155.262H94.5107V155.599V155.614C94.5107 155.717 94.5987 155.819 94.7307 155.907L97.7079 157.623C98.0012 157.799 98.4852 157.799 98.7932 157.623L101.756 155.907C101.902 155.819 101.976 155.702 101.976 155.599H101.946Z" fill="#E7E7F0"/>
<path d="M106.58 152.901V152.549H106.302L103.383 150.862C103.09 150.686 102.606 150.686 102.312 150.862L99.3938 152.563H99.1445V152.901V152.915C99.1445 153.018 99.2326 153.121 99.3646 153.209L102.342 154.924C102.635 155.1 103.119 155.1 103.427 154.924L106.39 153.209C106.536 153.121 106.61 153.003 106.61 152.901H106.58Z" fill="#E7E7F0"/>
<path d="M111.214 150.217V149.865H110.935L108.017 148.178C107.723 148.002 107.24 148.002 106.946 148.178L104.028 149.88H103.778V150.217V150.232C103.778 150.334 103.866 150.437 103.998 150.525L106.976 152.241C107.269 152.417 107.753 152.417 108.061 152.241L111.023 150.525C111.17 150.437 111.243 150.32 111.243 150.217H111.214Z" fill="#E7E7F0"/>
<path d="M115.849 147.518V147.166H115.57L112.652 145.48C112.358 145.304 111.874 145.304 111.581 145.48L108.662 147.181H108.413V147.518V147.533C108.413 147.636 108.501 147.738 108.633 147.826L111.61 149.542C111.904 149.718 112.388 149.718 112.696 149.542L115.658 147.826C115.805 147.738 115.878 147.621 115.878 147.518H115.849Z" fill="#E7E7F0"/>
<path d="M120.484 144.834V144.482H120.205L117.286 142.796C116.993 142.62 116.509 142.62 116.216 142.796L113.297 144.497H113.048V144.834V144.849C113.048 144.951 113.136 145.054 113.268 145.142L116.245 146.858C116.538 147.034 117.022 147.034 117.33 146.858L120.293 145.142C120.44 145.054 120.513 144.937 120.513 144.834H120.484Z" fill="#E7E7F0"/>
<path d="M81.003 162.301V161.949H80.7244L77.8059 160.263C77.5126 160.087 77.0286 160.087 76.7353 160.263L73.8167 161.964H73.5674V162.301V162.316C73.5674 162.419 73.6554 162.521 73.7874 162.609L76.7646 164.325C77.0579 164.501 77.5418 164.501 77.8498 164.325L80.8124 162.609C80.959 162.521 81.0324 162.404 81.0324 162.301H81.003Z" fill="#E7E7F0"/>
<path d="M85.6367 159.603V159.251H85.3581L82.4396 157.565C82.1463 157.389 81.6623 157.389 81.369 157.565L78.4505 159.266H78.2012V159.603V159.618C78.2012 159.721 78.2891 159.823 78.4211 159.911L81.3983 161.627C81.6917 161.803 82.1756 161.803 82.4836 161.627L85.4461 159.911C85.5927 159.823 85.6661 159.706 85.6661 159.603H85.6367Z" fill="#E7E7F0"/>
<path d="M90.2716 156.919V156.567H89.9929L87.0744 154.881C86.7811 154.705 86.2971 154.705 86.0038 154.881L83.0852 156.582H82.8359V156.919V156.934C82.8359 157.036 82.924 157.139 83.056 157.227L86.0331 158.943C86.3264 159.119 86.8104 159.119 87.1184 158.943L90.0809 157.227C90.2276 157.139 90.301 157.022 90.301 156.919H90.2716Z" fill="#E7E7F0"/>
<path d="M94.9064 154.221V153.869H94.6277L91.7092 152.182C91.4159 152.006 90.9319 152.006 90.6386 152.182L87.7201 153.884H87.4707V154.221V154.236C87.4707 154.338 87.5587 154.441 87.6907 154.529L90.668 156.245C90.9613 156.421 91.4453 156.421 91.7532 156.245L94.7157 154.529C94.8624 154.441 94.9357 154.324 94.9357 154.221H94.9064Z" fill="#E7E7F0"/>
<path d="M99.5402 151.522V151.17H99.2615L96.343 149.483C96.0497 149.307 95.5656 149.307 95.2723 149.483L92.3538 151.184H92.1045V151.522V151.536C92.1045 151.639 92.1924 151.742 92.3244 151.83L95.3017 153.546C95.595 153.722 96.079 153.722 96.3869 153.546L99.3495 151.83C99.4962 151.742 99.5694 151.624 99.5694 151.522H99.5402Z" fill="#E7E7F0"/>
<path d="M104.175 148.839V148.487H103.896L100.978 146.8C100.684 146.624 100.2 146.624 99.9072 146.8L96.9886 148.501H96.7393V148.839V148.853C96.7393 148.956 96.8273 149.059 96.9593 149.147L99.9364 150.862C100.23 151.038 100.714 151.038 101.022 150.862L103.984 149.147C104.131 149.059 104.204 148.941 104.204 148.839H104.175Z" fill="#E7E7F0"/>
<path d="M108.81 146.139V145.787H108.531L105.612 144.101C105.319 143.925 104.835 143.925 104.542 144.101L101.623 145.802H101.374V146.139V146.154C101.374 146.257 101.462 146.359 101.594 146.447L104.571 148.163C104.865 148.339 105.348 148.339 105.656 148.163L108.619 146.447C108.766 146.359 108.839 146.242 108.839 146.139H108.81Z" fill="#E7E7F0"/>
<path d="M113.443 143.441V143.089H113.165L110.246 141.403C109.953 141.227 109.469 141.227 109.176 141.403L106.257 143.104H106.008V143.441V143.456C106.008 143.558 106.096 143.661 106.228 143.749L109.205 145.465C109.498 145.641 109.982 145.641 110.29 145.465L113.253 143.749C113.399 143.661 113.473 143.544 113.473 143.441H113.443Z" fill="#E7E7F0"/>
<path d="M118.078 140.757V140.405H117.8L114.881 138.719C114.588 138.543 114.104 138.543 113.81 138.719L110.892 140.42H110.643V140.757V140.772C110.643 140.875 110.731 140.977 110.863 141.065L113.84 142.781C114.133 142.957 114.617 142.957 114.925 142.781L117.888 141.065C118.034 140.977 118.108 140.86 118.108 140.757H118.078Z" fill="#E7E7F0"/>
<path d="M69.0792 163.827V163.475H68.8006L65.882 161.788C65.5887 161.612 65.1048 161.612 64.8115 161.788L61.8929 163.489H61.6436V163.827V163.841C61.6436 163.944 61.7316 164.047 61.8636 164.135L64.8407 165.851C65.134 166.027 65.618 166.027 65.926 165.851L68.8886 164.135C69.0352 164.047 69.1086 163.929 69.1086 163.827H69.0792Z" fill="#E7E7F0"/>
<path d="M73.7139 161.129V160.777H73.4353L70.5167 159.09C70.2234 158.914 69.7395 158.914 69.4461 159.09L66.5276 160.791H66.2783V161.129V161.143C66.2783 161.246 66.3663 161.349 66.4983 161.437L69.4755 163.152C69.7688 163.328 70.2528 163.328 70.5608 163.152L73.5233 161.437C73.67 161.349 73.7433 161.231 73.7433 161.129H73.7139Z" fill="#E7E7F0"/>
<path d="M78.3488 158.429V158.077H78.0701L75.1516 156.391C74.8583 156.215 74.3742 156.215 74.0809 156.391L71.1624 158.092H70.9131V158.429V158.444C70.9131 158.547 71.0011 158.649 71.1331 158.737L74.1103 160.453C74.4036 160.629 74.8875 160.629 75.1955 160.453L78.1581 158.737C78.3047 158.649 78.3781 158.532 78.3781 158.429H78.3488Z" fill="#E7E7F0"/>
<path d="M82.9825 155.746V155.394H82.7039L79.7854 153.708C79.492 153.532 79.0081 153.532 78.7148 153.708L75.7963 155.409H75.5469V155.746V155.761C75.5469 155.864 75.6349 155.966 75.7669 156.054L78.7441 157.77C79.0375 157.946 79.5214 157.946 79.8294 157.77L82.7919 156.054C82.9385 155.966 83.0119 155.849 83.0119 155.746H82.9825Z" fill="#E7E7F0"/>
<path d="M87.6173 153.047V152.695H87.3387L84.4201 151.008C84.1268 150.832 83.6428 150.832 83.3495 151.008L80.4309 152.71H80.1816V153.047V153.062C80.1816 153.164 80.2697 153.267 80.4017 153.355L83.3788 155.071C83.6721 155.247 84.1561 155.247 84.4641 155.071L87.4266 153.355C87.5733 153.267 87.6466 153.15 87.6466 153.047H87.6173Z" fill="#E7E7F0"/>
<path d="M92.2521 150.349V149.997H91.9734L89.0549 148.31C88.7616 148.134 88.2776 148.134 87.9843 148.31L85.0658 150.011H84.8164V150.349V150.363C84.8164 150.466 84.9044 150.569 85.0364 150.657L88.0136 152.373C88.3069 152.549 88.791 152.549 89.0989 152.373L92.0614 150.657C92.2081 150.569 92.2814 150.451 92.2814 150.349H92.2521Z" fill="#E7E7F0"/>
<path d="M96.8859 147.665V147.313H96.6072L93.6887 145.626C93.3954 145.45 92.9113 145.45 92.618 145.626L89.6995 147.327H89.4502V147.665V147.679C89.4502 147.782 89.5381 147.885 89.6701 147.973L92.6474 149.689C92.9407 149.865 93.4247 149.865 93.7326 149.689L96.6952 147.973C96.8419 147.885 96.9151 147.767 96.9151 147.665H96.8859Z" fill="#E7E7F0"/>
<path d="M101.521 144.966V144.614H101.242L98.3235 142.928C98.0301 142.752 97.5462 142.752 97.2529 142.928L94.3343 144.629H94.085V144.966V144.981C94.085 145.084 94.173 145.186 94.305 145.274L97.2821 146.99C97.5755 147.166 98.0595 147.166 98.3675 146.99L101.33 145.274C101.477 145.186 101.55 145.069 101.55 144.966H101.521Z" fill="#E7E7F0"/>
<path d="M106.155 142.268V141.916H105.877L102.958 140.229C102.665 140.053 102.181 140.053 101.888 140.229L98.969 141.93H98.7197V142.268V142.282C98.7197 142.385 98.8077 142.488 98.9397 142.576L101.917 144.292C102.21 144.468 102.694 144.468 103.002 144.292L105.965 142.576C106.111 142.488 106.185 142.37 106.185 142.268H106.155Z" fill="#E7E7F0"/>
<path d="M110.79 139.584V139.232H110.512L107.593 137.546C107.3 137.37 106.816 137.37 106.522 137.546L103.604 139.247H103.354V139.584V139.599C103.354 139.701 103.443 139.804 103.575 139.892L106.552 141.608C106.845 141.784 107.329 141.784 107.637 141.608L110.599 139.892C110.746 139.804 110.82 139.687 110.82 139.584H110.79Z" fill="#E7E7F0"/>
<path d="M115.424 136.885V136.533H115.145L112.227 134.847C111.933 134.671 111.449 134.671 111.156 134.847L108.238 136.548H107.988V136.885V136.9C107.988 137.003 108.076 137.105 108.208 137.193L111.185 138.909C111.479 139.085 111.963 139.085 112.271 138.909L115.233 137.193C115.38 137.105 115.453 136.988 115.453 136.885H115.424Z" fill="#E7E7F0"/>
<path d="M120.777 133.409H120.484L117.58 131.752C117.287 131.576 116.803 131.576 116.495 131.752L112.902 133.849H112.608V134.187C112.608 134.187 112.608 134.216 112.608 134.231V134.245C112.623 134.348 112.696 134.436 112.828 134.524L115.806 136.24C116.099 136.416 116.583 136.416 116.891 136.24L120.557 134.113C120.719 134.025 120.777 133.908 120.777 133.791V133.439V133.409Z" fill="#E7E7F0"/>
<path d="M120.909 155.453V155.115H120.631L117.712 153.429C117.492 153.297 117.155 153.268 116.891 153.326C116.803 153.341 116.715 153.385 116.642 153.429L113.723 155.13H113.474V155.277L92.8827 167.244L89.9641 168.945H89.7148V169.283V169.297C89.7148 169.312 89.7149 169.341 89.7295 169.356C89.7295 169.356 89.7295 169.356 89.7295 169.371C89.7295 169.385 89.7441 169.415 89.7588 169.429C89.7588 169.429 89.7735 169.444 89.7882 169.459C89.7882 169.459 89.8175 169.488 89.8322 169.503C89.8615 169.532 89.8909 169.547 89.9202 169.561L92.8973 171.277C92.9707 171.321 93.0586 171.351 93.1466 171.38C93.2346 171.395 93.3373 171.409 93.44 171.409C93.6306 171.409 93.8359 171.365 93.9826 171.277L96.9452 169.561L120.719 155.746C120.865 155.658 120.939 155.541 120.939 155.423L120.909 155.453Z" fill="#E7E7F0"/>
<path d="M60.5005 163.416V163.079L60.3099 163.123C60.3099 163.123 60.2952 163.108 60.2805 163.093L59.4739 162.624C59.1806 162.448 58.6966 162.448 58.3886 162.624L55.6461 164.208L55.2061 164.311V164.663C55.2061 164.765 55.2941 164.883 55.4261 164.956L56.2327 165.425C56.526 165.601 57.01 165.601 57.318 165.425L60.2805 163.709C60.4272 163.621 60.5005 163.519 60.5005 163.401V163.416Z" fill="#E7E7F0"/>
<path d="M65.1342 160.718V160.395L64.9436 160.439C64.9436 160.439 64.9289 160.425 64.9142 160.41L64.1076 159.941C63.8143 159.765 63.3303 159.765 63.0223 159.941L60.2798 161.525L59.8398 161.627V161.979C59.8398 162.082 59.9278 162.199 60.0598 162.272L60.8665 162.742C61.1598 162.918 61.6438 162.918 61.9517 162.742L64.9142 161.026C65.0609 160.938 65.1342 160.835 65.1342 160.718Z" fill="#E7E7F0"/>
<path d="M69.7691 158.019V157.696L69.5784 157.74C69.5784 157.74 69.5637 157.726 69.5491 157.711L68.7425 157.242C68.4491 157.066 67.9652 157.066 67.6572 157.242L64.9146 158.826L64.4746 158.928V159.28C64.4746 159.383 64.5626 159.5 64.6946 159.574L65.5012 160.043C65.7946 160.219 66.2785 160.219 66.5865 160.043L69.5491 158.327C69.6957 158.239 69.7691 158.136 69.7691 158.019Z" fill="#E7E7F0"/>
<path d="M74.4038 155.335V155.012L74.2131 155.056C74.2131 155.056 74.1984 155.042 74.1837 155.027L73.3771 154.558C73.0838 154.382 72.5999 154.382 72.2919 154.558L69.5493 156.142L69.1094 156.244V156.596C69.1094 156.699 69.1973 156.816 69.3293 156.89L70.136 157.359C70.4293 157.535 70.9133 157.535 71.2213 157.359L74.1837 155.643C74.3304 155.555 74.4038 155.452 74.4038 155.335Z" fill="#E7E7F0"/>
<path d="M79.0376 152.637V152.3L78.8469 152.344C78.8469 152.344 78.8323 152.329 78.8176 152.314L78.011 151.845C77.7177 151.669 77.2336 151.669 76.9257 151.845L74.1831 153.429L73.7432 153.531V153.883C73.7432 153.986 73.8312 154.103 73.9632 154.177L74.7698 154.646C75.0631 154.822 75.5471 154.822 75.8551 154.646L78.8176 152.93C78.9643 152.842 79.0376 152.74 79.0376 152.622V152.637Z" fill="#E7E7F0"/>
<path d="M83.6723 149.938V149.601L83.4817 149.645C83.4817 149.645 83.467 149.63 83.4523 149.615L82.6457 149.146C82.3524 148.97 81.8684 148.97 81.5604 149.146L78.8179 150.73L78.3779 150.833V151.185C78.3779 151.287 78.4659 151.405 78.5979 151.478L79.4045 151.947C79.6978 152.123 80.1818 152.123 80.4898 151.947L83.4523 150.231C83.599 150.143 83.6723 150.041 83.6723 149.923V149.938Z" fill="#E7E7F0"/>
<path d="M88.3071 147.255V146.932L88.1164 146.976C88.1164 146.976 88.1018 146.961 88.0872 146.947L87.2805 146.477C86.9871 146.301 86.5032 146.301 86.1952 146.477L83.4527 148.061L83.0127 148.164V148.516C83.0127 148.618 83.1007 148.736 83.2327 148.809L84.0393 149.278C84.3327 149.454 84.8166 149.454 85.1246 149.278L88.0872 147.562C88.2338 147.474 88.3071 147.372 88.3071 147.255Z" fill="#E7E7F0"/>
<path d="M92.941 144.556V144.234L92.7503 144.278C92.7503 144.278 92.7356 144.263 92.7209 144.248L91.9143 143.779C91.621 143.603 91.1371 143.603 90.8291 143.779L88.0865 145.363L87.6465 145.466V145.818C87.6465 145.92 87.7345 146.038 87.8665 146.111L88.6731 146.58C88.9664 146.756 89.4504 146.756 89.7584 146.58L92.7209 144.864C92.8676 144.776 92.941 144.674 92.941 144.556Z" fill="#E7E7F0"/>
<path d="M97.5757 141.872V141.55L97.385 141.594C97.385 141.594 97.3704 141.579 97.3557 141.564L96.549 141.095C96.2557 140.919 95.7717 140.919 95.4637 141.095L92.7212 142.679L92.2812 142.781V143.133C92.2812 143.236 92.3693 143.353 92.5013 143.427L93.3079 143.896C93.6012 144.072 94.0852 144.072 94.3932 143.896L97.3557 142.18C97.5024 142.092 97.5757 141.99 97.5757 141.872Z" fill="#E7E7F0"/>
<path d="M102.211 139.173V138.836L102.02 138.88C102.02 138.88 102.005 138.865 101.99 138.851L101.184 138.382C100.891 138.206 100.407 138.206 100.099 138.382L97.3561 139.965L96.916 140.068V140.42C96.916 140.523 97.004 140.64 97.136 140.713L97.9427 141.183C98.236 141.359 98.7199 141.359 99.0279 141.183L101.99 139.467C102.137 139.379 102.211 139.276 102.211 139.159V139.173Z" fill="#E7E7F0"/>
<path d="M106.844 136.475V136.138L106.654 136.182C106.654 136.182 106.639 136.167 106.624 136.153L105.818 135.683C105.524 135.507 105.04 135.507 104.732 135.683L101.99 137.267L101.55 137.37V137.722C101.55 137.824 101.638 137.942 101.77 138.015L102.576 138.484C102.87 138.66 103.354 138.66 103.662 138.484L106.624 136.769C106.771 136.681 106.844 136.578 106.844 136.461V136.475Z" fill="#E7E7F0"/>
<path d="M111.479 133.791V133.468L111.288 133.512C111.288 133.512 111.274 133.497 111.259 133.483L110.452 133.013C110.159 132.837 109.675 132.837 109.367 133.013L106.625 134.597L106.185 134.7V135.052C106.185 135.155 106.273 135.272 106.405 135.345L107.211 135.815C107.505 135.991 107.988 135.991 108.296 135.815L111.259 134.099C111.406 134.011 111.479 133.908 111.479 133.791Z" fill="#E7E7F0"/>
<path d="M116.114 131.092V130.77L115.923 130.814C115.923 130.814 115.908 130.799 115.894 130.784L115.087 130.315C114.794 130.139 114.31 130.139 114.002 130.315L111.259 131.899L110.819 132.002V132.354C110.819 132.456 110.907 132.574 111.039 132.647L111.846 133.116C112.139 133.292 112.623 133.292 112.931 133.116L115.894 131.4C116.04 131.312 116.114 131.21 116.114 131.092Z" fill="#E7E7F0"/>
<path d="M67.1292 170.06L66.9239 170.09L63.9467 168.374C63.6534 168.198 63.1694 168.198 62.8761 168.374L57.3763 171.571L57.083 171.615V171.923V171.938C57.083 172.04 57.1564 172.158 57.303 172.231L60.2802 173.947C60.5735 174.123 61.0575 174.123 61.3508 173.947L66.9239 170.706C67.0706 170.618 67.1439 170.5 67.1439 170.398V170.06H67.1292Z" fill="#E7E7F0"/>
<path d="M74.1398 171.409L73.9345 171.453C73.9345 171.453 73.9345 171.453 73.9198 171.453L70.9427 169.737C70.6494 169.561 70.1654 169.561 69.8574 169.737L62.1431 174.225L61.7471 174.313V174.635C61.7471 174.753 61.8204 174.855 61.9671 174.943L64.9442 176.659C65.2376 176.835 65.7215 176.835 66.0148 176.659L73.9051 172.069C74.0518 171.981 74.1252 171.864 74.1252 171.761V171.424L74.1398 171.409Z" fill="#E7E7F0"/>
<path d="M78.8762 174.152L78.6708 174.196C78.6708 174.196 78.6709 174.196 78.6562 174.196L75.679 172.48C75.3857 172.304 74.9017 172.304 74.5937 172.48L66.8794 176.967L66.4834 177.055V177.378C66.4834 177.495 66.5568 177.598 66.7034 177.686L69.6806 179.402C69.9739 179.578 70.4579 179.578 70.7513 179.402L78.6416 174.812C78.7882 174.724 78.8615 174.606 78.8615 174.504V174.166L78.8762 174.152Z" fill="#E7E7F0"/>
<path d="M125.47 136.152L125.25 136.181L122.273 134.465C121.98 134.289 121.496 134.289 121.188 134.465L115.6 137.721L115.277 137.765V138.073V138.088C115.277 138.191 115.365 138.308 115.497 138.381L118.475 140.097C118.768 140.273 119.252 140.273 119.545 140.097L125.236 136.797C125.382 136.709 125.456 136.592 125.456 136.475V136.137L125.47 136.152Z" fill="#E7E7F0"/>
<path d="M129.943 138.895L126.966 137.179C126.673 137.003 126.189 137.003 125.881 137.179L117.873 141.828C117.58 142.004 117.58 142.283 117.873 142.459L120.85 144.175C121.144 144.351 121.628 144.351 121.921 144.175L129.929 139.526C130.222 139.35 130.222 139.071 129.929 138.895H129.943Z" fill="#E7E7F0"/>
<path d="M132.642 146.14V145.802L132.451 145.846C132.451 145.846 132.437 145.832 132.422 145.817L131.616 145.348C131.322 145.172 130.838 145.172 130.53 145.348L127.788 146.932L127.348 147.034V147.386C127.348 147.489 127.436 147.606 127.568 147.68L128.374 148.149C128.668 148.325 129.152 148.325 129.46 148.149L132.422 146.433C132.569 146.345 132.642 146.242 132.642 146.125V146.14Z" fill="#E7E7F0"/>
<path d="M134.813 147.386V147.064L134.622 147.108C134.622 147.108 134.608 147.093 134.593 147.078L133.786 146.609C133.493 146.433 133.009 146.433 132.701 146.609L129.959 148.193L129.519 148.296V148.648C129.519 148.75 129.606 148.868 129.738 148.941L130.545 149.41C130.838 149.586 131.322 149.586 131.63 149.41L134.593 147.694C134.74 147.606 134.813 147.504 134.813 147.386Z" fill="#E7E7F0"/>
<path d="M83.2762 171.482L80.2991 169.766C80.0057 169.59 79.5217 169.59 79.2137 169.766L76.2512 171.482C75.9579 171.658 75.9579 171.937 76.2512 172.113L79.2284 173.829C79.5217 174.005 80.0057 174.005 80.2991 173.829L83.2615 172.113C83.5549 171.937 83.5549 171.658 83.2615 171.482H83.2762Z" fill="#E7E7F0"/>
<path d="M55.8655 166.085V165.733L55.6456 165.791L54.8389 165.322C54.5456 165.146 54.0616 165.146 53.7536 165.322L50.3511 167.302L49.8672 167.434V167.8C49.8819 167.903 49.9551 168.006 50.0871 168.079L50.8937 168.548C51.1871 168.724 51.6711 168.724 51.9791 168.548L55.6602 166.407C55.8215 166.319 55.8802 166.202 55.8802 166.085H55.8655Z" fill="#E7E7F0"/>
<path d="M59.5897 168.564L56.6125 166.848C56.3192 166.672 55.8352 166.672 55.5419 166.848L52.5794 168.564C52.286 168.74 52.286 169.018 52.5794 169.194L55.5566 170.91C55.8499 171.086 56.3339 171.086 56.6419 170.91L59.6043 169.194C59.8977 169.018 59.8977 168.74 59.6043 168.564H59.5897Z" fill="#F4F5FA"/>
<path d="M64.2245 165.865L61.2473 164.149C60.954 163.973 60.47 163.973 60.1767 164.149L57.2141 165.865C56.9208 166.041 56.9208 166.32 57.2141 166.496L60.1914 168.212C60.4847 168.388 60.9687 168.388 61.2766 168.212L64.2392 166.496C64.5325 166.32 64.5325 166.041 64.2392 165.865H64.2245Z" fill="#F4F5FA"/>
<path d="M68.8592 163.181L65.882 161.465C65.5887 161.289 65.1048 161.289 64.8115 161.465L61.8489 163.181C61.5556 163.357 61.5556 163.636 61.8489 163.812L64.826 165.528C65.1194 165.704 65.6034 165.704 65.9114 165.528L68.8739 163.812C69.1672 163.636 69.1672 163.357 68.8739 163.181H68.8592Z" fill="#F4F5FA"/>
<path d="M73.494 160.483L70.5168 158.767C70.2234 158.591 69.7395 158.591 69.4315 158.767L66.469 160.483C66.1757 160.659 66.1757 160.937 66.469 161.113L69.4462 162.829C69.7395 163.005 70.2234 163.005 70.5314 162.829L73.494 161.113C73.7873 160.937 73.7873 160.659 73.494 160.483Z" fill="#F4F5FA"/>
<path d="M78.1278 157.799L75.1506 156.083C74.8573 155.907 74.3733 155.907 74.0654 156.083L71.1028 157.799C70.8095 157.975 70.8095 158.253 71.1028 158.429L74.08 160.145C74.3733 160.321 74.8573 160.321 75.1653 160.145L78.1278 158.429C78.4211 158.253 78.4211 157.975 78.1278 157.799Z" fill="#F4F5FA"/>
<path d="M82.7626 155.1L79.7854 153.384C79.4921 153.208 79.0081 153.208 78.7001 153.384L75.7376 155.1C75.4442 155.276 75.4442 155.555 75.7376 155.731L78.7148 157.447C79.0081 157.623 79.4921 157.623 79.8001 157.447L82.7626 155.731C83.056 155.555 83.056 155.276 82.7626 155.1Z" fill="#F4F5FA"/>
<path d="M87.3963 152.402L84.4192 150.686C84.1259 150.51 83.6419 150.51 83.3339 150.686L80.3714 152.402C80.078 152.578 80.078 152.857 80.3714 153.033L83.3485 154.749C83.6418 154.925 84.1259 154.925 84.4339 154.749L87.3963 153.033C87.6897 152.857 87.6897 152.578 87.3963 152.402Z" fill="#F4F5FA"/>
<path d="M92.0312 149.718L89.0539 148.002C88.7606 147.826 88.2766 147.826 87.9833 148.002L85.0208 149.718C84.7275 149.894 84.7275 150.173 85.0208 150.349L87.998 152.065C88.2913 152.241 88.7753 152.241 89.0833 152.065L92.0457 150.349C92.3391 150.173 92.3391 149.894 92.0457 149.718H92.0312Z" fill="#F4F5FA"/>
<path d="M96.6658 147.02L93.6887 145.304C93.3954 145.128 92.9113 145.128 92.618 145.304L89.6555 147.02C89.3622 147.196 89.3622 147.474 89.6555 147.65L92.6327 149.366C92.926 149.542 93.41 149.542 93.718 149.366L96.6805 147.65C96.9738 147.474 96.9738 147.196 96.6805 147.02H96.6658Z" fill="#F4F5FA"/>
<path d="M101.3 144.321L98.3225 142.605C98.0292 142.429 97.5452 142.429 97.2519 142.605L94.2893 144.321C93.996 144.497 93.996 144.775 94.2893 144.951L97.2666 146.667C97.5599 146.843 98.0438 146.843 98.3518 146.667L101.314 144.951C101.608 144.775 101.608 144.497 101.314 144.321H101.3Z" fill="#F4F5FA"/>
<path d="M105.934 141.636L102.957 139.921C102.664 139.745 102.18 139.745 101.887 139.921L98.9241 141.636C98.6308 141.812 98.6308 142.091 98.9241 142.267L101.901 143.983C102.195 144.159 102.679 144.159 102.987 143.983L105.949 142.267C106.242 142.091 106.242 141.812 105.949 141.636H105.934Z" fill="#F4F5FA"/>
<path d="M76.1483 164.355L73.1711 162.639C72.8778 162.463 72.3938 162.463 72.1005 162.639L69.138 164.355C68.8446 164.531 68.8446 164.809 69.138 164.985L72.1152 166.701C72.4085 166.877 72.8925 166.877 73.2005 166.701L76.163 164.985C76.4563 164.809 76.4563 164.531 76.163 164.355H76.1483Z" fill="#F4F5FA"/>
<path d="M80.783 161.657L77.8059 159.941C77.5126 159.765 77.0286 159.765 76.7353 159.941L73.7727 161.657C73.4794 161.832 73.4794 162.111 73.7727 162.287L76.7499 164.003C77.0432 164.179 77.5272 164.179 77.8352 164.003L80.7977 162.287C81.091 162.111 81.091 161.832 80.7977 161.657H80.783Z" fill="#F4F5FA"/>
<path d="M85.4169 158.957L82.4397 157.241C82.1464 157.065 81.6624 157.065 81.3544 157.241L78.3919 158.957C78.0985 159.133 78.0985 159.412 78.3919 159.588L81.3691 161.304C81.6624 161.48 82.1464 161.48 82.4544 161.304L85.4169 159.588C85.7102 159.412 85.7102 159.133 85.4169 158.957Z" fill="#F4F5FA"/>
<path d="M90.0516 156.273L87.0745 154.557C86.7811 154.381 86.2972 154.381 85.9892 154.557L83.0266 156.273C82.7333 156.449 82.7333 156.728 83.0266 156.904L86.0038 158.62C86.2971 158.796 86.7812 158.796 87.0891 158.62L90.0516 156.904C90.3449 156.728 90.3449 156.449 90.0516 156.273Z" fill="#F4F5FA"/>
<path d="M94.6855 153.575L91.7082 151.859C91.4149 151.683 90.931 151.683 90.623 151.859L87.6604 153.575C87.3671 153.751 87.3671 154.03 87.6604 154.206L90.6377 155.922C90.931 156.098 91.4149 156.098 91.7229 155.922L94.6855 154.206C94.9788 154.03 94.9788 153.751 94.6855 153.575Z" fill="#F4F5FA"/>
<path d="M99.3202 150.877L96.343 149.161C96.0497 148.985 95.5656 148.985 95.2577 149.161L92.2952 150.877C92.0019 151.053 92.0019 151.331 92.2952 151.507L95.2723 153.223C95.5657 153.399 96.0496 153.399 96.3576 153.223L99.3202 151.507C99.6135 151.331 99.6135 151.053 99.3202 150.877Z" fill="#F4F5FA"/>
<path d="M103.94 148.193L100.963 146.477C100.67 146.301 100.186 146.301 99.8925 146.477L96.93 148.193C96.6366 148.369 96.6366 148.647 96.93 148.823L99.9072 150.539C100.201 150.715 100.684 150.715 100.992 150.539L103.955 148.823C104.248 148.647 104.248 148.369 103.955 148.193H103.94Z" fill="#F4F5FA"/>
<path d="M108.574 145.494L105.597 143.778C105.304 143.602 104.82 143.602 104.526 143.778L101.564 145.494C101.27 145.67 101.27 145.949 101.564 146.125L104.541 147.841C104.834 148.017 105.318 148.017 105.626 147.841L108.589 146.125C108.882 145.949 108.882 145.67 108.589 145.494H108.574Z" fill="#F4F5FA"/>
<path d="M113.209 142.81L110.232 141.094C109.938 140.918 109.454 140.918 109.161 141.094L106.199 142.81C105.905 142.986 105.905 143.265 106.199 143.441L109.176 145.157C109.469 145.333 109.953 145.333 110.261 145.157L113.223 143.441C113.517 143.265 113.517 142.986 113.223 142.81H113.209Z" fill="#F4F5FA"/>
<path d="M117.844 140.112L114.866 138.396C114.573 138.22 114.089 138.22 113.796 138.396L110.833 140.112C110.54 140.288 110.54 140.567 110.833 140.743L113.81 142.459C114.104 142.635 114.588 142.635 114.896 142.459L117.858 140.743C118.152 140.567 118.152 140.288 117.858 140.112H117.844Z" fill="#F4F5FA"/>
<path d="M110.569 138.938L107.592 137.222C107.299 137.046 106.815 137.046 106.521 137.222L103.559 138.938C103.266 139.114 103.266 139.393 103.559 139.569L106.536 141.285C106.829 141.461 107.313 141.461 107.621 141.285L110.584 139.569C110.877 139.393 110.877 139.114 110.584 138.938H110.569Z" fill="#F4F5FA"/>
<path d="M115.203 136.254L112.226 134.538C111.932 134.362 111.449 134.362 111.155 134.538L108.193 136.254C107.899 136.43 107.899 136.709 108.193 136.885L111.17 138.601C111.463 138.777 111.947 138.777 112.255 138.601L115.218 136.885C115.511 136.709 115.511 136.43 115.218 136.254H115.203Z" fill="#F4F5FA"/>
<path d="M78.3769 179.402L75.3996 177.686C75.1063 177.51 74.6224 177.51 74.329 177.686L71.3665 179.402C71.0732 179.578 71.0732 179.856 71.3665 180.032L74.3437 181.748C74.637 181.924 75.121 181.924 75.429 181.748L78.3914 180.032C78.6848 179.856 78.6848 179.578 78.3914 179.402H78.3769Z" fill="#F4F5FA"/>
<path d="M83.0115 176.719L80.0344 175.003C79.7411 174.827 79.257 174.827 78.9637 175.003L76.0012 176.719C75.7079 176.895 75.7079 177.173 76.0012 177.349L78.9784 179.065C79.2717 179.241 79.7557 179.241 80.0637 179.065L83.0262 177.349C83.3195 177.173 83.3195 176.895 83.0262 176.719H83.0115Z" fill="#F4F5FA"/>
<path d="M87.6463 174.019L84.6692 172.303C84.3758 172.127 83.8919 172.127 83.5986 172.303L80.636 174.019C80.3427 174.195 80.3427 174.474 80.636 174.65L83.6132 176.366C83.9065 176.542 84.3905 176.542 84.6985 176.366L87.661 174.65C87.9543 174.474 87.9543 174.195 87.661 174.019H87.6463Z" fill="#F4F5FA"/>
<path d="M92.2811 171.335L89.3039 169.619C89.0105 169.443 88.5266 169.443 88.2186 169.619L85.2561 171.335C84.9628 171.511 84.9628 171.79 85.2561 171.966L88.2333 173.682C88.5266 173.858 89.0106 173.858 89.3185 173.682L92.2811 171.966C92.5744 171.79 92.5744 171.511 92.2811 171.335Z" fill="#F4F5FA"/>
<path d="M71.5135 167.038L68.5363 165.322C68.243 165.146 67.7591 165.146 67.4658 165.322L64.5032 167.038C64.2099 167.214 64.2099 167.493 64.5032 167.669L67.4803 169.385C67.7737 169.561 68.2577 169.561 68.5657 169.385L71.5282 167.669C71.8215 167.493 71.8215 167.214 71.5282 167.038H71.5135Z" fill="#F4F5FA"/>
<path d="M120.556 133.131L117.579 131.415C117.286 131.239 116.802 131.239 116.494 131.415L112.827 133.556C112.534 133.732 112.534 134.011 112.827 134.187L115.805 135.902C116.098 136.078 116.582 136.078 116.89 135.902L120.556 133.776C120.85 133.6 120.85 133.321 120.556 133.145V133.131Z" fill="#F4F5FA"/>
<path d="M120.688 154.822L117.711 153.106C117.418 152.93 116.934 152.93 116.626 153.106L89.8899 168.637C89.5966 168.813 89.5966 169.092 89.8899 169.268L92.8672 170.983C93.1605 171.159 93.6444 171.159 93.9524 170.983L120.688 155.452C120.982 155.276 120.982 154.998 120.688 154.822Z" fill="#F4F5FA"/>
<path d="M60.2785 162.756L59.4719 162.286C59.1786 162.11 58.6946 162.11 58.3866 162.286L55.4241 164.002C55.1308 164.178 55.1308 164.457 55.4241 164.633L56.2307 165.102C56.524 165.278 57.008 165.278 57.316 165.102L60.2785 163.386C60.5718 163.21 60.5718 162.932 60.2785 162.756Z" fill="#F4F5FA"/>
<path d="M64.9133 160.073L64.1067 159.603C63.8134 159.427 63.3294 159.427 63.0214 159.603L60.0589 161.319C59.7655 161.495 59.7655 161.774 60.0589 161.95L60.8656 162.419C61.1589 162.595 61.6428 162.595 61.9508 162.419L64.9133 160.703C65.2066 160.527 65.2066 160.248 64.9133 160.073Z" fill="#F4F5FA"/>
<path d="M69.5481 157.373L68.7414 156.904C68.4481 156.728 67.9642 156.728 67.6562 156.904L64.6936 158.62C64.4003 158.796 64.4003 159.075 64.6936 159.251L65.5002 159.72C65.7936 159.896 66.2775 159.896 66.5855 159.72L69.5481 158.004C69.8414 157.828 69.8414 157.549 69.5481 157.373Z" fill="#F4F5FA"/>
<path d="M74.1828 154.689L73.3762 154.22C73.0829 154.044 72.5989 154.044 72.2909 154.22L69.3284 155.936C69.0351 156.112 69.0351 156.39 69.3284 156.566L70.1351 157.036C70.4284 157.212 70.9124 157.212 71.2204 157.036L74.1828 155.32C74.4761 155.144 74.4761 154.865 74.1828 154.689Z" fill="#F4F5FA"/>
<path d="M78.8176 151.991L78.011 151.522C77.7177 151.346 77.2336 151.346 76.9256 151.522L73.9632 153.238C73.6698 153.414 73.6698 153.692 73.9632 153.868L74.7698 154.338C75.0631 154.514 75.547 154.514 75.855 154.338L78.8176 152.622C79.1109 152.446 79.1109 152.167 78.8176 151.991Z" fill="#F4F5FA"/>
<path d="M83.4524 149.293L82.6457 148.823C82.3524 148.647 81.8685 148.647 81.5605 148.823L78.5979 150.539C78.3046 150.715 78.3046 150.994 78.5979 151.17L79.4045 151.639C79.6979 151.815 80.1819 151.815 80.4899 151.639L83.4524 149.923C83.7457 149.747 83.7457 149.469 83.4524 149.293Z" fill="#F4F5FA"/>
<path d="M88.0861 146.609L87.2794 146.139C86.9861 145.963 86.5022 145.963 86.1942 146.139L83.2317 147.855C82.9384 148.031 82.9384 148.31 83.2317 148.486L84.0383 148.955C84.3316 149.131 84.8156 149.131 85.1236 148.955L88.0861 147.239C88.3795 147.063 88.3795 146.785 88.0861 146.609Z" fill="#F4F5FA"/>
<path d="M92.7199 143.91L91.9133 143.441C91.62 143.265 91.136 143.265 90.8281 143.441L87.8655 145.157C87.5722 145.333 87.5722 145.612 87.8655 145.788L88.6721 146.257C88.9654 146.433 89.4494 146.433 89.7574 146.257L92.7199 144.541C93.0133 144.365 93.0133 144.086 92.7199 143.91Z" fill="#F4F5FA"/>
<path d="M97.3547 141.211L96.548 140.742C96.2547 140.566 95.7707 140.566 95.4627 140.742L92.5003 142.458C92.2069 142.634 92.2069 142.912 92.5003 143.088L93.3069 143.558C93.6002 143.734 94.0842 143.734 94.3921 143.558L97.3547 141.842C97.648 141.666 97.648 141.387 97.3547 141.211Z" fill="#F4F5FA"/>
<path d="M101.989 138.528L101.183 138.058C100.89 137.882 100.406 137.882 100.098 138.058L97.135 139.774C96.8417 139.95 96.8417 140.229 97.135 140.405L97.9416 140.874C98.235 141.05 98.7189 141.05 99.0269 140.874L101.989 139.158C102.283 138.982 102.283 138.704 101.989 138.528Z" fill="#F4F5FA"/>
<path d="M106.624 135.829L105.818 135.36C105.524 135.184 105.04 135.184 104.732 135.36L101.77 137.076C101.476 137.252 101.476 137.531 101.77 137.707L102.576 138.176C102.87 138.352 103.354 138.352 103.662 138.176L106.624 136.46C106.918 136.284 106.918 136.005 106.624 135.829Z" fill="#F4F5FA"/>
<path d="M111.259 133.131L110.452 132.661C110.159 132.485 109.675 132.485 109.367 132.661L106.405 134.377C106.111 134.553 106.111 134.832 106.405 135.008L107.211 135.477C107.504 135.653 107.988 135.653 108.296 135.477L111.259 133.761C111.552 133.585 111.552 133.307 111.259 133.131Z" fill="#F4F5FA"/>
<path d="M115.893 130.447L115.086 129.978C114.793 129.802 114.309 129.802 114.001 129.978L111.038 131.694C110.745 131.87 110.745 132.148 111.038 132.324L111.845 132.794C112.138 132.97 112.622 132.97 112.93 132.794L115.893 131.078C116.186 130.902 116.186 130.623 115.893 130.447Z" fill="#F4F5FA"/>
<path d="M55.6447 165.455L54.838 164.986C54.5447 164.81 54.0607 164.81 53.7527 164.986L50.0716 167.127C49.7782 167.303 49.7782 167.581 50.0716 167.757L50.8783 168.227C51.1716 168.403 51.6555 168.403 51.9635 168.227L55.6447 166.085C55.938 165.909 55.938 165.631 55.6447 165.455Z" fill="#F4F5FA"/>
<path d="M66.9083 169.752L63.931 168.036C63.6377 167.86 63.1537 167.86 62.8604 168.036L57.2874 171.277C56.9941 171.453 56.9941 171.732 57.2874 171.908L60.2645 173.624C60.5578 173.8 61.0419 173.8 61.3352 173.624L66.9083 170.382C67.2016 170.206 67.2016 169.928 66.9083 169.752Z" fill="#F4F5FA"/>
<path d="M73.9188 171.116L70.9417 169.4C70.6483 169.224 70.1644 169.224 69.8564 169.4L61.9661 173.99C61.6728 174.166 61.6728 174.445 61.9661 174.621L64.9432 176.337C65.2366 176.513 65.7205 176.513 66.0138 176.337L73.9041 171.746C74.1974 171.57 74.1974 171.291 73.9041 171.116H73.9188Z" fill="#F4F5FA"/>
<path d="M78.6405 173.844L75.6633 172.128C75.37 171.952 74.886 171.952 74.5927 172.128L66.7024 176.719C66.4091 176.895 66.4091 177.173 66.7024 177.349L69.6796 179.065C69.9729 179.241 70.4569 179.241 70.7502 179.065L78.6405 174.475C78.9339 174.299 78.9339 174.02 78.6405 173.844Z" fill="#F4F5FA"/>
<path d="M125.249 135.844L122.272 134.128C121.979 133.952 121.495 133.952 121.187 134.128L115.496 137.428C115.203 137.604 115.203 137.883 115.496 138.059L118.474 139.774C118.767 139.95 119.251 139.95 119.544 139.774L125.235 136.475C125.528 136.299 125.528 136.02 125.235 135.844H125.249Z" fill="#F4F5FA"/>
<path d="M129.942 138.557L126.965 136.841C126.672 136.665 126.188 136.665 125.88 136.841L117.872 141.491C117.579 141.667 117.579 141.945 117.872 142.121L120.849 143.837C121.143 144.013 121.627 144.013 121.92 143.837L129.928 139.188C130.221 139.012 130.221 138.733 129.928 138.557H129.942Z" fill="#F4F5FA"/>
<path d="M132.406 145.479L131.6 145.01C131.306 144.834 130.823 144.834 130.529 145.01L127.567 146.726C127.273 146.902 127.273 147.18 127.567 147.356L128.373 147.826C128.667 148.002 129.151 148.002 129.444 147.826L132.406 146.11C132.7 145.934 132.7 145.655 132.406 145.479Z" fill="#F4F5FA"/>
<path d="M134.592 146.74L133.785 146.271C133.492 146.095 133.008 146.095 132.7 146.271L129.738 147.987C129.444 148.163 129.444 148.442 129.738 148.618L130.544 149.087C130.837 149.263 131.322 149.263 131.63 149.087L134.592 147.371C134.885 147.195 134.885 146.916 134.592 146.74Z" fill="#F4F5FA"/>
<path d="M115.629 146.887L112.652 145.172C112.358 144.996 111.874 144.996 111.566 145.172L108.604 146.887C108.31 147.063 108.31 147.342 108.604 147.518L111.581 149.234C111.874 149.41 112.358 149.41 112.652 149.234L115.614 147.518C115.907 147.342 115.907 147.063 115.614 146.887H115.629Z" fill="#F4F5FA"/>
<path d="M120.264 144.189L117.286 142.473C116.993 142.297 116.509 142.297 116.201 142.473L113.239 144.189C112.945 144.365 112.945 144.643 113.239 144.819L116.216 146.535C116.509 146.711 116.993 146.711 117.286 146.535L120.249 144.819C120.542 144.643 120.542 144.365 120.249 144.189H120.264Z" fill="#F4F5FA"/>
<path d="M120.351 149.615L117.374 147.9C117.081 147.724 116.597 147.724 116.304 147.9L113.341 149.615C113.048 149.791 113.048 150.07 113.341 150.246L116.318 151.962C116.612 152.138 117.096 152.138 117.389 151.962L120.351 150.246C120.645 150.07 120.645 149.791 120.351 149.615Z" fill="#F4F5FA"/>
<path d="M124.985 146.917L122.008 145.201C121.715 145.025 121.231 145.025 120.937 145.201L117.975 146.917C117.682 147.093 117.682 147.371 117.975 147.547L120.952 149.263C121.245 149.439 121.729 149.439 122.023 149.263L124.985 147.547C125.278 147.371 125.278 147.093 124.985 146.917Z" fill="#F4F5FA"/>
<path d="M129.62 144.218L126.643 142.502C126.349 142.326 125.866 142.326 125.572 142.502L122.61 144.218C122.316 144.394 122.316 144.673 122.61 144.849L125.587 146.565C125.88 146.741 126.364 146.741 126.657 146.565L129.62 144.849C129.913 144.673 129.913 144.394 129.62 144.218Z" fill="#F4F5FA"/>
<path d="M134.664 141.285L131.687 139.569C131.394 139.393 130.91 139.393 130.602 139.569L127.229 141.534C126.935 141.71 126.935 141.989 127.229 142.165L130.206 143.881C130.499 144.057 130.983 144.057 131.277 143.881L134.65 141.916C134.943 141.74 134.943 141.461 134.65 141.285H134.664Z" fill="#F4F5FA"/>
<path d="M106.359 152.269L103.382 150.553C103.089 150.377 102.605 150.377 102.297 150.553L99.3342 152.269C99.0409 152.445 99.0409 152.724 99.3342 152.9L102.311 154.616C102.605 154.792 103.089 154.792 103.382 154.616L106.345 152.9C106.638 152.724 106.638 152.445 106.345 152.269H106.359Z" fill="#F4F5FA"/>
<path d="M110.994 149.571L108.017 147.855C107.724 147.679 107.24 147.679 106.932 147.855L103.969 149.571C103.676 149.747 103.676 150.026 103.969 150.202L106.946 151.918C107.24 152.094 107.724 152.094 108.017 151.918L110.979 150.202C111.273 150.026 111.273 149.747 110.979 149.571H110.994Z" fill="#F4F5FA"/>
<path d="M111.082 154.998L108.105 153.282C107.811 153.106 107.327 153.106 107.034 153.282L104.072 154.998C103.778 155.174 103.778 155.452 104.072 155.628L107.049 157.344C107.342 157.52 107.826 157.52 108.119 157.344L111.082 155.628C111.375 155.452 111.375 155.174 111.082 154.998Z" fill="#F4F5FA"/>
<path d="M115.717 152.299L112.739 150.583C112.446 150.407 111.962 150.407 111.669 150.583L108.706 152.299C108.413 152.475 108.413 152.753 108.706 152.929L111.683 154.645C111.977 154.821 112.461 154.821 112.754 154.645L115.717 152.929C116.01 152.753 116.01 152.475 115.717 152.299Z" fill="#F4F5FA"/>
<path d="M97.0907 157.653L94.1135 155.937C93.8202 155.761 93.3362 155.761 93.0283 155.937L90.0657 157.653C89.7724 157.829 89.7724 158.107 90.0657 158.283L93.0429 159.999C93.3363 160.175 93.8202 160.175 94.1135 159.999L97.0761 158.283C97.3694 158.107 97.3694 157.829 97.0761 157.653H97.0907Z" fill="#F4F5FA"/>
<path d="M101.725 154.953L98.7482 153.237C98.4549 153.061 97.9709 153.061 97.6629 153.237L94.7005 154.953C94.4071 155.129 94.4071 155.408 94.7005 155.584L97.6776 157.3C97.9709 157.476 98.4549 157.476 98.7482 157.3L101.711 155.584C102.004 155.408 102.004 155.129 101.711 154.953H101.725Z" fill="#F4F5FA"/>
<path d="M101.813 160.38L98.8361 158.664C98.5428 158.488 98.0588 158.488 97.7508 158.664L94.7883 160.38C94.495 160.556 94.495 160.835 94.7883 161.011L97.7655 162.727C98.0588 162.903 98.5428 162.903 98.8361 162.727L101.799 161.011C102.092 160.835 102.092 160.556 101.799 160.38H101.813Z" fill="#F4F5FA"/>
<path d="M106.447 157.696L103.47 155.98C103.177 155.804 102.693 155.804 102.385 155.98L99.4221 157.696C99.1288 157.872 99.1288 158.151 99.4221 158.327L102.399 160.043C102.693 160.219 103.177 160.219 103.47 160.043L106.433 158.327C106.726 158.151 106.726 157.872 106.433 157.696H106.447Z" fill="#F4F5FA"/>
<path d="M87.8222 163.035L84.845 161.319C84.5516 161.143 84.0677 161.143 83.7597 161.319L80.7971 163.035C80.5038 163.211 80.5038 163.49 80.7971 163.666L83.7744 165.381C84.0677 165.557 84.5516 165.557 84.845 165.381L87.8075 163.666C88.1008 163.49 88.1008 163.211 87.8075 163.035H87.8222Z" fill="#F4F5FA"/>
<path d="M92.4559 160.351L89.4787 158.635C89.1853 158.459 88.7014 158.459 88.3934 158.635L85.4309 160.351C85.1376 160.527 85.1376 160.805 85.4309 160.981L88.4081 162.697C88.7014 162.873 89.1853 162.873 89.4787 162.697L92.4412 160.981C92.7345 160.805 92.7345 160.527 92.4412 160.351H92.4559Z" fill="#F4F5FA"/>
<path d="M92.5448 165.762L89.5676 164.047C89.2743 163.871 88.7902 163.871 88.4823 164.047L85.5198 165.762C85.2265 165.938 85.2265 166.217 85.5198 166.393L88.4969 168.109C88.7903 168.285 89.2743 168.285 89.5676 168.109L92.5301 166.393C92.8234 166.217 92.8234 165.938 92.5301 165.762H92.5448Z" fill="#F4F5FA"/>
<path d="M97.1795 163.078L94.2024 161.362C93.9091 161.186 93.4251 161.186 93.1171 161.362L90.1546 163.078C89.8612 163.254 89.8612 163.533 90.1546 163.709L93.1318 165.425C93.4251 165.601 93.9091 165.601 94.2024 165.425L97.1649 163.709C97.4583 163.533 97.4583 163.254 97.1649 163.078H97.1795Z" fill="#F4F5FA"/>
<path d="M78.5527 168.431L75.5754 166.715C75.2821 166.539 74.7982 166.539 74.4902 166.715L71.5276 168.431C71.2343 168.607 71.2343 168.886 71.5276 169.062L74.5048 170.778C74.7982 170.954 75.2821 170.954 75.5754 170.778L78.538 169.062C78.8313 168.886 78.8313 168.607 78.538 168.431H78.5527Z" fill="#F4F5FA"/>
<path d="M83.1873 165.733L80.2102 164.017C79.9169 163.841 79.4328 163.841 79.1248 164.017L76.1624 165.733C75.8691 165.909 75.8691 166.188 76.1624 166.364L79.1395 168.08C79.4328 168.256 79.9169 168.256 80.2102 168.08L83.1727 166.364C83.466 166.188 83.466 165.909 83.1727 165.733H83.1873Z" fill="#F4F5FA"/>
<path d="M83.2752 171.16L80.2981 169.444C80.0048 169.268 79.5207 169.268 79.2127 169.444L76.2503 171.16C75.9569 171.336 75.9569 171.615 76.2503 171.791L79.2274 173.506C79.5207 173.682 80.0048 173.682 80.2981 173.506L83.2606 171.791C83.5539 171.615 83.5539 171.336 83.2606 171.16H83.2752Z" fill="#F4F5FA"/>
<path d="M87.9101 168.461L84.9329 166.745C84.6395 166.569 84.1556 166.569 83.8476 166.745L80.885 168.461C80.5917 168.637 80.5917 168.915 80.885 169.091L83.8623 170.807C84.1556 170.983 84.6395 170.983 84.9329 170.807L87.8954 169.091C88.1887 168.915 88.1887 168.637 87.8954 168.461H87.9101Z" fill="#F4F5FA"/>
<path d="M125.323 152.123L122.346 150.407C122.053 150.231 121.569 150.231 121.261 150.407L118.298 152.123C118.005 152.299 118.005 152.578 118.298 152.754L121.275 154.47C121.569 154.646 122.053 154.646 122.361 154.47L125.323 152.754C125.616 152.578 125.616 152.299 125.323 152.123Z" fill="#F4F5FA"/>
<path d="M129.957 149.439L126.98 147.723C126.686 147.547 126.202 147.547 125.909 147.723L122.947 149.439C122.653 149.615 122.653 149.894 122.947 150.07L125.924 151.786C126.217 151.962 126.701 151.962 127.009 151.786L129.972 150.07C130.265 149.894 130.265 149.615 129.972 149.439H129.957Z" fill="#F4F5FA"/>
<path d="M139.329 143.983L136.352 142.267C136.058 142.091 135.575 142.091 135.267 142.267L132.304 143.983C132.011 144.159 132.011 144.438 132.304 144.614L135.281 146.33C135.575 146.506 136.058 146.506 136.366 146.33L139.329 144.614C139.622 144.438 139.622 144.159 139.329 143.983Z" fill="#F4F5FA"/>
<path d="M151.633 141.504L168.704 131.649C169.907 130.959 169.76 129.742 168.367 128.95L145.239 115.604C143.845 114.797 141.748 114.709 140.56 115.413L123.489 125.269C122.286 125.958 122.433 127.176 123.826 127.968L146.955 141.314C148.348 142.12 150.445 142.208 151.633 141.504Z" fill="#57565E"/>
<path d="M146.691 132.822C146.691 132.822 139.211 128.422 138.566 127.938C137.041 126.765 137.378 126.163 138.008 125.328C138.639 124.492 142.188 121.998 146.412 122.776C150.636 123.553 154.288 128.114 154.581 129.141C154.874 130.167 154.581 130.93 153.012 131.766C151.457 132.602 149.081 133.951 146.661 132.822H146.691Z" fill="#C5C9D8"/>
<path d="M146.72 131.913C146.72 131.913 138.903 127.322 138.229 126.794C136.63 125.577 136.982 124.932 137.642 124.067C138.302 123.201 142.012 120.591 146.441 121.397C150.871 122.204 154.684 126.985 154.992 128.056C155.3 129.126 154.992 129.933 153.364 130.798C151.736 131.678 149.257 133.071 146.735 131.898L146.72 131.913Z" fill="#E5E8F5"/>
<path d="M103.485 126.531L81.354 113.683C80.0048 112.906 65.2948 112.437 63.9455 113.214C63.4762 113.317 63.0362 113.463 62.6696 113.683L0.999121 149.16C-0.335484 149.938 -0.33547 151.199 1.0138 151.976L23.1447 164.824C23.4087 164.97 23.7314 165.088 24.054 165.146C25.0366 165.733 39.5267 165.381 40.5093 164.824L103.485 128.584C104.468 128.012 104.453 127.088 103.485 126.516V126.531Z" fill="#F5F2E8"/>
<path d="M86.1344 129.098L65.7047 117.306C63.5928 116.089 62.4488 113.684 62.8448 111.278L67.6259 78.9692L55.9518 85.7156L36.4754 126.692C35.2434 129.347 36.2553 132.515 38.7925 133.967L57.3011 144.658C61.4076 147.034 66.482 147.034 70.5885 144.658L86.1344 135.683C88.6716 134.216 88.6716 130.564 86.1344 129.098Z" fill="#C4C8D8"/>
<path d="M86.0024 133.571L70.4565 142.547C66.35 144.923 61.2756 144.923 57.1691 142.547L40.0099 132.632C38.1033 131.532 37.3553 129.171 38.2793 127.191L58.2984 85.0266L69.9872 78.2803L65.206 110.589C64.8247 112.995 65.9687 115.385 68.0806 116.602L86.0318 126.971C88.569 128.438 88.569 132.09 86.0318 133.556L86.0024 133.571Z" fill="#E7E7F0"/>
<path d="M103.689 72.1791L101.622 3.82094L103.235 1.43039L100.331 0.139782C99.7296 -0.10954 98.9376 -0.0362103 98.1017 0.447767L11.2497 50.5908C9.38715 51.6614 7.93519 54.2866 8.00852 56.4572L10.1204 126.209L10.1791 128.115C10.2378 129.846 10.9564 130.99 12.0417 131.4L14.8576 132.662L16.6321 130.036L99.1723 82.3866C101.798 80.876 103.851 77.1656 103.763 74.1004L103.704 72.1938L103.689 72.1791Z" fill="url(#paint0_linear_76_614)"/>
<path d="M10.9268 57.748L13.0974 129.406C13.1854 132.471 15.3999 133.718 18.0105 132.207L102.076 83.6775C104.701 82.1669 106.754 78.4564 106.666 75.3912L106.608 73.4847L13.0387 127.514L10.9268 57.7627V57.748Z" fill="#D3D3E3"/>
<path d="M101.02 1.7387L14.1677 51.8817C12.3051 52.9523 10.8532 55.5775 10.9265 57.7481L13.0384 127.5L106.607 73.47L104.496 3.7186C104.437 1.54804 102.868 0.653413 101.02 1.7387Z" fill="#494855"/>
<path d="M102.487 3.52783L12.8633 55.2694L14.8725 121.34L104.482 69.5981L102.487 3.52783Z" fill="#7C78F0"/>
<path d="M104.364 65.6523L14.7402 117.394L14.8722 121.339L104.481 69.5975L104.364 65.6523Z" fill="#C4C8D8"/>
<path d="M86.0023 133.571L70.4564 142.546C66.3499 144.922 61.2755 144.922 57.169 142.546L40.0098 132.632L68.0658 116.617L86.017 126.986C88.5542 128.452 88.5542 132.104 86.017 133.571H86.0023Z" fill="#EFF0F5"/>
<path d="M86.7211 28.6646L33.3516 59.4778L34.5542 98.8266L87.9091 68.0134L86.7211 28.6646Z" fill="#EFF0F5"/>
<path d="M86.7211 28.6646L33.3516 59.4778L33.5569 66.1362L86.9557 35.3082L86.7211 28.6646Z" fill="#D9DBE6"/>
<path d="M38.7198 59.1108L35.3613 61.0467L35.4346 63.5253L38.7931 61.5894L38.7198 59.1108Z" fill="#FC797E"/>
<path d="M22.3817 70.8878L19.7272 72.413C19.5365 72.5157 19.3752 72.4864 19.3166 72.3104L19.2725 72.1784C19.2138 72.0024 19.0379 71.973 18.8619 72.0757L16.4713 73.4543C16.2807 73.5716 16.1047 73.821 16.0461 74.0703L15.9434 74.5249C15.9434 74.5249 15.9287 74.6276 15.9287 74.6716V79.35C15.9287 79.5554 16.0753 79.6434 16.2513 79.5407L22.4844 75.9329C22.6604 75.8302 22.8071 75.5809 22.8071 75.3609V71.1078C22.8071 70.8291 22.6164 70.7118 22.3671 70.8584L22.3817 70.8878Z" fill="#FFE568"/>
<path d="M22.499 71.2691L16.266 74.8769C16.09 74.9796 15.9434 75.2289 15.9434 75.4489V79.3794C15.9434 79.5847 16.09 79.6727 16.266 79.57L22.499 75.9622C22.675 75.8595 22.8217 75.6102 22.8217 75.3902V71.4597C22.8217 71.2544 22.675 71.1664 22.499 71.2691Z" fill="#FFEC8B"/>
<path d="M22.3817 60.314L19.7272 61.8393C19.5365 61.942 19.3752 61.9126 19.3166 61.7366L19.2725 61.6046C19.2138 61.4286 19.0379 61.3993 18.8619 61.502L16.4713 62.8806C16.2807 62.9979 16.1047 63.2472 16.0461 63.4966L15.9434 63.9512C15.9434 63.9512 15.9287 64.0539 15.9287 64.0979V68.7763C15.9287 68.9816 16.0753 69.0696 16.2513 68.967L22.4844 65.3591C22.6604 65.2565 22.8071 65.0071 22.8071 64.7872V60.534C22.8071 60.2554 22.6164 60.138 22.3671 60.2847L22.3817 60.314Z" fill="#FFE568"/>
<path d="M22.499 60.6954L16.266 64.3032C16.09 64.4059 15.9434 64.6552 15.9434 64.8752V68.8056C15.9434 69.011 16.09 69.099 16.266 68.9963L22.499 65.3885C22.675 65.2858 22.8217 65.0365 22.8217 64.8165V60.886C22.8217 60.6807 22.675 60.5927 22.499 60.6954Z" fill="#FFEC8B"/>
<path d="M97.5302 13.192L94.8757 14.7172C94.685 14.8199 94.5237 14.7906 94.465 14.6146L94.421 14.4826C94.3624 14.3066 94.1863 14.2772 94.0103 14.3799L91.6198 15.7585C91.4291 15.8758 91.2532 16.1252 91.1945 16.3745L91.0918 16.8291C91.0918 16.8291 91.0771 16.9318 91.0771 16.9758V21.6542C91.0771 21.8596 91.2239 21.9476 91.3998 21.8449L97.6329 18.2371C97.8089 18.1344 97.9555 17.8851 97.9555 17.6651V13.412C97.9555 13.1333 97.7649 13.016 97.5155 13.1626L97.5302 13.192Z" fill="#FFE568"/>
<path d="M97.6475 13.5733L91.4144 17.1811C91.2384 17.2838 91.0918 17.5331 91.0918 17.7531V21.6836C91.0918 21.8889 91.2384 21.9769 91.4144 21.8742L97.6475 18.2664C97.8234 18.1637 97.9701 17.9144 97.9701 17.6944V13.7639C97.9701 13.5586 97.8234 13.4706 97.6475 13.5733Z" fill="#FFEC8B"/>
<g style="mix-blend-mode:screen">
<path d="M34.3643 115.195L69.8999 94.6769L79.4328 14.2046L43.8972 34.7223L34.3643 115.195Z" fill="#323333"/>
</g>
<defs>
<linearGradient id="paint0_linear_76_614" x1="16.4268" y1="133.952" x2="95.5205" y2="-3.0281" gradientUnits="userSpaceOnUse">
<stop offset="0.01" stop-color="#A0A6C0"/>
<stop offset="0.4" stop-color="#A2A8C1"/>
<stop offset="0.41" stop-color="#C4C7D9"/>
<stop offset="0.42" stop-color="#C9CCDC"/>
<stop offset="0.43" stop-color="#E7E7F0"/>
</linearGradient>
</defs>
</svg>
