<svg width="225" height="50" viewBox="0 0 225 50" fill="none" xmlns="http://www.w3.org/2000/svg">
<circle cx="35" cy="25" r="25" fill="#1A547F"/>
<path d="M59.5 21L32 43H22L50 21H59.5Z" fill="#113855"/>
<mask id="mask0_312_1349" style="mask-type:alpha" maskUnits="userSpaceOnUse" x="10" y="0" width="50" height="50">
<circle cx="35" cy="25" r="25" fill="#1A547F"/>
</mask>
<g mask="url(#mask0_312_1349)">
<path d="M75.5 21L48 43H38L66 21H75.5Z" fill="#113855"/>
</g>
<rect x="22" y="9" width="10" height="34" fill="#99D98C"/>
<rect x="38" y="9" width="10" height="34" fill="#D1E97C"/>
<path fill-rule="evenodd" clip-rule="evenodd" d="M30.5 0.606952C19.3388 3.11266 11 13.0825 11 25C11 36.9175 19.3388 46.8873 30.5 49.393C28.7303 49.7904 26.8896 50 25 50C11.1929 50 0 38.8071 0 25C0 11.1929 11.1929 0 25 0C26.8896 0 28.7303 0.209647 30.5 0.606952Z" fill="#D1E97C"/>
<path d="M68.8 20.16H74.74C76.7 20.16 77.68 20.9867 77.68 22.64V26.32C77.68 27.9733 76.7 28.8 74.74 28.8H72.3V33H68.8V20.16ZM74.18 25.86V23.1C74.18 22.8067 74.0133 22.66 73.68 22.66H72.3V26.3H73.68C74.0133 26.3 74.18 26.1533 74.18 25.86ZM85.4181 33L85.0181 31.08H81.9381L81.5181 33H78.0781L81.3781 20.16H85.6381L88.9381 33H85.4181ZM82.4781 28.6H84.4781L83.4981 23.98L82.4781 28.6ZM95.0775 20.16H98.5775V30.52C98.5775 32.1733 97.5975 33 95.6375 33H92.6775C90.7175 33 89.7375 32.1733 89.7375 30.52V20.16H93.2375V30.06C93.2375 30.3533 93.4042 30.5 93.7375 30.5H94.5775C94.9108 30.5 95.0775 30.3533 95.0775 30.06V20.16ZM105.107 30.06V28.24C105.107 27.9467 104.94 27.8 104.607 27.8H102.687C101.7 27.8 101 27.5867 100.587 27.16C100.187 26.72 99.9867 26.0933 99.9867 25.28V22.64C99.9867 20.9867 100.96 20.16 102.907 20.16H105.647C107.593 20.16 108.567 20.9867 108.567 22.64V24.18H105.067V23.1C105.067 22.8067 104.9 22.66 104.567 22.66H103.987C103.653 22.66 103.487 22.8067 103.487 23.1V25C103.487 25.2933 103.653 25.44 103.987 25.44H105.867C106.853 25.44 107.553 25.6467 107.967 26.06C108.393 26.4733 108.607 27.08 108.607 27.88V30.52C108.607 32.1733 107.633 33 105.687 33H102.967C101.007 33 100.027 32.1733 100.027 30.52V28.98H103.527V30.06C103.527 30.3533 103.693 30.5 104.027 30.5H104.607C104.94 30.5 105.107 30.3533 105.107 30.06ZM113.511 30.5H117.891V33H110.011V20.16H117.711V22.66H113.511V25.28H117.131V27.78H113.511V30.5ZM131.599 24.96H128.099V22.9C128.099 22.6067 127.933 22.46 127.599 22.46H126.899C126.566 22.46 126.399 22.6067 126.399 22.9V30.26C126.399 30.5533 126.566 30.7 126.899 30.7H127.599C127.933 30.7 128.099 30.5533 128.099 30.26V28.28H131.599V30.52C131.599 32.1733 130.619 33 128.659 33H125.839C123.879 33 122.899 32.1733 122.899 30.52V22.64C122.899 20.9867 123.879 20.16 125.839 20.16H128.659C130.619 20.16 131.599 20.9867 131.599 22.64V24.96ZM135.782 20.16H138.742C140.702 20.16 141.682 20.9867 141.682 22.64V30.52C141.682 32.1733 140.702 33 138.742 33H135.782C133.822 33 132.842 32.1733 132.842 30.52V22.64C132.842 20.9867 133.822 20.16 135.782 20.16ZM138.182 30.06V23.1C138.182 22.8067 138.015 22.66 137.682 22.66H136.842C136.508 22.66 136.342 22.8067 136.342 23.1V30.06C136.342 30.3533 136.508 30.5 136.842 30.5H137.682C138.015 30.5 138.182 30.3533 138.182 30.06ZM149.074 20.16H152.274V33H149.274L146.414 26.26V33H143.214V20.16H146.214L149.074 27.02V20.16ZM159.738 20.16H162.938V33H159.938L157.078 26.26V33H153.878V20.16H156.878L159.738 27.02V20.16ZM168.042 30.5H172.422V33H164.542V20.16H172.242V22.66H168.042V25.28H171.662V27.78H168.042V30.5ZM182.127 24.96H178.627V22.9C178.627 22.6067 178.46 22.46 178.127 22.46H177.427C177.093 22.46 176.927 22.6067 176.927 22.9V30.26C176.927 30.5533 177.093 30.7 177.427 30.7H178.127C178.46 30.7 178.627 30.5533 178.627 30.26V28.28H182.127V30.52C182.127 32.1733 181.147 33 179.187 33H176.367C174.407 33 173.427 32.1733 173.427 30.52V22.64C173.427 20.9867 174.407 20.16 176.367 20.16H179.187C181.147 20.16 182.127 20.9867 182.127 22.64V24.96ZM191.169 20.16V22.66H188.689V33H185.189V22.66H182.729V20.16H191.169Z" fill="white"/>
</svg>
