<svg width="130" height="108" viewBox="0 0 130 108" fill="none" xmlns="http://www.w3.org/2000/svg">
<path d="M1.14812 71.7817L36.6164 51.3022C37.7319 50.6632 39.5189 50.6632 40.6235 51.3022L41.0784 51.5621L41.5333 51.3022C42.4322 50.7823 43.7751 50.6957 44.8473 51.0098L67.8393 43.9919C68.9548 43.353 70.7418 43.353 71.8465 43.9919L128.249 76.7635C129.354 77.4025 129.343 78.4422 128.238 79.0812L99.2681 87.9185L66.4531 106.86C65.8791 107.196 65.1535 107.402 64.4062 107.477V107.521H58.2331V107.488C57.4209 107.423 56.6519 107.218 56.0454 106.86L1.12651 74.9441C-0.37886 74.0669 -0.378906 72.6373 1.14812 71.7601V71.7817Z" fill="#F5F2E8"/>
<path d="M39.9519 47.338L51.919 2.02521C52.1356 1.21296 52.5905 0.628138 53.1428 0.335728L53.0887 0.075818L54.02 0C54.3233 0.02166 54.6373 0.108305 54.9514 0.292415L110.109 32.1435C111.387 32.8799 112.069 34.7968 111.647 36.4322L99.6794 81.7449C99.4303 82.6655 98.7913 83.207 98.0765 83.1961H98.0657L97.1884 83.2719L97.2534 83.0229L41.1215 50.6195C40.1468 50.0563 39.627 48.6051 39.9519 47.3596V47.338Z" fill="url(#paint0_linear_76_839)"/>
<path d="M54.1282 0.357268L109.285 32.2083C110.563 32.9448 111.246 34.8617 110.823 36.497L98.8562 81.8098C98.5313 83.0444 97.4807 83.5967 96.506 83.0336L40.2333 50.5435C39.2586 49.9804 38.7387 48.5292 39.0636 47.2837L51.0308 1.97095C51.464 0.346444 52.8503 -0.379172 54.1174 0.357268H54.1282Z" fill="#494855"/>
<path d="M52.623 1.58105L109.827 34.6126L98.1415 78.8748L40.9266 45.8433L52.623 1.58105Z" fill="#7C78F0"/>
<path d="M98.1527 45.7027L100.113 46.829C100.254 46.9048 100.405 46.8831 100.481 46.7532L100.535 46.6665C100.611 46.5474 100.763 46.5149 100.904 46.5907L102.669 47.6087C102.81 47.6954 102.918 47.8795 102.918 48.0528V48.3885C102.918 48.3885 102.918 48.4643 102.918 48.4968L102.106 51.8866C102.073 52.0382 101.932 52.0924 101.802 52.0166L97.1997 49.3524C97.0697 49.2766 96.9831 49.0925 97.0264 48.9408L97.7629 45.8651C97.8062 45.6593 98.0011 45.5835 98.1744 45.6918L98.1527 45.7027Z" fill="#FFE568"/>
<path d="M97.991 45.9842L102.594 48.6484C102.724 48.7242 102.81 48.9083 102.767 49.0599L102.085 51.8974C102.052 52.049 101.912 52.1032 101.782 52.0274L97.1788 49.3632C97.0488 49.2874 96.9622 49.1032 97.0055 48.9516L97.6878 46.1142C97.7203 45.9626 97.8611 45.9084 97.991 45.9842Z" fill="#FFEC8B"/>
<path d="M100.546 37.7969L102.507 38.9232C102.647 38.999 102.799 38.9774 102.875 38.8474L102.929 38.7608C103.005 38.6417 103.156 38.6092 103.297 38.685L105.062 39.703C105.203 39.7896 105.312 39.9737 105.312 40.147V40.4827C105.312 40.4827 105.312 40.5585 105.312 40.591L104.499 43.9808C104.467 44.1325 104.326 44.1866 104.196 44.1108L99.5933 41.4466C99.4634 41.3708 99.3767 41.1867 99.42 41.0351L100.156 37.9594C100.2 37.7536 100.395 37.6778 100.568 37.7861L100.546 37.7969Z" fill="#FFE568"/>
<path d="M100.385 38.0785L104.987 40.7426C105.117 40.8184 105.204 41.0026 105.161 41.1542L104.478 43.9916C104.446 44.1433 104.305 44.1974 104.175 44.1216L99.5723 41.4574C99.4423 41.3816 99.3557 41.1975 99.399 41.0459L100.081 38.2084C100.114 38.0568 100.255 38.0026 100.385 38.0785Z" fill="#FFEC8B"/>
<path d="M53.8354 9.10793L55.7957 10.2342C55.9364 10.3101 56.088 10.2884 56.1638 10.1584L56.218 10.0718C56.2938 9.95267 56.4454 9.92018 56.5862 9.99599L58.3515 11.014C58.4923 11.1006 58.6006 11.2848 58.6006 11.458V11.7938C58.6006 11.7938 58.6006 11.8696 58.6006 11.9021L57.7883 15.2919C57.7558 15.4435 57.6151 15.4976 57.4851 15.4218L52.8824 12.7576C52.7524 12.6818 52.6658 12.4977 52.7091 12.3461L53.4456 9.27038C53.4889 9.06461 53.6838 8.98881 53.8571 9.09711L53.8354 9.10793Z" fill="#FFE568"/>
<path d="M53.6736 9.37875L58.2764 12.0429C58.4063 12.1187 58.493 12.3028 58.4497 12.4545L57.7674 15.2919C57.7349 15.4435 57.5941 15.4977 57.4641 15.4219L52.8613 12.7577C52.7314 12.6819 52.6448 12.4978 52.6881 12.3462L53.3704 9.5087C53.4029 9.35708 53.5436 9.30294 53.6736 9.37875Z" fill="#FFEC8B"/>
<path d="M41.4354 43.9155L98.6504 76.9471L98.1413 78.8748L40.9264 45.8433L41.4354 43.9155Z" fill="#C4C8D8"/>
<path d="M52.9254 45.7564L87.4407 65.6944L94.8376 37.7097L95.9531 33.4643L61.4379 13.5371L60.3224 17.7825L52.9254 45.7564Z" fill="#EFF0F5"/>
<path d="M60.3224 17.7825L94.8376 37.7097L95.9531 33.4643L61.4379 13.5371L60.3224 17.7825Z" fill="#C4C8D8"/>
<path d="M94.0148 36.107L91.7405 34.7965L92.2062 33.0312L94.4805 34.3417L94.0148 36.107Z" fill="#FC797E"/>
<g style="mix-blend-mode:screen">
<path d="M64.893 6.58447V61.5251L88.8164 75.3334V20.3927L64.893 6.58447Z" fill="#323333"/>
</g>
<path d="M0.422516 72.7668V70.6441L2.1553 70.8499L36.4431 51.0526C37.537 50.4245 39.3023 50.4245 40.3853 51.0526L93.0516 81.6583L96.658 82.0915V84.3658C96.6796 84.799 96.4089 85.2322 95.8349 85.5679L60.9515 105.712C59.4569 106.578 57.0418 106.578 55.5473 105.712L1.5272 74.3263C0.812424 73.904 0.444176 73.3625 0.422516 72.8101V72.7668Z" fill="url(#paint1_linear_76_839)"/>
<path d="M1.54846 69.0954L36.4319 48.9516C37.5258 48.3234 39.2911 48.3234 40.3741 48.9516L95.8454 81.1817C96.9284 81.8098 96.9283 82.8387 95.8345 83.4668L60.9511 103.611C59.4566 104.477 57.0415 104.477 55.5469 103.611L1.52684 72.2253C0.043129 71.3589 0.0539169 69.9618 1.54846 69.0954Z" fill="#EFF0F5"/>
<path d="M16.0071 62.2404L36.5841 50.3599C37.3097 49.9484 38.4685 49.9484 39.1941 50.3599L93.42 81.8753C94.1347 82.2976 94.1347 82.9691 93.42 83.3806L72.8429 95.2612C72.1173 95.6727 70.9586 95.6727 70.2329 95.2612L16.0071 63.7458C15.2923 63.3343 15.2923 62.652 16.0071 62.2404Z" fill="#E1E3EB"/>
<path d="M18.6278 79.3733L28.8622 73.4601C29.4578 73.1136 30.4325 73.1136 31.0282 73.4601L53.5113 86.5211C54.1069 86.8677 54.1069 87.4308 53.5113 87.7774L43.2769 93.6906C42.6812 94.0371 41.7065 94.0371 41.1109 93.6906L18.6278 80.6296C18.0321 80.283 18.0321 79.7199 18.6278 79.3733Z" fill="#D9DBE6"/>
<path d="M53.511 86.8352L31.0279 73.7742C30.4323 73.4276 29.4684 73.4276 28.8619 73.7742L18.6275 79.6874C18.4001 79.8173 18.2593 79.9906 18.2052 80.1639C18.1185 79.8823 18.2593 79.5899 18.6275 79.3733L28.8619 73.4601C29.4576 73.1136 30.4323 73.1136 31.0279 73.4601L53.511 86.5211C53.8792 86.7377 54.0092 87.0193 53.9333 87.3009C53.8792 87.1276 53.7385 86.9651 53.511 86.8352Z" fill="#C5C9D8"/>
<path d="M84.2038 83.8247V83.5323H84.4421L86.9113 82.1136C87.1604 81.962 87.5719 81.9728 87.821 82.1136L90.2902 83.554H90.5068V83.8356V83.8572C90.5068 83.9439 90.4419 84.0305 90.3227 84.1063L87.8102 85.5575C87.5611 85.7092 87.1495 85.7092 86.9004 85.5575L84.3987 84.1063C84.2687 84.0305 84.2146 83.933 84.2146 83.8464L84.2038 83.8247Z" fill="#393842"/>
<path d="M68.3161 92.9974V92.705H68.5543L71.0236 91.2863C71.2727 91.1455 71.6842 91.1455 71.9333 91.2863L74.4025 92.7266H74.6191V93.0082V93.0299C74.6191 93.1165 74.5542 93.2032 74.435 93.279L71.9225 94.7302C71.6734 94.8818 71.2618 94.8818 71.0127 94.7302L68.511 93.279C68.381 93.2032 68.3269 93.1057 68.3269 93.019L68.3161 92.9974Z" fill="#393842"/>
<path d="M64.3961 90.7227V90.4303H64.6344L67.1036 89.0115C67.3527 88.8599 67.7642 88.8708 68.0133 89.0115L70.4826 90.4519H70.6992V90.7335V90.7552C70.6992 90.8418 70.6342 90.9285 70.5151 91.0043L68.0026 92.4555C67.7535 92.6071 67.3419 92.6071 67.0928 92.4555L64.5911 91.0043C64.4611 90.9285 64.407 90.831 64.407 90.7444L64.3961 90.7227Z" fill="#393842"/>
<path d="M60.4752 88.438V88.1456H60.7135L63.1827 86.7269C63.4318 86.5753 63.8433 86.5861 64.0924 86.7269L66.5617 88.1673H66.7783V88.4488V88.4705C66.7783 88.5572 66.7133 88.6438 66.5942 88.7196L64.0817 90.1708C63.8326 90.3224 63.421 90.3224 63.1719 90.1708L60.6702 88.7196C60.5402 88.6438 60.4861 88.5463 60.4861 88.4597L60.4752 88.438Z" fill="#393842"/>
<path d="M56.5553 86.1636V85.8712H56.7936L59.2628 84.4525C59.5119 84.3008 59.9234 84.3117 60.1725 84.4525L62.6418 85.8929H62.8584V86.1744V86.1961C62.8584 86.2827 62.7934 86.3694 62.6742 86.4452L60.1617 87.8964C59.9126 88.048 59.5011 88.048 59.252 87.8964L56.7503 86.4452C56.6203 86.3694 56.5662 86.2719 56.5662 86.1853L56.5553 86.1636Z" fill="#393842"/>
<path d="M80.2829 81.5503V81.2579H80.5212L82.9904 79.8392C83.2395 79.6876 83.651 79.6984 83.9001 79.8392L86.3693 81.2796H86.5859V81.5612V81.5828C86.5859 81.6695 86.521 81.7561 86.4018 81.8319L83.8893 83.2831C83.6402 83.4348 83.2286 83.4348 82.9795 83.2831L80.4778 81.8319C80.3478 81.7561 80.2937 81.6586 80.2937 81.572L80.2829 81.5503Z" fill="#393842"/>
<path d="M74.1208 82.5352V82.2428H74.359L76.8283 80.824C77.0773 80.6724 77.4889 80.6833 77.738 80.824L80.2072 82.2644H80.4238V82.546V82.5677C80.4238 82.6543 80.3589 82.741 80.2397 82.8168L77.7272 84.268C77.4781 84.4196 77.0665 84.4196 76.8174 84.268L74.3157 82.8168C74.1857 82.741 74.1316 82.6435 74.1316 82.5568L74.1208 82.5352Z" fill="#393842"/>
<path d="M70.1999 80.2613V79.9688H70.4382L72.9074 78.5501C73.1564 78.3985 73.568 78.4093 73.8171 78.5501L76.2863 79.9905H76.5029V80.2721V80.2938C76.5029 80.3804 76.438 80.467 76.3188 80.5428L73.8063 81.9941C73.5572 82.1457 73.1456 82.1457 72.8965 81.9941L70.3948 80.5428C70.2648 80.467 70.2107 80.3696 70.2107 80.2829L70.1999 80.2613Z" fill="#393842"/>
<path d="M68.1647 83.7054V83.413H68.403L70.8722 81.9943C71.1213 81.8535 71.5329 81.8535 71.782 81.9943L74.2512 83.4347H74.4678V83.7162V83.7379C74.4678 83.8245 74.4028 83.9112 74.2837 83.987L71.7711 85.4382C71.522 85.5898 71.1105 85.5898 70.8614 85.4382L68.3596 83.987C68.2297 83.9112 68.1755 83.8137 68.1755 83.7271L68.1647 83.7054Z" fill="#393842"/>
<path d="M64.1686 86.012V85.7197H64.4069L66.8761 84.3009C67.1252 84.1601 67.5368 84.1601 67.7859 84.3009L70.2551 85.7413H70.4717V86.0229V86.0445C70.4717 86.1312 70.4067 86.2178 70.2876 86.2936L67.775 87.7449C67.5259 87.8965 67.1144 87.8965 66.8653 87.7449L64.3635 86.2936C64.2336 86.2178 64.1794 86.1204 64.1794 86.0337L64.1686 86.012Z" fill="#393842"/>
<path d="M60.2477 83.7376V83.4452H60.486L62.9552 82.0265C63.2043 81.8857 63.6159 81.8857 63.865 82.0265L66.3342 83.4669H66.5508V83.7485V83.7701C66.5508 83.8568 66.4858 83.9434 66.3667 84.0192L63.8541 85.4704C63.605 85.622 63.1935 85.622 62.9444 85.4704L60.4426 84.0192C60.3127 83.9434 60.2585 83.8459 60.2585 83.7593L60.2477 83.7376Z" fill="#393842"/>
<path d="M56.3278 81.4637V81.1713H56.5661L59.0353 79.7526C59.2844 79.6118 59.6959 79.6118 59.945 79.7526L62.4142 81.193H62.6309V81.4745V81.4962C62.6309 81.5828 62.5659 81.6695 62.4468 81.7453L59.9342 83.1965C59.6851 83.3481 59.2735 83.3481 59.0244 83.1965L56.5227 81.7453C56.3928 81.6695 56.3386 81.572 56.3386 81.4854L56.3278 81.4637Z" fill="#393842"/>
<path d="M52.4069 79.1781V78.8856H52.6451L55.1144 77.4669C55.3635 77.3261 55.775 77.3261 56.0241 77.4669L58.4933 78.9073H58.71V79.1889V79.2106C58.71 79.2972 58.645 79.3838 58.5259 79.4596L56.0133 80.9109C55.7642 81.0625 55.3526 81.0625 55.1035 80.9109L52.6018 79.4596C52.4719 79.3838 52.4177 79.2864 52.4177 79.1997L52.4069 79.1781Z" fill="#393842"/>
<path d="M48.486 76.9038V76.6114H48.7242L51.1935 75.1927C51.4426 75.0411 51.8541 75.0519 52.1032 75.1927L54.5724 76.6331H54.7891V76.9147V76.9363C54.7891 77.023 54.7241 77.1096 54.605 77.1854L52.0924 78.6366C51.8433 78.7774 51.4317 78.7774 51.1827 78.6366L48.6809 77.1854C48.551 77.1096 48.4968 77.0121 48.4968 76.9255L48.486 76.9038Z" fill="#393842"/>
<path d="M44.5661 74.6294V74.337H44.8043L47.2736 72.9183C47.5227 72.7667 47.9342 72.7775 48.1833 72.9183L50.6525 74.3587H50.8691V74.6403V74.6619C50.8691 74.7486 50.8041 74.8352 50.685 74.911L48.1725 76.3622C47.9234 76.503 47.5118 76.503 47.2627 76.3622L44.761 74.911C44.631 74.8352 44.5769 74.7377 44.5769 74.6511L44.5661 74.6294Z" fill="#393842"/>
<path d="M40.6452 72.3448V72.0523H40.8834L43.3527 70.6336C43.6018 70.482 44.0133 70.4928 44.2624 70.6336L46.7316 72.074H46.9482V72.3556V72.3772C46.9482 72.4639 46.8832 72.5505 46.7641 72.6263L44.2515 74.0776C44.0024 74.2292 43.5909 74.2292 43.3418 74.0776L40.8401 72.6263C40.7101 72.5505 40.656 72.4531 40.656 72.3664L40.6452 72.3448Z" fill="#393842"/>
<path d="M36.7252 70.0703V69.7779H36.9635L39.4327 68.3592C39.6818 68.2076 40.0933 68.2184 40.3424 68.3592L42.8117 69.7996H43.0283V70.0812V70.1028C43.0283 70.1895 42.9633 70.2761 42.8442 70.3519L40.3316 71.8032C40.0825 71.9548 39.671 71.9548 39.4219 71.8032L36.9202 70.3519C36.7902 70.2761 36.7361 70.1787 36.7361 70.092L36.7252 70.0703Z" fill="#393842"/>
<path d="M32.8044 67.7959V67.5035H33.0426L35.5119 66.0848C35.761 65.9332 36.1725 65.944 36.4216 66.0848L38.8909 67.5252H39.1074V67.8068V67.8284C39.1074 67.9151 39.0425 68.0017 38.9233 68.0775L36.4108 69.5287C36.1617 69.6803 35.7502 69.6803 35.5011 69.5287L32.9993 68.0775C32.8694 68.0017 32.8152 67.9042 32.8152 67.8176L32.8044 67.7959Z" fill="#393842"/>
<path d="M28.613 69.9185V69.6261H28.8512L31.3205 68.2073C31.5696 68.0557 31.9811 68.0666 32.2302 68.2073L34.6995 69.6477H34.916V69.9293V69.951C34.916 70.0376 34.8511 70.1243 34.7319 70.2001L32.2194 71.6513C31.9703 71.8029 31.5588 71.8029 31.3097 71.6513L28.8079 70.2001C28.678 70.1243 28.6238 70.0268 28.6238 69.9402L28.613 69.9185Z" fill="#393842"/>
<path d="M24.693 67.6441V67.3517H24.9313L27.4005 65.9329C27.6496 65.7813 28.0612 65.7921 28.3103 65.9329L30.7795 67.3733H30.9961V67.6549V67.6766C30.9961 67.7632 30.9311 67.8498 30.812 67.9257L28.2994 69.3769C28.0503 69.5285 27.6388 69.5285 27.3897 69.3769L24.888 67.9257C24.7581 67.8498 24.7039 67.7524 24.7039 67.6657L24.693 67.6441Z" fill="#393842"/>
<path d="M16.7545 63.0308V62.7384H16.9928L19.462 61.3197C19.7111 61.168 20.1226 61.1789 20.3717 61.3197L22.841 62.76H23.0576V63.0416V63.0633C23.0576 63.1499 22.9926 63.2366 22.8735 63.3124L20.3609 64.7636C20.1118 64.9152 19.7003 64.9152 19.4512 64.7636L16.9495 63.3124C16.8195 63.2366 16.7654 63.1391 16.7654 63.0525L16.7545 63.0308Z" fill="#393842"/>
<path d="M20.9451 60.4641L23.4143 59.0345C23.6634 58.8829 24.075 58.8937 24.3241 59.0345L24.6706 59.2403L26.7933 60.4749H27.0099V60.6049L27.1398 60.6807H27.3564V60.9623V60.9839C27.3564 61.0705 27.2915 61.1572 27.1724 61.233L24.6598 62.6842C24.4107 62.8358 23.9991 62.8358 23.75 62.6842L20.9017 61.0272C20.7718 60.9514 20.7176 60.8539 20.7176 60.7673V60.4749H20.9559L20.9451 60.4641Z" fill="#393842"/>
<path d="M28.8952 65.5108V65.2184H29.1335L31.6027 63.7996C31.8518 63.648 32.2633 63.6588 32.5124 63.7996L34.9816 65.24H35.1982V65.5216V65.5433C35.1982 65.6299 35.1333 65.7165 35.0142 65.7924L32.5016 67.2436C32.2525 67.3952 31.841 67.3952 31.5919 67.2436L29.0901 65.7924C28.9601 65.7165 28.906 65.6191 28.906 65.5324L28.8952 65.5108Z" fill="#393842"/>
<path d="M24.9743 63.2364V62.9439H25.2126L27.6818 61.5252C27.9309 61.3736 28.3424 61.3844 28.5915 61.5252L31.0607 62.9656H31.2773V63.2472V63.2689C31.2773 63.3555 31.2124 63.4421 31.0933 63.518L28.5807 64.9692C28.3316 65.1208 27.92 65.1208 27.6709 64.9692L25.1692 63.518C25.0392 63.4421 24.9851 63.3447 24.9851 63.258L24.9743 63.2364Z" fill="#393842"/>
<path d="M64.2438 81.431V81.1386H64.4821L66.9513 79.7199C67.2004 79.5791 67.612 79.5791 67.8611 79.7199L70.3303 81.1602H70.5469V81.4418V81.4635C70.5469 81.5501 70.4819 81.6368 70.3628 81.7126L67.8502 83.1638C67.6011 83.3154 67.1896 83.3154 66.9405 83.1638L64.4387 81.7126C64.3088 81.6368 64.2546 81.5393 64.2546 81.4527L64.2438 81.431Z" fill="#393842"/>
<path d="M60.3239 79.1455V78.8531H60.5622L63.0314 77.4344C63.2805 77.2828 63.692 77.2936 63.9411 77.4344L66.4103 78.8748H66.627V79.1564V79.178C66.627 79.2647 66.562 79.3513 66.4429 79.4271L63.9303 80.8784C63.6812 81.03 63.2696 81.03 63.0205 80.8784L60.5188 79.4271C60.3889 79.3513 60.3347 79.2538 60.3347 79.1672L60.3239 79.1455Z" fill="#393842"/>
<path d="M56.403 76.8711V76.5787H56.6412L59.1105 75.16C59.3596 75.0084 59.7711 75.0192 60.0202 75.16L62.4894 76.6004H62.7061V76.882V76.9036C62.7061 76.9902 62.6411 77.0769 62.522 77.1527L60.0094 78.6039C59.7603 78.7555 59.3487 78.7555 59.0996 78.6039L56.5979 77.1527C56.468 77.0769 56.4138 76.9794 56.4138 76.8928L56.403 76.8711Z" fill="#393842"/>
<path d="M52.4821 74.5972V74.3048H52.7203L55.1896 72.8861C55.4387 72.7344 55.8502 72.7453 56.0993 72.8861L58.5685 74.3265H58.7852V74.608V74.6297C58.7852 74.7163 58.7201 74.803 58.601 74.8788L56.0885 76.33C55.8394 76.4816 55.4278 76.4816 55.1787 76.33L52.677 74.8788C52.5471 74.803 52.4929 74.7055 52.4929 74.6189L52.4821 74.5972Z" fill="#393842"/>
<path d="M48.5729 72.312V72.0196H48.8111L51.2804 70.6009C51.5295 70.4493 51.941 70.4601 52.1901 70.6009L54.6594 72.0413H54.876V72.3229V72.3445C54.876 72.4312 54.8109 72.5178 54.6918 72.5936L52.1792 74.0448C51.9302 74.1965 51.5187 74.1965 51.2696 74.0448L48.7678 72.5936C48.6379 72.5178 48.5837 72.4204 48.5837 72.3337L48.5729 72.312Z" fill="#393842"/>
<path d="M44.653 70.0376V69.7452H44.8913L47.3605 68.3265C47.6096 68.1749 48.0211 68.1857 48.2702 68.3265L50.7395 69.7669H50.9561V70.0485V70.0701C50.9561 70.1568 50.8911 70.2434 50.772 70.3192L48.2594 71.7704C48.0103 71.9221 47.5988 71.9221 47.3497 71.7704L44.848 70.3192C44.718 70.2434 44.6638 70.1459 44.6638 70.0593L44.653 70.0376Z" fill="#393842"/>
<path d="M40.7321 67.7637V67.4713H40.9704L43.4396 66.0526C43.6887 65.9009 44.1002 65.9118 44.3493 66.0526L46.8186 67.493H47.0352V67.7745V67.7962C47.0352 67.8828 46.9702 67.9695 46.8511 68.0453L44.3385 69.4965C44.0894 69.6481 43.6779 69.6481 43.4288 69.4965L40.9271 68.0453C40.7971 67.9695 40.7429 67.872 40.7429 67.7854L40.7321 67.7637Z" fill="#393842"/>
<path d="M36.8112 65.4781V65.1856H37.0495L39.5187 63.7669C39.7678 63.6153 40.1793 63.6261 40.4284 63.7669L42.8976 65.2073H43.1143V65.4889V65.5106C43.1143 65.5972 43.0493 65.6838 42.9302 65.7596L40.4176 67.2109C40.1685 67.3625 39.757 67.3625 39.5079 67.2109L37.0062 65.7596C36.8762 65.6838 36.822 65.5863 36.822 65.4997L36.8112 65.4781Z" fill="#393842"/>
<path d="M32.8913 63.2041V62.9117H33.1296L35.5988 61.493C35.8479 61.3414 36.2594 61.3522 36.5085 61.493L38.9777 62.9334H39.1943V63.215V63.2366C39.1943 63.3233 39.1294 63.4099 39.0102 63.4857L36.4977 64.9369C36.2486 65.0886 35.837 65.0886 35.5879 64.9369L33.0862 63.4857C32.9562 63.4099 32.9021 63.3124 32.9021 63.2258L32.8913 63.2041Z" fill="#393842"/>
<path d="M66.2799 77.9873V77.6949H66.5182L68.9874 76.2762C69.2365 76.1246 69.6481 76.1354 69.8972 76.2762L72.3664 77.7166H72.583V77.9982V78.0198C72.583 78.1065 72.518 78.1931 72.3989 78.2689L69.8863 79.7201C69.6373 79.8718 69.2257 79.8718 68.9766 79.7201L66.4749 78.2689C66.3449 78.1931 66.2908 78.0956 66.2908 78.009L66.2799 77.9873Z" fill="#393842"/>
<path d="M62.36 75.7022V75.4098H62.5982L65.0675 73.991C65.3166 73.8394 65.7282 73.8502 65.9773 73.991L68.4465 75.4314H68.6631V75.713V75.7347C68.6631 75.8213 68.5981 75.9079 68.479 75.9838L65.9664 77.435C65.7173 77.5866 65.3058 77.5866 65.0567 77.435L62.5549 75.9838C62.425 75.9079 62.3709 75.8105 62.3709 75.7238L62.36 75.7022Z" fill="#393842"/>
<path d="M58.4391 73.4278V73.1354H58.6773L61.1466 71.7166C61.3957 71.565 61.8072 71.5758 62.0563 71.7166L64.5256 73.157H64.7422V73.4386V73.4603C64.7422 73.5469 64.6772 73.6335 64.558 73.7093L62.0455 75.1606C61.7964 75.3122 61.3849 75.3122 61.1358 75.1606L58.634 73.7093C58.5041 73.6335 58.45 73.5361 58.45 73.4494L58.4391 73.4278Z" fill="#393842"/>
<path d="M54.5299 71.1534V70.861H54.7682L57.2374 69.4422C57.4865 69.2906 57.898 69.3014 58.1471 69.4422L60.6164 70.8826H60.833V71.1642V71.1858C60.833 71.2725 60.768 71.3591 60.6489 71.4349L58.1363 72.8862C57.8872 73.0378 57.4757 73.0378 57.2266 72.8862L54.7249 71.4349C54.5949 71.3591 54.5407 71.2617 54.5407 71.175L54.5299 71.1534Z" fill="#393842"/>
<path d="M50.6091 68.8682V68.5758H50.8473L53.3166 67.1571C53.5657 67.0054 53.9772 67.0163 54.2263 67.1571L56.6956 68.5974H56.9121V68.879V68.9007C56.9121 68.9873 56.8471 69.074 56.728 69.1498L54.2154 70.601C53.9664 70.7526 53.5549 70.7526 53.3058 70.601L50.804 69.1498C50.6741 69.074 50.6199 68.9765 50.6199 68.8899L50.6091 68.8682Z" fill="#393842"/>
<path d="M46.6881 66.5938V66.3014H46.9264L49.3956 64.8826C49.6447 64.731 50.0563 64.7419 50.3054 64.8826L52.7747 66.323H52.9912V66.6046V66.6263C52.9912 66.7129 52.9262 66.7995 52.8071 66.8754L50.2945 68.3266C50.0455 68.4782 49.634 68.4782 49.3849 68.3266L46.8831 66.8754C46.7532 66.7995 46.699 66.7021 46.699 66.6154L46.6881 66.5938Z" fill="#393842"/>
<path d="M42.7682 64.3194V64.027H43.0065L45.4757 62.6082C45.7248 62.4566 46.1364 62.4674 46.3855 62.6082L48.8547 64.0486H49.0713V64.3302V64.3519C49.0713 64.4385 49.0063 64.5252 48.8872 64.601L46.3746 66.0522C46.1255 66.2038 45.714 66.2038 45.4649 66.0522L42.9632 64.601C42.8333 64.5252 42.7791 64.4277 42.7791 64.341L42.7682 64.3194Z" fill="#393842"/>
<path d="M38.8473 62.0347V61.7423H39.0856L41.5548 60.3236C41.8039 60.1719 42.2155 60.1828 42.4646 60.3236L44.9338 61.764H45.1504V62.0455V62.0672C45.1504 62.1538 45.0854 62.2405 44.9663 62.3163L42.4537 63.7675C42.2046 63.9191 41.7931 63.9191 41.544 63.7675L39.0422 62.3163C38.9123 62.2405 38.8582 62.143 38.8582 62.0564L38.8473 62.0347Z" fill="#393842"/>
<path d="M34.9274 59.7601V59.4677H35.1657L37.6349 58.049C37.884 57.9082 38.2956 57.9082 38.5446 58.049L41.0139 59.4893H41.2305V59.7709V59.7926C41.2305 59.8792 41.1655 59.9659 41.0464 60.0417L38.5338 61.4929C38.2847 61.6445 37.8731 61.6445 37.6241 61.4929L35.1223 60.0417C34.9924 59.9659 34.9382 59.8684 34.9382 59.7817L34.9274 59.7601Z" fill="#393842"/>
<path d="M76.3629 79.265V78.9726H76.6012L79.0704 77.5538C79.3195 77.413 79.7311 77.413 79.9802 77.5538L82.4494 78.9942H82.666V79.2758V79.2975C82.666 79.3841 82.6011 79.4707 82.4819 79.5466L79.9694 80.9978C79.7203 81.1494 79.3087 81.1494 79.0596 80.9978L76.5579 79.5466C76.4279 79.4707 76.3738 79.3733 76.3738 79.2866L76.3629 79.265Z" fill="#393842"/>
<path d="M72.442 76.9906V76.6982H72.6803L75.1495 75.2794C75.3986 75.1386 75.8102 75.1386 76.0593 75.2794L78.5285 76.7198H78.7451V77.0014V77.0231C78.7451 77.1097 78.6802 77.1963 78.561 77.2722L76.0485 78.7234C75.7994 78.875 75.3878 78.875 75.1387 78.7234L72.637 77.2722C72.507 77.1963 72.4529 77.0989 72.4529 77.0122L72.442 76.9906Z" fill="#393842"/>
<path d="M68.5221 74.7166V74.4242H68.7603L71.2296 73.0055C71.4787 72.8647 71.8902 72.8647 72.1393 73.0055L74.6086 74.4459H74.8252V74.7275V74.7491C74.8252 74.8358 74.7602 74.9224 74.6411 74.9982L72.1285 76.4494C71.8794 76.6011 71.4679 76.6011 71.2188 76.4494L68.7171 74.9982C68.5871 74.9224 68.533 74.8249 68.533 74.7383L68.5221 74.7166Z" fill="#393842"/>
<path d="M64.6012 72.431V72.1386H64.8395L67.3087 70.7199C67.5578 70.5791 67.9693 70.5791 68.2184 70.7199L70.6877 72.1602H70.9043V72.4418V72.4635C70.9043 72.5501 70.8393 72.6368 70.7201 72.7126L68.2076 74.1638C67.9585 74.3154 67.547 74.3154 67.2979 74.1638L64.7962 72.7126C64.6662 72.6368 64.6121 72.5393 64.6121 72.4527L64.6012 72.431Z" fill="#393842"/>
<path d="M60.6803 70.1566V69.8642H60.9186L63.3878 68.4454C63.6369 68.3046 64.0484 68.3046 64.2975 68.4454L66.7668 69.8858H66.9834V70.1674V70.1891C66.9834 70.2757 66.9184 70.3624 66.7992 70.4382L64.2867 71.8894C64.0376 72.041 63.6261 72.041 63.377 71.8894L60.8753 70.4382C60.7453 70.3624 60.6912 70.2649 60.6912 70.1782L60.6803 70.1566Z" fill="#393842"/>
<path d="M56.7604 67.8827V67.5902H56.9986L59.4679 66.1715C59.717 66.0307 60.1285 66.0307 60.3776 66.1715L62.8469 67.6119H63.0635V67.8935V67.9151C63.0635 68.0018 62.9984 68.0884 62.8793 68.1642L60.3667 69.6154C60.1177 69.7671 59.7062 69.7671 59.4571 69.6154L56.9553 68.1642C56.8254 68.0884 56.7712 67.9909 56.7712 67.9043L56.7604 67.8827Z" fill="#393842"/>
<path d="M52.8396 65.5975V65.3051H53.0778L55.5471 63.8864C55.7962 63.7456 56.2077 63.7456 56.4568 63.8864L58.926 65.3267H59.1426V65.6083V65.63C59.1426 65.7166 59.0776 65.8033 58.9585 65.8791L56.4459 67.3303C56.1968 67.4819 55.7853 67.4819 55.5362 67.3303L53.0345 65.8791C52.9045 65.8033 52.8503 65.7058 52.8503 65.6191L52.8396 65.5975Z" fill="#393842"/>
<path d="M48.9303 63.3233V63.0309H49.1686L51.6378 61.6121C51.8869 61.4605 52.2985 61.4713 52.5476 61.6121L55.0168 63.0525H55.2334V63.3341V63.3558C55.2334 63.4424 55.1684 63.529 55.0493 63.6049L52.5367 65.0561C52.2876 65.2077 51.8761 65.2077 51.6271 65.0561L49.1253 63.6049C48.9953 63.529 48.9412 63.4316 48.9412 63.3449L48.9303 63.3233Z" fill="#393842"/>
<path d="M45.0104 61.0488V60.7564H45.2487L47.7179 59.3377C47.967 59.1861 48.3786 59.1969 48.6277 59.3377L51.0969 60.7781H51.3135V61.0597V61.0814C51.3135 61.168 51.2485 61.2546 51.1294 61.3304L48.6168 62.7817C48.3677 62.9333 47.9562 62.9333 47.7071 62.7817L45.2053 61.3304C45.0754 61.2546 45.0212 61.1572 45.0212 61.0705L45.0104 61.0488Z" fill="#393842"/>
<path d="M41.0895 58.7637V58.4713H41.3278L43.797 57.0526C44.0461 56.9009 44.4577 56.9118 44.7068 57.0526L47.176 58.4929H47.3926V58.7745V58.7962C47.3926 58.8828 47.3276 58.9695 47.2085 59.0453L44.6959 60.4965C44.4468 60.6481 44.0353 60.6481 43.7862 60.4965L41.2844 59.0453C41.1545 58.9695 41.1003 58.872 41.1003 58.7854L41.0895 58.7637Z" fill="#393842"/>
<path d="M37.1686 56.4893V56.1969H37.4069L39.8761 54.7781C40.1252 54.6265 40.5368 54.6374 40.7859 54.7781L43.2551 56.2185H43.4717V56.5001V56.5218C43.4717 56.6084 43.4067 56.6951 43.2876 56.7709L40.775 58.2221C40.5259 58.3737 40.1144 58.3737 39.8653 58.2221L37.3635 56.7709C37.2336 56.6951 37.1794 56.5976 37.1794 56.511L37.1686 56.4893Z" fill="#393842"/>
<path d="M32.6422 53.5545H32.8913L35.3497 52.1466C35.5988 52.0058 36.0104 52.0058 36.2595 52.1466L39.3027 53.9119H39.5518V54.1935C39.5518 54.2043 39.5518 54.2151 39.5518 54.226V54.2368C39.5409 54.3234 39.476 54.3992 39.3677 54.4642L36.8551 55.9154C36.606 56.0671 36.1944 56.0671 35.9453 55.9154L32.8371 54.1068C32.7072 54.031 32.6422 53.9335 32.653 53.8252V53.5328L32.6422 53.5545Z" fill="#393842"/>
<path d="M32.5339 72.1929V71.9113H32.7721L35.2414 70.4817C35.4255 70.3734 35.7071 70.3409 35.9453 70.4059C36.0211 70.4276 36.0969 70.4492 36.1619 70.4925L38.6312 71.9329H38.8477V72.0629L56.2624 82.189L58.7317 83.6293H58.9482V83.9109V83.9326C58.9482 83.9542 58.9483 83.9651 58.9375 83.9867C58.9375 83.9867 58.9375 83.9867 58.9375 83.9976C58.9375 84.0192 58.9266 84.0301 58.9049 84.0517C58.9049 84.0517 58.8833 84.0734 58.8833 84.0842C58.8833 84.095 58.8616 84.1059 58.8508 84.1167C58.8291 84.1384 58.8075 84.1492 58.775 84.1708L56.2624 85.6221C56.1974 85.6546 56.1216 85.687 56.0458 85.7087C55.97 85.7304 55.8834 85.7412 55.8076 85.7412C55.6451 85.7412 55.4826 85.7087 55.3527 85.6329L52.8509 84.1817L32.7397 72.4961C32.6097 72.4203 32.5447 72.3228 32.5555 72.2253L32.5339 72.1929Z" fill="#393842"/>
<path d="M83.6297 78.9188V78.6372L83.7922 78.6805C83.7922 78.6805 83.8138 78.6697 83.8247 78.6589L84.507 78.269C84.7561 78.1174 85.1676 78.1174 85.4167 78.269L87.7343 79.6119L88.1025 79.6985V80.0018C88.1025 80.0884 88.0267 80.1859 87.9076 80.2509L87.2253 80.6408C86.9762 80.7924 86.5647 80.7924 86.3156 80.6408L83.8138 79.1895C83.6947 79.1137 83.6297 79.0271 83.6297 78.9296V78.9188Z" fill="#393842"/>
<path d="M79.7098 76.6444V76.3628L79.8722 76.4061C79.8722 76.4061 79.8939 76.3953 79.9047 76.3845L80.587 75.9946C80.8361 75.843 81.2476 75.843 81.4967 75.9946L83.8144 77.3375L84.1826 77.4241V77.7274C84.1826 77.814 84.1067 77.9115 83.9876 77.9765L83.3054 78.3663C83.0563 78.518 82.6447 78.518 82.3956 78.3663L79.8939 76.9151C79.7748 76.8393 79.7098 76.7527 79.7098 76.6552V76.6444Z" fill="#393842"/>
<path d="M75.789 74.37V74.0884L75.9514 74.1317C75.9514 74.1317 75.9731 74.1209 75.9839 74.11L76.6662 73.7202C76.9153 73.5685 77.3268 73.5685 77.5759 73.7202L79.8935 75.0631L80.2617 75.1497V75.453C80.2617 75.5396 80.1859 75.6371 80.0668 75.7021L79.3845 76.0919C79.1354 76.2435 78.7239 76.2435 78.4748 76.0919L75.9731 74.6407C75.8539 74.5649 75.789 74.4783 75.789 74.3808V74.37Z" fill="#393842"/>
<path d="M71.868 72.0848V71.8032L72.0305 71.8465C72.0305 71.8465 72.0522 71.8357 72.063 71.8249L72.7453 71.435C72.9944 71.2834 73.4059 71.2834 73.655 71.435L75.9726 72.7779L76.3408 72.8646V73.1678C76.3408 73.2544 76.265 73.3519 76.1459 73.4169L75.4636 73.8068C75.2145 73.9584 74.803 73.9584 74.5539 73.8068L72.0522 72.3555C71.933 72.2797 71.868 72.1931 71.868 72.0956V72.0848Z" fill="#393842"/>
<path d="M67.9471 69.8104V69.5288L68.1096 69.5721C68.1096 69.5721 68.1313 69.5613 68.1421 69.5505L68.8244 69.1606C69.0734 69.009 69.485 69.009 69.7341 69.1606L72.0517 70.5035L72.4199 70.5902V70.8934C72.4199 70.98 72.3441 71.0775 72.225 71.1425L71.5427 71.5324C71.2936 71.684 70.8821 71.684 70.633 71.5324L68.1313 70.0811C68.0121 70.0053 67.9471 69.9187 67.9471 69.8212V69.8104Z" fill="#393842"/>
<path d="M64.0272 67.536V67.2544L64.1897 67.2977C64.1897 67.2977 64.2113 67.2869 64.2221 67.2761L64.9044 66.8862C65.1535 66.7346 65.5651 66.7346 65.8142 66.8862L68.1318 68.2291L68.5 68.3157V68.619C68.5 68.7056 68.4242 68.8031 68.3051 68.8681L67.6228 69.258C67.3737 69.4096 66.9622 69.4096 66.7131 69.258L64.2114 67.8067C64.0922 67.7309 64.0272 67.6443 64.0272 67.5468V67.536Z" fill="#393842"/>
<path d="M60.1073 65.2508V64.9692L60.2698 65.0125C60.2698 65.0125 60.2914 65.0017 60.3022 64.9909L60.9845 64.601C61.2336 64.4494 61.6452 64.4494 61.8943 64.601L64.2119 65.9439L64.5801 66.0306V66.3338C64.5801 66.4205 64.5043 66.5179 64.3851 66.5829L63.7028 66.9728C63.4538 67.1244 63.0423 67.1244 62.7932 66.9728L60.2914 65.5216C60.1723 65.4458 60.1073 65.3591 60.1073 65.2616V65.2508Z" fill="#393842"/>
<path d="M56.1864 62.9764V62.6948L56.3489 62.7382C56.3489 62.7382 56.3705 62.7273 56.3813 62.7165L57.0636 62.3266C57.3127 62.175 57.7243 62.175 57.9734 62.3266L60.291 63.6695L60.6592 63.7562V64.0594C60.6592 64.1461 60.5834 64.2435 60.4642 64.3085L59.782 64.6984C59.5329 64.85 59.1213 64.85 58.8722 64.6984L56.3705 63.2472C56.2513 63.1714 56.1864 63.0847 56.1864 62.9872V62.9764Z" fill="#393842"/>
<path d="M52.2655 60.702V60.4204L52.428 60.4637C52.428 60.4637 52.4496 60.4529 52.4604 60.4421L53.1427 60.0522C53.3918 59.9006 53.8034 59.9006 54.0525 60.0522L56.37 61.3951L56.7383 61.4818V61.785C56.7383 61.8716 56.6625 61.9691 56.5433 62.0341L55.8611 62.424C55.612 62.5756 55.2004 62.5756 54.9513 62.424L52.4496 60.9727C52.3304 60.8969 52.2655 60.8103 52.2655 60.7128V60.702Z" fill="#393842"/>
<path d="M48.3456 58.4173V58.1358L48.508 58.1791C48.508 58.1791 48.5297 58.1682 48.5405 58.1574L49.2228 57.7675C49.4719 57.6159 49.8834 57.6159 50.1325 57.7675L52.4501 59.1105L52.8184 59.1971V59.5003C52.8184 59.587 52.7426 59.6844 52.6234 59.7494L51.9411 60.1393C51.692 60.2909 51.2805 60.2909 51.0314 60.1393L48.5297 58.6881C48.4105 58.6123 48.3456 58.5256 48.3456 58.4282V58.4173Z" fill="#393842"/>
<path d="M44.4256 56.1429V55.8613L44.5881 55.9046C44.5881 55.9046 44.6097 55.8938 44.6206 55.883L45.3029 55.4931C45.552 55.3415 45.9635 55.3415 46.2126 55.4931L48.5302 56.836L48.8984 56.9227V57.2259C48.8984 57.3125 48.8226 57.41 48.7035 57.475L48.0212 57.8649C47.7721 58.0165 47.3605 58.0165 47.1115 57.8649L44.6097 56.4137C44.4906 56.3378 44.4256 56.2512 44.4256 56.1537V56.1429Z" fill="#393842"/>
<path d="M40.5047 53.8685V53.5869L40.6672 53.6302C40.6672 53.6302 40.6888 53.6194 40.6997 53.6086L41.382 53.2187C41.6311 53.0671 42.0426 53.0671 42.2917 53.2187L44.6093 54.5616L44.9775 54.6483V54.9515C44.9775 55.0381 44.9017 55.1356 44.7826 55.2006L44.1003 55.5905C43.8512 55.7421 43.4397 55.7421 43.1906 55.5905L40.6888 54.1393C40.5697 54.0634 40.5047 53.9768 40.5047 53.8793V53.8685Z" fill="#393842"/>
<path d="M36.5838 51.5833V51.3018L36.7463 51.3451C36.7463 51.3451 36.7679 51.3343 36.7788 51.3234L37.4611 50.9335C37.7102 50.7819 38.1217 50.7819 38.3708 50.9335L40.6884 52.2765L41.0566 52.3631V52.6663C41.0566 52.753 40.9808 52.8505 40.8617 52.9154L40.1794 53.3053C39.9303 53.4569 39.5188 53.4569 39.2697 53.3053L36.7679 51.8541C36.6488 51.7783 36.5838 51.6916 36.5838 51.5942V51.5833Z" fill="#393842"/>
<path d="M78.0199 84.5497L78.1931 84.5822C78.1931 84.5822 78.1931 84.5822 78.2039 84.5822L80.7274 83.131C80.9764 82.9902 81.388 82.9902 81.637 83.131L86.2832 85.8277L86.5322 85.871V86.1309V86.1526C86.5322 86.2392 86.4673 86.3367 86.3481 86.4017L83.8247 87.8529C83.5756 87.9937 83.1641 87.9937 82.915 87.8529L78.1931 85.1129C78.0631 85.0371 78.009 84.9396 78.009 84.853V84.5714L78.0199 84.5497Z" fill="#393842"/>
<path d="M72.0849 85.698L72.2582 85.7413C72.2582 85.7413 72.2582 85.7413 72.2799 85.7305L74.7924 84.2792C75.0415 84.1276 75.4531 84.1276 75.7022 84.2792L82.2326 88.0697L82.5684 88.1455V88.4271C82.5684 88.5246 82.5034 88.6112 82.3734 88.687L79.8609 90.1383C79.6118 90.2899 79.2003 90.2791 78.9512 90.1383L72.2691 86.2611C72.1391 86.1853 72.0849 86.0879 72.0849 85.9904V85.698Z" fill="#393842"/>
<path d="M68.0888 88.0046L68.2621 88.0479C68.2621 88.0479 68.2621 88.0479 68.2838 88.0371L70.7963 86.5859C71.0454 86.4343 71.457 86.4343 71.7061 86.5859L78.2365 90.3764L78.5723 90.4522V90.7338C78.5723 90.8312 78.5073 90.9179 78.3773 90.9937L75.8648 92.4449C75.6157 92.5965 75.2042 92.5857 74.9551 92.4449L68.273 88.5678C68.143 88.492 68.0888 88.3945 68.0888 88.297V88.0046Z" fill="#393842"/>
<path d="M28.6674 55.8612L28.8515 55.8937L31.3749 54.4425C31.624 54.3017 32.0355 54.3017 32.2846 54.4425L37.0173 57.1933L37.2881 57.2367V57.5074V57.529C37.2881 57.6157 37.2231 57.7132 37.104 57.7782L34.5806 59.2294C34.3315 59.3702 33.92 59.3702 33.6709 59.2294L28.8624 56.4352C28.7324 56.3594 28.6783 56.2619 28.6783 56.1645V55.8829L28.6674 55.8612Z" fill="#393842"/>
<path d="M24.8878 58.1792L27.4003 56.728C27.6494 56.5764 28.061 56.5764 28.3101 56.728L35.0788 60.6593C35.3279 60.8109 35.3279 61.0383 35.0788 61.1899L32.5662 62.6411C32.3171 62.7819 31.9056 62.7819 31.6566 62.6411L24.8878 58.7099C24.6387 58.5691 24.6387 58.3308 24.8878 58.1792Z" fill="#393842"/>
<path d="M22.6131 64.3084V64.0269L22.7756 64.0702C22.7756 64.0702 22.7972 64.0593 22.8081 64.0485L23.4904 63.6586C23.7395 63.507 24.151 63.507 24.4001 63.6586L26.7178 65.0016L27.0859 65.0882V65.3914C27.0859 65.4781 27.0101 65.5756 26.891 65.6405L26.2087 66.0304C25.9596 66.182 25.548 66.182 25.299 66.0304L22.7972 64.5792C22.6781 64.5034 22.6131 64.4167 22.6131 64.3193V64.3084Z" fill="#393842"/>
<path d="M20.7723 65.37V65.0884L20.9348 65.1317C20.9348 65.1317 20.9564 65.1209 20.9672 65.11L21.6495 64.7202C21.8986 64.5685 22.3102 64.5685 22.5593 64.7202L24.8769 66.0631L25.2451 66.1497V66.453C25.2451 66.5396 25.1693 66.6371 25.0502 66.7021L24.3679 67.0919C24.1188 67.2327 23.7073 67.2436 23.4582 67.0919L20.9565 65.6407C20.8373 65.5649 20.7723 65.4783 20.7723 65.3808V65.37Z" fill="#393842"/>
<path d="M64.3521 85.752L66.8646 84.3007C67.1137 84.1491 67.5253 84.1491 67.7743 84.3007L70.2761 85.752C70.5252 85.8928 70.5252 86.131 70.2761 86.2826L67.7635 87.7338C67.5144 87.8746 67.1029 87.8746 66.8538 87.7338L64.3521 86.2826C64.103 86.131 64.103 85.9036 64.3521 85.752Z" fill="#393842"/>
<path d="M87.5497 81.1819V80.8787L87.7338 80.9328L88.4161 80.5429C88.6652 80.3913 89.0768 80.3913 89.3259 80.5429L92.2066 82.2216L92.6182 82.3407V82.6439C92.6073 82.7306 92.5424 82.8064 92.4341 82.8822L91.7518 83.2721C91.5027 83.4237 91.0911 83.4237 90.842 83.2721L87.7338 81.4635C87.6039 81.3877 87.5389 81.2902 87.5497 81.1927V81.1819Z" fill="#393842"/>
<path d="M84.3979 83.2831L86.9105 81.8319C87.1596 81.6802 87.5712 81.6911 87.8202 81.8319L90.322 83.2831C90.5711 83.4239 90.5711 83.6621 90.322 83.8138L87.8094 85.265C87.5603 85.4166 87.1487 85.4166 86.8997 85.265L84.3979 83.8138C84.1488 83.673 84.1488 83.4347 84.3979 83.2831Z" fill="#57565E"/>
<path d="M80.478 81.0087L82.9906 79.5574C83.2397 79.4058 83.6512 79.4167 83.9003 79.5574L86.402 81.0087C86.6511 81.1495 86.6511 81.3877 86.402 81.5393L83.8895 82.9906C83.6404 83.1422 83.2288 83.1422 82.9797 82.9906L80.478 81.5393C80.2289 81.3985 80.2289 81.1603 80.478 81.0087Z" fill="#57565E"/>
<path d="M76.5571 78.7235L79.0697 77.2723C79.3188 77.1207 79.7303 77.1315 79.9794 77.2723L82.4812 78.7235C82.7302 78.8643 82.7302 79.1026 82.4812 79.2542L79.9686 80.7054C79.7195 80.857 79.3079 80.857 79.0588 80.7054L76.5571 79.2542C76.308 79.1134 76.308 78.8751 76.5571 78.7235Z" fill="#57565E"/>
<path d="M72.6362 76.4491L75.1488 74.9979C75.3979 74.8463 75.8094 74.8571 76.0585 74.9979L78.5603 76.4491C78.8093 76.5899 78.8093 76.8281 78.5603 76.9798L76.0477 78.431C75.7986 78.5826 75.387 78.5826 75.1379 78.431L72.6362 76.9798C72.3871 76.8281 72.3871 76.6007 72.6362 76.4491Z" fill="#57565E"/>
<path d="M68.7163 74.1747L71.2289 72.7235C71.4779 72.5718 71.8894 72.5827 72.1385 72.7235L74.6403 74.1747C74.8894 74.3155 74.8894 74.5537 74.6403 74.7053L72.1278 76.1566C71.8787 76.3082 71.4671 76.3082 71.218 76.1566L68.7163 74.7053C68.4672 74.5537 68.4672 74.3263 68.7163 74.1747Z" fill="#57565E"/>
<path d="M64.7964 71.89L67.309 70.4388C67.5581 70.2872 67.9696 70.298 68.2187 70.4388L70.7204 71.89C70.9695 72.0308 70.9695 72.2691 70.7204 72.4207L68.2079 73.8719C67.9588 74.0235 67.5472 74.0235 67.2982 73.8719L64.7964 72.4207C64.5473 72.2691 64.5473 72.0416 64.7964 71.89Z" fill="#57565E"/>
<path d="M60.8755 69.6156L63.3881 68.1644C63.6372 68.0128 64.0487 68.0236 64.2978 68.1644L66.7995 69.6156C67.0486 69.7564 67.0486 69.9947 66.7995 70.1463L64.2869 71.5975C64.0378 71.7491 63.6263 71.7491 63.3773 71.5975L60.8755 70.1463C60.6264 69.9947 60.6264 69.7672 60.8755 69.6156Z" fill="#57565E"/>
<path d="M56.9546 67.3413L59.4672 65.8901C59.7163 65.7385 60.1278 65.7385 60.3769 65.8901L62.8786 67.3413C63.1277 67.4929 63.1277 67.7204 62.8786 67.872L60.366 69.3232C60.117 69.464 59.7054 69.4748 59.4564 69.3232L56.9546 67.872C56.7055 67.7312 56.7055 67.4929 56.9546 67.3413Z" fill="#57565E"/>
<path d="M53.0347 65.0562L55.5473 63.6049C55.7964 63.4533 56.2079 63.4533 56.457 63.6049L58.9587 65.0562C59.2078 65.2078 59.2078 65.4352 58.9587 65.5868L56.4461 67.0381C56.197 67.1897 55.7855 67.1897 55.5364 67.0381L53.0347 65.5868C52.7856 65.446 52.7856 65.2078 53.0347 65.0562Z" fill="#57565E"/>
<path d="M49.1138 62.7822L51.6264 61.331C51.8755 61.1794 52.287 61.1794 52.5361 61.331L55.0378 62.7822C55.2869 62.9338 55.2869 63.1613 55.0378 63.3129L52.5252 64.7641C52.2761 64.9049 51.8646 64.9157 51.6155 64.7641L49.1138 63.3129C48.8647 63.1721 48.8647 62.9338 49.1138 62.7822Z" fill="#57565E"/>
<path d="M45.1939 60.5078L47.7064 59.0566C47.9555 58.905 48.367 58.905 48.6161 59.0566L51.1179 60.5078C51.367 60.6594 51.367 60.8869 51.1179 61.0385L48.6053 62.4897C48.3562 62.6305 47.9447 62.6413 47.6956 62.4897L45.1939 61.0385C44.9448 60.8977 44.9448 60.6594 45.1939 60.5078Z" fill="#57565E"/>
<path d="M70.395 79.7201L72.9076 78.2689C73.1567 78.1173 73.5682 78.1281 73.8173 78.2689L76.319 79.7201C76.5681 79.8609 76.5681 80.0991 76.319 80.2508L73.8065 81.702C73.5574 81.8536 73.1458 81.8536 72.8967 81.702L70.395 80.2508C70.1459 80.11 70.1459 79.8717 70.395 79.7201Z" fill="#57565E"/>
<path d="M66.4741 77.4349L68.9867 75.9837C69.2358 75.8321 69.6473 75.8429 69.8964 75.9837L72.3981 77.4349C72.6472 77.5757 72.6472 77.814 72.3981 77.9656L69.8856 79.4168C69.6365 79.5684 69.2249 79.5684 68.9758 79.4168L66.4741 77.9656C66.225 77.8248 66.225 77.5866 66.4741 77.4349Z" fill="#57565E"/>
<path d="M62.5542 75.1605L65.0667 73.7093C65.3158 73.5577 65.7274 73.5685 65.9765 73.7093L68.4782 75.1605C68.7273 75.3013 68.7273 75.5396 68.4782 75.6912L65.9657 77.1424C65.7166 77.294 65.305 77.294 65.0559 77.1424L62.5542 75.6912C62.3051 75.5504 62.3051 75.3122 62.5542 75.1605Z" fill="#57565E"/>
<path d="M58.6333 72.8861L61.1459 71.4349C61.395 71.2833 61.8065 71.2941 62.0556 71.4349L64.5573 72.8861C64.8064 73.0269 64.8064 73.2652 64.5573 73.4168L62.0448 74.868C61.7957 75.0196 61.3842 75.0196 61.1351 74.868L58.6333 73.4168C58.3842 73.2652 58.3842 73.0377 58.6333 72.8861Z" fill="#57565E"/>
<path d="M54.7134 70.6014L57.226 69.1502C57.4751 68.9986 57.8866 69.0094 58.1357 69.1502L60.6374 70.6014C60.8865 70.7531 60.8865 70.9805 60.6374 71.1321L58.1249 72.5833C57.8758 72.735 57.4642 72.735 57.2151 72.5833L54.7134 71.1321C54.4643 70.9805 54.4643 70.7531 54.7134 70.6014Z" fill="#57565E"/>
<path d="M50.7925 68.3265L53.3051 66.8753C53.5542 66.7237 53.9657 66.7345 54.2148 66.8753L56.7165 68.3265C56.9656 68.4782 56.9656 68.7056 56.7165 68.8572L54.2039 70.3084C53.9548 70.4492 53.5433 70.46 53.2942 70.3084L50.7925 68.8572C50.5434 68.7056 50.5434 68.4782 50.7925 68.3265Z" fill="#57565E"/>
<path d="M46.8716 66.0524L49.3842 64.6012C49.6333 64.4604 50.0448 64.4604 50.2939 64.6012L52.7956 66.0524C53.0447 66.204 53.0447 66.4315 52.7956 66.5831L50.283 68.0343C50.0339 68.1751 49.6224 68.1859 49.3733 68.0343L46.8716 66.5831C46.6225 66.4315 46.6225 66.204 46.8716 66.0524Z" fill="#57565E"/>
<path d="M42.9517 63.7673L45.4643 62.316C45.7134 62.1753 46.1249 62.1753 46.374 62.316L48.8757 63.7673C49.1248 63.9189 49.1248 64.1463 48.8757 64.2979L46.3631 65.7492C46.114 65.8899 45.7025 65.9008 45.4534 65.7492L42.9517 64.2979C42.7026 64.1463 42.7026 63.9189 42.9517 63.7673Z" fill="#57565E"/>
<path d="M39.0425 61.4928L41.555 60.0416C41.8041 59.9008 42.2157 59.9008 42.4648 60.0416L44.9665 61.4928C45.2156 61.6445 45.2156 61.8719 44.9665 62.0235L42.4539 63.4747C42.2048 63.6155 41.7933 63.6264 41.5442 63.4747L39.0425 62.0235C38.7934 61.8719 38.7934 61.6445 39.0425 61.4928Z" fill="#57565E"/>
<path d="M35.1216 59.2188L37.6341 57.7675C37.8832 57.6159 38.2948 57.6159 38.5439 57.7675L41.0456 59.2188C41.2947 59.3704 41.2947 59.5978 41.0456 59.7494L38.533 61.2006C38.2839 61.3414 37.8724 61.3523 37.6233 61.2006L35.1216 59.7494C34.8725 59.5978 34.8725 59.3704 35.1216 59.2188Z" fill="#57565E"/>
<path d="M41.2729 58.2223L43.7855 56.7711C44.0346 56.6303 44.4462 56.6303 44.6952 56.7711L47.197 58.2223C47.4461 58.3631 47.4461 58.6014 47.197 58.753L44.6844 60.2042C44.4353 60.3559 44.0238 60.3559 43.7747 60.2042L41.2729 58.753C41.0238 58.6014 41.0238 58.374 41.2729 58.2223Z" fill="#57565E"/>
<path d="M37.353 55.9479L39.8656 54.4967C40.1147 54.3559 40.5262 54.3559 40.7753 54.4967L43.277 55.9479C43.5261 56.0995 43.5261 56.327 43.277 56.4786L40.7645 57.9298C40.5154 58.0814 40.1038 58.0814 39.8547 57.9298L37.353 56.4786C37.1039 56.3378 37.1039 56.0995 37.353 55.9479Z" fill="#57565E"/>
<path d="M68.5102 92.4557L71.0228 91.0045C71.2719 90.8637 71.6835 90.8637 71.9325 91.0045L74.4343 92.4557C74.6834 92.5965 74.6834 92.8348 74.4343 92.9864L71.9217 94.4376C71.6726 94.5784 71.261 94.5784 71.012 94.4376L68.5102 92.9864C68.2611 92.8456 68.2611 92.6074 68.5102 92.4557Z" fill="#57565E"/>
<path d="M64.5904 90.1818L67.1029 88.7306C67.352 88.5898 67.7635 88.5898 68.0126 88.7306L70.5144 90.1818C70.7634 90.3226 70.7634 90.5608 70.5144 90.7125L68.0018 92.1637C67.7528 92.3045 67.3412 92.3045 67.0921 92.1637L64.5904 90.7125C64.3413 90.5717 64.3413 90.3334 64.5904 90.1818Z" fill="#57565E"/>
<path d="M60.6695 87.8967L63.182 86.4454C63.4311 86.3046 63.8426 86.3046 64.0917 86.4454L66.5935 87.8967C66.8425 88.0374 66.8425 88.2757 66.5935 88.4273L64.081 89.8785C63.8319 90.0193 63.4203 90.0193 63.1712 89.8785L60.6695 88.4273C60.4204 88.2865 60.4204 88.0483 60.6695 87.8967Z" fill="#57565E"/>
<path d="M56.7495 85.6227L59.2621 84.1715C59.5112 84.0307 59.9227 84.0307 60.1718 84.1715L62.6735 85.6227C62.9226 85.7635 62.9226 86.0018 62.6735 86.1534L60.161 87.6046C59.9119 87.7454 59.5004 87.7454 59.2513 87.6046L56.7495 86.1534C56.5005 86.0018 56.5005 85.7743 56.7495 85.6227Z" fill="#57565E"/>
<path d="M74.3159 81.9945L76.8285 80.5433C77.0776 80.3917 77.4891 80.4025 77.7382 80.5433L80.2399 81.9945C80.489 82.1353 80.489 82.3736 80.2399 82.5252L77.7274 83.9764C77.4783 84.128 77.0667 84.128 76.8176 83.9764L74.3159 82.5252C74.0668 82.3844 74.0668 82.1461 74.3159 81.9945Z" fill="#57565E"/>
<path d="M32.8256 53.3168L35.3382 51.8656C35.5873 51.7139 35.9989 51.7248 36.2479 51.8656L39.3562 53.6742C39.6052 53.8258 39.6052 54.0532 39.3562 54.2048L36.8436 55.6561C36.5945 55.8077 36.1829 55.8077 35.9338 55.6561L32.8256 53.8474C32.5765 53.6958 32.5765 53.4684 32.8256 53.3168Z" fill="#57565E"/>
<path d="M32.7173 71.6515L35.2299 70.2003C35.479 70.0595 35.8905 70.0595 36.1396 70.2003L58.7526 83.3371C59.0017 83.4779 59.0017 83.7162 58.7526 83.8678L56.2401 85.319C55.991 85.4598 55.5795 85.4598 55.3304 85.319L32.7173 72.1822C32.4682 72.0306 32.4682 71.8032 32.7173 71.6515Z" fill="#57565E"/>
<path d="M83.8132 78.3771L84.4955 77.9873C84.7445 77.8356 85.156 77.8356 85.4051 77.9873L87.9069 79.4385C88.156 79.5901 88.156 79.8175 87.9069 79.9691L87.2246 80.359C86.9755 80.5106 86.564 80.5106 86.3149 80.359L83.8132 78.9078C83.5641 78.767 83.5641 78.5288 83.8132 78.3771Z" fill="#57565E"/>
<path d="M79.8933 76.092L80.5756 75.7021C80.8247 75.5505 81.2362 75.5505 81.4853 75.7021L83.987 77.1533C84.2361 77.3049 84.2361 77.5324 83.987 77.684L83.3048 78.0739C83.0557 78.2255 82.6441 78.2255 82.395 78.0739L79.8933 76.6226C79.6442 76.471 79.6442 76.2436 79.8933 76.092Z" fill="#57565E"/>
<path d="M75.9724 73.8176L76.6547 73.4277C76.9038 73.2761 77.3153 73.2761 77.5644 73.4277L80.0661 74.8789C80.3152 75.0305 80.3152 75.258 80.0661 75.4096L79.3838 75.7995C79.1347 75.9511 78.7232 75.9511 78.4741 75.7995L75.9724 74.3482C75.7233 74.1966 75.7233 73.9692 75.9724 73.8176Z" fill="#57565E"/>
<path d="M72.0515 71.5431L72.7338 71.1533C72.9829 71.0016 73.3944 71.0016 73.6435 71.1533L76.1452 72.6045C76.3943 72.7561 76.3943 72.9835 76.1452 73.1352L75.4629 73.525C75.2138 73.6767 74.8023 73.6767 74.5532 73.525L72.0515 72.0738C71.8024 71.9222 71.8024 71.6948 72.0515 71.5431Z" fill="#57565E"/>
<path d="M68.1316 69.2585L68.8139 68.8686C69.063 68.717 69.4745 68.717 69.7236 68.8686L72.2253 70.3198C72.4744 70.4715 72.4744 70.6989 72.2253 70.8505L71.543 71.2404C71.2939 71.392 70.8824 71.392 70.6333 71.2404L68.1316 69.7892C67.8825 69.6484 67.8825 69.4101 68.1316 69.2585Z" fill="#57565E"/>
<path d="M64.2107 66.9836L64.893 66.5937C65.1421 66.4421 65.5536 66.4421 65.8027 66.5937L68.3044 68.0449C68.5535 68.1965 68.5535 68.424 68.3044 68.5756L67.6221 68.9655C67.373 69.1171 66.9615 69.1171 66.7124 68.9655L64.2107 67.5142C63.9616 67.3734 63.9616 67.1352 64.2107 66.9836Z" fill="#57565E"/>
<path d="M60.2908 64.7097L60.973 64.3198C61.2221 64.1681 61.6337 64.1681 61.8827 64.3198L64.3845 65.771C64.6336 65.9226 64.6336 66.15 64.3845 66.3017L63.7022 66.6915C63.4531 66.8432 63.0416 66.8432 62.7925 66.6915L60.2908 65.2403C60.0417 65.0995 60.0417 64.8613 60.2908 64.7097Z" fill="#57565E"/>
<path d="M56.3815 62.4245L57.0638 62.0346C57.3129 61.883 57.7245 61.883 57.9736 62.0346L60.4753 63.4858C60.7244 63.6266 60.7244 63.8649 60.4753 64.0165L59.793 64.4064C59.5439 64.558 59.1323 64.558 58.8832 64.4064L56.3815 62.9552C56.1324 62.8144 56.1324 62.5761 56.3815 62.4245Z" fill="#57565E"/>
<path d="M52.4606 60.1501L53.1429 59.7602C53.392 59.6086 53.8036 59.6086 54.0527 59.7602L56.5544 61.2114C56.8035 61.3522 56.8035 61.5905 56.5544 61.7421L55.8721 62.132C55.623 62.2836 55.2114 62.2836 54.9623 62.132L52.4606 60.6807C52.2115 60.54 52.2115 60.3017 52.4606 60.1501Z" fill="#57565E"/>
<path d="M48.5397 57.8758L49.222 57.486C49.4711 57.3452 49.8827 57.3452 50.1318 57.486L52.6335 58.9372C52.8826 59.078 52.8826 59.3162 52.6335 59.4679L51.9512 59.8577C51.7021 60.0094 51.2905 60.0094 51.0414 59.8577L48.5397 58.4065C48.2906 58.2657 48.2906 58.0275 48.5397 57.8758Z" fill="#57565E"/>
<path d="M44.6198 55.5912L45.3021 55.2013C45.5512 55.0605 45.9628 55.0605 46.2118 55.2013L48.7136 56.6525C48.9627 56.7933 48.9627 57.0316 48.7136 57.1832L48.0313 57.5731C47.7822 57.7247 47.3706 57.7247 47.1215 57.5731L44.6198 56.1219C44.3707 55.9811 44.3707 55.7428 44.6198 55.5912Z" fill="#57565E"/>
<path d="M40.699 53.3168L41.3813 52.9269C41.6304 52.7861 42.0419 52.7861 42.2909 52.9269L44.7927 54.3781C45.0418 54.5189 45.0418 54.7572 44.7927 54.9088L44.1104 55.2987C43.8614 55.4503 43.4498 55.4503 43.2007 55.2987L40.699 53.8474C40.4499 53.7066 40.4499 53.4684 40.699 53.3168Z" fill="#57565E"/>
<path d="M36.779 51.0423L37.4613 50.6525C37.7104 50.5117 38.1219 50.5117 38.371 50.6525L40.8728 52.1037C41.1218 52.2445 41.1218 52.4827 40.8728 52.6344L40.1905 53.0242C39.9414 53.1759 39.5299 53.1759 39.2808 53.0242L36.779 51.573C36.53 51.4214 36.53 51.194 36.779 51.0423Z" fill="#57565E"/>
<path d="M87.734 80.6515L88.4163 80.2617C88.6654 80.11 89.077 80.11 89.3261 80.2617L92.4343 82.0703C92.6834 82.2111 92.6834 82.4493 92.4343 82.601L91.752 82.9908C91.5029 83.1425 91.0913 83.1316 90.8422 82.9908L87.734 81.1822C87.4849 81.0306 87.4849 80.8032 87.734 80.6515Z" fill="#57565E"/>
<path d="M78.2031 84.2907L80.7266 82.8395C80.9756 82.6987 81.3871 82.6987 81.6362 82.8395L86.3581 85.5795C86.6072 85.7203 86.6072 85.9585 86.3581 86.1101L83.8348 87.5614C83.5857 87.7022 83.1741 87.7022 82.925 87.5614L78.2031 84.8214C77.9541 84.6806 77.9541 84.4423 78.2031 84.2907Z" fill="#57565E"/>
<path d="M72.2791 85.4385L74.7916 83.9873C75.0407 83.8356 75.4523 83.8356 75.7014 83.9873L82.3835 87.8644C82.6326 88.0052 82.6326 88.2434 82.3835 88.3951L79.8709 89.8463C79.6218 89.9979 79.2103 89.9871 78.9612 89.8463L72.2791 85.9691C72.03 85.8284 72.03 85.5901 72.2791 85.4385Z" fill="#57565E"/>
<path d="M68.2722 87.756L70.7956 86.3048C71.0446 86.164 71.4562 86.164 71.7053 86.3048L78.3874 90.182C78.6365 90.3227 78.6365 90.561 78.3874 90.7126L75.864 92.1638C75.6149 92.3046 75.2034 92.3046 74.9543 92.1638L68.2722 88.2867C68.0231 88.1459 68.0231 87.9076 68.2722 87.756Z" fill="#57565E"/>
<path d="M28.8616 55.6125L31.385 54.1613C31.6341 54.0205 32.0456 54.0205 32.2947 54.1613L37.1032 56.9554C37.3523 57.107 37.3523 57.3345 37.1032 57.4861L34.5798 58.9373C34.3307 59.0781 33.9192 59.0889 33.6701 58.9373L28.8616 56.1432C28.6125 55.9915 28.6125 55.7641 28.8616 55.6125Z" fill="#57565E"/>
<path d="M24.8878 57.9087L27.4003 56.4575C27.6494 56.3058 28.061 56.3058 28.3101 56.4575L35.0788 60.3887C35.3279 60.5404 35.3279 60.7678 35.0788 60.9194L32.5662 62.3706C32.3171 62.5114 31.9056 62.5114 31.6566 62.3706L24.8878 58.4394C24.6387 58.2877 24.6387 58.0603 24.8878 57.9087Z" fill="#57565E"/>
<path d="M22.7966 63.7676L23.4789 63.3778C23.7279 63.237 24.1395 63.2261 24.3886 63.3778L26.8903 64.829C27.1394 64.9806 27.1394 65.208 26.8903 65.3597L26.208 65.7495C25.9589 65.8903 25.5474 65.8903 25.2983 65.7495L22.7966 64.2983C22.5475 64.1467 22.5475 63.9193 22.7966 63.7676Z" fill="#57565E"/>
<path d="M20.9558 64.8288L21.6381 64.4389C21.8872 64.2873 22.2987 64.2873 22.5478 64.4389L25.0495 65.8901C25.2986 66.0417 25.2986 66.2692 25.0495 66.4208L24.3672 66.8107C24.1181 66.9623 23.7066 66.9623 23.4575 66.8107L20.9558 65.3595C20.7067 65.2187 20.7067 64.9804 20.9558 64.8288Z" fill="#57565E"/>
<path d="M36.9947 64.937L39.5072 63.4858C39.7563 63.3342 40.1678 63.3342 40.4169 63.4858L42.9187 64.937C43.1677 65.0886 43.1677 65.3161 42.9187 65.4677L40.4061 66.9189C40.157 67.0597 39.7455 67.0597 39.4964 66.9189L36.9947 65.4677C36.7456 65.3269 36.7456 65.0886 36.9947 64.937Z" fill="#57565E"/>
<path d="M33.0747 62.6631L35.5872 61.2119C35.8363 61.0602 36.2479 61.0602 36.497 61.2119L38.9987 62.6631C39.2478 62.8147 39.2478 63.0421 38.9987 63.1938L36.4862 64.645C36.2371 64.7966 35.8256 64.7966 35.5765 64.645L33.0747 63.1938C32.8257 63.053 32.8257 62.8147 33.0747 62.6631Z" fill="#57565E"/>
<path d="M32.9995 67.2551L35.5228 65.8038C35.7719 65.663 36.1835 65.663 36.4325 65.8038L38.9343 67.2551C39.1834 67.4067 39.1834 67.6341 38.9343 67.7857L36.4109 69.237C36.1618 69.3778 35.7503 69.3886 35.5012 69.237L32.9995 67.7857C32.7504 67.6449 32.7504 67.4067 32.9995 67.2551Z" fill="#57565E"/>
<path d="M29.0786 64.9694L31.6019 63.5182C31.851 63.3774 32.2626 63.3774 32.5116 63.5182L35.0134 64.9694C35.2625 65.121 35.2625 65.3484 35.0134 65.5001L32.49 66.9513C32.2409 67.0921 31.8294 67.1029 31.5803 66.9513L29.0786 65.5001C28.8295 65.3484 28.8295 65.121 29.0786 64.9694Z" fill="#57565E"/>
<path d="M25.1577 62.695L27.681 61.2438C27.9301 61.103 28.3417 61.103 28.5907 61.2438L31.0925 62.695C31.3416 62.8466 31.3416 63.074 31.0925 63.2257L28.5691 64.6769C28.32 64.8177 27.9085 64.8285 27.6594 64.6769L25.1577 63.2257C24.9086 63.074 24.9086 62.8466 25.1577 62.695Z" fill="#57565E"/>
<path d="M20.8912 60.2155L23.4145 58.7643C23.6636 58.6235 24.0752 58.6235 24.3243 58.7643L27.1726 60.4213C27.4216 60.5729 27.4216 60.8003 27.1726 60.952L24.6491 62.4032C24.4001 62.544 23.9886 62.5548 23.7395 62.4032L20.8912 60.7462C20.6421 60.6054 20.6421 60.3671 20.8912 60.2155Z" fill="#57565E"/>
<path d="M44.8365 69.4971L47.349 68.0458C47.5981 67.8942 48.0096 67.8942 48.2587 68.0458L50.7604 69.4971C51.0095 69.6487 51.0095 69.8761 50.7604 70.0277L48.2479 71.479C47.9988 71.6306 47.5873 71.6306 47.3382 71.479L44.8365 70.0277C44.5874 69.8869 44.5874 69.6487 44.8365 69.4971Z" fill="#57565E"/>
<path d="M40.9156 67.2222L43.4281 65.7709C43.6772 65.6193 44.0887 65.6193 44.3378 65.7709L46.8395 67.2222C47.0886 67.3738 47.0886 67.6012 46.8395 67.7528L44.327 69.2041C44.0779 69.3557 43.6664 69.3557 43.4173 69.2041L40.9156 67.7528C40.6665 67.6012 40.6665 67.3738 40.9156 67.2222Z" fill="#57565E"/>
<path d="M40.8393 71.8031L43.3627 70.3519C43.6118 70.2111 44.0233 70.2003 44.2724 70.3519L46.7741 71.8031C47.0232 71.9547 47.0232 72.1822 46.7741 72.3338L44.2507 73.785C44.0016 73.9258 43.5901 73.9366 43.341 73.785L40.8393 72.3338C40.5902 72.1822 40.5902 71.9547 40.8393 71.8031Z" fill="#57565E"/>
<path d="M36.9194 69.529L39.4428 68.0778C39.6919 67.937 40.1034 67.937 40.3525 68.0778L42.8542 69.529C43.1033 69.6806 43.1033 69.908 42.8542 70.0597L40.3308 71.5109C40.0817 71.6517 39.6702 71.6625 39.4211 71.5109L36.9194 70.0597C36.6703 69.908 36.6703 69.6806 36.9194 69.529Z" fill="#57565E"/>
<path d="M52.6773 74.0561L55.1899 72.6049C55.4389 72.4533 55.8504 72.4533 56.0995 72.6049L58.6013 74.0561C58.8504 74.1969 58.8504 74.4352 58.6013 74.5868L56.0888 76.038C55.8397 76.1897 55.4281 76.1897 55.179 76.038L52.6773 74.5868C52.4282 74.4352 52.4282 74.2078 52.6773 74.0561Z" fill="#57565E"/>
<path d="M48.7574 71.7705L51.2699 70.3193C51.519 70.1677 51.9305 70.1677 52.1796 70.3193L54.6813 71.7705C54.9304 71.9221 54.9304 72.1495 54.6813 72.3012L52.1688 73.7524C51.9198 73.904 51.5082 73.904 51.2591 73.7524L48.7574 72.3012C48.5083 72.1495 48.5083 71.9221 48.7574 71.7705Z" fill="#57565E"/>
<path d="M48.6811 76.363L51.2045 74.9117C51.4536 74.771 51.8651 74.771 52.1142 74.9117L54.6159 76.363C54.865 76.5146 54.865 76.742 54.6159 76.8936L52.0926 78.3449C51.8435 78.4856 51.4319 78.4965 51.1828 78.3449L48.6811 76.8936C48.432 76.742 48.432 76.5146 48.6811 76.363Z" fill="#57565E"/>
<path d="M44.7602 74.0881L47.2836 72.6368C47.5327 72.4961 47.9442 72.4961 48.1933 72.6368L50.695 74.0881C50.9441 74.2397 50.9441 74.4671 50.695 74.6187L48.1717 76.07C47.9226 76.2107 47.511 76.2216 47.2619 76.07L44.7602 74.6187C44.5111 74.4671 44.5111 74.2397 44.7602 74.0881Z" fill="#57565E"/>
<path d="M60.518 78.6045L63.0306 77.1533C63.2797 77.0016 63.6913 77.0016 63.9404 77.1533L66.4421 78.6045C66.6912 78.7453 66.6912 78.9835 66.4421 79.1352L63.9295 80.5864C63.6804 80.738 63.2689 80.738 63.0198 80.5864L60.518 79.1352C60.2689 78.9835 60.2689 78.7561 60.518 78.6045Z" fill="#57565E"/>
<path d="M56.5971 76.3301L59.1097 74.8789C59.3588 74.7272 59.7704 74.7272 60.0195 74.8789L62.5212 76.3301C62.7703 76.4709 62.7703 76.7091 62.5212 76.8607L60.0086 78.312C59.7595 78.4636 59.348 78.4636 59.0989 78.312L56.5971 76.8607C56.3481 76.7091 56.3481 76.4817 56.5971 76.3301Z" fill="#57565E"/>
<path d="M56.5218 80.922L59.0453 79.4708C59.2943 79.33 59.7059 79.33 59.9549 79.4708L62.4567 80.922C62.7058 81.0628 62.7058 81.3011 62.4567 81.4527L59.9333 82.9039C59.6842 83.0447 59.2727 83.0447 59.0236 82.9039L56.5218 81.4527C56.2728 81.3011 56.2728 81.0737 56.5218 80.922Z" fill="#57565E"/>
<path d="M52.601 78.6369L55.1244 77.1857C55.3735 77.0449 55.785 77.0449 56.0341 77.1857L58.5358 78.6369C58.7849 78.7885 58.7849 79.0159 58.5358 79.1676L56.0125 80.6188C55.7634 80.7596 55.3518 80.7704 55.1027 80.6188L52.601 79.1676C52.3519 79.0159 52.3519 78.7885 52.601 78.6369Z" fill="#57565E"/>
<path d="M68.3589 83.1641L70.8714 81.7128C71.1205 81.5612 71.5321 81.5612 71.7812 81.7128L74.2829 83.1641C74.532 83.3049 74.532 83.5431 74.2829 83.6947L71.7703 85.1459C71.5212 85.2867 71.1097 85.2867 70.8606 85.1459L68.3589 83.6947C68.1098 83.5431 68.1098 83.3157 68.3589 83.1641Z" fill="#57565E"/>
<path d="M64.4389 80.8896L66.9515 79.4384C67.2006 79.2868 67.6122 79.2868 67.8613 79.4384L70.363 80.8896C70.6121 81.0413 70.6121 81.2687 70.363 81.4203L67.8504 82.8715C67.6013 83.0232 67.1898 83.0232 66.9407 82.8715L64.4389 81.4203C64.1898 81.2687 64.1898 81.0413 64.4389 80.8896Z" fill="#57565E"/>
<path d="M64.352 85.4709L66.8753 84.0197C67.1244 83.8789 67.536 83.8789 67.7851 84.0197L70.2868 85.4709C70.5359 85.6117 70.5359 85.8499 70.2868 86.0015L67.7634 87.4528C67.5143 87.5936 67.1028 87.5936 66.8537 87.4528L64.352 86.0015C64.1029 85.8499 64.1029 85.6225 64.352 85.4709Z" fill="#57565E"/>
<path d="M60.4418 83.1965L62.9652 81.7452C63.2143 81.6045 63.6258 81.6045 63.8749 81.7452L66.3767 83.1965C66.6257 83.3373 66.6257 83.5755 66.3767 83.7271L63.8532 85.1784C63.6042 85.3192 63.1926 85.3192 62.9435 85.1784L60.4418 83.7271C60.1927 83.5755 60.1927 83.3481 60.4418 83.1965Z" fill="#57565E"/>
<path d="M28.7974 69.3776L31.31 67.9264C31.5591 67.7856 31.9706 67.7856 32.2197 67.9264L34.7214 69.3776C34.9705 69.5292 34.9705 69.7567 34.7214 69.9083L32.2088 71.3595C31.9597 71.5111 31.5482 71.5111 31.2991 71.3595L28.7974 69.9083C28.5483 69.7675 28.5483 69.5292 28.7974 69.3776Z" fill="#57565E"/>
<path d="M24.8765 67.1029L27.3891 65.6517C27.6382 65.5109 28.0497 65.5001 28.2988 65.6517L30.8005 67.1029C31.0496 67.2545 31.0496 67.482 30.8005 67.6336L28.2879 69.0848C28.0388 69.2364 27.6273 69.2364 27.3782 69.0848L24.8765 67.6336C24.6274 67.4928 24.6274 67.2545 24.8765 67.1029Z" fill="#57565E"/>
<path d="M16.9488 62.4894L19.4613 61.0382C19.7104 60.8974 20.1219 60.8974 20.371 61.0382L22.8728 62.4894C23.1218 62.6302 23.1218 62.8685 22.8728 63.0201L20.3602 64.4713C20.1111 64.6229 19.6996 64.6229 19.4505 64.4713L16.9488 63.0201C16.6997 62.8685 16.6997 62.641 16.9488 62.4894Z" fill="#57565E"/>
<defs>
<linearGradient id="paint0_linear_76_839" x1="89.2934" y1="76.449" x2="60.4639" y2="2.00355" gradientUnits="userSpaceOnUse">
<stop offset="0.01" stop-color="#A0A6C0"/>
<stop offset="0.38" stop-color="#A0A6C0"/>
<stop offset="0.39" stop-color="#C6C9D9"/>
<stop offset="0.4" stop-color="#D8D9E6"/>
<stop offset="0.41" stop-color="#E3E3ED"/>
<stop offset="0.42" stop-color="#E7E7F0"/>
</linearGradient>
<linearGradient id="paint1_linear_76_839" x1="96.658" y1="78.4634" x2="0.422518" y2="78.4634" gradientUnits="userSpaceOnUse">
<stop offset="0.01" stop-color="#A0A6C0"/>
<stop offset="0.38" stop-color="#A3A9C2"/>
<stop offset="0.4" stop-color="#B5BACE"/>
<stop offset="0.42" stop-color="#C0C4D5"/>
<stop offset="0.43" stop-color="#C4C8D8"/>
<stop offset="0.94" stop-color="#C4C8D8"/>
<stop offset="0.98" stop-color="#C4C8D8"/>
<stop offset="1" stop-color="#C4C8D8"/>
</linearGradient>
</defs>
</svg>
