<svg width="150" height="24" viewBox="0 0 150 24" fill="none" xmlns="http://www.w3.org/2000/svg">
<path d="M37.184 14.832H35.392V18H33.184V7.12H37.184C39.7653 7.12 41.056 8.37867 41.056 10.896C41.056 12.1653 40.7253 13.1413 40.064 13.824C39.4133 14.496 38.4533 14.832 37.184 14.832ZM35.392 12.944H37.168C38.2667 12.944 38.816 12.2613 38.816 10.896C38.816 10.224 38.6827 9.744 38.416 9.456C38.1493 9.15733 37.7333 9.008 37.168 9.008H35.392V12.944ZM41.397 18L43.845 7.12H48.037L50.485 18H48.277L47.845 16.032H44.037L43.605 18H41.397ZM45.557 8.944L44.453 14.112H47.429L46.325 8.944H45.557ZM53.9679 14.368C53.9679 15.6373 54.6132 16.272 55.9039 16.272C57.1945 16.272 57.8399 15.6373 57.8399 14.368V7.12H60.0479V14.32C60.0479 15.6533 59.7012 16.6347 59.0079 17.264C58.3252 17.8827 57.2905 18.192 55.9039 18.192C54.5172 18.192 53.4772 17.8827 52.7839 17.264C52.1012 16.6347 51.7599 15.6533 51.7599 14.32V7.12H53.9679V14.368ZM65.6686 8.848C64.506 8.848 63.9246 9.232 63.9246 10C63.9246 10.3413 64.0686 10.6027 64.3566 10.784C64.6446 10.9653 65.3166 11.2267 66.3726 11.568C67.4393 11.9093 68.186 12.2987 68.6126 12.736C69.0393 13.1627 69.2526 13.824 69.2526 14.72C69.2526 15.8613 68.906 16.7253 68.2126 17.312C67.5193 17.8987 66.6126 18.192 65.4926 18.192C64.6606 18.192 63.642 18.064 62.4366 17.808L61.8606 17.696L62.0846 15.984C63.514 16.176 64.6073 16.272 65.3646 16.272C66.4953 16.272 67.0606 15.8027 67.0606 14.864C67.0606 14.5227 66.9273 14.256 66.6606 14.064C66.4046 13.872 65.8873 13.664 65.1086 13.44C63.8713 13.088 62.9966 12.672 62.4846 12.192C61.9833 11.7013 61.7326 11.024 61.7326 10.16C61.7326 9.072 62.0633 8.26133 62.7246 7.728C63.386 7.19467 64.2926 6.928 65.4446 6.928C66.234 6.928 67.2366 7.03467 68.4526 7.248L69.0286 7.36L68.8526 9.104C67.3486 8.93333 66.2873 8.848 65.6686 8.848ZM71.0278 18V7.12H78.0677V9.04H73.2358V11.584H77.1078V13.472H73.2358V16.08H78.0677V18H71.0278ZM90.2987 17.824C89.1681 18.0693 88.1494 18.192 87.2428 18.192C86.3361 18.192 85.6108 18.08 85.0668 17.856C84.5228 17.632 84.0961 17.2747 83.7868 16.784C83.4774 16.2933 83.2641 15.7173 83.1468 15.056C83.0294 14.3947 82.9708 13.5627 82.9708 12.56C82.9708 10.4587 83.2641 8.99733 83.8508 8.176C84.4481 7.344 85.5414 6.928 87.1308 6.928C88.0481 6.928 89.1094 7.072 90.3148 7.36L90.2508 9.12C89.1948 8.96 88.3148 8.88 87.6108 8.88C86.9174 8.88 86.4214 8.976 86.1228 9.168C85.8241 9.34933 85.6001 9.70133 85.4508 10.224C85.3121 10.7467 85.2428 11.6373 85.2428 12.896C85.2428 14.1547 85.3868 15.0293 85.6748 15.52C85.9734 16 86.5601 16.24 87.4348 16.24C88.3201 16.24 89.2588 16.1653 90.2508 16.016L90.2987 17.824ZM94.2525 15.44C94.5725 15.9947 95.1645 16.272 96.0285 16.272C96.8925 16.272 97.4792 15.9947 97.7885 15.44C98.1085 14.8747 98.2685 13.936 98.2685 12.624C98.2685 11.3013 98.1085 10.3413 97.7885 9.744C97.4685 9.14667 96.8818 8.848 96.0285 8.848C95.1752 8.848 94.5885 9.14667 94.2685 9.744C93.9485 10.3413 93.7885 11.3013 93.7885 12.624C93.7885 13.936 93.9432 14.8747 94.2525 15.44ZM99.5165 16.848C98.8445 17.744 97.6818 18.192 96.0285 18.192C94.3752 18.192 93.2072 17.744 92.5245 16.848C91.8525 15.9413 91.5165 14.528 91.5165 12.608C91.5165 10.688 91.8525 9.264 92.5245 8.336C93.2072 7.39733 94.3752 6.928 96.0285 6.928C97.6818 6.928 98.8445 7.39733 99.5165 8.336C100.199 9.264 100.541 10.688 100.541 12.608C100.541 14.528 100.199 15.9413 99.5165 16.848ZM102.434 18V7.12H106.162L108.786 16.08H108.946V7.12H111.154V18H107.522L104.802 9.04H104.642V18H102.434ZM113.528 18V7.12H117.256L119.88 16.08H120.04V7.12H122.248V18H118.616L115.896 9.04H115.736V18H113.528ZM124.622 18V7.12H131.661V9.04H126.83V11.584H130.702V13.472H126.83V16.08H131.661V18H124.622ZM140.299 17.824C139.168 18.0693 138.149 18.192 137.243 18.192C136.336 18.192 135.611 18.08 135.067 17.856C134.523 17.632 134.096 17.2747 133.787 16.784C133.477 16.2933 133.264 15.7173 133.147 15.056C133.029 14.3947 132.971 13.5627 132.971 12.56C132.971 10.4587 133.264 8.99733 133.851 8.176C134.448 7.344 135.541 6.928 137.131 6.928C138.048 6.928 139.109 7.072 140.315 7.36L140.251 9.12C139.195 8.96 138.315 8.88 137.611 8.88C136.917 8.88 136.421 8.976 136.123 9.168C135.824 9.34933 135.6 9.70133 135.451 10.224C135.312 10.7467 135.243 11.6373 135.243 12.896C135.243 14.1547 135.387 15.0293 135.675 15.52C135.973 16 136.56 16.24 137.435 16.24C138.32 16.24 139.259 16.1653 140.251 16.016L140.299 17.824ZM141.114 9.072V7.12H149.114V9.072H146.234V18H144.026V9.072H141.114Z" fill="white"/>
<rect width="6" height="24" fill="white"/>
<rect x="12" width="6" height="24" fill="white"/>
</svg>
