<?xml version="1.0" encoding="UTF-8"?>
<svg id="Calque_2" data-name="Calque 2" xmlns="http://www.w3.org/2000/svg" viewBox="0 0 112.5 284.44">
  <defs>
    <style>
      .cls-1 {
        opacity: .8;
      }

      .cls-1, .cls-2, .cls-3, .cls-4, .cls-5, .cls-6, .cls-7, .cls-8, .cls-9, .cls-10, .cls-11, .cls-12, .cls-13, .cls-14 {
        stroke-width: 0px;
      }

      .cls-1, .cls-2, .cls-3, .cls-6, .cls-7, .cls-10, .cls-12, .cls-13 {
        isolation: isolate;
      }

      .cls-1, .cls-3, .cls-7, .cls-9, .cls-10 {
        fill: #fff;
      }

      .cls-2 {
        opacity: .45;
      }

      .cls-3 {
        opacity: .7;
      }

      .cls-5 {
        fill: #37474f;
      }

      .cls-6 {
        opacity: .2;
      }

      .cls-15 {
        fill: none;
        stroke: #e6e6e6;
        stroke-miterlimit: 10;
      }

      .cls-7 {
        opacity: .5;
      }

      .cls-8 {
        fill: #27debf;
      }

      .cls-10 {
        opacity: .6;
      }

      .cls-11 {
        fill: #263238;
      }

      .cls-12 {
        opacity: .55;
      }

      .cls-13 {
        opacity: .35;
      }

      .cls-14 {
        fill: #455a64;
      }
    </style>
  </defs>
  <g id="Calque_1-2" data-name="Calque 1">
    <g id="Hand_with_Device" data-name="Hand with Device">
      <g>
        <g id="Device">
          <path class="cls-5" d="m109.1,7.12L14.3,61.83c-1.9,1.1-3.4,3.8-3.4,6v213.8c0,2.2,1.5,3.1,3.4,2l94.8-54.7c1.9-1.1,3.4-3.8,3.4-6V9.12c.1-2.2-1.5-3.1-3.4-2Zm-1.5,196.1c0,1.9-1.3,3.1-3,4l-86.2,49.8c-1.6.9-3,.2-3-1.7V87.83c0-1.9,1.3-4.2,3-5.1l86.2-49.8c1.6-.9,3-.2,3,1.7v168.6Z"/>
          <path class="cls-11" d="m13.9,283.82c-1.9.9-4.7.8-6.5-.2l-3.9-2.3c-1.9-1.1-3.5-3.8-3.5-6V61.52c0-.8.2-1.7.6-2.6.1-.3.3-.6.4-.8h0l10.8,6.3h0c-.2.4-.4.8-.6,1.3-.3.7-.4,1.5-.4,2.1v213.8c.1,2,1.4,2.9,3.1,2.2Z"/>
          <path class="cls-15" d="m62.5,237.42c3-1.7,5.4-.3,5.4,3.1s-2.4,7.7-5.4,9.4-5.4.3-5.4-3.1,2.4-7.7,5.4-9.4Z"/>
          <g>
            <path class="cls-4" d="m61.7,39.02c1.3-.7,2.3-.1,2.3,1.3s-1,3.3-2.3,4-2.3.1-2.3-1.3,1-3.2,2.3-4Z"/>
            <path class="cls-4" d="m52.8,53.12l17.8-10.3c1.1-.6,1.9-.2,1.9,1s-.9,2.6-1.9,3.2l-17.8,10.3c-1.1.6-1.9.2-1.9-1,0-1.2.8-2.6,1.9-3.2Z"/>
          </g>
          <path class="cls-9" d="m107.6,203.02c0,1.9-1.3,3.1-3,4l-86.2,49.8c-1.6.9-3,.2-3-1.7V87.63c0-1.9,1.3-4.2,3-5.1l86.2-49.8c1.6-.9,3-.2,3,1.7v168.6Z"/>
          <path class="cls-14" d="m112.5,8.52c-.2-1.8-1.7-2.4-3.4-1.4L14.3,61.83c-.9.5-1.8,1.5-2.4,2.6l-10.8-6.3c.6-1.1,1.5-2,2.4-2.6L98.3.82c1.9-1.1,5-1.1,6.9,0l4,2.3c1.7,1,3.1,3.3,3.3,5.4Z"/>
          <g>
            <g>
              <path class="cls-14" d="m20.3,89.72v-1.2c0-.3.1-.5.2-.6h.1c.1-.1.2.1.2.3v1.2c0,.3-.1.5-.2.6h-.1c-.1.1-.2,0-.2-.3Z"/>
              <path class="cls-14" d="m21.4,89.13v-2.1c0-.3.1-.5.2-.6h.1c.1-.1.2.1.2.3v2.1c0,.3-.1.5-.2.6h-.1c-.1.1-.2,0-.2-.3Z"/>
              <path class="cls-14" d="m22.4,88.52v-3c0-.3.1-.5.2-.6h.1c.1-.1.2.1.2.3v3c0,.3-.1.5-.2.6h-.1c-.1.1-.2,0-.2-.3Z"/>
              <path class="cls-14" d="m23.5,87.92v-5.2c0-.3.1-.5.2-.6h.1c.1-.1.2.1.2.3v5.2c0,.3-.1.5-.2.6h-.1c-.1.1-.2-.1-.2-.3Z"/>
            </g>
            <g>
              <path class="cls-14" d="m26.4,86.63v-1l-1.2.7q-.1,0-.1-.1v-.6l1.3-3.5q0-.1.1-.1s0-.1.1-.1l.2-.1h.1v2.9l.3-.2h.1v.6c0,.1-.1.1-.1.1l-.3.2v1l-.1.1h-.3l-.1.1Zm0-1.7v-1.9l-.9,2.4.9-.5Z"/>
              <path class="cls-14" d="m27.8,85.33c-.2-.3-.4-.8-.4-1.6s.1-1.4.4-2c.2-.6.6-.9,1-1.2.2-.1.3-.2.5-.2.1,0,.3,0,.4.1v.2l-.1.4v.1h0c-.2-.1-.4,0-.6.1-.3.2-.5.4-.7.8s-.2.9-.2,1.5.1,1,.2,1.2c.2.2.4.2.7.1.1-.1.2-.1.3-.2.1-.1.2-.2.2-.3v-1.2l-.5.3h-.1v-.6l.1-.1.8-.5h.1v2.3c-.2.4-.5.7-.9.9-.6.2-1,.2-1.2-.1Z"/>
            </g>
            <g>
              <path class="cls-14" d="m104,37.22c-.1-.2-.3-.3-.5-.2l-3.6,2.1c-.3.2-.6.8-.6,1.4v2.7c0,.4.1.7.2.9l.2.2h.3l3.6-2.1c.3-.2.6-.8.6-1.4v-2.7c0-.4-.1-.7-.2-.9Zm-4.3,6.5c0-.1-.1-.2-.1-.4v-2.7c0-.5.2-1,.4-1.1l3.6-2.1h.2l.1.1c0,.1.1.2.1.4v2.7c0,.5-.2,1-.4,1.1l-3.6,2.1q-.2,0-.3-.1Z"/>
              <path class="cls-14" d="m102,38.93v3.2l-1.9,1.1h-.1v-2.5c0-.3.1-.7.3-.8l1.7-1Z"/>
              <path class="cls-14" d="m104.4,37.93c.1-.1.2.3.2.9v.5c0,.6-.1,1.1-.2,1.2l-.2.2v-2.5c-.1-.1,0-.2.2-.3Z"/>
            </g>
            <g>
              <path class="cls-14" d="m34.6,80.93c0,.6-.3,1.2-.7,1.5-.4.2-.7-.1-.7-.7s.3-1.2.7-1.5c.4-.1.7.2.7.7Z"/>
              <path class="cls-14" d="m33.9,78.52c-.7.4-1.3,1.4-1.6,2.4-.1.2,0,.4.1.5h0c.1.1.3-.1.4-.4.2-.8.6-1.4,1.1-1.7.5-.3.9-.1,1.1.4.1.2.3.1.4-.1h0c.1-.2.1-.4.1-.6-.2-.6-.9-.9-1.6-.5Z"/>
              <path class="cls-14" d="m33.9,76.83c-1,.6-2,2-2.5,3.5-.1.2-.1.5.1.5h0c.1.1.3-.1.4-.3.4-1.3,1.2-2.4,2-2.9.9-.5,1.6-.2,2,.5.1.2.3.1.4-.1h0c.1-.2.1-.5.1-.6-.5-.9-1.4-1.2-2.5-.6Z"/>
            </g>
            <g>
              <path class="cls-14" d="m58,68.22v.1l-.1.1-.2.1h-.1v-3.8l-.7,1.2-.1.1h-.1l-.1-.1v-.2l.9-1.6s0-.1.1-.1h.1l.2-.1h.1v4.3h0Z"/>
              <path class="cls-14" d="m59,64.62q.1,0,0,0c.1,0,.1.1.1.1v.5l-.1.1-.3.2h-.1v-.6s0-.1.1-.1l.3-.2Zm0,2.4q.1-.1,0,0c.1,0,.1.1.1.1v.5c0,.1-.1.1-.1.1l-.3.2h-.1v-.6s0-.1.1-.1l.3-.2Z"/>
              <path class="cls-14" d="m61.1,66.52c0,.1,0,0,0,0-.1,0-.1-.1-.1-.1v-.9l-1.4.8h-.1v-.5l1.4-3.5q0-.1.1-.2l.1-.1.2-.1h.1v2.9l.4-.2h.1v.4l-.1.1-.4.2v1l-.1.1-.2.1Zm-.1-1.6v-1.9l-.9,2.4.9-.5Z"/>
              <path class="cls-14" d="m62.6,64.52q0,.1.1.2c0,.1.1.1.1.1h.2c.1,0,.2-.1.3-.1.1-.1.2-.1.3-.2s.2-.2.2-.3c.1-.1.1-.2.1-.3s.1-.3.1-.4,0-.3-.1-.3c0-.1-.1-.1-.1-.2h-.2c-.1,0-.2.1-.3.1l-.4.2h-.1v-.5l.8-1.7-1.2.7h-.1v-.4c0-.1.1-.1.1-.1l1.7-1h.1v.4s0,.1-.1.1l-.6,1.7c.1-.1.3-.1.4-.1s.2,0,.3.1.1.2.2.3c0,.1.1.3.1.5s0,.4-.1.7c-.1.2-.1.4-.2.6-.1.2-.2.3-.3.5-.1.1-.3.3-.4.3-.2.1-.4.2-.5.2s-.3,0-.3-.1c-.1-.1-.2-.1-.2-.3,0-.1-.1-.2-.1-.4v-.1s0-.1.1-.1l.2-.1h-.1Z"/>
            </g>
          </g>
        </g>
        <g>
          <g>
            <g>
              <path class="cls-8" d="m44.7,121.92v-21.4c0-.6-.4-1.2-.9-1.5l-.2-.1c-.5-.3-1.3-.3-1.7,0l-18.6,10.6c-.5.3-.9.9-.9,1.5v21.4c0,.6.4,1.2.9,1.5l.2.1c.5.3,1.3.3,1.7,0l18.6-10.7c.5-.2.9-.9.9-1.4Z"/>
              <path class="cls-8" d="m43.8,100.02l-18.6,10.7c-.5.3-.9.9-.9,1.5v21.4c0,.6.4.8.9.5l18.6-10.7c.5-.3.9-.9.9-1.5v-21.4c0-.6-.4-.8-.9-.5Z"/>
              <path class="cls-3" d="m44.7,100.33c-.1-.4-.4-.6-.9-.3l-18.6,10.7c-.2.1-.4.4-.6.6l-2-1.1c.1-.3.4-.5.6-.6l18.6-10.7c.5-.3,1.3-.3,1.7,0l.2.1c.6.2.9.8,1,1.3Z"/>
              <path class="cls-6" d="m25.1,134.22c-.5.2-1.1.1-1.5-.1l-.2-.1c-.5-.3-.9-.9-.9-1.5v-21.4c0-.3.1-.6.3-.9l2,1.1c-.1.3-.2.6-.2.9v21.4c-.2.5.1.7.5.6Z"/>
            </g>
            <g>
              <path class="cls-9" d="m34.5,113.92c-1.7,1-3.1,3.7-3.1,6s1.4,3.4,3.1,2.4,3.1-3.7,3.1-6-1.3-3.4-3.1-2.4Z"/>
              <polygon class="cls-9" points="28.6 114.42 30 113.52 30 114.33 28.6 115.13 28.6 114.42"/>
              <path class="cls-9" d="m41.1,108.42l-2.7,1.5c-.5.3-.9,0-.9-.7s-.4-1-.9-.7l-4.1,2.3c-.5.3-.9,1.1-.9,1.8s-.4,1.5-.9,1.8l-2.7,1.5c-.5.3-.9,1.1-.9,1.8v10.2c0,.7.4,1,.9.7l13-7.5c.5-.3.9-1.1.9-1.8v-10.2c.1-.6-.3-.9-.8-.7Zm-6.6,14.9c-2.1,1.2-3.9-.1-3.9-2.9s1.7-6.2,3.9-7.4,3.9.1,3.9,2.9-1.7,6.1-3.9,7.4Zm4.1-10.7c-.3.2-.5,0-.5-.4s.2-.8.5-1,.5,0,.5.4-.3.8-.5,1Z"/>
            </g>
          </g>
          <g>
            <g>
              <path class="cls-8" d="m44.7,187.52v-21.4c0-.6-.4-1.2-.9-1.5l-.2-.1c-.5-.3-1.3-.3-1.7,0l-18.6,10.7c-.5.3-.9.9-.9,1.5v21.4c0,.6.4,1.2.9,1.5l.2.1c.5.3,1.3.3,1.7,0l18.6-10.7c.5-.2.9-.9.9-1.5Z"/>
              <path class="cls-5" d="m43.8,165.63l-18.6,10.7c-.5.3-.9.9-.9,1.5v21.4c0,.6.4.8.9.5l18.6-10.7c.5-.3.9-.9.9-1.5v-21.4c0-.6-.4-.8-.9-.5Z"/>
              <path class="cls-14" d="m44.7,165.92c-.1-.4-.4-.6-.9-.3l-18.6,10.7c-.2.1-.4.4-.6.6l-2-1.1c.1-.3.4-.5.6-.6l18.6-10.7c.5-.3,1.3-.3,1.7,0l.2.1c.6.2.9.8,1,1.3Z"/>
              <path class="cls-11" d="m25.1,199.83c-.5.2-1.1.1-1.5-.1l-.2-.1c-.5-.3-.9-.9-.9-1.5v-21.4c0-.3.1-.6.3-.9l2,1.1c-.1.3-.2.6-.2.9v21.4c-.2.5.1.8.5.6Z"/>
            </g>
            <g>
              <path class="cls-9" d="m42.1,180.42h-.1l-1.4-.1c-.1,0-.3-.1-.2-.2v-1.4c0-.1.1-.3.2-.4l1.6-2c.1-.1.1-.3.1-.4l-.8-1.7v-.1h0c-.1,0-.2,0-.2.1l-1.7,1.6c-.1.1-.3.1-.4.1-.2-.2-.5-.3-.7-.4-.1,0-.2-.2-.2-.3l.5-2.4q0-.1-.1-.2h-.2l-1.7.2c-.2,0-.3.1-.4.3l-.9,2.5c0,.1-.2.3-.4.4-.3.2-.7.4-1,.6-.1.1-.3.1-.4,0l-.9-1.3c-.1-.1-.2-.1-.3,0l-1.9,2c-.1.1-.2.3-.1.4l.5,1.7c0,.1,0,.3-.1.4-.3.5-.6,1-.9,1.5-.1.1-.2.3-.4.3l-1.6.4c-.2,0-.3.2-.4.3l-.8,2.7c0,.1.1.2.2.2l1.4.1c.1,0,.3.1.2.2v1.4c0,.1-.1.3-.2.4l-1.6,2c-.1.1-.1.3-.1.4l.8,1.7v.1h.1q.1,0,.2-.1l1.7-1.6c.1-.1.3-.1.4-.1.2.2.5.3.7.4.1,0,.2.2.2.3l-.5,2.4q0,.1.1.2h.2l1.7-.2c.2,0,.3-.1.4-.3l.9-2.5c0-.1.2-.3.4-.4.2-.1.4-.2.5-.3.2-.1.3-.2.5-.3.1-.1.3-.1.4,0l.9,1.3h0c.1,0,.2,0,.3-.1l1.9-2c.1-.1.2-.3.1-.4l-.5-1.7c0-.1,0-.3.1-.4.3-.5.6-1,.9-1.5.1-.1.2-.3.4-.3l1.6-.4c.2,0,.3-.2.4-.3l.8-2.7c-.1,0-.1-.1-.2-.1Zm-8.5,6.6h-.7c-.7,0-1.3-.4-1.6-1.1-.1-.3-.2-.6-.2-.9v-.5c0-1.5.8-3.4,2.1-4.8.4-.4.9-.8,1.3-1,.1-.1.3-.2.4-.2.4-.2.8-.3,1.2-.3h.3c.6.1,1,.4,1.3,1,.7,1.6-.1,4.3-1.8,6.2-.8.9-1.6,1.4-2.3,1.6Z"/>
              <path class="cls-9" d="m34,185.22q0,.1,0,0-.1.1,0,0h-.4c-.4,0-.8-.2-1-.6-.1-.2-.1-.3-.1-.5v-.3c0-.9.5-2.1,1.3-2.9.3-.3.5-.5.8-.6.1-.1.2-.1.3-.1.3-.1.5-.2.7-.2h0c.3.1.6.3.8.6.4.9-.1,2.6-1.1,3.7-.4.6-.9.8-1.3.9Z"/>
            </g>
          </g>
          <g>
            <g>
              <path class="cls-8" d="m101.6,89.13v-21.4c0-.6-.4-1.2-.9-1.5l-.2-.1c-.5-.3-1.3-.3-1.7,0l-18.6,10.7c-.5.3-.9.9-.9,1.5v21.4c0,.6.4,1.2.9,1.5l.2.1c.5.3,1.3.3,1.7,0l18.6-10.7c.5-.3.9-1,.9-1.5Z"/>
              <path class="cls-8" d="m100.7,67.12l-18.6,10.7c-.5.3-.9.9-.9,1.5v21.4c0,.6.4.8.9.5l18.6-10.7c.5-.3.9-.9.9-1.5v-21.4c0-.5-.4-.7-.9-.5Z"/>
              <path class="cls-2" d="m100.7,67.12l-18.6,10.7c-.5.3-.9.9-.9,1.5v21.4c0,.6.4.8.9.5l18.6-10.7c.5-.3.9-.9.9-1.5v-21.4c0-.5-.4-.7-.9-.5Z"/>
              <path class="cls-13" d="m101.5,67.52c-.1-.4-.4-.6-.9-.3l-18.6,10.7c-.2.1-.5.4-.6.6l-2-1.1c.1-.3.4-.5.6-.6l18.6-10.7c.5-.3,1.3-.3,1.7,0l.2.1c.6.2,1,.8,1,1.3Z"/>
              <path class="cls-12" d="m81.9,101.42c-.5.2-1.1.1-1.5-.1l-.2-.1c-.5-.3-.9-.9-.9-1.5v-21.4c0-.3.1-.6.3-.9l2,1.1c-.1.3-.2.6-.2.9v21.4c-.1.5.1.7.5.6Z"/>
            </g>
            <g>
              <path class="cls-9" d="m84.4,83.42l6.7,3.9c.2.1.5,0,.7-.4l6.7-11.6v10.5c0,.5-.3,1.1-.6,1.3l-12.8,7.4c-.3.2-.6-.1-.6-.6l-.1-10.5h0Z"/>
              <path class="cls-9" d="m91.1,85.72l-6.7-3.6,14-8.1-6.7,11.3c-.1.3-.4.5-.6.4Z"/>
            </g>
          </g>
          <g>
            <g>
              <path class="cls-8" d="m73.1,105.52v-21.4c0-.6-.4-1.2-.9-1.5l-.2-.1c-.5-.3-1.3-.3-1.7,0l-18.6,10.7c-.5.3-.9.9-.9,1.5v21.4c0,.6.4,1.2.9,1.5l.2.1c.5.3,1.3.3,1.7,0l18.6-10.7c.5-.3.9-1,.9-1.5Z"/>
              <path class="cls-8" d="m72.3,83.52l-18.6,10.7c-.5.3-.9.9-.9,1.5v21.4c0,.6.4.8.9.5l18.6-10.7c.5-.3.9-.9.9-1.5v-21.4c-.1-.5-.5-.7-.9-.5Z"/>
              <path class="cls-7" d="m72.3,83.52l-18.6,10.7c-.5.3-.9.9-.9,1.5v21.4c0,.6.4.8.9.5l18.6-10.7c.5-.3.9-.9.9-1.5v-21.4c-.1-.5-.5-.7-.9-.5Z"/>
              <path class="cls-1" d="m73.1,83.92c-.1-.4-.4-.6-.9-.3l-18.6,10.7c-.2.1-.4.4-.6.6l-2-1.1c.1-.3.4-.5.6-.6l18.6-10.7c.5-.3,1.3-.3,1.7,0l.2.1c.6.2,1,.8,1,1.3Z"/>
              <path class="cls-10" d="m53.5,117.83c-.5.2-1.1.1-1.5-.1l-.2-.1c-.5-.3-.9-.9-.9-1.5v-21.4c0-.3.1-.6.3-.9l2,1.1c-.1.3-.2.6-.2.9v21.4c-.2.5.1.7.5.6Z"/>
            </g>
            <path class="cls-14" d="m65.9,104.52c1.3-2.2,2.2-4.9,2.2-7.4,0-4.3-2.6-6.3-5.8-4.5s-5.8,6.9-5.8,11.2,2.6,6.3,5.8,4.5c.5-.3,1.1-.7,1.6-1.2.4.6,1.4,1.8,3.4.1-.1,0-1.2-.5-1.4-2.7Z"/>
          </g>
          <g>
            <g>
              <path class="cls-8" d="m44.7,154.72v-21.4c0-.6-.4-1.2-.9-1.5l-.2-.1c-.5-.3-1.3-.3-1.7,0l-18.6,10.7c-.5.3-.9.9-.9,1.5v21.4c0,.6.4,1.2.9,1.5l.2.1c.5.3,1.3.3,1.7,0l18.6-10.7c.5-.3.9-.9.9-1.5Z"/>
              <path class="cls-8" d="m43.8,132.83l-18.5,10.7c-.5.3-.9.9-.9,1.5v21.4c0,.6.4.8.9.5l18.6-10.7c.5-.3.9-.9.9-1.5v-21.4c-.1-.6-.5-.8-1-.5Z"/>
              <path class="cls-7" d="m43.8,132.83l-18.5,10.7c-.5.3-.9.9-.9,1.5v21.4c0,.6.4.8.9.5l18.6-10.7c.5-.3.9-.9.9-1.5v-21.4c-.1-.6-.5-.8-1-.5Z"/>
              <path class="cls-1" d="m44.7,133.13c-.1-.4-.4-.6-.9-.3l-18.5,10.7c-.2.1-.4.4-.6.6l-2-1.1c.1-.3.4-.5.6-.6l18.6-10.7c.5-.3,1.3-.3,1.7,0l.2.1c.5.2.8.8.9,1.3Z"/>
              <path class="cls-10" d="m25.1,167.02c-.5.2-1.1.1-1.5-.1l-.2-.1c-.5-.3-.9-.9-.9-1.5v-21.4c0-.3.1-.6.3-.9l2,1.1c-.1.3-.2.6-.2.9v21.4c-.2.5.1.7.5.6Z"/>
            </g>
            <path class="cls-9" d="m37.5,152.33c1.1-2.6,1.7-5.4,1.6-7.7.5-.8,1-1.7,1.3-2.6-.5.6-1,1.1-1.5,1.4.6-.8,1-1.7,1.2-2.7-.5.7-1.1,1.3-1.7,1.8-.5-.4-1.2-.4-2,0-1.7,1-3,3.9-2.6,5.9-2.2,1.1-4.2.9-5.5-.5-.7,2-.4,3.9.8,4.3-.4.2-.9.3-1.2.3,0,1.7.9,2.7,2.1,2.3-.4.4-.8.6-1.2.8.3,1.2,1.3,1.7,2.5,1-1.1,1.8-2.5,3.2-4,3.8,1.2.3,2.6.1,4.1-.8,2.8-1.5,4.8-4.3,6.1-7.3"/>
          </g>
          <g>
            <g>
              <path class="cls-8" d="m73.1,138.33v-21.4c0-.6-.4-1.2-.9-1.5l-.2-.1c-.5-.3-1.3-.3-1.7,0l-18.6,10.7c-.5.3-.9.9-.9,1.5v21.4c0,.6.4,1.2.9,1.5l.2.1c.5.3,1.3.3,1.7,0l18.6-10.7c.5-.3.9-1,.9-1.5Z"/>
              <path class="cls-8" d="m72.3,116.42l-18.6,10.7c-.5.3-.9.9-.9,1.5v21.4c0,.6.4.8.9.5l18.6-10.7c.5-.3.9-.9.9-1.5v-21.4c-.1-.6-.5-.8-.9-.5Z"/>
              <path class="cls-3" d="m73.1,116.72c-.1-.4-.4-.6-.9-.3l-18.6,10.7c-.2.1-.4.4-.6.6l-2-1.1c.1-.3.4-.5.6-.6l18.6-10.7c.5-.3,1.3-.3,1.7,0l.2.1c.6.2,1,.8,1,1.3Z"/>
              <path class="cls-6" d="m53.5,150.63c-.5.2-1.1.1-1.5-.1l-.2-.1c-.5-.3-.9-.9-.9-1.5v-21.4c0-.3.1-.6.3-.9l2,1.1c-.1.3-.2.6-.2.9v21.4c-.2.5.1.7.5.6Z"/>
            </g>
            <g>
              <path class="cls-9" d="m63,126.72c1.6-1,1.8-1.1,2.5-1.4.6-.3.9-.4,1.1-.4.3,0,.5,0,.7.2s.4.4.5.7c.1.2.2.6.2,1.4v6.7c0,.8-.1,1.3-.2,1.7-.1.4-.2.8-.5,1.2-.2.4-.4.7-.7,1-.2.2-.5.6-1.1.9-.7.4-.8.5-2.5,1.5-1.6,1-1.8,1.1-2.5,1.4-.6.3-.9.4-1.1.4-.3,0-.5,0-.7-.2s-.4-.4-.5-.7c-.1-.2-.2-.6-.2-1.4v-6.7c0-.8.1-1.3.2-1.7.1-.4.2-.8.5-1.2.2-.4.4-.7.7-1,.2-.2.5-.6,1.1-.9.6-.5.8-.6,2.5-1.5m0-1.5c-1.7,1-1.9,1.1-2.5,1.5-.7.4-1.1.8-1.5,1.2s-.8.9-1.1,1.6-.6,1.2-.7,1.9c-.2.6-.3,1.3-.3,2.2v6.8c0,.9.1,1.4.3,1.8.2.5.4.8.7,1,.3.3.7.3,1.1.3s.8-.1,1.5-.5c.7-.3.9-.5,2.5-1.4,1.7-1,1.9-1.1,2.5-1.5.7-.4,1.1-.8,1.5-1.2s.8-.9,1.1-1.6.6-1.2.7-1.9c.2-.6.3-1.3.3-2.2v-6.8c0-.9-.1-1.4-.3-1.8-.2-.5-.4-.8-.7-1-.3-.3-.7-.3-1.1-.3s-.8.1-1.5.5c-.6.3-.8.4-2.5,1.4"/>
              <path class="cls-9" d="m63,129.22c-1.8,1-3.2,3.7-3.2,6.1s1.4,3.4,3.2,2.4,3.2-3.7,3.2-6.1-1.5-3.4-3.2-2.4m0,7c-1.1.7-2.1,0-2.1-1.6,0-1.5.9-3.3,2.1-3.9,1.1-.7,2.1,0,2.1,1.6-.1,1.5-1,3.2-2.1,3.9"/>
              <path class="cls-9" d="m67,126.72c0,.5-.3,1.2-.7,1.4s-.7,0-.7-.6.3-1.2.7-1.4.7.1.7.6"/>
            </g>
          </g>
          <g>
            <g>
              <path class="cls-8" d="m101.6,121.92v-21.4c0-.6-.4-1.2-.9-1.5l-.2-.1c-.5-.3-1.3-.3-1.7,0l-18.6,10.6c-.5.3-.9.9-.9,1.5v21.4c0,.6.4,1.2.9,1.5l.2.1c.5.3,1.3.3,1.7,0l18.6-10.7c.5-.2.9-.9.9-1.4Z"/>
              <path class="cls-5" d="m100.7,100.02l-18.6,10.7c-.5.3-.9.9-.9,1.5v21.4c0,.6.4.8.9.5l18.6-10.7c.5-.3.9-.9.9-1.5v-21.4c0-.6-.4-.8-.9-.5Z"/>
              <path class="cls-14" d="m101.5,100.33c-.1-.4-.4-.6-.9-.3l-18.6,10.7c-.2.1-.5.4-.6.6l-2-1.1c.1-.3.4-.5.6-.6l18.6-10.7c.5-.3,1.3-.3,1.7,0l.2.1c.6.2,1,.8,1,1.3Z"/>
              <path class="cls-11" d="m81.9,134.22c-.5.2-1.1.1-1.5-.1l-.2-.1c-.5-.3-.9-.9-.9-1.5v-21.4c0-.3.1-.6.3-.9l2,1.1c-.1.3-.2.6-.2.9v21.4c-.1.5.1.7.5.6Z"/>
            </g>
            <path class="cls-9" d="m87.4,131.13l3-1.8v-10.1l2.1-1.2.2-3.5-2.3,1.4v-1.9c0-.8.1-1.2.7-1.5.5-.3,1.6-.9,1.6-.9v-3.5s-1.7,1-2.1,1.2c-2.3,1.3-3.3,3.2-3.3,5.7v2.7l-1.6.9v3.4l1.6-.9.1,10h0Z"/>
          </g>
          <g>
            <g>
              <path class="cls-8" d="m73.1,171.13v-21.4c0-.6-.4-1.2-.9-1.5l-.2-.1c-.5-.3-1.3-.3-1.7,0l-18.6,10.7c-.5.3-.9.9-.9,1.5v21.4c0,.6.4,1.2.9,1.5l.2.1c.5.3,1.3.3,1.7,0l18.6-10.7c.5-.3.9-.9.9-1.5Z"/>
              <path class="cls-8" d="m72.3,149.22l-18.6,10.7c-.5.3-.9.9-.9,1.5v21.4c0,.6.4.8.9.5l18.6-10.7c.5-.3.9-.9.9-1.5v-21.4c-.1-.6-.5-.8-.9-.5Z"/>
              <path class="cls-2" d="m72.3,149.22l-18.6,10.7c-.5.3-.9.9-.9,1.5v21.4c0,.6.4.8.9.5l18.6-10.7c.5-.3.9-.9.9-1.5v-21.4c-.1-.6-.5-.8-.9-.5Z"/>
              <path class="cls-13" d="m73.1,149.52c-.1-.4-.4-.6-.9-.3l-18.6,10.7c-.2.1-.4.4-.6.6l-2-1.1c.1-.3.4-.5.6-.6l18.6-10.7c.5-.3,1.3-.3,1.7,0l.2.1c.6.2,1,.8,1,1.3Z"/>
              <path class="cls-12" d="m53.5,183.42c-.5.2-1.1.1-1.5-.1l-.2-.1c-.5-.3-.9-.9-.9-1.5v-21.4c0-.3.1-.6.3-.9l2,1.1c-.1.3-.2.6-.2.9v21.4c-.2.5.1.7.5.6Z"/>
            </g>
            <path class="cls-9" d="m58.8,160.83v11.7c-.2,0-.8.3-1,.5-1.2.7-2.1,2.4-2.1,3.7,0,1.4,1,1.9,2.1,1.2s2.6-2.6,2.6-4v-10.7l6.9-3.9v8.4c-.2,0-.8.3-1,.5-1.2.7-1.8,2.1-1.8,3.5s1,1.9,2.1,1.2c1.2-.7,2.1-2.3,2.1-3.7h0v-14.1l-9.9,5.7Z"/>
          </g>
          <g>
            <g>
              <path class="cls-8" d="m44.7,220.32v-21.4c0-.6-.4-1.2-.9-1.5l-.2-.1c-.5-.3-1.3-.3-1.7,0l-18.6,10.7c-.5.3-.9.9-.9,1.5v21.4c0,.6.4,1.2.9,1.5l.2.1c.5.3,1.3.3,1.7,0l18.6-10.7c.5-.2.9-.9.9-1.5Z"/>
              <path class="cls-8" d="m43.8,198.42l-18.6,10.7c-.5.3-.9.9-.9,1.5v21.4c0,.6.4.8.9.5l18.6-10.7c.5-.3.9-.9.9-1.5v-21.4c0-.5-.4-.8-.9-.5Z"/>
              <path class="cls-3" d="m44.7,198.83c-.1-.4-.4-.6-.9-.3l-18.6,10.7c-.2.1-.4.4-.6.6l-2-1.1c.1-.3.4-.5.6-.6l18.6-10.7c.5-.3,1.3-.3,1.7,0l.2.1c.6.2.9.7,1,1.3Z"/>
              <path class="cls-6" d="m25.1,232.73c-.5.2-1.1.1-1.5-.1l-.2-.1c-.5-.3-.9-1-.9-1.5v-21.5c0-.3.1-.6.3-.9l2,1.1c-.1.3-.2.6-.2.9v21.4c-.2.6.1.8.5.7Z"/>
            </g>
            <g>
              <path class="cls-9" d="m26.9,212.13v15.7c0,.6.4.8.9.5l13.6-7.9c.5-.3.9-.9.9-1.5v-15.7c0-.6-.4-.8-.9-.5l-13.6,7.9c-.5.2-.9.9-.9,1.5Zm14.4,4.2l-3.4-1.9-1.9,2.5,1.5,1.7-4.9-3.4-4.8,7.5v-11l13.5-7.8v12.4h0Z"/>
              <path class="cls-9" d="m38.1,208.63c.6-.3,1.1-.1,1.1.6s-.5,1.5-1.1,1.9c-.6.3-1.1.1-1.1-.6s.5-1.5,1.1-1.9Z"/>
            </g>
          </g>
          <g>
            <g>
              <path class="cls-8" d="m73.1,203.92v-21.4c0-.6-.4-1.2-.9-1.5l-.2-.1c-.5-.3-1.3-.3-1.7,0l-18.6,10.7c-.5.3-.9.9-.9,1.5v21.4c0,.6.4,1.2.9,1.5l.2.1c.5.3,1.3.3,1.7,0l18.6-10.7c.5-.3.9-.9.9-1.5Z"/>
              <path class="cls-7" d="m72.3,182.02l-18.6,10.7c-.5.3-.9.9-.9,1.5v21.4c0,.6.4.8.9.5l18.6-10.7c.5-.3.9-.9.9-1.5v-21.4c-.1-.6-.5-.8-.9-.5Z"/>
              <path class="cls-1" d="m73.1,182.33c-.1-.4-.4-.6-.9-.3l-18.6,10.7c-.2.1-.4.4-.6.6l-2-1.1c.1-.3.4-.5.6-.6l18.6-10.7c.5-.3,1.3-.3,1.7,0l.2.1c.6.2,1,.8,1,1.3Z"/>
              <path class="cls-10" d="m53.5,216.23c-.5.2-1.1.1-1.5-.1l-.2-.1c-.5-.3-.9-1-.9-1.5v-21.4c0-.3.1-.6.3-.9l2,1.1c-.1.3-.2.6-.2.9v21.4c-.2.5.1.8.5.6Z"/>
            </g>
            <g>
              <path class="cls-14" d="m62.8,190.83c1.7-1,3.2-.2,3.2,1.8s-1.4,4.5-3.2,5.5c-1.7,1-3.2.2-3.2-1.8.1-2,1.5-4.5,3.2-5.5Z"/>
              <path class="cls-14" d="m69.1,201.63c0-3.3-2.3-4.8-5.2-3.1l-1.8,1c-2.9,1.7-5.2,5.7-5.2,9v.9s1.2.8,6.1-2.1,6.1-5,6.1-5v-.7h0Z"/>
            </g>
          </g>
          <g>
            <g>
              <path class="cls-8" d="m101.6,187.52v-21.4c0-.6-.4-1.2-.9-1.5l-.2-.1c-.5-.3-1.3-.3-1.7,0l-18.6,10.7c-.5.3-.9.9-.9,1.5v21.4c0,.6.4,1.2.9,1.5l.2.1c.5.3,1.3.3,1.7,0l18.6-10.7c.5-.2.9-.9.9-1.5Z"/>
              <path class="cls-5" d="m100.7,165.63l-18.6,10.7c-.5.3-.9.9-.9,1.5v21.4c0,.6.4.8.9.5l18.6-10.7c.5-.3.9-.9.9-1.5v-21.4c0-.6-.4-.8-.9-.5Z"/>
              <path class="cls-14" d="m101.5,165.92c-.1-.4-.4-.6-.9-.3l-18.6,10.7c-.2.1-.5.4-.6.6l-2-1.1c.1-.3.4-.5.6-.6l18.6-10.7c.5-.3,1.3-.3,1.7,0l.2.1c.6.2,1,.8,1,1.3Z"/>
              <path class="cls-11" d="m81.9,199.83c-.5.2-1.1.1-1.5-.1l-.2-.1c-.5-.3-.9-.9-.9-1.5v-21.4c0-.3.1-.6.3-.9l2,1.1c-.1.3-.2.6-.2.9v21.4c-.1.5.1.8.5.6Z"/>
            </g>
            <path class="cls-9" d="m96.1,173.52l-9.3,5.4c-1.6.9-2.9,3.2-2.9,5v6.2c0,1.9,1.3,2.6,2.9,1.7l9.3-5.4c1.6-.9,2.9-3.2,2.9-5v-6.2c0-1.9-1.3-2.6-2.9-1.7Zm-2,8l-5,5.8c-.3.3-.5.2-.5-.2v-5.4c0-.4.3-.7.7-.7h4.5c.4-.1.5.2.3.5Z"/>
          </g>
          <g>
            <g>
              <path class="cls-8" d="m101.6,154.72v-21.4c0-.6-.4-1.2-.9-1.5l-.2-.1c-.5-.3-1.3-.3-1.7,0l-18.6,10.7c-.5.3-.9.9-.9,1.5v21.4c0,.6.4,1.2.9,1.5l.2.1c.5.3,1.3.3,1.7,0l18.6-10.7c.5-.3.9-.9.9-1.5Z"/>
              <path class="cls-8" d="m100.7,132.83l-18.6,10.7c-.5.3-.9.9-.9,1.5v21.4c0,.6.4.8.9.5l18.6-10.7c.5-.3.9-.9.9-1.5v-21.4c0-.6-.4-.8-.9-.5Z"/>
              <path class="cls-3" d="m101.5,133.13c-.1-.4-.4-.6-.9-.3l-18.5,10.7c-.2.1-.5.4-.6.6l-2-1.1c.1-.3.4-.5.6-.6l18.6-10.7c.5-.3,1.3-.3,1.7,0l.2.1c.5.2.9.8.9,1.3Z"/>
              <path class="cls-6" d="m81.9,167.02c-.5.2-1.1.1-1.5-.1l-.2-.1c-.5-.3-.9-.9-.9-1.5v-21.4c0-.3.1-.6.3-.9l2,1.1c-.1.3-.2.6-.2.9v21.4c-.1.5.1.7.5.6Z"/>
            </g>
            <path class="cls-9" d="m92,142.72l1.4,2.9c.1.2.3.2.4.2l3.1-1.2c.5-.2.7.5.3,1.2l-2.2,4.2c-.1.3-.2.6-.2.8l.5,3.8c.1.6-.4,1.4-.9,1.3l-2.7-.3c-.2,0-.4.1-.6.3l-2.7,3.5c-.4.6-.9.4-.9-.3l.5-4.4c0-.3,0-.5-.2-.6l-2.2-1.6c-.4-.3-.2-1.2.3-1.5l3.1-2.4c.2-.1.4-.4.4-.7l1.4-4.5c.3-.8.9-1.2,1.2-.7Z"/>
          </g>
        </g>
      </g>
    </g>
  </g>
</svg>