<?xml version="1.0" encoding="UTF-8"?>
<svg xmlns="http://www.w3.org/2000/svg" xmlns:xlink="http://www.w3.org/1999/xlink" viewBox="0 0 500 504">
  <defs>
    <style>
      .cls-1 {
        fill: #4c5399;
      }

      .cls-1, .cls-2, .cls-3, .cls-4, .cls-5, .cls-6, .cls-7 {
        stroke-width: 0px;
      }

      .cls-8 {
        isolation: isolate;
      }

      .cls-2 {
        fill: #6669ad;
      }

      .cls-3 {
        fill: none;
      }

      .cls-4 {
        mix-blend-mode: overlay;
      }

      .cls-4, .cls-7 {
        fill: #e4eaed;
      }

      .cls-5 {
        fill: #282752;
      }

      .cls-6 {
        fill: #231f20;
      }

      .cls-9 {
        clip-path: url(#clippath);
      }

      .cls-7 {
        mix-blend-mode: soft-light;
      }
    </style>
    <clipPath id="clippath">
      <path class="cls-3" d="m99.66,446.72c-1.02,7.95-2.05,15.9-3.07,23.84l-2.88,22.33c-.39,3.06-.79,6.11-1.18,9.17h314.94l-1.8-13.96c-1.02-7.91-2.04-15.81-3.06-23.72-.97-7.51-1.94-15.02-2.9-22.53l-.95-7.4c-.09-.71-.18-1.41-.27-2.12-.02-.19-.01-.49-.06-.71,0,.09-.05.13-.14.09-.16-.06-.4-.58-.5-.73-.33-.49-.66-.98-.99-1.48-.68-1.04-1.34-2.09-1.97-3.16-1.32-2.21-2.54-4.46-3.69-6.76-2.33-4.67-4.35-9.51-6.1-14.43-3.61-10.14-6.13-20.65-7.97-31.24-1.78-10.33-2.92-20.76-3.58-31.22-.57-9.05-.79-18.13-.69-27.2.07-6.42.29-12.83.7-19.24.14-2.14.29-4.27.49-6.41-4.49-1.15-8.99-2.23-13.47-3.26-16.01-3.69-32.18-6.69-48.4-9.3-.07,1.14-.17,2.28-.3,3.41-1.49,12.33-6.63,23.99-14.74,33.4-8,9.28-18.75,16.1-30.56,19.37-12.28,3.4-25.61,2.95-37.62-1.34-11.58-4.14-21.72-11.66-29.1-21.48-7.24-9.64-11.45-21.29-12.26-33.3-3.2.52-6.39,1.04-9.58,1.59-17.04,2.94-34.04,6.31-50.78,10.66-.39.1-.77.21-1.16.31.32,3.38.53,6.77.71,10.15.38,7.19.54,14.38.5,21.58-.05,9.53-.44,19.07-1.26,28.56-.92,10.6-2.35,21.18-4.53,31.59-2.19,10.46-5.14,20.79-9.29,30.65-1.99,4.74-4.26,9.36-6.89,13.78-.64,1.07-1.29,2.12-1.97,3.16-.35.54-.71,1.07-1.07,1.6-.1.15-.34.67-.5.73-.08.03-.14,0-.14-.09-.04.22-.03.5-.06.68-.62,4.81-1.24,9.61-1.86,14.42Z"/>
    </clipPath>
  </defs>
  <g class="cls-8">
    <g id="Calque_2" data-name="Calque 2">
      <g id="OBJECTS">
        <g>
          <path class="cls-2" d="m452.26,260.01c-1.38-1.61-3.28-3.44-4.01-5.48-.64-1.77-.58-3.94-.66-5.8-.15-3.5-.15-7-.15-10.51.02-10.97.26-21.94.39-32.91.32-26.73.56-53.61-1.86-80.26-.94-10.33-2.12-20.96-5.42-30.84-1.01-3.03-2.26-6.19-4.32-8.67-1.06-1.28-1.33-1.96-.37-3.38,1.08-1.61,2.43-3.08,3.67-4.57,3.94-4.71,7.9-9.45,11.11-14.7,1.99-3.27,5.86-9.53,2.91-13.29-1.95-2.48-5.78-2.92-8.67-2.46-3.65.58-7.05,2.31-10.22,4.12-3.06,1.74-5.96,3.73-9.01,5.5-1.92,1.11-4.18,2.48-6.49,2.4,0,0,0,0,0,0-.1,0-.21-.01-.32-.04-3.49-.93-7.03-1.69-10.58-2.36-21.4-4.04-43.31-5.62-65.01-6.94-28.53-1.73-57.13-2.45-85.71-2.56-29.11-.12-58.23.4-87.3,1.83-23.31,1.15-46.73,2.65-69.81,6.2-4.18.64-8.36,1.36-12.5,2.24-3.6.76-7.05,2.35-10.61.8-5.66-2.46-10.46-6.59-16.08-9.18-2.89-1.33-6.16-2.44-9.38-2.11-2.29.24-5.11,1.35-6.04,3.64-1.68,4.15,1.88,9.62,3.98,12.95,3.04,4.81,6.67,9.21,10.32,13.57,1.22,1.46,2.48,2.91,3.62,4.44.77,1.03,1.5,1.95.69,3.17-.7,1.05-1.59,1.94-2.23,3.05-.8,1.38-1.46,2.84-2.03,4.34-3.19,8.34-4.46,17.46-5.47,26.29-1.35,11.76-1.94,23.61-2.3,35.44-.71,23.87-.27,47.76.04,71.63.1,7.65.29,15.33-.03,22.98-.08,1.84-.07,3.86-.57,5.64-.35,1.24-1.23,2.25-2.01,3.25-2.17,2.82-4.62,5.42-7,8.05-4.58,5.06-10.69,10.92-12.24,17.83-.4,1.8-.58,4.38,1.37,5.32,1.78.86,4.19.54,6.06.24,6.1-.99,12.03-3.54,17.45-6.44,4.09-2.19,9.5-4.98,11.88-9.18.36-.64,1.1-.73,1.71-.45,1.1.5,2.23.93,3.38,1.33,7.03,2.44,14.47,3.77,21.8,4.96,10.55,1.7,21.18,2.86,31.82,3.82,27.67,2.5,55.47,3.64,83.25,4.25,30.74.67,61.51.59,92.25-.27,27.02-.76,54.08-2.02,80.97-4.81,9.85-1.02,19.71-2.24,29.45-4.08,6.36-1.2,13.02-2.5,18.94-5.2.61-.28,1.35-.18,1.71.45,1.13,1.99,3.07,3.53,4.89,4.86,5.42,3.97,11.7,7.02,18.06,9.13,2.81.93,5.76,1.76,8.74,1.88,1.63.07,4.03.06,4.91-1.6,1.4-2.64-.46-6.53-1.73-8.81-1.93-3.46-4.48-6.55-7.07-9.53-2.69-3.09-5.52-6.06-8.18-9.17ZM120.63,91.55c2.51.7,4.99,1.53,7.45,2.37,13.29,4.54,26.24,10.18,38.64,16.79,17.43,9.29,33.98,20.7,47.74,34.95,1.12,1.16-.65,2.93-1.77,1.77-7.9-8.18-16.73-15.41-26.12-21.83-14.2-9.71-29.6-17.69-45.53-24.17-6.88-2.8-13.91-5.48-21.08-7.47-1.55-.43-.89-2.84.66-2.41Zm99.44,97.02c-1.08-.35-2.17-.68-3.27-.97-10.05-2.68-20.64-3.09-30.99-2.76-11.65.37-23.25,1.8-34.74,3.75-10.94,1.86-21.79,4.2-32.55,6.89-8.03,2-16.01,4.2-23.94,6.58-3.14.95-6.28,1.91-9.39,2.96-1.53.52-2.18-1.9-.66-2.41.05-.02.11-.03.16-.05,3.76-1.47,7.77-2.48,11.63-3.62,8.49-2.51,17.04-4.8,25.64-6.87,11.09-2.67,22.28-4.97,33.55-6.71,11.55-1.78,23.23-3.04,34.93-3.09,10.16-.05,20.59.74,30.3,3.91,1.52.5.87,2.91-.66,2.41Zm82.01-30.21c6.58-10.95,14.8-20.87,24.21-29.5,13.6-12.46,29.53-22.3,46.49-29.51,7.38-3.14,15.07-6.09,22.93-7.81,1.57-.34,2.24,2.07.66,2.41-2.63.57-5.22,1.37-7.79,2.18-13.79,4.35-27.04,10.58-39.25,18.3-18.17,11.5-33.97,26.7-45.09,45.19-.83,1.38-2.99.12-2.16-1.26Zm113.24,61.57c-2.11-1.98-4.4-3.8-6.69-5.57-11.68-9.01-24.8-16.5-38.79-21.24-18.71-6.34-39.06-7.12-57.43.85-1.46.64-2.73-1.52-1.26-2.16,10.77-4.68,22.43-6.75,34.15-6.12,17.95.97,35.22,7.71,50.5,16.91,7.47,4.49,14.9,9.58,21.28,15.56,1.18,1.1-.59,2.87-1.77,1.77Z"/>
          <g>
            <path class="cls-6" d="m452.77,256.75c-.72-.89-1.59-1.85-2.11-2.89.03.02-.14-.45-.18-.67-.36-1.94-.42-4.64-.47-6.92-.23-9.72.03-19.46.16-29.18.39-27.63.83-55.34-.99-82.92-.77-11.67-1.81-23.51-4.59-34.89-.97-3.96-2.17-7.95-4.04-11.59-.69-1.34-1.53-2.99-2.65-4.02.51-.47.92-1.26,1.36-1.79,3.69-4.54,7.54-8.93,10.92-13.71,3.07-4.35,6.85-9.8,6.86-15.36.01-5.83-5.9-8.66-11.12-8.25-7.43.58-13.89,5.44-20.03,9.19-1.86,1.14-4.28,2.95-6.58,2.94-18.98-5.01-39.02-6.59-58.51-8.12-28.14-2.21-56.38-3.2-84.59-3.61-30.13-.44-60.27-.16-90.38.98-25.3.96-50.66,2.37-75.79,5.54-8.81,1.11-17.64,2.4-26.29,4.45-1.89.45-3.27,1.03-5.15.26-2.57-1.04-4.92-2.71-7.26-4.17-5.41-3.39-11.53-7.41-18.14-7.5-4.73-.06-9.89,2.55-10.2,7.72-.3,4.9,2.78,9.85,5.36,13.77,3.11,4.71,6.73,9.07,10.34,13.39,1.13,1.35,2.32,2.68,3.33,4.13,0,.01.03.05.04.07-.38.42-.76,1.11-.96,1.38-4.36,6.1-5.91,14.33-7.19,21.55-1.96,11.05-2.84,22.3-3.44,33.5-1.34,25.12-1.02,50.32-.67,75.46.13,9.19.33,18.39.24,27.58-.03,2.76-.05,5.54-.29,8.29-.08.94-.09,1.26-.29,2.11-.05.23-.11.38-.12.41-.5,1.03-1.4,2.01-2.12,2.89-4.74,5.84-10.26,11.01-14.63,17.15-2.68,3.77-7.01,10.83-3.64,15.43,2.55,3.48,8.39,2.34,11.91,1.52,6.13-1.42,12.08-4.06,17.53-7.16,3.66-2.08,8.06-4.64,10.54-8.25,5.76,2.44,12.02,3.76,18.14,4.92,9.8,1.86,19.72,3.1,29.64,4.14,27.06,2.84,54.29,4.11,81.47,4.88,30.91.87,61.84.95,92.75.27,28.02-.61,56.07-1.77,83.98-4.33,10.63-.98,21.26-2.15,31.8-3.87,7.32-1.19,14.75-2.53,21.76-5,.87-.31,1.74-.65,2.59-1.01,2.96,4.34,8.6,7.29,13.04,9.6,5.82,3.02,12.26,5.75,18.83,6.47,4.7.51,9.24-.8,9.19-6.3-.06-7.5-6.82-14.35-11.46-19.56-2.64-2.96-5.39-5.83-7.89-8.91Zm16.47,30.77c-.88,1.67-3.28,1.67-4.91,1.6-2.97-.12-5.93-.95-8.74-1.88-6.36-2.11-12.64-5.16-18.06-9.13-1.82-1.33-3.77-2.87-4.89-4.86-.36-.63-1.1-.73-1.71-.45-5.92,2.7-12.57,4-18.94,5.2-9.74,1.84-19.59,3.05-29.45,4.08-26.89,2.79-53.95,4.05-80.97,4.81-30.74.86-61.51.94-92.25.27-27.77-.61-55.57-1.74-83.25-4.25-10.64-.96-21.27-2.12-31.82-3.82-7.33-1.18-14.77-2.52-21.8-4.96-1.15-.4-2.28-.83-3.38-1.33-.61-.28-1.35-.19-1.71.45-2.38,4.21-7.79,7-11.88,9.18-5.42,2.9-11.35,5.45-17.45,6.44-1.87.3-4.27.62-6.06-.24-1.95-.94-1.77-3.51-1.37-5.32,1.55-6.91,7.66-12.77,12.24-17.83,2.38-2.64,4.83-5.24,7-8.05.78-1,1.66-2.01,2.01-3.25.5-1.79.49-3.8.57-5.64.32-7.65.13-15.33.03-22.98-.31-23.88-.76-47.76-.04-71.63.35-11.83.95-23.68,2.3-35.44,1.01-8.82,2.28-17.95,5.47-26.29.57-1.49,1.23-2.95,2.03-4.34.65-1.12,1.54-2,2.23-3.05.81-1.22.08-2.14-.69-3.17-1.14-1.53-2.4-2.98-3.62-4.44-3.65-4.36-7.28-8.76-10.32-13.57-2.1-3.33-5.66-8.8-3.98-12.95.93-2.29,3.75-3.4,6.04-3.64,3.22-.33,6.5.78,9.38,2.11,5.62,2.59,10.42,6.72,16.08,9.18,3.56,1.55,7-.04,10.61-.8,4.14-.87,8.32-1.59,12.5-2.24,23.08-3.54,46.5-5.05,69.81-6.2,29.07-1.43,58.19-1.95,87.3-1.83,28.58.12,57.18.84,85.71,2.56,21.71,1.31,43.62,2.9,65.01,6.94,3.55.67,7.08,1.43,10.58,2.36.11.03.22.04.32.04,0,0,0,0,0,0,2.3.09,4.57-1.29,6.49-2.4,3.04-1.76,5.95-3.75,9.01-5.5,3.17-1.81,6.57-3.54,10.22-4.12,2.89-.46,6.72-.02,8.67,2.46,2.95,3.76-.92,10.02-2.91,13.29-3.2,5.25-7.17,9.99-11.11,14.7-1.24,1.49-2.59,2.95-3.67,4.57-.96,1.43-.7,2.1.37,3.38,2.06,2.48,3.31,5.64,4.32,8.67,3.3,9.88,4.48,20.51,5.42,30.84,2.42,26.65,2.18,53.53,1.86,80.26-.13,10.97-.37,21.94-.39,32.91,0,3.5,0,7.01.15,10.51.08,1.85.02,4.02.66,5.8.73,2.03,2.63,3.87,4.01,5.48,2.67,3.11,5.5,6.08,8.18,9.17,2.59,2.98,5.14,6.07,7.07,9.53,1.27,2.29,3.13,6.18,1.73,8.81Z"/>
            <path class="cls-6" d="m349.33,114.44c12.22-7.73,25.46-13.95,39.25-18.3,2.56-.81,5.16-1.6,7.79-2.18,1.57-.34.91-2.75-.66-2.41-7.86,1.72-15.55,4.67-22.93,7.81-16.95,7.21-32.89,17.05-46.49,29.51-9.41,8.63-17.63,18.55-24.21,29.5-.83,1.38,1.33,2.64,2.16,1.26,11.12-18.48,26.92-33.69,45.09-45.19Z"/>
            <path class="cls-6" d="m395.81,202.61c-15.29-9.2-32.55-15.94-50.5-16.91-11.72-.63-23.38,1.45-34.15,6.12-1.47.64-.2,2.79,1.26,2.16,18.36-7.97,38.72-7.19,57.43-.85,13.99,4.74,27.11,12.24,38.79,21.24,2.29,1.77,4.57,3.59,6.69,5.57,1.17,1.1,2.94-.66,1.77-1.77-6.38-5.98-13.81-11.07-21.28-15.56Z"/>
            <path class="cls-6" d="m119.96,93.96c7.17,1.99,14.19,4.67,21.08,7.47,15.92,6.48,31.33,14.46,45.53,24.17,9.38,6.41,18.22,13.64,26.12,21.83,1.12,1.16,2.89-.61,1.77-1.77-13.76-14.26-30.3-25.66-47.74-34.95-12.39-6.61-25.34-12.25-38.64-16.79-2.46-.84-4.94-1.67-7.45-2.37-1.55-.43-2.22,1.98-.66,2.41Z"/>
            <path class="cls-6" d="m220.73,186.16c-9.71-3.17-20.14-3.95-30.3-3.91-11.7.05-23.38,1.31-34.93,3.09-11.27,1.74-22.46,4.04-33.55,6.71-8.6,2.07-17.15,4.36-25.64,6.87-3.86,1.14-7.88,2.15-11.63,3.62-.05.02-.11.04-.16.05-1.52.51-.87,2.93.66,2.41,3.11-1.05,6.25-2.01,9.39-2.96,7.92-2.39,15.91-4.58,23.94-6.58,10.76-2.69,21.61-5.03,32.55-6.89,11.48-1.95,23.09-3.38,34.74-3.75,10.35-.33,20.94.08,30.99,2.76,1.1.29,2.19.62,3.27.97,1.53.5,2.19-1.91.66-2.41Z"/>
          </g>
        </g>
        <g>
          <g>
            <path class="cls-1" d="m173.51,182.26c1.64,9.57,7.9,17.22,15.36,23.09-5.5-14.33-8.18-29.75-8.6-45.08-.89.37-1.78.72-2.67,1.07-.6.94-1.11,1.94-1.57,2.95-2.49,5.43-3.55,11.94-2.51,17.97Z"/>
            <path class="cls-2" d="m289.4,163.02c-3.1-.07-6.23.11-9.29.62-2.58.43-5.22,1.03-7.58,2.19-1.69.83-3.52,2.02-4.13,3.9-.63,1.95.25,4.18,1.64,5.59,1.76,1.78,4.29,2.56,6.69,2.98.12.02.24.03.37.05-1.19-1.99-1.53-4.44-.98-6.72.64-2.65,2.51-4.75,5.06-5.69,2.39-.88,5.23-.6,7.43.66,2.28,1.29,3.87,3.8,4.25,6.37.22,1.53,0,2.98-.6,4.27.57-.16,1.14-.31,1.7-.49,2.48-.78,4.99-1.86,6.74-3.86,3.42-3.91-1.23-7.71-4.78-9.01-2.06-.71-4.35-.8-6.51-.85Z"/>
            <path class="cls-5" d="m219.99,178.08c.43-.43.67-.76.97-1.33.23-.43.38-.85.51-1.41.23-.94.23-2.05.01-2.98-.43-1.83-1.64-3.39-3.33-4.01-1.77-.65-3.72-.55-5.32.3-1.69.9-2.83,2.63-3.21,4.56-.16.82-.11,1.75.18,2.62.25.74.82,1.53,1.53,2.05.08.06.15.12.22.19,2.65.48,5.4.73,8.1.62.04-.21.15-.42.34-.61Z"/>
            <path class="cls-1" d="m422.31,309.76c-4.39-3.82-9.79-6.5-15.08-8.84-9.89-4.38-20.29-7.66-30.79-10.44-.22,3.16-.5,6.32-.66,9.49-.38,7.17-.54,14.35-.5,21.53.04,9.52.44,19.05,1.25,28.54.91,10.59,2.35,21.15,4.55,31.55,2.21,10.43,5.16,20.78,9.37,30.59,2.02,4.7,4.33,9.29,7,13.66.64,1.06,1.31,2.1,2,3.13.51.77,1.26,1.55,1.42,2.47.05.29.08.59.11.88.62,4.8,1.24,9.59,1.85,14.39,1.02,7.95,2.05,15.9,3.07,23.84.96,7.44,1.92,14.89,2.88,22.33.39,3.06.79,6.11,1.18,9.17h58.2c-.83-4.91-1.67-9.81-2.53-14.71-1.75-9.99-3.53-19.98-5.37-29.96-2.35-12.81-4.77-25.6-7.28-38.37-2.66-13.51-5.42-27-8.37-40.44-2.63-12-5.4-23.98-8.57-35.85-2.19-8.18-4.53-16.88-7.81-24.47-1.43-3.31-3.17-6.08-5.93-8.48Z"/>
            <path class="cls-2" d="m200.58,174.08c2.06,1.63,4.61,2.49,7.12,3.15-.13-.28-.26-.56-.35-.86-.43-1.38-.39-2.91-.02-4.31.71-2.67,2.55-4.91,5.11-5.96,2.37-.98,5.16-.87,7.45.3,4.29,2.2,5.38,8.01,3.02,11.96.84-.14,1.68-.31,2.5-.55,2.21-.64,4.43-1.78,5.6-3.86.96-1.7,1.15-3.78,0-5.42-1.2-1.72-3.33-2.73-5.25-3.42-2.58-.93-5.3-1.46-8.02-1.76-2.69-.3-5.41-.4-8.12-.28-1.84.08-3.76.21-5.52.82-2.14.79-4.42,2.14-5.52,4.23-1.22,2.33.15,4.51,2,5.97Z"/>
            <path class="cls-5" d="m288.66,177.88c1.74-1.26,2.12-3.39,1.54-5.36-.27-.9-.75-1.83-1.39-2.57-.61-.69-1.41-1.25-2.17-1.54-1.77-.68-3.73-.66-5.32.18-3.4,1.79-3.94,6.82-1.31,9.48.18.19.28.39.33.59,2.68.12,5.41-.1,8.08-.57.07-.08.15-.15.24-.22Z"/>
            <g class="cls-9">
              <path class="cls-2" d="m99.66,446.72c-1.02,7.95-2.05,15.9-3.07,23.84l-2.88,22.33c-.39,3.06-.79,6.11-1.18,9.17h314.94l-1.8-13.96c-1.02-7.91-2.04-15.81-3.06-23.72-.97-7.51-1.94-15.02-2.9-22.53l-.95-7.4c-.09-.71-.18-1.41-.27-2.12-.02-.19-.01-.49-.06-.71,0,.09-.05.13-.14.09-.16-.06-.4-.58-.5-.73-.33-.49-.66-.98-.99-1.48-.68-1.04-1.34-2.09-1.97-3.16-1.32-2.21-2.54-4.46-3.69-6.76-2.33-4.67-4.35-9.51-6.1-14.43-3.61-10.14-6.13-20.65-7.97-31.24-1.78-10.33-2.92-20.76-3.58-31.22-.57-9.05-.79-18.13-.69-27.2.07-6.42.29-12.83.7-19.24.14-2.14.29-4.27.49-6.41-4.49-1.15-8.99-2.23-13.47-3.26-16.01-3.69-32.18-6.69-48.4-9.3-.07,1.14-.17,2.28-.3,3.41-1.49,12.33-6.63,23.99-14.74,33.4-8,9.28-18.75,16.1-30.56,19.37-12.28,3.4-25.61,2.95-37.62-1.34-11.58-4.14-21.72-11.66-29.1-21.48-7.24-9.64-11.45-21.29-12.26-33.3-3.2.52-6.39,1.04-9.58,1.59-17.04,2.94-34.04,6.31-50.78,10.66-.39.1-.77.21-1.16.31.32,3.38.53,6.77.71,10.15.38,7.19.54,14.38.5,21.58-.05,9.53-.44,19.07-1.26,28.56-.92,10.6-2.35,21.18-4.53,31.59-2.19,10.46-5.14,20.79-9.29,30.65-1.99,4.74-4.26,9.36-6.89,13.78-.64,1.07-1.29,2.12-1.97,3.16-.35.54-.71,1.07-1.07,1.6-.1.15-.34.67-.5.73-.08.03-.14,0-.14-.09-.04.22-.03.5-.06.68-.62,4.81-1.24,9.61-1.86,14.42Z"/>
              <g>
                <path class="cls-6" d="m131.35,278.84c0,3.81-3.09,6.89-6.89,6.89s-6.89-3.09-6.89-6.89,3.09-6.89,6.89-6.89,6.89,3.09,6.89,6.89Z"/>
                <path class="cls-6" d="m176.65,278.84c0,3.81-3.09,6.89-6.89,6.89s-6.89-3.09-6.89-6.89,3.09-6.89,6.89-6.89,6.89,3.09,6.89,6.89Z"/>
                <path class="cls-6" d="m221.94,278.84c0,3.81-3.09,6.89-6.89,6.89s-6.89-3.09-6.89-6.89,3.09-6.89,6.89-6.89,6.89,3.09,6.89,6.89Z"/>
                <path class="cls-6" d="m267.23,278.84c0,3.81-3.09,6.89-6.89,6.89s-6.89-3.09-6.89-6.89,3.09-6.89,6.89-6.89,6.89,3.09,6.89,6.89Z"/>
                <path class="cls-6" d="m312.52,278.84c0,3.81-3.09,6.89-6.89,6.89s-6.89-3.09-6.89-6.89,3.09-6.89,6.89-6.89,6.89,3.09,6.89,6.89Z"/>
                <path class="cls-6" d="m357.81,278.84c0,3.81-3.09,6.89-6.89,6.89s-6.89-3.09-6.89-6.89,3.09-6.89,6.89-6.89,6.89,3.09,6.89,6.89Z"/>
                <path class="cls-6" d="m403.11,278.84c0,3.81-3.09,6.89-6.89,6.89s-6.89-3.09-6.89-6.89,3.09-6.89,6.89-6.89,6.89,3.09,6.89,6.89Z"/>
                <path class="cls-6" d="m110.68,311.33c0,3.81-3.09,6.89-6.89,6.89s-6.89-3.09-6.89-6.89,3.09-6.89,6.89-6.89,6.89,3.09,6.89,6.89Z"/>
                <path class="cls-6" d="m155.97,311.33c0,3.81-3.09,6.89-6.89,6.89s-6.89-3.09-6.89-6.89,3.09-6.89,6.89-6.89,6.89,3.09,6.89,6.89Z"/>
                <path class="cls-6" d="m201.26,311.33c0,3.81-3.09,6.89-6.89,6.89s-6.89-3.09-6.89-6.89,3.09-6.89,6.89-6.89,6.89,3.09,6.89,6.89Z"/>
                <path class="cls-6" d="m246.55,311.33c0,3.81-3.09,6.89-6.89,6.89s-6.89-3.09-6.89-6.89,3.09-6.89,6.89-6.89,6.89,3.09,6.89,6.89Z"/>
                <path class="cls-6" d="m291.85,311.33c0,3.81-3.09,6.89-6.89,6.89s-6.89-3.09-6.89-6.89,3.09-6.89,6.89-6.89,6.89,3.09,6.89,6.89Z"/>
                <path class="cls-6" d="m337.14,311.33c0,3.81-3.09,6.89-6.89,6.89s-6.89-3.09-6.89-6.89,3.09-6.89,6.89-6.89,6.89,3.09,6.89,6.89Z"/>
                <path class="cls-6" d="m382.43,311.33c0,3.81-3.09,6.89-6.89,6.89s-6.89-3.09-6.89-6.89,3.09-6.89,6.89-6.89,6.89,3.09,6.89,6.89Z"/>
                <path class="cls-6" d="m131.35,350.72c0,3.81-3.09,6.89-6.89,6.89s-6.89-3.09-6.89-6.89,3.09-6.89,6.89-6.89,6.89,3.09,6.89,6.89Z"/>
                <path class="cls-6" d="m176.65,350.72c0,3.81-3.09,6.89-6.89,6.89s-6.89-3.09-6.89-6.89,3.09-6.89,6.89-6.89,6.89,3.09,6.89,6.89Z"/>
                <path class="cls-6" d="m221.94,350.72c0,3.81-3.09,6.89-6.89,6.89s-6.89-3.09-6.89-6.89,3.09-6.89,6.89-6.89,6.89,3.09,6.89,6.89Z"/>
                <path class="cls-6" d="m267.23,350.72c0,3.81-3.09,6.89-6.89,6.89s-6.89-3.09-6.89-6.89,3.09-6.89,6.89-6.89,6.89,3.09,6.89,6.89Z"/>
                <path class="cls-6" d="m312.52,350.72c0,3.81-3.09,6.89-6.89,6.89s-6.89-3.09-6.89-6.89,3.09-6.89,6.89-6.89,6.89,3.09,6.89,6.89Z"/>
                <path class="cls-6" d="m357.81,350.72c0,3.81-3.09,6.89-6.89,6.89s-6.89-3.09-6.89-6.89,3.09-6.89,6.89-6.89,6.89,3.09,6.89,6.89Z"/>
                <path class="cls-6" d="m403.11,350.72c0,3.81-3.09,6.89-6.89,6.89s-6.89-3.09-6.89-6.89,3.09-6.89,6.89-6.89,6.89,3.09,6.89,6.89Z"/>
                <path class="cls-6" d="m110.68,383.21c0,3.81-3.09,6.89-6.89,6.89s-6.89-3.09-6.89-6.89,3.09-6.89,6.89-6.89,6.89,3.09,6.89,6.89Z"/>
                <path class="cls-6" d="m155.97,383.21c0,3.81-3.09,6.89-6.89,6.89s-6.89-3.09-6.89-6.89,3.09-6.89,6.89-6.89,6.89,3.09,6.89,6.89Z"/>
                <path class="cls-6" d="m201.26,383.21c0,3.81-3.09,6.89-6.89,6.89s-6.89-3.09-6.89-6.89,3.09-6.89,6.89-6.89,6.89,3.09,6.89,6.89Z"/>
                <path class="cls-6" d="m246.55,383.21c0,3.81-3.09,6.89-6.89,6.89s-6.89-3.09-6.89-6.89,3.09-6.89,6.89-6.89,6.89,3.09,6.89,6.89Z"/>
                <path class="cls-6" d="m291.85,383.21c0,3.81-3.09,6.89-6.89,6.89s-6.89-3.09-6.89-6.89,3.09-6.89,6.89-6.89,6.89,3.09,6.89,6.89Z"/>
                <path class="cls-6" d="m337.14,383.21c0,3.81-3.09,6.89-6.89,6.89s-6.89-3.09-6.89-6.89,3.09-6.89,6.89-6.89,6.89,3.09,6.89,6.89Z"/>
                <path class="cls-6" d="m382.43,383.21c0,3.81-3.09,6.89-6.89,6.89s-6.89-3.09-6.89-6.89,3.09-6.89,6.89-6.89,6.89,3.09,6.89,6.89Z"/>
                <path class="cls-6" d="m131.35,422.59c0,3.81-3.09,6.89-6.89,6.89s-6.89-3.09-6.89-6.89,3.09-6.89,6.89-6.89,6.89,3.09,6.89,6.89Z"/>
                <path class="cls-6" d="m176.65,422.59c0,3.81-3.09,6.89-6.89,6.89s-6.89-3.09-6.89-6.89,3.09-6.89,6.89-6.89,6.89,3.09,6.89,6.89Z"/>
                <path class="cls-6" d="m221.94,422.59c0,3.81-3.09,6.89-6.89,6.89s-6.89-3.09-6.89-6.89,3.09-6.89,6.89-6.89,6.89,3.09,6.89,6.89Z"/>
                <path class="cls-6" d="m267.23,422.59c0,3.81-3.09,6.89-6.89,6.89s-6.89-3.09-6.89-6.89,3.09-6.89,6.89-6.89,6.89,3.09,6.89,6.89Z"/>
                <path class="cls-6" d="m312.52,422.59c0,3.81-3.09,6.89-6.89,6.89s-6.89-3.09-6.89-6.89,3.09-6.89,6.89-6.89,6.89,3.09,6.89,6.89Z"/>
                <path class="cls-6" d="m357.81,422.59c0,3.81-3.09,6.89-6.89,6.89s-6.89-3.09-6.89-6.89,3.09-6.89,6.89-6.89,6.89,3.09,6.89,6.89Z"/>
                <path class="cls-6" d="m403.11,422.59c0,3.81-3.09,6.89-6.89,6.89s-6.89-3.09-6.89-6.89,3.09-6.89,6.89-6.89,6.89,3.09,6.89,6.89Z"/>
                <path class="cls-6" d="m110.68,455.08c0,3.81-3.09,6.89-6.89,6.89s-6.89-3.09-6.89-6.89,3.09-6.89,6.89-6.89,6.89,3.09,6.89,6.89Z"/>
                <path class="cls-6" d="m155.97,455.08c0,3.81-3.09,6.89-6.89,6.89s-6.89-3.09-6.89-6.89,3.09-6.89,6.89-6.89,6.89,3.09,6.89,6.89Z"/>
                <path class="cls-6" d="m201.26,455.08c0,3.81-3.09,6.89-6.89,6.89s-6.89-3.09-6.89-6.89,3.09-6.89,6.89-6.89,6.89,3.09,6.89,6.89Z"/>
                <path class="cls-6" d="m246.55,455.08c0,3.81-3.09,6.89-6.89,6.89s-6.89-3.09-6.89-6.89,3.09-6.89,6.89-6.89,6.89,3.09,6.89,6.89Z"/>
                <path class="cls-6" d="m291.85,455.08c0,3.81-3.09,6.89-6.89,6.89s-6.89-3.09-6.89-6.89,3.09-6.89,6.89-6.89,6.89,3.09,6.89,6.89Z"/>
                <path class="cls-6" d="m337.14,455.08c0,3.81-3.09,6.89-6.89,6.89s-6.89-3.09-6.89-6.89,3.09-6.89,6.89-6.89,6.89,3.09,6.89,6.89Z"/>
                <path class="cls-6" d="m382.43,455.08c0,3.81-3.09,6.89-6.89,6.89s-6.89-3.09-6.89-6.89,3.09-6.89,6.89-6.89,6.89,3.09,6.89,6.89Z"/>
                <path class="cls-6" d="m131.35,494.47c0,3.81-3.09,6.89-6.89,6.89s-6.89-3.09-6.89-6.89,3.09-6.89,6.89-6.89,6.89,3.09,6.89,6.89Z"/>
                <path class="cls-6" d="m176.65,494.47c0,3.81-3.09,6.89-6.89,6.89s-6.89-3.09-6.89-6.89,3.09-6.89,6.89-6.89,6.89,3.09,6.89,6.89Z"/>
                <path class="cls-6" d="m221.94,494.47c0,3.81-3.09,6.89-6.89,6.89s-6.89-3.09-6.89-6.89,3.09-6.89,6.89-6.89,6.89,3.09,6.89,6.89Z"/>
                <path class="cls-6" d="m267.23,494.47c0,3.81-3.09,6.89-6.89,6.89s-6.89-3.09-6.89-6.89,3.09-6.89,6.89-6.89,6.89,3.09,6.89,6.89Z"/>
                <path class="cls-6" d="m312.52,494.47c0,3.81-3.09,6.89-6.89,6.89s-6.89-3.09-6.89-6.89,3.09-6.89,6.89-6.89,6.89,3.09,6.89,6.89Z"/>
                <path class="cls-6" d="m357.81,494.47c0,3.81-3.09,6.89-6.89,6.89s-6.89-3.09-6.89-6.89,3.09-6.89,6.89-6.89,6.89,3.09,6.89,6.89Z"/>
                <path class="cls-6" d="m403.11,494.47c0,3.81-3.09,6.89-6.89,6.89s-6.89-3.09-6.89-6.89,3.09-6.89,6.89-6.89,6.89,3.09,6.89,6.89Z"/>
              </g>
            </g>
            <path class="cls-1" d="m219.23,242.36c.3.07.57.23.74.5.87.56,1.75,1.1,2.66,1.62,13.31,7.55,29.85,9.06,44.43,4.49,4.67-1.46,9.01-3.57,13.01-6.18.15-.2.36-.33.59-.4,8.28-5.53,15.11-13.2,20.32-21.78,8.55-14.08,13.25-30.38,15.25-46.65-3.06-7.39-7.78-14.09-14.14-19.03-4.35-3.38-9.37-5.85-14.64-7.43-3.31-1-6.7-1.69-10.01-2.68-3.21-.95-6.37-2.04-9.48-3.29-10.65-4.26-20.75-10.37-28.38-19.05-1.79-2.03-3.41-4.19-4.86-6.45-.67.97-1.35,1.92-2.05,2.86-6.01,8.05-13,15.39-20.67,21.87-8.85,7.48-18.67,13.77-29.25,18.45.04,1.8.1,3.59.2,5.38.92,16.08,4.39,32.3,11.23,46.93,5.66,12.11,13.87,23.38,25.06,30.85Zm74.85-51.66c-7.08,3.03-14.94,3.67-22.41,1.7-1.56-.41-.89-2.82.66-2.41,6.76,1.78,14.04,1.31,20.48-1.45,1.46-.63,2.74,1.53,1.26,2.16Zm3.98-5.54c-9.3,3.88-19.9,3.68-29.12-.33-1.47-.64-.2-2.79,1.26-2.16,8.62,3.75,18.55,3.69,27.19.08,1.49-.62,2.13,1.8.66,2.41Zm5.63-12.28c-1.68,3.34-5.48,5.12-8.87,6.21-6.21,2-13.43,2.86-19.84,1.39-2.78-.64-5.58-1.88-7.38-4.17-1.63-2.07-2.44-5.02-1.51-7.57,1.95-5.31,9.18-6.91,14.09-7.64,3.16-.47,6.36-.68,9.55-.58,2.26.07,4.68.19,6.84.93,4.52,1.66,9.81,6.08,7.13,11.42Zm-38.76-16.88c10.97-4.21,23.14-4.85,34.5-1.86,1.56.41.89,2.82-.66,2.41-10.96-2.88-22.6-2.2-33.17,1.86-1.51.58-2.15-1.84-.66-2.41Zm-10.89,48.66c-.79-1.51-1.54-3.03-2.19-4.61-2.63-6.47-3.53-13.6-2.63-20.52.2-1.58,2.71-1.59,2.5,0-1.05,8.14.47,16.24,4.28,23.49,1.59,3.03,3.3,6.58,1.51,9.92-1.49,2.78-4.81,4.21-7.85,3.5-1.57-.36-.9-2.77.66-2.41,2.78.65,5.6-1.65,5.47-4.51-.08-1.74-.95-3.36-1.75-4.87Zm-12.6,23.2c7.92-2.11,16.3-2.01,24.16.3,1.54.45.88,2.87-.66,2.41-7.45-2.19-15.33-2.3-22.83-.3-1.56.41-2.22-2-.66-2.41Zm-13.12-35.46c-7.46,1.97-15.32,1.33-22.41-1.7-1.48-.63-.2-2.79,1.26-2.16,6.44,2.76,13.72,3.23,20.48,1.45,1.56-.41,2.22,2,.66,2.41Zm2.73-7.57c-9.21,4.01-19.82,4.22-29.12.33-1.47-.61-.82-3.03.66-2.41,8.64,3.61,18.57,3.67,27.19-.08,1.46-.64,2.73,1.52,1.26,2.16Zm-30.48-30.7c11.36-2.98,23.53-2.35,34.5,1.86,1.49.57.84,2.99-.66,2.41-10.57-4.06-22.21-4.74-33.17-1.86-1.56.41-2.22-2-.66-2.41Zm2.86,7.33c2.5-.86,5.35-.93,7.97-.95,3.56-.03,7.15.28,10.64.99,4.76.96,11.75,3.19,12.24,8.98.56,6.58-6.23,9.72-11.67,10.42-6.3.81-13.32-.1-19.23-2.45-3.24-1.29-6.96-3.58-7.66-7.26-.92-4.85,3.73-8.26,7.72-9.73Z"/>
            <path class="cls-1" d="m201.14,273.77c-3.57,1.7-7.27,2.53-11.13,3.16.07,1.16.16,2.32.29,3.48,1.37,11.84,6.44,23.19,14.26,32.17,7.77,8.92,18.09,15.44,29.51,18.55,11.84,3.21,24.56,2.69,36.11-1.45,10.97-3.94,20.75-11.2,27.7-20.56,6.97-9.37,11.05-20.61,11.76-32.24-3.61-.61-7.09-1.39-10.47-2.96-3.87-1.79-7.41-4.37-10.31-7.49-5.25-5.64-8.42-13-8.95-20.66-5.35,3.25-11.2,5.67-17.49,6.98-14.4,2.99-29.74.67-42.35-6.89-.23,3.31-.94,6.59-2.13,9.67-3.07,7.93-9.11,14.58-16.8,18.24Z"/>
            <path class="cls-1" d="m311.05,205.66c3.57-2.74,6.87-5.86,9.57-9.47.1-5.81-.89-11.67-2.59-17.21-.06.36-.1.72-.16,1.07-1.42,8.66-3.63,17.33-6.81,25.6Z"/>
            <path class="cls-5" d="m75.19,308.64c4.19-3.9,9.38-6.69,14.53-9.08,14.56-6.76,30.33-10.95,45.9-14.65,16.47-3.91,33.12-7.04,49.82-9.76,3.85-.63,7.76-1.05,11.46-2.33,4.08-1.42,7.86-3.73,11-6.69,6-5.66,9.53-13.58,9.74-21.82-.11-.08-.23-.14-.34-.22-12.21-8.36-20.81-20.89-26.63-34.33-5.86-4.08-11.27-8.98-15.05-15.1-4.49-7.28-6.04-15.89-4.25-24.25.56-2.6,1.4-5.3,2.59-7.76-.31.11-.61.22-.92.32-1.53.51-2.18-1.9-.66-2.41,8.37-2.79,16.36-6.63,23.83-11.32,10.4-6.53,19.79-14.66,27.93-23.85,3.26-3.68,6.47-7.53,9.13-11.69-3.17-5.5-5.38-11.53-6.5-17.84-.28-1.58,2.13-2.25,2.41-.66.22,1.22.47,2.43.76,3.63,2.41,9.89,7.72,18.76,15.11,25.75,8.87,8.38,20.14,13.84,31.7,17.44,6.18,1.92,12.55,3.03,18.44,5.81,4.74,2.24,9.1,5.31,12.79,9.03,4.52,4.57,7.98,10.06,10.45,15.98.2.17.32.42.32.75.94,2.35,1.75,4.76,2.38,7.21,1.33,5.13,2.12,10.57,1.96,15.92,0,.04,0,.09,0,.13-.05,1.53-.16,3.05-.38,4.55-.23,1.59-2.64.91-2.41-.66.01-.07.02-.18.04-.29-3.24,3.66-7.01,6.81-11.05,9.59,0,0-.02,0-.02.01-2.58,5.93-5.7,11.61-9.44,16.88-4.8,6.77-10.7,12.72-17.48,17.31.09,3.88.88,7.73,2.38,11.31,3.28,7.85,9.86,14.2,17.86,17.12,3.76,1.37,7.73,1.82,11.66,2.46,3.85.63,7.7,1.28,11.55,1.95,17.11,3.01,34.17,6.47,50.95,10.98,7.87,2.12,15.69,4.46,23.34,7.31,6.26,2.33,12.5,4.96,18.2,8.46,3.09,1.9,6.23,4.15,8.58,7,.22-1.65.37-3.3.45-4.96.46-9.98-1.92-19.7-6.38-28.6-4.58-9.14-10.85-17.32-17.21-25.26-7.25-9.06-14.72-17.95-21.41-27.44-7.44-10.55-13.84-21.81-18.55-33.85-2.69-6.89-4.82-14-6.37-21.24-.83-3.87-1.55-7.79-2.02-11.72-.51-4.27-.71-8.55-1.41-12.8-2.52-15.29-8.25-29.94-17.15-42.65-15.71-22.42-41.48-38.78-68.65-42.86-11.99-1.8-24.69-.23-34.67,7.05-3.73,2.72-7.46,6.39-9.53,10.6-.19.38-.67.63-1.08.62-.15,0-.31,0-.46,0-9.46.33-18.87,2.8-27.47,7.04-18.31,9.04-30.95,25.7-37.78,44.68-2.45,6.81-4.23,13.86-5.49,20.99-1.33,7.5-2.12,15.04-3.98,22.44-3.2,12.8-8.43,25.03-15.23,36.32-11.61,19.27-27.67,34.89-41.64,52.34-5.85,7.3-11.33,15.16-14.68,23.95-3.11,8.16-4.08,16.8-3.01,25.41.62-.78,1.29-1.52,2.04-2.23Z"/>
            <path class="cls-1" d="m91.82,488.2c1.02-7.9,2.04-15.8,3.05-23.7.97-7.52,1.94-15.04,2.91-22.56.45-3.48.75-7.03,1.35-10.49.15-.88.85-1.61,1.34-2.35.69-1.03,1.36-2.07,2-3.13,1.34-2.18,2.59-4.42,3.75-6.7,2.37-4.64,4.41-9.44,6.17-14.34,3.65-10.12,6.19-20.62,8.04-31.21,1.79-10.26,2.92-20.63,3.58-31.03.57-9.05.79-18.13.69-27.2-.07-6.42-.29-12.83-.7-19.24-.12-1.9-.26-3.8-.43-5.69-6.8,1.83-13.56,3.84-20.2,6.19-6.47,2.29-12.9,4.88-18.86,8.31-4.04,2.32-8.38,5.17-10.83,9.26-1.63,2.72-2.6,5.42-3.67,8.38-3.31,9.15-5.78,18.62-8.15,28.06-3.12,12.42-5.91,24.92-8.57,37.45-2.86,13.45-5.56,26.93-8.17,40.44-2.37,12.3-4.67,24.62-6.9,36.95-1.63,9.01-3.23,18.03-4.79,27.05-.54,3.14-1.08,6.29-1.61,9.43h58.2c.6-4.62,1.19-9.24,1.79-13.85Z"/>
            <path class="cls-7" d="m198.11,220.29s19.65,25.49,51.94,25.49,50.92-25.17,50.92-25.17c0,0-14.72,32.15-50.92,32.15s-51.46-30.41-51.94-32.47Z"/>
            <path class="cls-7" d="m247.85,213.27s7.8-4.1,6.5-10.77c0,0,8.2,18.43-6.5,10.77Z"/>
            <path class="cls-7" d="m268.19,174.8s12.41-6.13,33.7-3.23c-5.77,9.66-25.55,10.38-33.7,3.23Z"/>
            <path class="cls-7" d="m231.66,174.8s-12.41-6.13-33.7-3.23c5.77,9.66,25.55,10.38,33.7,3.23Z"/>
            <path class="cls-7" d="m275.79,132.5c-25.79-8.17-49-36.65-49-36.65.48,4.44,2.05,8.78,4.29,12.89-4.51,3.87-35.32,30.33-59.55,52.93,18.49-6,46.83-20.41,62.78-47.77,0,0,0,0,0-.01,8.47,11.97,21.84,21.34,28.99,24.48,10.48,4.6,23.73,5.62,37.69,13.91,13.96,8.3,20.76,26.69,20.76,47.11,15.06-34.98-20.17-58.72-45.96-66.89Z"/>
            <path class="cls-7" d="m173.11,185.26s7.95,10.42,12.03,2.7c6.5,17.69,4.87,19.6,4.87,19.6,0,0-16.95-12.97-16.9-22.3Z"/>
            <path class="cls-7" d="m321.67,190.3c-2.15.95-4.45.81-6.12-2.33-6.5,17.69-4.87,19.6-4.87,19.6,0,0,5.86-4.48,10.68-10.08,1.54-1.79,2-7.94.3-7.19Z"/>
          </g>
          <g>
            <path class="cls-6" d="m250.33,214.04c-1.57-.36-2.23,2.05-.66,2.41,3.04.71,6.35-.73,7.85-3.5,1.8-3.34.09-6.89-1.51-9.92-3.81-7.25-5.33-15.35-4.28-23.49.21-1.59-2.3-1.58-2.5,0-.9,6.92,0,14.06,2.63,20.52.64,1.58,1.4,3.1,2.19,4.61.79,1.51,1.67,3.13,1.75,4.87.13,2.86-2.68,5.15-5.47,4.51Z"/>
            <path class="cls-6" d="m242.11,230.27c7.5-2,15.38-1.89,22.83.3,1.55.45,2.21-1.96.66-2.41-7.86-2.31-16.24-2.41-24.16-.3-1.55.41-.89,2.83.66,2.41Z"/>
            <path class="cls-6" d="m289.73,160.53c-3.19-.1-6.39.11-9.55.58-4.91.73-12.14,2.33-14.09,7.64-.94,2.54-.13,5.5,1.51,7.57,1.8,2.29,4.6,3.53,7.38,4.17,6.41,1.47,13.64.6,19.84-1.39,3.39-1.09,7.19-2.87,8.87-6.21,2.68-5.34-2.61-9.76-7.13-11.42-2.15-.74-4.58-.86-6.84-.93Zm-9.4,18.14c-.05-.2-.15-.41-.33-.59-2.63-2.66-2.09-7.7,1.31-9.48,1.6-.84,3.56-.87,5.32-.18.76.3,1.56.85,2.17,1.54.64.73,1.12,1.67,1.39,2.57.58,1.97.2,4.1-1.54,5.36-.09.06-.17.14-.24.22-2.67.48-5.4.69-8.08.57Zm20.35-5.78c-1.75,2-4.26,3.08-6.74,3.86-.56.18-1.13.33-1.7.49.61-1.29.83-2.74.6-4.27-.38-2.58-1.97-5.08-4.25-6.37-2.21-1.25-5.04-1.54-7.43-.66-2.55.94-4.42,3.04-5.06,5.69-.55,2.27-.21,4.73.98,6.72-.12-.02-.24-.03-.37-.05-2.4-.42-4.94-1.2-6.69-2.98-1.39-1.4-2.27-3.64-1.64-5.59.61-1.88,2.44-3.07,4.13-3.9,2.36-1.16,5-1.76,7.58-2.19,3.06-.51,6.19-.69,9.29-.62,2.16.05,4.45.14,6.51.85,3.55,1.31,8.2,5.11,4.78,9.01Z"/>
            <path class="cls-6" d="m297.4,182.76c-8.64,3.61-18.57,3.67-27.19-.08-1.46-.64-2.73,1.52-1.26,2.16,9.21,4.01,19.82,4.22,29.12.33,1.46-.61.82-3.03-.66-2.41Z"/>
            <path class="cls-6" d="m292.82,188.55c-6.44,2.76-13.72,3.23-20.48,1.45-1.56-.41-2.22,2-.66,2.41,7.46,1.97,15.32,1.33,22.41-1.7,1.47-.63.2-2.79-1.26-2.16Z"/>
            <path class="cls-6" d="m265.6,158.41c10.57-4.06,22.21-4.74,33.17-1.86,1.56.41,2.22-2,.66-2.41-11.36-2.98-23.53-2.35-34.5,1.86-1.49.57-.84,2.99.66,2.41Z"/>
            <path class="cls-6" d="m203.38,178.46c5.91,2.35,12.93,3.26,19.23,2.45,5.44-.7,12.23-3.84,11.67-10.42-.5-5.79-7.48-8.02-12.24-8.98-3.49-.71-7.08-1.01-10.64-.99-2.61.02-5.47.09-7.97.95-3.99,1.47-8.64,4.88-7.72,9.73.7,3.69,4.43,5.98,7.66,7.26Zm8.18-.38c-.07-.07-.14-.13-.22-.19-.71-.52-1.28-1.31-1.53-2.05-.29-.86-.34-1.8-.18-2.62.38-1.92,1.52-3.66,3.21-4.56,1.61-.85,3.55-.95,5.32-.3,1.69.62,2.9,2.17,3.33,4.01.21.93.21,2.04-.01,2.98-.13.56-.29.98-.51,1.41-.3.57-.55.9-.97,1.33-.19.19-.29.4-.34.61-2.7.11-5.45-.14-8.1-.62Zm-12.98-9.97c1.09-2.09,3.38-3.44,5.52-4.23,1.76-.61,3.68-.73,5.52-.82,2.71-.12,5.43-.02,8.12.28,2.72.3,5.44.84,8.02,1.76,1.92.69,4.04,1.7,5.25,3.42,1.15,1.64.96,3.73,0,5.42-1.17,2.07-3.38,3.22-5.6,3.86-.82.24-1.65.41-2.5.55,2.36-3.94,1.28-9.76-3.02-11.96-2.28-1.17-5.08-1.28-7.45-.3-2.55,1.05-4.4,3.29-5.11,5.96-.37,1.39-.41,2.92.02,4.31.09.3.22.58.35.86-2.52-.66-5.06-1.52-7.12-3.15-1.85-1.47-3.22-3.65-2-5.97Z"/>
            <path class="cls-6" d="m229.79,182.68c-8.62,3.75-18.55,3.69-27.19.08-1.48-.62-2.13,1.8-.66,2.41,9.3,3.88,19.9,3.68,29.12-.33,1.47-.64.2-2.79-1.26-2.16Z"/>
            <path class="cls-6" d="m227.66,189.99c-6.76,1.78-14.04,1.31-20.48-1.45-1.46-.63-2.74,1.53-1.26,2.16,7.08,3.03,14.94,3.67,22.41,1.7,1.55-.41.89-2.82-.66-2.41Z"/>
            <path class="cls-6" d="m201.23,156.55c10.96-2.88,22.59-2.2,33.17,1.86,1.5.58,2.15-1.84.66-2.41-10.97-4.21-23.14-4.85-34.5-1.86-1.55.41-.9,2.82.66,2.41Z"/>
            <path class="cls-6" d="m409.97,502.06c-.39-3.06-.79-6.11-1.18-9.17-.96-7.44-1.92-14.89-2.88-22.33-1.02-7.95-2.05-15.9-3.07-23.84-.62-4.8-1.24-9.59-1.85-14.39-.04-.29-.06-.59-.11-.88-.16-.92-.91-1.7-1.42-2.47-.69-1.03-1.35-2.07-2-3.13-2.67-4.37-4.98-8.96-7-13.66-4.21-9.81-7.16-20.16-9.37-30.59-2.2-10.4-3.64-20.96-4.55-31.55-.81-9.49-1.21-19.02-1.25-28.54-.03-7.18.13-14.36.5-21.53.17-3.17.44-6.32.66-9.49,10.5,2.78,20.9,6.05,30.79,10.44,5.28,2.34,10.68,5.03,15.08,8.84,2.76,2.39,4.5,5.17,5.93,8.48,3.28,7.59,5.62,16.29,7.81,24.47,3.17,11.87,5.94,23.85,8.57,35.85,2.95,13.45,5.71,26.94,8.37,40.44,2.51,12.77,4.93,25.57,7.28,38.37,1.83,9.98,3.62,19.97,5.37,29.96.86,4.9,1.7,9.81,2.53,14.71l.13.75c.02.1.03.19.05.29.26,1.58,2.67.91,2.41-.66v-.38h-.06c-.56-3.34-1.14-6.69-1.71-10.03-1.55-8.97-3.14-17.93-4.76-26.89-2.23-12.31-4.52-24.61-6.89-36.9-2.6-13.5-5.3-26.99-8.16-40.44-2.66-12.54-5.45-25.06-8.57-37.49-2.37-9.44-4.84-18.91-8.13-28.07-1.02-2.84-2.11-5.7-3.54-8.36,1.72-10.22,1.02-20.57-2.55-30.34-3.53-9.66-9.28-18.28-15.47-26.42-6.91-9.08-14.38-17.72-21.28-26.82-7.85-10.35-14.95-21.28-20.38-33.1-6.5-14.13-10.3-29.13-11.77-44.57-1.52-16.05-6.29-31.75-14.59-45.6-14.34-23.93-38.47-41.2-65.37-48.2-13.16-3.42-27.56-4.07-39.98,2.25-6.09,3.1-11.66,7.88-15.18,13.79-.06.11-.12.22-.18.33-7.84-.06-16.05,2.16-23.22,5.05-17.79,7.16-31.56,21.14-39.89,38.29-2.91,6-5.21,12.29-6.98,18.71-2.11,7.65-3.18,15.4-4.41,23.22-2.16,13.78-6.5,27.14-12.92,39.53-10.8,20.82-27.01,37.47-41.98,55.23-6.3,7.48-12.4,15.33-16.7,24.17-4.15,8.55-6.33,17.88-5.83,27.4.13,2.4.42,4.78.83,7.15-.6,1.08-1.14,2.2-1.64,3.37-3.41,8.02-5.73,16.53-7.97,24.93-3.16,11.85-5.92,23.8-8.54,35.77-2.95,13.45-5.71,26.94-8.37,40.45-2.51,12.77-4.93,25.56-7.28,38.36-1.83,9.97-3.61,19.94-5.36,29.92-.87,5-1.74,10-2.58,15.01-.02.1-.03.19-.05.29h-.06v.38c-.26,1.57,2.15,2.25,2.41.66.02-.1.03-.19.05-.29l.13-.75c.53-3.14,1.07-6.29,1.61-9.43,1.56-9.02,3.16-18.04,4.79-27.05,2.23-12.33,4.53-24.65,6.9-36.95,2.61-13.5,5.3-26.99,8.17-40.44,2.66-12.53,5.45-25.03,8.57-37.45,2.37-9.43,4.84-18.9,8.15-28.06,1.07-2.96,2.04-5.66,3.67-8.38,2.45-4.09,6.79-6.94,10.83-9.26,5.96-3.43,12.39-6.01,18.86-8.31,6.64-2.35,13.4-4.36,20.2-6.19.17,1.9.31,3.8.43,5.69.41,6.4.63,12.82.7,19.24.1,9.07-.11,18.15-.69,27.2-.66,10.39-1.78,20.77-3.58,31.03-1.85,10.59-4.4,21.09-8.04,31.21-1.76,4.9-3.8,9.7-6.17,14.34-1.17,2.28-2.41,4.52-3.75,6.7-.65,1.06-1.31,2.1-2,3.13-.49.74-1.19,1.47-1.34,2.35-.6,3.46-.9,7-1.35,10.49-.97,7.52-1.94,15.04-2.91,22.56-1.02,7.9-2.04,15.8-3.05,23.7-.6,4.62-1.19,9.24-1.79,13.85l-.09.75c-.15,1.53,2.25,1.52,2.49,0l.1-.75c.39-3.06.79-6.11,1.18-9.17l2.88-22.33c1.02-7.95,2.05-15.9,3.07-23.84.62-4.81,1.24-9.61,1.86-14.42.02-.18.01-.46.06-.68,0,.09.05.12.14.09.16-.06.4-.58.5-.73.36-.53.72-1.06,1.07-1.6.68-1.04,1.33-2.1,1.97-3.16,2.63-4.42,4.89-9.04,6.89-13.78,4.15-9.86,7.1-20.19,9.29-30.65,2.18-10.42,3.61-20.99,4.53-31.59.82-9.5,1.22-19.03,1.26-28.56.04-7.2-.12-14.39-.5-21.58-.18-3.39-.38-6.78-.71-10.15.39-.1.77-.21,1.16-.31,16.74-4.35,33.74-7.72,50.78-10.66,3.19-.55,6.39-1.07,9.58-1.59.81,12,5.02,23.66,12.26,33.3,7.38,9.82,17.53,17.35,29.1,21.48,12,4.29,25.33,4.73,37.62,1.34,11.8-3.26,22.56-10.09,30.56-19.37,8.11-9.41,13.26-21.07,14.74-33.4.14-1.13.23-2.27.3-3.41,16.22,2.61,32.39,5.6,48.4,9.3,4.48,1.03,8.98,2.11,13.47,3.26-.2,2.13-.36,4.27-.49,6.41-.41,6.4-.63,12.82-.7,19.24-.1,9.07.11,18.15.69,27.2.66,10.46,1.8,20.89,3.58,31.22,1.83,10.6,4.35,21.11,7.97,31.24,1.75,4.92,3.77,9.76,6.1,14.43,1.15,2.3,2.38,4.56,3.69,6.76.64,1.07,1.29,2.12,1.97,3.16.32.5.65.99.99,1.48.1.15.34.67.5.73.09.03.14,0,.14-.09.05.23.04.52.06.71.09.71.18,1.41.27,2.12l.95,7.4c.97,7.51,1.94,15.02,2.9,22.53,1.02,7.91,2.04,15.81,3.06,23.72l1.8,13.96.1.75c.24,1.51,2.64,1.53,2.49,0l-.09-.75ZM177.6,161.33c.9-.34,1.79-.7,2.67-1.07.43,15.32,3.11,30.74,8.6,45.08-7.46-5.86-13.72-13.51-15.36-23.09-1.04-6.04.02-12.54,2.51-17.97.46-1.01.98-2.01,1.57-2.95Zm5.35,3.26c-.1-1.79-.16-3.59-.2-5.38,10.58-4.68,20.4-10.98,29.25-18.45,7.67-6.48,14.66-13.82,20.67-21.87.7-.94,1.38-1.89,2.05-2.86,1.46,2.26,3.08,4.41,4.86,6.45,7.63,8.68,17.74,14.79,28.38,19.05,3.11,1.24,6.27,2.33,9.48,3.29,3.31.99,6.7,1.68,10.01,2.68,5.27,1.59,10.29,4.05,14.64,7.43,6.36,4.93,11.08,11.63,14.14,19.03-2.01,16.27-6.71,32.57-15.25,46.65-5.21,8.58-12.03,16.25-20.32,21.78-.23.07-.44.2-.59.4-4.01,2.6-8.35,4.71-13.01,6.18-14.57,4.57-31.11,3.06-44.43-4.49-.9-.51-1.79-1.06-2.66-1.62-.17-.26-.44-.43-.74-.5-11.19-7.47-19.4-18.74-25.06-30.85-6.84-14.63-10.32-30.85-11.23-46.93Zm137.68,31.6c-2.7,3.6-6,6.73-9.57,9.47,3.18-8.27,5.4-16.94,6.81-25.6.06-.36.11-.72.16-1.07,1.7,5.53,2.69,11.4,2.59,17.21Zm-100.54,49.67c12.61,7.56,27.95,9.87,42.35,6.89,6.3-1.31,12.15-3.73,17.49-6.98.52,7.66,3.7,15.02,8.95,20.66,2.91,3.12,6.44,5.7,10.31,7.49,3.38,1.56,6.85,2.34,10.47,2.96-.71,11.64-4.79,22.88-11.76,32.24-6.96,9.36-16.73,16.62-27.7,20.56-11.54,4.15-24.27,4.67-36.11,1.45-11.42-3.1-21.74-9.63-29.51-18.55-7.82-8.98-12.89-20.33-14.26-32.17-.13-1.16-.22-2.32-.29-3.48,3.86-.64,7.55-1.46,11.13-3.16,7.7-3.66,13.73-10.31,16.8-18.24,1.2-3.08,1.9-6.37,2.13-9.67Zm-143.91,39.6c3.35-8.79,8.83-16.65,14.68-23.95,13.98-17.44,30.04-33.07,41.64-52.34,6.8-11.29,12.03-23.52,15.23-36.32,1.85-7.41,2.65-14.94,3.98-22.44,1.26-7.13,3.04-14.18,5.49-20.99,6.83-18.97,19.48-35.64,37.78-44.68,8.6-4.25,18.01-6.71,27.47-7.04.15,0,.31,0,.46,0,.41.01.89-.24,1.08-.62,2.06-4.21,5.8-7.88,9.53-10.6,9.98-7.29,22.68-8.86,34.67-7.05,27.17,4.08,52.94,20.44,68.65,42.86,8.9,12.71,14.63,27.36,17.15,42.65.7,4.26.9,8.53,1.41,12.8.47,3.93,1.19,7.85,2.02,11.72,1.55,7.23,3.68,14.34,6.37,21.24,4.7,12.04,11.11,23.3,18.55,33.85,6.69,9.49,14.16,18.38,21.41,27.44,6.36,7.95,12.63,16.13,17.21,25.26,4.46,8.9,6.84,18.62,6.38,28.6-.08,1.66-.24,3.31-.45,4.96-2.35-2.85-5.49-5.1-8.58-7-5.7-3.5-11.94-6.13-18.2-8.46-7.64-2.84-15.46-5.19-23.34-7.31-16.78-4.51-33.84-7.97-50.95-10.98-3.85-.68-7.7-1.33-11.55-1.95-3.93-.64-7.9-1.09-11.66-2.46-8-2.92-14.58-9.27-17.86-17.12-1.5-3.58-2.3-7.44-2.38-11.31,6.78-4.58,12.67-10.53,17.48-17.31,3.74-5.27,6.85-10.95,9.44-16.88,0,0,.02,0,.02-.01,4.04-2.77,7.81-5.93,11.05-9.59-.01.11-.03.21-.04.29-.23,1.57,2.18,2.25,2.41.66.22-1.5.33-3.03.38-4.55,0-.04,0-.09,0-.13.16-5.36-.63-10.79-1.96-15.92-.63-2.45-1.44-4.85-2.38-7.21,0-.33-.12-.58-.32-.75-2.47-5.91-5.93-11.41-10.45-15.98-3.69-3.73-8.05-6.8-12.79-9.03-5.89-2.78-12.26-3.89-18.44-5.81-11.56-3.59-22.83-9.05-31.7-17.44-7.39-6.99-12.69-15.85-15.11-25.75-.29-1.2-.54-2.41-.76-3.63-.28-1.58-2.69-.91-2.41.66,1.12,6.31,3.33,12.34,6.5,17.84-2.66,4.15-5.87,8.01-9.13,11.69-8.15,9.19-17.53,17.32-27.93,23.85-7.47,4.69-15.46,8.53-23.83,11.32-1.52.51-.87,2.92.66,2.41.31-.1.62-.22.92-.32-1.2,2.47-2.04,5.17-2.59,7.76-1.79,8.36-.24,16.97,4.25,24.25,3.77,6.12,9.18,11.02,15.05,15.1,5.82,13.44,14.42,25.97,26.63,34.33.11.08.23.15.34.22-.21,8.23-3.74,16.15-9.74,21.82-3.14,2.97-6.92,5.28-11,6.69-3.7,1.28-7.62,1.7-11.46,2.33-16.7,2.72-33.35,5.85-49.82,9.76-15.57,3.7-31.34,7.89-45.9,14.65-5.15,2.39-10.34,5.18-14.53,9.08-.76.7-1.43,1.45-2.04,2.23-1.07-8.6-.1-17.25,3.01-25.41Z"/>
          </g>
        </g>
        <g>
          <g>
            <path class="cls-1" d="m109.22,499.24c1.08-3.19,2.36-6.33,3.56-9.47,2.39-6.25,4.83-12.49,7.33-18.69,6.24-15.48,12.74-30.91,20.22-45.84,3.14-6.27,6.43-12.52,10.35-18.34,2.25-3.34,5.01-7.59,8.86-9.28,2.39-1.05,4.84-1.87,7.18-3.06,2.63-1.33,5.17-2.84,7.64-4.46,3.69-2.42,7.2-5.09,10.59-7.92-1.74,1.01-4.38.13-5.99-.71-2.94-1.53-4.45-4.45-3.71-7.59-1.9-1.54-3.55-3.54-4.9-5.2-3.24-4.01-5.97-8.46-9.31-12.39-.05.16-.1.32-.15.49-1.22,4.32-2.23,8.71-2.91,13.14-.72,4.67-1.3,9.87.11,14.47.47,1.54-1.94,2.2-2.41.66-.8-2.6-.95-5.39-.87-8.09.21-7.67,1.95-15.51,4.26-22.84-.68-.64-1.45-1.18-2.24-1.21-1.7-.07-3.44.41-5.1.7-5.9,1.02-11.71,1.09-17.54-.45-1.56-.41-.89-2.82.66-2.41,6.09,1.6,11.94,1.19,18.06.12,1.62-.28,3.55-.78,5.18-.28,1.74.53,3.13,2.07,4.28,3.4,3.49,4.03,6.3,8.61,9.64,12.77,1.19,1.49,3,3.89,5.08,5.48.32.08.6.27.76.53,1.58,1.01,3.28,1.47,4.97.67.77-.36,1.67-1.11,1.88-1.74.24-.72-.07-1.69-.24-2.4-.33-1.33-.79-2.63-1.29-3.91-1.82-4.7-4.22-9.14-6.75-13.49-2.2-3.79-4.46-7.59-7.05-11.13-1.49-2.04-3.57-2.99-5.92-4.16-5.29-2.63-10.75-4.93-16.23-7.12-1.48-.59-.83-3.01.66-2.41,6.6,2.64,13.38,5.3,19.57,8.82.99.56,2.04,1.16,2.82,2.01,1.11,1.21,2.01,2.65,2.91,4.01,2.78,4.19,5.36,8.53,7.77,12.95,1.19,2.18,2.29,4.39,3.29,6.67,1.16,2.64,2.39,5.4,2.86,8.26.26,1.6.12,2.89-.94,4.14-.92,1.09-2.21,1.92-3.62,2.22-1.79.38-3.45.02-4.99-.76-.04,1.02.27,1.98,1.11,2.81.97.96,2.31,1.58,3.65,1.81.44.08,1.01.06,1.27.05.05,0,.08,0,.11-.02.15-.14.15-.17.24-.28.84-1.14,1.4-2.53,1.97-3.81,1.37-3.09,2.55-6.3,3.47-9.56.59-2.08.69-3.64.48-5.81-.58-6.18-1.71-12.35-2.95-18.43-.24-1.19-.5-2.37-.79-3.55-.11-.43-.21-.86-.34-1.28-.04-.13-.08-.26-.12-.39-.02-.05-.03-.08-.03-.11,0,0,0,0,0,0-1.47-2.93-4.64-5.09-7.41-6.64-2.19-1.23-4.52-2-6.83-2.93-2.2-.89-4.35-1.89-6.47-2.96-2.43-1.23-4.83-2.53-7.16-3.95-1.37-.84-.12-3,1.26-2.16,3.27,1.99,6.69,3.8,10.17,5.41,2.8,1.3,5.76,2.2,8.54,3.53,2.35,1.12,4.56,2.54,6.53,4.25,1.88,1.63,3.48,3.49,4.13,5.92.75,2.79,1.26,5.66,1.79,8.5.65,3.57,1.25,7.15,1.73,10.74.32,2.35.81,4.87.61,7.25-.06.67-.17,1.34-.31,2.01,1.76,1.04,3.94,1.87,5.5.09,1.81-2.08,2.28-5.38,2.7-8,.6-3.7.96-7.5,1.17-11.24.4-6.85-2.2-13.94-5.2-19.99-1.31-2.64-2.78-5.26-4.6-7.58-.61-.77-1.28-1.59-2.07-2.19-.47-.36-.63-.38-1.31-.54-4.36-.98-8.85-1.45-13.28-2-4.22-.53-8.44-1.02-12.66-1.52-1.08-.13-1.95-.29-2.99.05-.6.19-1.2.41-1.79.64-1.36.52-2.69,1.13-3.99,1.78-6.01,2.98-11.63,6.76-17.01,10.75-4.66,3.46-9.22,7.13-13.38,11.18-.67.65-1.32,1.31-1.94,2-.5.56-.71.77-1.01,1.28-.32.53-.37.77-.62,1.46-.32.91-.59,1.83-.86,2.75-3.45,11.92-5.68,24.2-9.61,35.99-2.91,8.7-7.66,16.83-12.21,24.75-5.99,10.43-12.36,20.65-18.84,30.78-6.64,10.38-13.42,20.67-20.29,30.9-5.37,8-10.79,15.96-16.26,23.88-2.07,3.01-4.15,6.01-6.25,9h73.63c0-.11.03-.22.07-.33.05-.14.11-.28.16-.43Z"/>
            <path class="cls-1" d="m199.83,367.89c2.27-2.64,4.49-5.32,6.66-8.04,2.76-3.46,5.56-6.98,7.79-10.81,1.35-2.31,2.65-5.78.89-8.25-.84-1.18-2.29-1.42-3.65-1.21-2.79.42-5.34,2.13-7.59,3.78.14,2.55-.03,5.06-.27,7.68-.33,3.64-.66,7.34-1.57,10.89-.63,2.48-1.64,5.38-3.95,6.79-2.13,1.3-4.58.66-6.65-.44-.52,1.64-1.16,3.24-1.74,4.78-.65,1.72-1.35,3.44-2.13,5.11-.53,1.14-1.08,2.38-1.91,3.35.82-.69,1.64-1.39,2.44-2.1,4.08-3.61,8.11-7.39,11.67-11.53Z"/>
            <path class="cls-1" d="m220.11,279.93c.04-.25-.09.16,0,0h0Z"/>
            <path class="cls-1" d="m183.69,380.05c.1-.03.08-.06,0,0h0Z"/>
            <path class="cls-1" d="m186.19,308.33c1.05-2.5,2.03-5.16,3.66-7.35,2.7-3.61,6.05-6.75,9.35-9.81.4-.37.78-.76,1.21-1.1.87-.7,1.98-.43,3.04-.44,2.78-.02,5.57-.31,8.23-1.15,3.03-.96,5.84-2.75,7.4-5.57.41-.75.67-1.37.88-2.26-1.78-.32-3.57-.61-5.37-.88-2.64-.39-6.06-1.09-8.51-.73-1.99.3-3.98,1.08-5.88,1.71-2.96.99-5.9,2.06-8.8,3.24-2.44.99-4.94,2.02-7.17,3.43-1.25.79-1.84,1.73-2.72,2.94-4.87,6.71-9.47,13.64-14.06,20.55.95.11,1.91.22,2.86.34,4.65.56,9.33,1.09,13.96,1.82.62-1.59,1.26-3.18,1.92-4.76Z"/>
            <path class="cls-4" d="m171.75,313.94s11.94,1.64,18.26,7.18c6.32,5.54,9.26,17.77,8.92,24.58-.34,6.81-3.44,21.22-3.44,21.22,0,0,6.44,1.36,7.36-15.78s-5.46-26.59-11.4-33.36c-5.98-6.81-19.69-3.84-19.69-3.84Z"/>
            <path class="cls-4" d="m158.42,319.48s24.66,12.15,27.29,14.98c2.63,2.83,5.56,23.66,5.56,27.74s-2,12.09-2,12.09l-2.77-3.23s2.15-10.72-.8-21.28-1.75-13.45-4.82-15.15c-3.06-1.7-22.47-15.15-22.47-15.15Z"/>
            <path class="cls-4" d="m147.2,329.5s17.36,10.41,20.25,13.64,15.49,19.74,16.31,31.15c0,0,3.02-.68,1.95-4.77-1.07-4.09-16.05-30.81-16.05-30.81,0,0-20.41-11.29-22.46-9.22Z"/>
            <path class="cls-4" d="m205.23,340.12s11.39,5.38,5.35,16.96c0,0,5.94-8.3,6.74-12.06.79-3.77-.51-7.15-4.09-6.64-3.57.51-8,1.74-8,1.74Z"/>
            <path class="cls-4" d="m219.96,278.95s-5.08,9.1-20.51,8.13c0,0-9.82,6.71-13.5,12.49l-5.38,13.8,5.15.9,4.3-10.78,11.56-11.77s23.24-2.92,18.39-12.76Z"/>
          </g>
          <path class="cls-6" d="m120.77,476.13c3.04-7.65,6.16-15.26,9.41-22.83,3.41-7.95,6.94-15.84,10.73-23.62,3.24-6.64,6.63-13.25,10.59-19.49,1.46-2.3,2.99-4.55,4.74-6.59.68-.8,1.4-1.57,2.19-2.27.62-.55.98-.87,1.85-1.32.13-.07.26-.13.39-.19.02,0,.04-.02.07-.03.3-.11.6-.21.9-.32,1.38-.5,2.74-1.07,4.07-1.68,2.78-1.27,5.46-2.75,8.05-4.36,5.06-3.15,9.81-6.79,14.34-10.66,4.64-3.97,9.19-8.19,13.22-12.79,5.15-5.88,10.33-12.02,14.5-18.64,1.83-2.91,3.25-6.19,2.43-9.69-.89-3.8-4.43-5.22-8.01-4.37-2.38.57-4.57,1.82-6.59,3.22,0-.06-.01-.12-.02-.18-1.15-6.91-4.03-13.76-7.74-19.68-1.26-2.01-2.67-4.14-4.54-5.63-1.22-.97-2.65-1.18-4.14-1.46-.13-.02-.27-.04-.4-.07.67-1.73,1.36-3.45,2.09-5.16,1.09-2.55,2.16-4.99,3.96-7.12,2.75-3.27,5.87-6.26,9.05-9.12,7.86.17,18.13-1.85,20.45-10.63.16-.59.28-1.23.3-1.84.02-.51-.4-1.11-.92-1.21-4.75-.88-9.68-1.86-14.51-1.92-1.9-.02-3.69.57-5.48,1.13-2.93.91-5.82,1.94-8.68,3.04-2.88,1.11-5.78,2.27-8.52,3.71-1.63.86-2.96,1.79-4.08,3.25-3.12,4.08-5.95,8.4-8.84,12.65-2.33,3.43-4.64,6.86-6.93,10.31-.44-.05-.88-.11-1.33-.16-1.12-.13-2.45-.5-3.55-.29-.67.13-1.34.41-1.98.64-2.93,1.05-5.75,2.43-8.47,3.94-6.07,3.36-11.77,7.38-17.24,11.64-4.27,3.32-8.57,6.78-12.25,10.75-.97,1.05-1.77,2.06-2.29,3.39-.74,1.88-1.26,3.85-1.78,5.8-1.7,6.27-3.17,12.6-4.78,18.89-1.55,6.06-3.07,12.22-5.36,18.05-1.54,3.9-3.51,7.64-5.48,11.34-5.39,10.16-11.38,20.01-17.46,29.77-6.81,10.93-13.83,21.73-20.95,32.46-6.11,9.21-12.3,18.37-18.54,27.48-3.3,4.82-6.62,9.62-9.97,14.41-.15.22-.31.44-.46.66-.15.22-.21.43-.22.63-.02,1.03,1.61,1.72,2.38.63.15-.21.29-.42.44-.63,2.1-2.99,4.18-5.99,6.25-9,5.47-7.93,10.89-15.89,16.26-23.88,6.87-10.23,13.65-20.52,20.29-30.9,6.48-10.13,12.85-20.35,18.84-30.78,4.55-7.92,9.3-16.05,12.21-24.75,3.94-11.79,6.16-24.06,9.61-35.99.27-.92.54-1.84.86-2.75.24-.69.3-.93.62-1.46.3-.5.51-.72,1.01-1.28.62-.69,1.28-1.35,1.94-2,4.16-4.05,8.72-7.72,13.38-11.18,5.38-3.99,11-7.77,17.01-10.75,1.31-.65,2.63-1.25,3.99-1.78.59-.23,1.18-.44,1.79-.64,1.04-.34,1.91-.17,2.99-.05,4.22.49,8.44.99,12.66,1.52,4.43.55,8.92,1.02,13.28,2,.68.15.84.18,1.31.54.79.6,1.46,1.41,2.07,2.19,1.82,2.32,3.29,4.94,4.6,7.58,3,6.05,5.6,13.13,5.2,19.99-.22,3.74-.58,7.54-1.17,11.24-.42,2.61-.89,5.92-2.7,8-1.56,1.79-3.74.95-5.5-.09.14-.67.25-1.34.31-2.01.2-2.38-.29-4.9-.61-7.25-.49-3.59-1.08-7.18-1.73-10.74-.52-2.84-1.04-5.7-1.79-8.5-.65-2.43-2.25-4.28-4.13-5.92-1.97-1.71-4.18-3.13-6.53-4.25-2.78-1.33-5.74-2.23-8.54-3.53-3.48-1.61-6.89-3.41-10.17-5.41-1.38-.84-2.64,1.32-1.26,2.16,2.33,1.42,4.73,2.72,7.16,3.95,2.12,1.07,4.27,2.07,6.47,2.96,2.31.94,4.65,1.71,6.83,2.93,2.77,1.55,5.94,3.71,7.41,6.64,0,.01,0,.01,0,0,0,.03.02.06.03.11.04.13.08.26.12.39.13.42.24.85.34,1.28.29,1.18.54,2.36.79,3.55,1.25,6.08,2.37,12.25,2.95,18.43.2,2.17.11,3.73-.48,5.81-.92,3.25-2.1,6.46-3.47,9.56-.57,1.28-1.13,2.68-1.97,3.81-.09.12-.09.14-.24.28-.03,0-.06.02-.11.02-.26,0-.84.03-1.27-.05-1.33-.23-2.68-.85-3.65-1.81-.83-.83-1.15-1.79-1.11-2.81,1.54.77,3.2,1.14,4.99.76,1.4-.3,2.7-1.12,3.62-2.22,1.06-1.25,1.2-2.54.94-4.14-.47-2.86-1.7-5.62-2.86-8.26-1-2.27-2.1-4.49-3.29-6.67-2.41-4.42-4.99-8.76-7.77-12.95-.9-1.36-1.8-2.8-2.91-4.01-.78-.85-1.83-1.45-2.82-2.01-6.19-3.52-12.97-6.17-19.57-8.82-1.49-.6-2.14,1.82-.66,2.41,5.48,2.19,10.95,4.49,16.23,7.12,2.34,1.17,4.42,2.12,5.92,4.16,2.59,3.54,4.84,7.35,7.05,11.13,2.53,4.35,4.93,8.79,6.75,13.49.49,1.28.96,2.58,1.29,3.91.18.71.49,1.67.24,2.4-.21.63-1.1,1.38-1.88,1.74-1.69.8-3.4.34-4.97-.67-.16-.27-.44-.45-.76-.53-2.08-1.59-3.89-3.99-5.08-5.48-3.34-4.16-6.15-8.74-9.64-12.77-1.15-1.33-2.54-2.87-4.28-3.4-1.63-.5-3.56,0-5.18.28-6.11,1.07-11.97,1.48-18.06-.12-1.56-.41-2.22,2-.66,2.41,5.83,1.53,11.64,1.46,17.54.45,1.66-.29,3.4-.76,5.1-.7.79.03,1.56.57,2.24,1.21-2.31,7.33-4.05,15.16-4.26,22.84-.08,2.7.07,5.49.87,8.09.47,1.53,2.89.88,2.41-.66-1.41-4.59-.83-9.8-.11-14.47.68-4.44,1.69-8.82,2.91-13.14.05-.16.1-.32.15-.49,3.34,3.93,6.07,8.38,9.31,12.39,1.34,1.67,2.99,3.67,4.9,5.2-.74,3.14.78,6.06,3.71,7.59,1.61.84,4.25,1.72,5.99.71-3.38,2.83-6.9,5.5-10.59,7.92-2.46,1.62-5,3.13-7.64,4.46-2.34,1.19-4.79,2.01-7.18,3.06-3.84,1.68-6.6,5.94-8.86,9.28-3.93,5.82-7.22,12.07-10.35,18.34-7.47,14.93-13.98,30.36-20.22,45.84-2.5,6.21-4.94,12.44-7.33,18.69-1.2,3.15-2.48,6.28-3.56,9.47-.05.14-.1.29-.16.43-.04.12-.06.23-.07.33-.11,1.27,1.98,1.72,2.48.33.04-.11.08-.22.12-.33.79-2.17,1.61-4.33,2.42-6.5,2.2-5.81,4.44-11.6,6.74-17.37Zm99.34-196.2c-.09.16.04-.25,0,0h0Zm-49.8,31.33c-.95-.11-1.91-.23-2.86-.34,4.6-6.91,9.19-13.84,14.06-20.55.88-1.21,1.46-2.15,2.72-2.94,2.23-1.41,4.73-2.44,7.17-3.43,2.89-1.18,5.83-2.25,8.8-3.24,1.9-.63,3.89-1.42,5.88-1.71,2.45-.37,5.87.33,8.51.73,1.79.26,3.58.56,5.37.88-.21.89-.47,1.51-.88,2.26-1.56,2.82-4.37,4.61-7.4,5.57-2.66.84-5.45,1.13-8.23,1.15-1.06,0-2.18-.26-3.04.44-.42.34-.81.74-1.21,1.1-3.3,3.05-6.65,6.2-9.35,9.81-1.64,2.19-2.61,4.85-3.66,7.35-.66,1.58-1.3,3.16-1.92,4.76-4.63-.74-9.31-1.27-13.96-1.82Zm13.38,68.79c.08-.06.1-.03,0,0h0Zm3.93-1.89c.78-1.67,1.48-3.39,2.13-5.11.58-1.53,1.22-3.14,1.74-4.78,2.07,1.1,4.52,1.74,6.65.44,2.31-1.41,3.32-4.31,3.95-6.79.9-3.55,1.24-7.25,1.57-10.89.24-2.61.41-5.13.27-7.68,2.25-1.66,4.8-3.36,7.59-3.78,1.36-.21,2.81.03,3.65,1.21,1.76,2.47.46,5.94-.89,8.25-2.23,3.83-5.03,7.36-7.79,10.81-2.17,2.72-4.39,5.4-6.66,8.04-3.56,4.14-7.6,7.92-11.67,11.53-.8.71-1.62,1.41-2.44,2.1.83-.97,1.38-2.21,1.91-3.35Z"/>
        </g>
        <g>
          <polygon class="cls-4" points="315.2 405 246.15 405 0 0 500 0 315.2 405"/>
          <g>
            <g>
              <path class="cls-2" d="m257.93,277.61s-.04-.06-.06-.09c-.02-.02-.03-.03-.05-.05-.03-.02-.06-.04-.09-.06-.03-.01-.07-.02-.1-.03-.04,0-.07,0-.11,0-.03,0-.07.02-.1.03-.03.02-.06.04-.09.06-.02.02-.03.03-.05.05-.02.03-.04.06-.05.09-.01.03-.02.07-.03.1,0,.04,0,.07,0,.11,0,.03.02.07.03.1.02.03.04.06.06.09.02.02.03.03.05.05.03.02.06.04.09.06.03.01.07.02.1.03.04,0,.07,0,.11,0,.03,0,.07-.02.1-.03.03-.02.06-.04.09-.06.02-.02.03-.03.05-.05.02-.03.04-.06.06-.09.02-.05.03-.1.04-.15-.01-.05-.03-.1-.04-.15Z"/>
              <path class="cls-1" d="m281.43,354.51c-.05.08-.01.07,0,.07.04.07.02.03,0-.07Z"/>
              <path class="cls-2" d="m257.99,340.92c7.13,3.87,14.1,8.08,21.36,11.7.76.37,1.34.67,1.91.9-.02-.06-.04-.13-.06-.19-.13-.42-.33-.8-.65-1.38-.74-1.29-1.66-2.47-2.61-3.6-6.02-7.13-13.4-13.16-20.36-19.33-2.94-2.61-5.98-5.2-8.93-7.9v14.89c3.14,1.58,6.25,3.23,9.34,4.91Z"/>
              <path class="cls-1" d="m437.08,475.34c-7.89-7.2-15.74-14.44-23.54-21.74-8.12-7.59-16.19-15.24-24.15-22.99-7.02-6.85-13.99-13.77-20.71-20.92-2.6-2.77-5.17-5.57-7.64-8.46-.53-.63-1.06-1.26-1.58-1.89-.63-.77-.89-1.67-1.21-2.6-.82-2.39-1.55-4.82-2.29-7.23-1.92-6.25-3.87-12.51-6.36-18.55-1.16-2.81-2.46-5.58-4.05-8.17-1.97-3.2-4.33-6.19-6.72-9.08-.25-.3-.49-.59-.76-.89h0s0-.02-.01-.03c-.13-.1-.25-.23-.33-.4,0,0,0,0,0,0-6.1-7.17-13-13.6-20.29-19.55-.83-.68-1.66-1.35-2.5-2.01-2.41-1.91-4.87-3.78-7.34-5.61-4.17-3.08-8.42-6.05-12.55-9.18-6.93-5.25-13.86-10.53-20.92-15.61-2.67-1.91-5.35-3.8-8.11-5.56-1.58-1.01-3.33-2.24-5.08-2.79-2.27-.7-4.73.16-5.74,2.37-1.27,2.77-.13,6.07,1.63,8.35,1.03.79,2.04,1.6,3.03,2.4,5.29,4.28,10.47,8.7,15.63,13.14,3.23,2.78,6.45,5.58,9.66,8.4,3.32,2.91,6.5,6.14,10.14,8.65,2.83,1.94,5.92,3.5,9.21,4.46.96.28,1.94.51,2.93.68.41.07.35.07.84.1,1.6.1,1.61,2.6,0,2.5-4.23-.26-8.53-2.12-12.12-4.23-3.71-2.19-6.81-5.13-10.02-7.97-3.17-2.8-6.35-5.59-9.56-8.36-5.5-4.76-11.03-9.49-16.65-14.11-1.45-1.19-2.9-2.39-4.41-3.54-.15-.06-.29-.16-.41-.32h-.01c-2.04-1.53-4.15-2.96-6.42-4.09-.81-.41-1.64-.78-2.5-1.1-.06-.03-.11-.05-.17-.07-2.23-.83-5.29-1.64-7.36.01-.91.73-1.46,1.85-1.76,2.95-.01.03-.01.05-.02.07-.01.1-.02.2-.02.29,0,.11,0,.21.02.31v.04s0,.03.01.05c.23,1.2.67,1.95,1.37,3.06.86,1.34,1.86,2.59,2.91,3.79,1.59,1.83,3.28,3.57,5.02,5.27.82.81,1.66,1.6,2.5,2.39.58.55,1.16,1.09,1.75,1.63,7.43,6.88,15.22,13.36,22.54,20.35,2.87,2.75,5.72,5.57,8.13,8.73,1.37,1.8,3.32,4.43,2.78,6.85-.5,2.28-3.3.81-4.57.22-2.88-1.33-5.65-2.91-8.42-4.45-7.37-4.08-14.69-8.26-22.21-12.08-.72-.37-1.44-.74-2.17-1.1-.11-.05-.22-.11-.33-.16-3.47-1.72-7.01-3.38-10.67-4.65-1.39-.49-2.8-.91-4.25-1.16-.38-.07-.85-.13-1.46-.12-.12,0-.25.01-.38.02h-.07c-.18.04-.36.07-.54.14,0,.01-.1.06-.16.09h-.01s-.08.09-.13.13c-.01.02-.02.03-.03.03-.03.04-.05.08-.07.12v.02c-.03.09-.06.21-.07.27-.12.47-.18.91-.17,1.4.08,2.29,1.68,4.38,3.14,6.01,4.18,4.63,9.62,8.12,14.87,11.46.44.29.88.56,1.31.84.4.25.79.51,1.19.76,6.36,4.07,12.72,8.17,18.49,13.07,2.45,2.08,4.99,4.33,6.72,7.06.71,1.12,1.91,3.37.67,4.54-1.54,1.44-5.05-.25-6.63-.82-3.86-1.38-7.64-2.97-11.45-4.48-2.58-1.02-5.18-2.03-7.8-2.97-.83-.3-1.66-.59-2.5-.87-.95-.32-1.9-.63-2.86-.92-3.3-1.02-6.99-2.18-10.49-1.85-.18.02-.37.04-.72.13-.1.03-.46.14-.55.17-.02.01-.03.01-.03.01-.15.08-.48.28-.51.28-.2.16-.29.29-.29.29-.45.63-.4,1.37-.09,2.08,1.26,2.88,4.58,5.04,7.16,6.76,2.71,1.8,5.51,3.45,8.38,5,.83.45,1.66.89,2.5,1.32,4.93,2.55,10,4.86,15,7.2,2.97,1.39,6.03,2.69,8.86,4.35,2.29,1.34,3.47,3.95,4.97,6.05.77,1.08,1.56,2.14,2.38,3.18.65.84,1.33,1.68,2.01,2.5,2.62,3.12,5.45,6.05,8.5,8.76,6.44,5.71,13.93,10.15,21.56,14.08,5.68,2.93,11.67,5.37,17.13,8.72,2.42,1.49,4.23,3.25,6.05,5.41,5.67,6.7,10.74,13.94,15.8,21.1,5.73,8.1,11.34,16.29,16.9,24.51,2.65,3.92,5.29,7.85,7.91,11.79.14.22.2.43.2.64h88.49c-2.94-2.62-5.88-5.25-8.82-7.9-6.19-5.56-12.37-11.15-18.52-16.77Z"/>
              <path class="cls-2" d="m250.37,400.56c1.94,2.03,4.37,1.94,6.9,1.94h19.45c-.57-.75-1.12-1.52-1.67-2.29-.96-1.36-1.87-2.77-2.83-4.13-.02-.02-.03-.04-.03-.05h-.01s-.06-.04-.1-.07c-.03-.02-.04-.03-.04-.04-.03-.02-.07-.04-.14-.09-.42-.26-.84-.51-1.27-.75-3.14-1.71-6.44-3.15-9.67-4.67-4.12-1.93-8.25-3.88-12.31-5.95v10.71c0,1.98.26,3.86,1.72,5.39Z"/>
              <path class="cls-2" d="m266.49,373.59c1.49.57,2.99,1.13,4.52,1.58.43.12.87.24,1.32.33-.35-.9-.94-1.7-1.54-2.44-2.34-2.87-5.29-5.29-8.19-7.56-4.46-3.49-9.2-6.56-13.95-9.6v10.75c6.02,2.11,11.89,4.67,17.84,6.94Z"/>
              <path class="cls-1" d="m256.33,265.85c-.16.06-.05.02,0,0h0Z"/>
              <path class="cls-2" d="m314.92,267.26c-.05-3.69-2.9-6.33-6.54-6.35-6.03-.03-12.07,0-18.11,0h-34.35c-.51,0-1.03-.02-1.54.02-3.25.24-5.66,3.03-5.73,6.22v30.55c1.35.6,2.65,1.32,3.91,2.11-.37-1.27-.5-2.6-.33-3.96.34-2.64,1.87-5.03,4.4-6.02,2.14-.84,4.41-.51,6.43.44,2.18,1.04,4.22,2.41,6.23,3.75,3.02,2.03,5.98,4.15,8.91,6.3,6.8,4.97,13.44,10.14,20.21,15.14,4.4,3.26,8.89,6.4,13.26,9.7,1.09.82,2.17,1.65,3.25,2.49v-57.57c0-.94.01-1.88,0-2.82Zm-55.2,12.43c-.37.44-.96.79-1.52.89-.28.05-.57.09-.85.06-.4-.05-.71-.13-1.07-.3-.49-.23-.92-.65-1.19-1.11-.28-.47-.45-1.08-.4-1.63.03-.28.06-.56.17-.82.15-.37.3-.63.56-.94.35-.42.87-.72,1.39-.87.54-.15,1.17-.15,1.7.05.62.23,1.1.6,1.49,1.14.33.46.48,1.04.49,1.6-.01.73-.28,1.38-.75,1.94Zm-1.02-5.27c-2.37.43-4.79-.59-6.05-2.68-1.26-2.1-.96-4.75.56-6.62,1.47-1.8,4.12-2.5,6.29-1.68,2.26.85,3.75,2.96,3.78,5.38-.04,2.65-1.93,5.12-4.59,5.6Z"/>
              <path class="cls-1" d="m335.94,344.72c-2.23-9.67-4.5-19.35-7.21-28.9-1.45-5.1-2.95-10.5-6.24-14.75-.84-1.09-2.25-2.62-3.52-2.76-.45-.05-.65.05-.95.41-.29.36-.48.96-.61,1.51v29.41c6.79,5.44,13.23,11.25,19.1,17.65-.2-.86-.39-1.71-.58-2.57Z"/>
              <path class="cls-2" d="m260.75,268.3c-.06-.24-.12-.46-.19-.69-.01-.03-.02-.06-.02-.07,0-.01-.02-.03-.04-.06-.06-.1-.11-.21-.17-.31-.06-.1-.13-.2-.19-.29-.02-.03-.03-.04-.04-.06-.01-.01-.03-.03-.06-.05-.14-.14-.27-.28-.41-.41-.05-.04-.08-.07-.08-.07-.04-.03-.08-.06-.12-.09-.06-.04-.13-.09-.2-.13-.12-.07-.24-.13-.36-.19-.02-.01-.03-.02-.04-.02-.01,0-.02,0-.04-.01-.23-.08-.46-.14-.69-.19-.04,0-.06-.01-.07-.02-.02,0-.04,0-.08,0-.1,0-.21-.01-.31-.01-.1,0-.21,0-.31,0,.01,0-.13.01-.2.02-.07.01-.2.04-.19.04-.08.02-.16.04-.23.06-.11.03-.23.07-.34.11-.02,0-.02,0-.03.01-.21.1-.42.21-.61.34,0,0-.1.07-.15.11-.05.05-.15.13-.14.12-.13.12-.26.26-.37.39-.03.03-.06.08-.08.1-.05.08-.11.16-.16.25-.06.1-.11.21-.17.31-.02.03-.03.05-.04.07,0,.02-.01.04-.02.07-.06.19-.12.38-.17.57-.01.05-.02.1-.03.16,0-.03-.02.22-.02.24-.01.19,0,.37,0,.56,0,.04,0,.08.01.13,0,.02,0,.03.02.09.02.08.03.16.05.24.04.17.1.34.16.51.02.05.08.18.09.19.04.07.07.14.11.2.06.1.13.2.19.29,0,0,.01.02.02.03.15.18.32.33.48.49.02.02.03.03.04.04,0,0,0,0,.02.01.08.06.16.11.24.16.16.1.33.19.5.27.02,0,.03.01.04.02.11.04.22.08.34.11.12.03.23.06.35.08.03,0,.04,0,.06.01,0,0,.01,0,.03,0,.21.02.41.03.62.02.08,0,.16-.01.24-.02.04,0,.13-.02.16-.03.2-.04.39-.1.58-.16.03-.01.07-.02.1-.04.01,0,.03-.02.09-.04.07-.04.14-.07.21-.11.15-.09.3-.18.44-.29.04-.03.15-.13.15-.13.06-.05.11-.11.17-.16.07-.07.13-.14.2-.22.02-.02.03-.03.03-.04,0-.01.01-.02.02-.03.47-.69.64-1.22.65-1.95,0-.15,0-.3-.02-.45,0-.03,0-.06-.01-.07Z"/>
              <path class="cls-1" d="m255.03,270.81s.08.09,0,0h0Z"/>
            </g>
            <g>
              <path class="cls-6" d="m259.51,263.45c-2.17-.82-4.82-.12-6.29,1.68-1.53,1.87-1.82,4.52-.56,6.62,1.25,2.09,3.67,3.11,6.05,2.68,2.66-.48,4.55-2.95,4.59-5.6-.03-2.42-1.53-4.52-3.78-5.38Zm-3.18,2.4s-.16.06,0,0h0Zm-1.29,4.97c.08.09.04.05,0,0h0Zm5.11-.04s-.01.02-.02.03c0,0-.02.02-.03.04-.06.07-.13.15-.2.22-.05.06-.11.11-.17.16,0,0-.12.1-.15.13-.14.1-.29.2-.44.29-.07.04-.14.07-.21.11-.06.03-.08.04-.09.04-.03.01-.07.03-.1.04-.19.06-.38.12-.58.16-.03,0-.12.02-.16.03-.08,0-.16.01-.24.02-.21,0-.41,0-.62-.02-.02,0-.02,0-.03,0-.02,0-.03,0-.06-.01-.12-.03-.23-.05-.35-.08-.12-.03-.23-.07-.34-.11,0,0-.03-.01-.04-.02-.17-.08-.34-.17-.5-.27-.08-.05-.16-.11-.24-.16-.01,0-.01,0-.02-.01-.01-.01-.02-.02-.04-.04-.17-.16-.33-.32-.48-.49,0-.01-.02-.02-.02-.03-.07-.1-.13-.19-.19-.29-.04-.07-.08-.14-.11-.2,0-.01-.07-.14-.09-.19-.07-.17-.12-.34-.16-.51-.02-.08-.03-.16-.05-.24,0-.05-.01-.07-.02-.09,0-.04,0-.08-.01-.13-.01-.19-.01-.37,0-.56,0-.02.03-.27.02-.24,0-.05.02-.1.03-.16.04-.2.1-.38.17-.57.01-.03.02-.05.02-.07.01-.02.02-.03.04-.07.06-.1.11-.21.17-.31.05-.08.1-.16.16-.25.01-.02.05-.07.08-.1.12-.14.24-.27.37-.39,0,0,.09-.08.14-.12.06-.04.16-.12.15-.11.19-.13.4-.24.61-.34.01,0,.01,0,.03-.01.11-.04.22-.08.34-.11.08-.02.15-.04.23-.06-.01,0,.12-.02.19-.04.07,0,.21-.02.2-.02.1,0,.21,0,.31,0,.1,0,.21,0,.31.01.04,0,.06,0,.08,0,.01,0,.03.01.07.02.23.06.46.12.69.19.02,0,.03,0,.04.01,0,0,.02.01.04.02.12.06.24.12.36.19.07.04.13.08.2.13.04.03.08.06.12.09,0,0,.03.03.08.07.14.14.28.27.41.41.03.03.04.04.06.05,0,.02.02.03.04.06.07.1.13.19.19.29.06.1.11.21.17.31.02.03.03.05.04.06,0,.02.01.04.02.07.08.23.14.46.19.69,0,.01,0,.04.01.07.02.15.02.3.02.45-.01.74-.18,1.26-.65,1.95Z"/>
              <path class="cls-6" d="m258.5,275.02c-.53-.2-1.16-.2-1.7-.05-.52.15-1.04.45-1.39.87-.25.3-.41.57-.56.94-.11.26-.14.54-.17.82-.05.55.11,1.16.4,1.63.28.46.7.88,1.19,1.11.37.17.67.25,1.07.3.29.03.57,0,.85-.06.56-.1,1.15-.45,1.52-.89.47-.55.74-1.21.75-1.94,0-.56-.16-1.14-.49-1.6-.39-.54-.87-.91-1.49-1.14Zm-.62,2.99s-.03.03-.05.05c-.03.02-.06.04-.09.06-.03.01-.07.02-.1.03-.04,0-.07,0-.11,0-.03,0-.07-.02-.1-.03-.03-.02-.06-.04-.09-.06-.02-.02-.03-.03-.05-.05-.02-.03-.04-.06-.06-.09-.01-.03-.02-.07-.03-.1,0-.04,0-.07,0-.11,0-.03.02-.07.03-.1.02-.03.04-.06.05-.09.02-.02.03-.03.05-.05.03-.02.06-.04.09-.06.03-.01.07-.02.1-.03.04,0,.07,0,.11,0,.03,0,.07.02.1.03.03.02.06.04.09.06.02.02.03.03.05.05.02.03.04.06.06.09.02.05.03.1.04.15-.01.05-.03.1-.04.15-.02.03-.04.06-.06.09Z"/>
              <path class="cls-6" d="m467.18,499.11c-2.26-2-4.51-4.02-6.76-6.03-5.81-5.21-11.6-10.44-17.37-15.69-7.82-7.11-15.6-14.26-23.33-21.45-8.36-7.77-16.66-15.59-24.86-23.52-7.44-7.18-14.81-14.45-21.96-21.92-2.85-2.99-5.67-6.01-8.4-9.11-1.13-1.28-2.19-2.62-3.33-3.9l-.02-.02s-.01-.05-.02-.09c-.05-.21-.15-.42-.23-.63-.18-.51-.35-1.02-.52-1.53-.39-1.18-.77-2.37-1.13-3.56-1.93-6.18-3.78-12.4-6.09-18.45-1.15-3.04-2.41-6.05-3.9-8.94-1.57-3.02-3.55-5.79-5.61-8.49-1.19-1.56-2.41-3.07-3.67-4.56-1.6-7.24-3.3-14.45-5.07-21.65-1.3-5.29-2.64-10.57-4.16-15.8-1.57-5.39-3.38-11.23-7.29-15.42-1.31-1.4-3.22-2.87-5.27-2.49-.28.05-.53.14-.77.25v-27.23c0-1.14.04-2.28-.17-3.41-.83-4.48-4.86-7.06-9.19-7.06h-34.16c-6.24,0-12.48-.03-18.71,0-4.95.02-8.93,3.74-9.04,8.74v29.59c-.41-.14-.83-.26-1.25-.37-2.55-.67-5.45-.76-7.65.89-1.57,1.18-2.87,3.3-2.93,5.31-.06,2.68,1.93,5.24,3.49,7.23,2.52,3.19,5.36,6.16,8.34,8.99v15.99c-.25-.12-.51-.25-.77-.37-3.52-1.69-7.13-3.34-10.88-4.46-2.1-.62-5.04-1.47-7.1-.27-1.23.71-1.62,2.1-1.74,3.44-.19,2.36.9,4.66,2.26,6.52,3.84,5.28,9.69,9.07,15.08,12.6,1.05.69,2.1,1.37,3.15,2.04v11.51c-1.65-.55-3.32-1.05-5-1.49-3.07-.8-6.8-1.77-9.96-.85-2.61.76-3.94,3.29-2.98,5.87,1.18,3.15,4.33,5.44,6.97,7.31,3.46,2.47,7.2,4.56,10.97,6.53v12.7c.01,3.83,2.12,7.28,5.8,8.62,1.94.71,4.17.51,6.22.51h20.5c2.72,3.41,5.69,6.63,8.9,9.59,6.35,5.85,13.72,10.45,21.33,14.48,5.85,3.11,12.01,5.65,17.74,8.96,1.1.64,2.19,1.31,3.22,2.06t.02.01c.07.06.16.13.22.19.17.15.34.3.51.46.88.84,1.69,1.77,2.49,2.7,2.47,2.89,4.77,5.93,7.05,8.98,6.07,8.16,11.89,16.51,17.65,24.89,4.6,6.69,9.15,13.41,13.66,20.16.56.84,1.12,1.68,1.68,2.52.14.21.28.42.42.64.74,1.11,2.38.42,2.36-.64,0-.2-.06-.42-.2-.64-2.62-3.94-5.26-7.87-7.91-11.79-5.56-8.22-11.17-16.41-16.9-24.51-5.06-7.16-10.13-14.4-15.8-21.1-1.82-2.16-3.63-3.92-6.05-5.41-5.46-3.35-11.45-5.79-17.13-8.72-7.63-3.93-15.12-8.37-21.56-14.08-3.05-2.71-5.88-5.64-8.5-8.76-.68-.82-1.36-1.66-2.01-2.5-.82-1.04-1.61-2.1-2.38-3.18-1.5-2.1-2.68-4.71-4.97-6.05-2.83-1.66-5.89-2.96-8.86-4.35-5-2.34-10.07-4.65-15-7.2-.84-.43-1.67-.87-2.5-1.32-2.87-1.55-5.67-3.2-8.38-5-2.58-1.72-5.9-3.88-7.16-6.76-.31-.71-.36-1.45.09-2.08,0,0,.09-.13.29-.29.03,0,.36-.2.51-.28,0,0,0,0,.03-.01.09-.03.45-.14.55-.17.35-.09.54-.11.72-.13,3.5-.33,7.19.83,10.49,1.85.96.29,1.91.6,2.86.92.84.28,1.67.57,2.5.87,2.62.94,5.22,1.95,7.8,2.97,3.81,1.51,7.59,3.1,11.45,4.48,1.58.57,5.09,2.26,6.63.82,1.24-1.17.04-3.42-.67-4.54-1.73-2.73-4.27-4.98-6.72-7.06-5.77-4.9-12.13-9-18.49-13.07-.4-.25-.79-.51-1.19-.76-.43-.28-.87-.55-1.31-.84-5.25-3.34-10.69-6.83-14.87-11.46-1.46-1.63-3.06-3.72-3.14-6.01-.01-.49.05-.93.17-1.4.01-.06.04-.18.07-.27v-.02s.04-.08.07-.12c.01,0,.02-.01.03-.03.05-.04.12-.11.13-.13h.01c.06-.03.16-.08.16-.09.18-.07.36-.1.54-.14h.07c.13-.01.26-.02.38-.02.61-.01,1.08.05,1.46.12,1.45.25,2.86.67,4.25,1.16,3.66,1.27,7.2,2.93,10.67,4.65.11.05.22.11.33.16.73.36,1.45.73,2.17,1.1,7.52,3.82,14.84,8,22.21,12.08,2.77,1.54,5.54,3.12,8.42,4.45,1.27.59,4.07,2.06,4.57-.22.54-2.42-1.41-5.05-2.78-6.85-2.41-3.16-5.26-5.98-8.13-8.73-7.32-6.99-15.11-13.47-22.54-20.35-.59-.54-1.17-1.08-1.75-1.63-.84-.79-1.68-1.58-2.5-2.39-1.74-1.7-3.43-3.44-5.02-5.27-1.05-1.2-2.05-2.45-2.91-3.79-.7-1.11-1.14-1.86-1.37-3.06-.01-.02-.01-.04-.01-.05v-.04c-.01-.1-.01-.2-.02-.31,0-.09,0-.19.02-.29.01-.02.01-.04.02-.07.3-1.1.85-2.22,1.76-2.95,2.07-1.65,5.13-.84,7.36-.01.06.02.11.04.17.07.86.32,1.69.69,2.5,1.1,2.27,1.13,4.38,2.56,6.42,4.09h.01c.12.16.26.26.41.32,1.51,1.15,2.96,2.35,4.41,3.54,5.62,4.62,11.15,9.35,16.65,14.11,3.21,2.77,6.39,5.56,9.56,8.36,3.21,2.84,6.31,5.78,10.02,7.97,3.59,2.11,7.89,3.97,12.12,4.23,1.61.1,1.6-2.4,0-2.5-.49-.03-.43-.03-.84-.1-.99-.17-1.97-.4-2.93-.68-3.29-.96-6.38-2.52-9.21-4.46-3.64-2.51-6.82-5.74-10.14-8.65-3.21-2.82-6.43-5.62-9.66-8.4-5.16-4.44-10.34-8.86-15.63-13.14-.99-.8-2-1.61-3.03-2.4-1.76-2.28-2.9-5.58-1.63-8.35,1.01-2.21,3.47-3.07,5.74-2.37,1.75.55,3.5,1.78,5.08,2.79,2.76,1.76,5.44,3.65,8.11,5.56,7.06,5.08,13.99,10.36,20.92,15.61,4.13,3.13,8.38,6.1,12.55,9.18,2.47,1.83,4.93,3.7,7.34,5.61.84.66,1.67,1.33,2.5,2.01,7.29,5.95,14.19,12.38,20.29,19.55,0,0,0,0,0,0,.08.17.2.3.33.4,0,0,0,.01.01.02h0c.27.31.51.6.76.9,2.39,2.89,4.75,5.88,6.72,9.08,1.59,2.59,2.89,5.36,4.05,8.17,2.49,6.04,4.44,12.3,6.36,18.55.74,2.41,1.47,4.84,2.29,7.23.32.93.58,1.83,1.21,2.6.52.63,1.05,1.26,1.58,1.89,2.47,2.89,5.04,5.69,7.64,8.46,6.72,7.15,13.69,14.07,20.71,20.92,7.96,7.75,16.03,15.4,24.15,22.99,7.8,7.3,15.65,14.54,23.54,21.74,6.15,5.62,12.33,11.21,18.52,16.77,2.93,2.64,5.87,5.27,8.82,7.9.19.17.38.34.56.51.15.13.29.25.43.38.9.79,2.12,0,2.17-.89.02-.3-.1-.62-.4-.89Zm-206.22-108.71c3.23,1.52,6.53,2.96,9.67,4.67.43.24.85.49,1.27.75.07.05.11.07.14.09,0,.01.01.02.04.04.04.03.08.05.1.06h0s.01.01.01.01c0,.01.01.03.03.05.96,1.36,1.87,2.77,2.83,4.13.55.77,1.1,1.54,1.67,2.29h-19.45c-2.53,0-4.96.09-6.9-1.94-1.46-1.53-1.72-3.41-1.72-5.39v-10.71c4.06,2.07,8.19,4.02,12.31,5.95Zm1.64-24.91c2.9,2.27,5.85,4.69,8.19,7.56.6.74,1.19,1.54,1.54,2.44-.45-.09-.89-.21-1.32-.33-1.53-.45-3.03-1.01-4.52-1.58-5.95-2.27-11.82-4.83-17.84-6.94v-10.75c4.75,3.04,9.49,6.11,13.95,9.6Zm18.83-10.98c.02.1.04.14,0,.07-.01,0-.05.01,0-.07Zm-23.85-25.5c6.96,6.17,14.34,12.2,20.36,19.33.95,1.13,1.87,2.31,2.61,3.6.32.58.52.96.65,1.38.02.06.04.13.06.19-.57-.23-1.15-.53-1.91-.9-7.26-3.62-14.23-7.83-21.36-11.7-3.09-1.68-6.2-3.33-9.34-4.91v-14.89c2.95,2.7,5.99,5.29,8.93,7.9Zm54.09-3.85c-4.37-3.3-8.86-6.44-13.26-9.7-6.77-5-13.41-10.17-20.21-15.14-2.93-2.15-5.89-4.27-8.91-6.3-2.01-1.34-4.05-2.71-6.23-3.75-2.02-.95-4.29-1.28-6.43-.44-2.53.99-4.06,3.38-4.4,6.02-.17,1.36-.04,2.69.33,3.96-1.26-.79-2.56-1.51-3.91-2.11v-30.55c.07-3.19,2.48-5.98,5.73-6.22.51-.04,1.03-.02,1.54-.02h34.35c6.04,0,12.08-.03,18.11,0,3.64.02,6.49,2.66,6.54,6.35.01.94,0,1.88,0,2.82v57.57c-1.08-.84-2.16-1.67-3.25-2.49Zm5.75,4.47v-29.41c.12-.54.32-1.15.61-1.51.29-.36.5-.46.95-.41,1.27.13,2.68,1.67,3.52,2.76,3.3,4.25,4.8,9.66,6.24,14.75,2.71,9.55,4.98,19.23,7.21,28.9.2.86.39,1.71.58,2.57-5.87-6.41-12.32-12.21-19.1-17.65Z"/>
            </g>
          </g>
        </g>
      </g>
    </g>
  </g>
</svg>