<svg width="568" height="383" viewBox="0 0 568 383" fill="none" xmlns="http://www.w3.org/2000/svg">
<path d="M121 2.00012H319V75.0001" stroke="black" stroke-width="3" stroke-linecap="round"/>
<path d="M502 380H429V274" stroke="black" stroke-width="3" stroke-linecap="round"/>
<path d="M566 24.0001H455V85.0001" stroke="black" stroke-width="3" stroke-linecap="round"/>
<path d="M2 381H233V320" stroke="black" stroke-width="3" stroke-linecap="round"/>
<path d="M243.536 317.423L125.276 249.143C115.976 243.773 117.146 234.303 127.896 228.103L368.636 89.1026C379.376 82.9026 395.776 82.2226 405.086 87.5926L523.346 155.873C532.646 161.243 531.476 170.713 520.726 176.913L279.976 315.913C269.236 322.113 252.836 322.793 243.526 317.423H243.536Z" fill="#F5F2E8"/>
<path d="M258.556 321.083H273.946V265.903L258.556 321.083Z" fill="#F5F2E8"/>
<path d="M543.446 152.053L535.986 155.233L418.906 87.6327C409.606 82.2627 393.206 82.9427 382.456 89.1427L141.706 228.143C141.236 228.413 140.806 228.703 140.366 228.983L132.816 226.773V240.223H132.826C132.896 243.593 134.946 246.793 139.086 249.183L257.346 317.463C266.646 322.833 283.046 322.153 293.796 315.953L534.546 176.953C540.326 173.613 543.316 169.323 543.406 165.243H543.436V152.053H543.446Z" fill="url(#paint0_linear_147_950)"/>
<path d="M257.356 304.443L139.096 236.173C129.796 230.803 130.966 221.333 141.716 215.133L382.456 76.1327C393.196 69.9327 409.596 69.2527 418.906 74.6227L537.166 142.903C546.466 148.273 545.296 157.743 534.546 163.943L293.796 302.943C283.056 309.143 266.656 309.823 257.346 304.453L257.356 304.443Z" fill="#EFF0F5"/>
<path d="M534.546 162.613L293.796 301.613C283.056 307.813 266.656 308.493 257.346 303.123L139.096 234.843C135.166 232.573 133.126 229.563 132.866 226.393C132.596 230.053 134.616 233.583 139.096 236.163L257.356 304.443C266.656 309.813 283.056 309.133 293.806 302.933L534.556 163.933C540.756 160.353 543.746 155.683 543.396 151.343C543.106 155.293 540.126 159.393 534.556 162.613H534.546Z" fill="#FDFDFE"/>
<path d="M535.846 156.953C534.616 158.853 532.636 160.653 529.926 162.243L471.296 196.083L396.706 239.143L290.836 300.263C281.846 305.463 268.146 306.033 260.356 301.533L152.286 239.143L144.146 234.453C136.366 229.943 137.356 222.043 146.346 216.833L182.276 196.083L250.056 156.953L342.946 103.323L385.416 78.8127C394.406 73.6127 408.126 73.0627 415.916 77.5427L460.566 103.323L532.116 144.623C537.556 147.773 538.716 152.573 535.856 156.953H535.846Z" fill="#3A3F47"/>
<path d="M534.286 155.933C534.066 156.283 533.806 156.593 533.536 156.943C532.476 158.263 530.936 159.493 529.006 160.643L467.626 196.063L392.996 239.143L289.896 298.633C285.456 301.233 279.516 302.723 273.566 302.723C268.766 302.723 264.366 301.713 261.286 299.903L155.986 239.133L145.076 232.843C142.256 231.213 140.766 229.103 140.766 226.813C140.766 223.863 143.146 220.833 147.276 218.413L185.996 196.063L253.766 156.943L346.696 103.303L386.346 80.4227C390.786 77.8227 396.726 76.3727 402.676 76.3727C407.516 76.3727 411.876 77.3427 414.996 79.1427L456.846 103.303L531.166 146.203C533.496 147.563 534.946 149.243 535.346 151.043C535.746 152.623 535.346 154.303 534.286 155.923V155.933Z" fill="#7C78F0"/>
<path d="M534.286 155.933C534.066 156.283 533.806 156.593 533.536 156.943H253.766L346.696 103.303H456.836L531.156 146.203C533.486 147.563 534.936 149.243 535.336 151.043C535.736 152.623 535.336 154.303 534.276 155.923L534.286 155.933Z" fill="#8680FA"/>
<path d="M467.626 196.063L392.996 239.143H155.996L145.086 232.853C142.266 231.223 140.776 229.113 140.776 226.823C140.776 223.873 143.156 220.843 147.286 218.423L186.006 196.073H467.626V196.063Z" fill="#8680FA"/>
<path d="M476.316 126.573L447.186 109.753C446.656 109.443 446.726 108.903 447.336 108.553C447.946 108.203 448.886 108.163 449.416 108.463L478.546 125.283C479.076 125.593 479.006 126.133 478.396 126.483C477.786 126.833 476.846 126.873 476.316 126.573Z" fill="#2A2A2C"/>
<path d="M446.956 109.543C447.036 109.423 447.156 109.313 447.326 109.213C447.936 108.863 448.876 108.823 449.406 109.123L478.536 125.943C478.636 126.003 478.706 126.073 478.756 126.153C478.976 125.843 478.916 125.503 478.536 125.283L449.406 108.463C448.876 108.153 447.936 108.193 447.326 108.553C446.836 108.843 446.716 109.243 446.956 109.543Z" fill="#404992"/>
<path d="M436.296 102.173C434.546 103.183 431.716 103.173 429.956 102.163C428.196 101.153 428.196 99.5126 429.936 98.5026C431.676 97.4926 434.516 97.5026 436.276 98.5126C438.036 99.5226 438.046 101.163 436.296 102.173Z" fill="#3A3F47"/>
<path d="M435.126 101.503C434.026 102.143 432.226 102.133 431.116 101.503C430.006 100.873 429.996 99.8227 431.106 99.1927C432.206 98.5527 434.006 98.5627 435.116 99.1927C436.226 99.8327 436.236 100.873 435.126 101.503Z" fill="#516F83"/>
<path d="M444.056 106.663C442.826 107.373 440.816 107.373 439.576 106.663C438.336 105.953 438.326 104.793 439.566 104.083C440.806 103.373 442.806 103.373 444.046 104.083C445.286 104.803 445.296 105.953 444.056 106.673V106.663Z" fill="#2A2A2C"/>
<path d="M516.136 184.983L498.856 194.963C497.446 195.773 496.296 194.903 496.296 193.023C496.296 191.143 497.446 188.943 498.856 188.123L516.136 178.143C517.546 177.333 518.696 178.203 518.696 180.083C518.696 181.963 517.546 184.163 516.136 184.983Z" fill="#EFF0F5"/>
<path d="M517.446 185.793L500.166 195.773C498.756 196.583 497.606 195.713 497.606 193.833C497.606 191.953 498.756 189.753 500.166 188.933L517.446 178.953C518.856 178.143 520.006 179.013 520.006 180.893C520.006 182.773 518.856 184.973 517.446 185.793Z" fill="#C4C8D8"/>
<path d="M406.166 248.423L388.886 258.403C387.476 259.213 386.326 258.343 386.326 256.463C386.326 254.583 387.476 252.383 388.886 251.563L406.166 241.583C407.576 240.773 408.726 241.643 408.726 243.523C408.726 245.403 407.576 247.603 406.166 248.423Z" fill="#EFF0F5"/>
<path d="M407.466 249.243L390.186 259.223C388.776 260.033 387.626 259.163 387.626 257.283C387.626 255.403 388.776 253.203 390.186 252.383L407.466 242.403C408.876 241.593 410.026 242.463 410.026 244.343C410.026 246.223 408.876 248.423 407.466 249.243Z" fill="#C4C8D8"/>
<path d="M207.006 281.883C207.006 283.493 206.016 284.233 204.806 283.533L189.956 274.993C188.746 274.293 187.756 272.393 187.756 270.783C187.756 269.173 188.746 268.413 189.956 269.113L191.416 269.963L204.806 277.683C205.736 278.213 206.536 279.483 206.856 280.753C206.966 281.133 207.006 281.533 207.006 281.893V281.883Z" fill="#A0A6C0"/>
<path d="M206.856 280.743L193.466 273.003C192.536 272.473 191.736 271.223 191.416 269.953L204.806 277.673C205.736 278.203 206.536 279.473 206.856 280.743Z" fill="#191F28"/>
<path d="M428.756 188.903L338.306 136.683C335.176 134.873 335.566 131.683 339.186 129.593L369.676 111.993C373.296 109.903 378.816 109.673 381.956 111.483L472.406 163.703C475.536 165.513 475.146 168.703 471.526 170.793L441.036 188.393C437.416 190.483 431.896 190.713 428.756 188.903Z" fill="#989AF4"/>
<path d="M230.616 232.793C229.776 233.283 228.406 233.273 227.556 232.793C226.706 232.313 226.706 231.513 227.556 231.023C228.396 230.533 229.766 230.543 230.616 231.023C231.466 231.503 231.466 232.303 230.616 232.793Z" fill="#B9B8F8"/>
<path d="M238.966 237.613C238.126 238.103 236.756 238.093 235.906 237.613C235.056 237.133 235.056 236.333 235.906 235.843C236.746 235.353 238.116 235.363 238.966 235.843C239.816 236.333 239.816 237.123 238.966 237.603V237.613Z" fill="#D2D1FA"/>
<path d="M247.316 242.433C246.476 242.923 245.106 242.913 244.256 242.433C243.406 241.943 243.406 241.153 244.256 240.663C245.096 240.173 246.466 240.183 247.316 240.663C248.166 241.153 248.166 241.943 247.316 242.423V242.433Z" fill="#B9B8F8"/>
<path d="M255.666 247.253C254.826 247.743 253.456 247.733 252.606 247.253C251.756 246.773 251.756 245.973 252.606 245.483C253.446 244.993 254.816 245.003 255.666 245.483C256.516 245.973 256.516 246.763 255.666 247.243V247.253Z" fill="#B9B8F8"/>
<path d="M252.466 190.663L238.426 182.563C235.326 180.773 235.716 177.623 239.296 175.553L251.426 168.543C255.006 166.473 260.466 166.253 263.566 168.043L277.606 176.143C280.706 177.933 280.316 181.083 276.736 183.153L264.606 190.163C261.026 192.233 255.566 192.453 252.466 190.663Z" fill="#5A57BD"/>
<path d="M202.656 257.813L188.616 249.713C185.516 247.923 185.906 244.773 189.486 242.703L201.616 235.693C205.196 233.623 210.656 233.403 213.756 235.193L227.796 243.293C230.896 245.083 230.506 248.233 226.926 250.303L214.796 257.313C211.216 259.383 205.756 259.603 202.656 257.813Z" fill="#5A57BD"/>
<path d="M169.476 238.573L155.436 230.473C152.336 228.683 152.726 225.533 156.306 223.463L168.436 216.453C172.016 214.383 177.476 214.163 180.576 215.953L194.616 224.053C197.716 225.843 197.326 228.993 193.746 231.063L181.616 238.073C178.036 240.143 172.576 240.363 169.476 238.573Z" fill="#5A57BD"/>
<path d="M389.456 227.243L375.416 219.143C372.316 217.353 372.706 214.203 376.286 212.133L388.416 205.123C391.996 203.053 397.456 202.833 400.556 204.623L414.596 212.723C417.696 214.513 417.306 217.663 413.726 219.733L401.596 226.743C398.016 228.813 392.556 229.033 389.456 227.243Z" fill="#5A57BD"/>
<path d="M269.656 296.413L255.616 288.313C252.516 286.523 252.906 283.373 256.486 281.303L268.616 274.293C272.196 272.223 277.656 272.003 280.756 273.793L294.796 281.893C297.896 283.683 297.506 286.833 293.926 288.903L281.796 295.913C278.216 297.983 272.756 298.203 269.656 296.413Z" fill="#5A57BD"/>
<path d="M322.596 188.563L308.556 180.463C305.456 178.673 305.846 175.523 309.426 173.453L321.556 166.443C325.136 164.373 330.596 164.153 333.696 165.943L347.736 174.043C350.836 175.833 350.446 178.983 346.866 181.053L334.736 188.063C331.156 190.133 325.696 190.353 322.596 188.563Z" fill="#5A57BD"/>
<path d="M352.786 248.423L338.746 240.323C335.646 238.533 336.036 235.383 339.616 233.313L351.746 226.303C355.326 224.233 360.786 224.013 363.886 225.803L377.926 233.903C381.026 235.693 380.636 238.843 377.056 240.913L364.926 247.923C361.346 249.993 355.886 250.213 352.786 248.423Z" fill="#5A57BD"/>
<path d="M274.146 223.033L260.206 231.083C257.126 232.863 252.076 232.853 248.976 231.063L234.936 222.963C231.836 221.173 231.826 218.253 234.896 216.483L248.836 208.433C251.916 206.653 256.966 206.663 260.066 208.453L274.106 216.553C276.616 218.003 277.106 220.193 275.556 221.923C275.226 222.293 274.806 222.633 274.296 222.943C274.246 222.973 274.196 223.003 274.146 223.033Z" fill="#5A57BD"/>
<path d="M215.646 211.923L201.606 203.823C198.506 202.033 198.896 198.883 202.476 196.813L214.606 189.803C218.186 187.733 223.646 187.513 226.746 189.303L240.786 197.403C243.886 199.193 243.496 202.343 239.916 204.413L227.786 211.423C224.206 213.493 218.746 213.713 215.646 211.923Z" fill="#5A57BD"/>
<path d="M356.066 207.963L342.026 199.863C338.926 198.073 339.316 194.923 342.896 192.853L355.026 185.843C358.606 183.773 364.066 183.553 367.166 185.343L381.206 193.443C384.306 195.233 383.916 198.383 380.336 200.453L368.206 207.463C364.626 209.533 359.166 209.753 356.066 207.963Z" fill="#5A57BD"/>
<path d="M236.126 277.213L222.086 269.113C218.986 267.323 219.376 264.173 222.956 262.103L235.086 255.093C238.666 253.023 244.126 252.803 247.226 254.593L261.266 262.693C264.366 264.483 263.976 267.633 260.396 269.703L248.266 276.713C244.686 278.783 239.226 279.003 236.126 277.213Z" fill="#5A57BD"/>
<path d="M296.896 187.203L310.936 195.303C314.036 197.093 314.046 200.013 310.976 201.783L297.026 209.833C293.946 211.613 288.896 211.603 285.796 209.813L271.756 201.713C268.656 199.923 268.646 197.003 271.716 195.233L285.666 187.183C288.746 185.403 293.796 185.413 296.896 187.203Z" fill="#5A57BD"/>
<path d="M319.176 229.243L305.136 221.143C302.036 219.353 302.426 216.203 306.006 214.133L318.136 207.123C321.716 205.053 327.176 204.833 330.276 206.623L344.316 214.723C347.416 216.513 347.026 219.663 343.446 221.733L331.316 228.743C327.736 230.813 322.276 231.033 319.176 229.243Z" fill="#5A57BD"/>
<path d="M282.386 250.343L268.346 242.243C265.246 240.453 265.636 237.303 269.216 235.233L281.346 228.223C284.926 226.153 290.386 225.933 293.486 227.723L307.526 235.823C310.626 237.613 310.236 240.763 306.656 242.833L294.526 249.843C290.946 251.913 285.486 252.133 282.386 250.343Z" fill="#5A57BD"/>
<path d="M289.206 169.283L275.166 161.183C272.066 159.393 272.456 156.243 276.036 154.173L288.166 147.163C291.746 145.093 297.206 144.873 300.306 146.663L314.346 154.763C317.446 156.553 317.056 159.703 313.476 161.773L301.346 168.783C297.766 170.853 292.306 171.073 289.206 169.283Z" fill="#5A57BD"/>
<path d="M315.756 269.633L301.716 261.533C298.616 259.743 299.006 256.593 302.586 254.523L314.716 247.513C318.296 245.443 323.756 245.223 326.856 247.013L340.896 255.113C343.996 256.903 343.606 260.053 340.026 262.123L327.896 269.133C324.316 271.203 318.856 271.423 315.756 269.633Z" fill="#5A57BD"/>
<path d="M252.466 188.423L238.426 180.323C235.326 178.533 235.716 175.383 239.296 173.313L251.426 166.303C255.006 164.233 260.466 164.013 263.566 165.803L277.606 173.903C280.706 175.693 280.316 178.843 276.736 180.913L264.606 187.923C261.026 189.993 255.566 190.213 252.466 188.423Z" fill="#00DD90"/>
<path d="M260.236 183.383H256.156L256.226 180.953H260.136L260.236 183.383Z" fill="#C1C5D5"/>
<path d="M260.236 183.383H256.156L255.856 187.003C255.836 187.763 256.896 188.393 258.216 188.393C259.536 188.393 260.586 187.773 260.556 187.013L260.236 183.383Z" fill="#FFB33D"/>
<path d="M269.126 175.013C269.146 178.513 264.246 181.343 258.186 181.333C252.126 181.323 247.196 178.473 247.176 174.973C247.156 171.473 252.056 168.643 258.116 168.653C264.176 168.663 269.106 171.513 269.126 175.013Z" fill="#F1F2F6"/>
<path d="M266.966 175.013C266.986 177.823 263.046 180.093 258.176 180.083C253.306 180.083 249.346 177.793 249.336 174.983C249.316 172.173 253.256 169.903 258.126 169.913C262.996 169.913 266.956 172.203 266.966 175.013Z" fill="#81D1EF"/>
<path d="M262.956 172.803C262.526 173.553 260.616 173.853 258.696 173.473C256.776 173.093 255.566 172.183 256.006 171.433C256.436 170.683 258.346 170.383 260.266 170.763C262.186 171.143 263.396 172.053 262.956 172.803Z" fill="#B8E5F6"/>
<path d="M202.656 255.573L188.616 247.473C185.516 245.683 185.906 242.533 189.486 240.463L201.616 233.453C205.196 231.383 210.656 231.163 213.756 232.953L227.796 241.053C230.896 242.843 230.506 245.993 226.926 248.063L214.796 255.073C211.216 257.143 205.756 257.363 202.656 255.573Z" fill="#81D1EF"/>
<path d="M225.336 242.273L207.396 243.073L208.436 245.793L225.336 242.273Z" fill="#F7393B"/>
<path d="M190.506 246.593L208.436 245.793L207.396 243.073L190.506 246.593Z" fill="#F1F2F6"/>
<path d="M210.946 245.273C209.956 246.163 207.906 246.413 206.366 245.843C204.826 245.273 204.366 244.083 205.356 243.193C206.346 242.303 208.396 242.053 209.936 242.623C211.476 243.193 211.936 244.383 210.946 245.273Z" fill="#F1F2F6"/>
<path d="M209.586 244.763C209.076 245.223 208.026 245.353 207.236 245.053C206.446 244.753 206.206 244.153 206.716 243.693C207.226 243.233 208.276 243.103 209.066 243.403C209.856 243.703 210.096 244.303 209.586 244.763Z" fill="#F7393B"/>
<path d="M169.476 236.333L155.436 228.233C152.336 226.443 152.726 223.293 156.306 221.223L168.436 214.213C172.016 212.143 177.476 211.923 180.576 213.713L194.616 221.813C197.716 223.603 197.326 226.753 193.746 228.823L181.616 235.833C178.036 237.903 172.576 238.123 169.476 236.333Z" fill="#7CD14F"/>
<path d="M187.736 221.043C186.866 219.933 186.806 219.873 186.806 219.873L186.066 220.063L180.006 221.643C180.006 221.643 180.486 222.603 180.906 222.783C182.986 223.683 180.876 224.853 175.366 226.283C169.856 227.713 166.926 227.853 167.126 226.363C167.166 226.063 166.226 225.223 166.226 225.223L160.166 226.803L159.426 226.993C159.426 226.993 159.476 227.063 160.356 228.163C163.136 231.693 171.016 230.433 177.346 228.783C183.676 227.143 190.526 224.573 187.746 221.043H187.736Z" fill="#F1F2F6"/>
<path d="M389.456 225.003L375.416 216.903C372.316 215.113 372.706 211.963 376.286 209.893L388.416 202.883C391.996 200.813 397.456 200.593 400.556 202.383L414.596 210.483C417.696 212.273 417.306 215.423 413.726 217.493L401.596 224.503C398.016 226.573 392.556 226.793 389.456 225.003Z" fill="#F1F2F6"/>
<path d="M405.406 219.693C399.706 222.983 390.426 222.973 384.686 219.653C378.946 216.343 378.916 210.983 384.616 207.693C390.316 204.403 399.596 204.413 405.336 207.733C411.076 211.053 411.106 216.403 405.396 219.693H405.406Z" fill="#F7393B"/>
<path d="M407.556 212.803L385.536 210.093L388.966 214.123L390.496 215.163L390.056 215.363L392.136 220.113L407.556 212.803Z" fill="#F1F2F6"/>
<path d="M400.496 213.623L388.966 214.123L386.126 216.853L390.286 215.893L390.086 215.433L400.496 213.623Z" fill="#C4C8D8"/>
<path d="M269.656 294.173L255.616 286.073C252.516 284.283 252.906 281.133 256.486 279.063L268.616 272.053C272.196 269.983 277.656 269.763 280.756 271.553L294.796 279.653C297.896 281.443 297.506 284.593 293.926 286.663L281.796 293.673C278.216 295.743 272.756 295.963 269.656 294.173Z" fill="#F7393B"/>
<path d="M289.836 281.753L278.266 277.123L266.266 284.053L267.406 284.703L276.266 279.593L285.526 283.123L276.056 288.593L277.026 289.153L289.836 281.753Z" fill="#F1F2F6"/>
<path d="M268.046 284.103C267.516 285.063 265.406 285.513 263.336 285.123C261.266 284.733 260.026 283.643 260.556 282.683C261.086 281.723 263.196 281.273 265.266 281.663C267.336 282.053 268.576 283.143 268.046 284.103Z" fill="#F1F2F6"/>
<path d="M277.696 288.563C277.166 289.523 275.056 289.973 272.986 289.583C270.916 289.193 269.676 288.103 270.206 287.143C270.736 286.183 272.846 285.733 274.916 286.123C276.986 286.513 278.226 287.603 277.696 288.563Z" fill="#F1F2F6"/>
<path d="M322.596 186.323L308.556 178.223C305.456 176.433 305.846 173.283 309.426 171.213L321.556 164.203C325.136 162.133 330.596 161.913 333.696 163.703L347.736 171.803C350.836 173.593 350.446 176.743 346.866 178.813L334.736 185.823C331.156 187.893 325.696 188.113 322.596 186.323Z" fill="#F7393B"/>
<path d="M338.546 181.013C332.846 184.303 323.566 184.293 317.826 180.973C312.086 177.663 312.056 172.303 317.756 169.013C323.456 165.723 332.736 165.733 338.476 169.053C344.216 172.363 344.246 177.723 338.546 181.013Z" fill="#F1F2F6"/>
<path d="M330.886 176.013C329.896 176.903 327.846 177.153 326.306 176.583C324.756 176.013 324.306 174.823 325.296 173.933C326.286 173.043 328.336 172.793 329.876 173.363C331.426 173.933 331.876 175.123 330.886 176.013Z" fill="#D9CCDB"/>
<path d="M328.426 175.033L327.826 174.913L332.376 167.573L332.976 167.703L328.426 175.033Z" fill="#F7393B"/>
<path d="M328.086 174.613L328.096 175.333L314.236 175.313V174.593L328.086 174.613Z" fill="#383838"/>
<path d="M327.926 175.243L328.256 174.713L339.836 177.143L339.496 177.683L327.926 175.243Z" fill="#383838"/>
<path d="M329.526 175.513C329.016 175.973 327.966 176.103 327.176 175.803C326.386 175.513 326.146 174.903 326.656 174.443C327.166 173.983 328.216 173.853 329.006 174.153C329.796 174.443 330.036 175.053 329.526 175.513Z" fill="#666666"/>
<path d="M352.786 246.183L338.746 238.083C335.646 236.293 336.036 233.143 339.616 231.073L351.746 224.063C355.326 221.993 360.786 221.773 363.886 223.563L377.926 231.663C381.026 233.453 380.636 236.603 377.056 238.673L364.926 245.683C361.346 247.753 355.886 247.973 352.786 246.183Z" fill="#F1F2F6"/>
<path d="M356.266 225.123L351.266 228.013C349.526 229.013 350.776 230.733 353.236 230.743L363.276 230.763C365.736 230.763 366.966 229.053 365.216 228.043L360.186 225.133C359.106 224.503 357.356 224.503 356.276 225.133L356.266 225.123Z" fill="#FF8E8C"/>
<path d="M360.276 244.543L365.276 241.653C367.016 240.653 365.766 238.933 363.306 238.923L353.266 238.903C350.806 238.903 349.576 240.613 351.326 241.623L356.356 244.533C357.436 245.163 359.186 245.163 360.266 244.533L360.276 244.543Z" fill="#FF8E8C"/>
<path d="M356.266 225.123L351.266 228.013C349.526 229.013 350.776 230.733 353.236 230.743L363.276 230.763C365.736 230.763 366.966 229.053 365.216 228.043L360.186 225.133C359.106 224.503 357.356 224.503 356.276 225.133L356.266 225.123Z" fill="#FF8E8C"/>
<path d="M360.276 244.543L365.276 241.653C367.016 240.653 365.766 238.933 363.306 238.923L353.266 238.903C350.806 238.903 349.576 240.613 351.326 241.623L356.356 244.533C357.436 245.163 359.186 245.163 360.266 244.533L360.276 244.543Z" fill="#FF8E8C"/>
<path d="M341.466 235.933L346.496 238.843C348.246 239.853 351.216 239.143 351.206 237.723L351.176 231.923C351.176 230.503 348.186 229.783 346.446 230.783L341.446 233.673C340.366 234.293 340.376 235.303 341.456 235.933H341.466Z" fill="#FECB4C"/>
<path d="M375.076 233.733L370.046 230.823C368.296 229.813 365.326 230.523 365.336 231.943L365.366 237.743C365.366 239.163 368.356 239.883 370.096 238.883L375.096 235.993C376.176 235.373 376.166 234.363 375.086 233.733H375.076Z" fill="#FECB4C"/>
<path d="M274.146 220.793L260.206 228.843C257.126 230.623 252.076 230.613 248.976 228.823L234.936 220.723C231.836 218.933 231.826 216.013 234.896 214.243L248.836 206.193C251.916 204.413 256.966 204.423 260.066 206.213L274.106 214.313C276.616 215.763 277.106 217.953 275.556 219.683C275.226 220.053 274.806 220.393 274.296 220.703C274.246 220.733 274.196 220.763 274.146 220.793Z" fill="#81D1EF"/>
<path d="M253.246 223.083L242.336 224.993L234.936 220.723C231.836 218.933 231.826 216.013 234.896 214.243L236.786 213.153L253.236 223.093L253.246 223.083Z" fill="#F1F2F6"/>
<path d="M264.836 215.693L252.656 222.093L236.966 213.033L248.836 206.183C251.916 204.403 256.966 204.413 260.066 206.203L274.106 214.303C276.616 215.753 277.106 217.943 275.556 219.673C275.226 220.043 265.346 215.383 264.836 215.693Z" fill="#7CD14F"/>
<path d="M274.146 220.793L266.726 225.083L257.746 219.903L270.766 212.383L274.106 214.313C276.616 215.763 277.106 217.953 275.556 219.683C275.226 220.053 274.806 220.393 274.296 220.703C274.246 220.733 274.196 220.763 274.146 220.793Z" fill="#7CD14F"/>
<path d="M237.956 212.463L254.196 221.843L251.096 223.633L234.866 214.253L237.956 212.463Z" fill="#FFB33D"/>
<path d="M260.076 207.123C257.276 205.503 252.746 205.493 249.956 207.103C246.166 209.293 244.386 216.173 244.386 216.173C244.386 216.173 256.306 215.153 260.096 212.963C262.886 211.353 262.866 208.743 260.066 207.123H260.076Z" fill="#FF4C4A"/>
<path d="M257.976 211.733C256.366 212.663 253.736 212.663 252.116 211.723C250.496 210.783 250.486 209.273 252.096 208.343C253.706 207.413 256.336 207.413 257.956 208.353C259.576 209.293 259.586 210.803 257.976 211.733Z" fill="white"/>
<path d="M271.276 212.673L267.476 210.473L242.336 224.983L246.136 227.183L271.276 212.673Z" fill="#FFE43D"/>
<path d="M215.646 209.683L201.606 201.583C198.506 199.793 198.896 196.643 202.476 194.573L214.606 187.563C218.186 185.493 223.646 185.273 226.746 187.063L240.786 195.163C243.886 196.953 243.496 200.103 239.916 202.173L227.786 209.183C224.206 211.253 218.746 211.473 215.646 209.683Z" fill="#CE7836"/>
<path d="M222.036 205.273L207.816 197.063C206.926 196.553 207.046 195.653 208.066 195.063L215.336 190.863C216.356 190.273 217.906 190.213 218.796 190.723L233.016 198.933C233.906 199.443 233.786 200.343 232.766 200.933L225.496 205.133C224.476 205.723 222.926 205.783 222.036 205.273Z" fill="#F1F2F6"/>
<path d="M222.746 204.003L210.026 196.653C209.556 196.383 209.616 195.913 210.156 195.603L216.266 192.073C216.806 191.763 217.616 191.733 218.086 191.993L230.806 199.343C231.276 199.613 231.216 200.083 230.676 200.393L224.566 203.923C224.026 204.233 223.216 204.263 222.746 204.003Z" fill="#CE7836"/>
<path d="M228.836 205.443L227.616 204.733C227.476 204.653 227.496 204.513 227.656 204.423L231.406 202.263C231.566 202.173 231.806 202.163 231.936 202.243L233.156 202.953C233.296 203.033 233.276 203.173 233.116 203.263L229.366 205.423C229.206 205.513 228.966 205.523 228.836 205.443Z" fill="#F1F2F6"/>
<path d="M213.126 197.913L210.666 196.493C210.536 196.423 210.556 196.283 210.706 196.203L217.296 192.393C217.446 192.303 217.676 192.293 217.806 192.373L220.276 193.793C220.406 193.863 220.386 194.003 220.236 194.083L213.646 197.893C213.496 197.983 213.266 197.993 213.136 197.913H213.126Z" fill="#F1F2F6"/>
<path d="M216.616 199.923L214.156 198.503C214.026 198.433 214.046 198.293 214.196 198.213L220.786 194.403C220.936 194.313 221.166 194.303 221.296 194.383L223.766 195.803C223.896 195.873 223.876 196.013 223.726 196.093L217.136 199.903C216.986 199.993 216.756 200.003 216.626 199.923H216.616Z" fill="#F1F2F6"/>
<path d="M220.096 201.933L217.636 200.513C217.506 200.443 217.526 200.303 217.676 200.223L224.266 196.413C224.416 196.323 224.646 196.313 224.776 196.393L227.246 197.813C227.376 197.883 227.356 198.023 227.206 198.103L220.616 201.913C220.466 202.003 220.236 202.013 220.106 201.933H220.096Z" fill="#F1F2F6"/>
<path d="M414.076 88.9427L406.626 84.6427C406.166 84.3727 406.216 83.9027 406.756 83.5927L410.566 81.3927C411.106 81.0827 411.916 81.0527 412.376 81.3127L419.826 85.6127C420.286 85.8827 420.236 86.3527 419.696 86.6627L415.886 88.8627C415.346 89.1727 414.536 89.2027 414.076 88.9327V88.9427Z" fill="#F1F2F6"/>
<path d="M417.636 89.0327L416.996 88.6627C416.926 88.6227 416.936 88.5527 417.016 88.5027L418.976 87.3727C419.056 87.3227 419.186 87.3227 419.256 87.3627L419.896 87.7327C419.966 87.7727 419.956 87.8427 419.876 87.8927L417.916 89.0227C417.836 89.0727 417.706 89.0727 417.636 89.0327Z" fill="#F1F2F6"/>
<path d="M356.066 205.723L342.026 197.623C338.926 195.833 339.316 192.683 342.896 190.613L355.026 183.603C358.606 181.533 364.066 181.313 367.166 183.103L381.206 191.203C384.306 192.993 383.916 196.143 380.336 198.213L368.206 205.223C364.626 207.293 359.166 207.513 356.066 205.723Z" fill="#D5D8E7"/>
<path d="M373.466 201.253C366.966 205.003 356.386 204.983 349.846 201.213C343.306 197.433 343.266 191.333 349.776 187.573C356.276 183.823 366.856 183.843 373.396 187.613C379.936 191.393 379.976 197.493 373.466 201.253Z" fill="#6DB6F3"/>
<path d="M372.636 200.783C366.586 204.273 356.756 204.253 350.666 200.743C344.576 197.233 344.546 191.553 350.596 188.063C356.646 184.573 366.476 184.593 372.566 188.103C378.656 191.613 378.686 197.293 372.636 200.783Z" fill="#81D1EF"/>
<path d="M371.676 200.223C366.156 203.413 357.176 203.393 351.626 200.183C346.066 196.973 346.046 191.793 351.566 188.603C357.086 185.413 366.066 185.433 371.616 188.643C377.166 191.853 377.196 197.033 371.676 200.223Z" fill="#B3E7FC"/>
<path d="M369.106 197.013C369.106 197.013 368.536 197.823 367.576 199.123C366.616 200.423 365.686 200.923 367.426 201.103C368.386 201.203 368.686 201.353 369.036 201.423C369.846 201.133 370.616 200.803 371.336 200.413C370.976 200.233 370.606 199.983 370.836 199.743C371.236 199.343 371.826 199.323 372.446 199.613C372.486 199.633 372.546 199.643 372.586 199.653C375.446 197.653 376.386 195.043 375.416 192.633C375.366 192.633 375.326 192.613 375.266 192.613C375.266 192.613 375.006 192.743 374.316 192.443C373.626 192.143 373.536 191.753 373.536 191.753C373.536 191.753 374.896 191.113 374.266 190.963C373.636 190.813 372.766 191.433 372.766 191.433C372.766 191.433 369.946 190.383 369.816 190.813C369.676 191.243 368.906 191.733 368.756 191.593C368.596 191.453 368.676 190.603 367.506 190.963C366.336 191.313 365.736 191.143 365.646 191.693L365.556 192.253C365.556 192.253 364.286 192.803 362.456 192.213C360.626 191.623 358.326 192.873 357.386 193.463C356.446 194.063 356.006 194.983 357.236 195.663C358.466 196.343 359.926 196.643 357.896 197.723C355.876 198.803 356.356 199.433 354.316 199.743C352.546 200.013 352.356 200.283 352.576 200.703C354.456 201.613 356.636 202.203 358.906 202.463C359.016 202.453 359.126 202.433 359.216 202.413C360.906 202.003 361.776 201.893 363.046 202.023C364.316 202.153 367.076 201.843 366.926 201.623C366.776 201.403 365.856 200.983 365.516 200.663C365.176 200.333 365.596 200.593 366.446 199.473C367.306 198.353 367.126 197.013 367.946 196.503C368.766 195.993 369.436 196.433 369.436 196.433C369.436 196.433 369.756 195.473 368.686 195.143C367.616 194.813 367.516 194.943 368.036 193.953C368.556 192.963 370.766 193.753 370.726 194.893C370.696 196.033 371.916 196.513 371.916 196.513C371.916 196.513 371.926 196.903 370.766 196.913C369.606 196.913 369.086 197.043 369.086 197.043L369.106 197.013Z" fill="#7CD14F"/>
<path d="M354.206 187.423C354.096 187.493 354.036 187.553 354.026 187.573C353.986 187.833 354.856 188.053 354.856 188.053C354.856 188.053 352.276 189.253 352.936 189.403C353.596 189.563 354.296 189.343 354.936 188.993C355.586 188.653 354.906 188.083 356.616 188.023C358.336 187.953 359.256 187.983 359.256 187.983L360.806 187.763L361.356 188.383C361.356 188.383 359.676 188.313 359.966 188.573C360.246 188.843 362.386 188.793 362.386 188.793C362.386 188.793 364.036 188.993 363.716 188.493C363.406 187.993 362.756 188.153 361.756 187.643C360.756 187.133 361.976 187.233 361.976 187.233L363.656 188.093C363.656 188.093 364.836 188.453 365.686 188.153C366.536 187.853 365.946 187.093 365.946 187.093L366.886 186.823C362.766 185.853 358.036 186.053 354.196 187.413L354.206 187.423Z" fill="#6EBA46"/>
<path d="M349.096 196.403C349.096 196.403 350.276 196.343 350.766 195.833C351.256 195.323 351.516 194.683 351.726 194.503C351.946 194.323 351.686 193.863 351.686 193.863C351.836 193.633 352.266 193.753 352.616 193.323C352.956 192.903 353.446 192.593 353.446 192.593C353.446 192.593 355.026 192.433 354.926 191.733C354.826 191.033 354.576 190.353 354.576 190.353C354.576 190.353 354.086 189.863 352.886 189.853C351.686 189.853 350.786 190.413 350.576 190.003C350.366 189.593 349.656 190.113 349.656 190.113C349.656 190.113 349.426 190.623 348.906 190.823C348.866 190.833 348.816 190.873 348.756 190.923C347.116 192.963 347.006 195.323 348.456 197.413C349.366 196.953 349.086 196.393 349.086 196.393L349.096 196.403Z" fill="#6EBA46"/>
<path d="M236.126 274.973L222.086 266.873C218.986 265.083 219.376 261.933 222.956 259.863L235.086 252.853C238.666 250.783 244.126 250.563 247.226 252.353L261.266 260.453C264.366 262.243 263.976 265.393 260.396 267.463L248.266 274.473C244.686 276.543 239.226 276.763 236.126 274.973Z" fill="#7CD14F"/>
<path d="M256.716 266.263L247.616 271.513C245.926 272.493 243.166 272.483 241.456 271.503L232.976 266.603L223.956 266.033L228.856 264.903L229.696 264.713L234.346 263.643L228.416 263.973L228.096 263.783C226.396 262.803 226.386 261.203 228.086 260.233L237.186 254.973C238.886 253.993 241.636 253.993 243.336 254.973L256.706 262.693C258.406 263.673 258.426 265.273 256.726 266.253L256.716 266.263Z" fill="#F1F2F6"/>
<path d="M296.896 184.963L310.936 193.063C314.036 194.853 314.046 197.773 310.976 199.543L297.026 207.593C293.946 209.373 288.896 209.363 285.796 207.573L271.756 199.473C268.656 197.683 268.646 194.763 271.716 192.993L285.666 184.943C288.746 183.163 293.796 183.173 296.896 184.963Z" fill="#CE7836"/>
<path d="M297.796 185.483L310.926 193.063C314.026 194.853 314.036 197.773 310.966 199.543L297.016 207.593C293.936 209.373 288.886 209.363 285.786 207.573L272.656 199.993L297.806 185.473L297.796 185.483Z" fill="#FFE56F"/>
<path d="M303.306 188.663L294.766 193.593L299.236 194.193L300.206 196.603L308.636 191.733L303.306 188.663Z" fill="#FF4C4A"/>
<path d="M319.176 227.003L305.136 218.903C302.036 217.113 302.426 213.963 306.006 211.893L318.136 204.883C321.716 202.813 327.176 202.593 330.276 204.383L344.316 212.483C347.416 214.273 347.026 217.423 343.446 219.493L331.316 226.503C327.736 228.573 322.276 228.793 319.176 227.003Z" fill="#D2D6E1"/>
<path d="M335.126 221.693C329.426 224.983 320.146 224.973 314.406 221.653C308.666 218.343 308.636 212.983 314.346 209.693C320.046 206.403 329.326 206.413 335.066 209.733C340.806 213.043 340.836 218.403 335.136 221.693H335.126Z" fill="#586891"/>
<path d="M333.796 220.923C328.826 223.793 320.726 223.783 315.726 220.893C310.716 218.003 310.696 213.333 315.666 210.463C320.636 207.593 328.736 207.603 333.736 210.493C338.746 213.383 338.766 218.053 333.796 220.923Z" fill="#746EEE"/>
<path d="M331.916 219.843C327.976 222.123 321.556 222.113 317.586 219.813C313.616 217.513 313.596 213.823 317.546 211.543C321.486 209.263 327.906 209.273 331.876 211.573C335.846 213.863 335.866 217.563 331.916 219.843Z" fill="#455492"/>
<path d="M329.846 218.643C327.036 220.263 322.476 220.253 319.656 218.623C316.836 216.993 316.816 214.363 319.626 212.743C322.436 211.123 326.996 211.133 329.816 212.763C332.636 214.393 332.656 217.023 329.846 218.643Z" fill="#313C6D"/>
<path d="M329.016 213.983C328.656 214.573 327.026 214.773 325.376 214.433C323.716 214.093 322.666 213.343 323.016 212.753C323.366 212.163 325.006 211.963 326.656 212.303C328.316 212.643 329.366 213.393 329.016 213.983Z" fill="#8B96B3"/>
<path d="M282.386 248.103L268.346 240.003C265.246 238.213 265.636 235.063 269.216 232.993L281.346 225.983C284.926 223.913 290.386 223.693 293.486 225.483L307.526 233.583C310.626 235.373 310.236 238.523 306.656 240.593L294.526 247.603C290.946 249.673 285.486 249.893 282.386 248.103Z" fill="#CE7836"/>
<path d="M301.066 238.573L293.916 234.443C293.406 234.153 293.276 233.703 293.596 233.333L293.826 233.063C294.146 232.693 294.016 232.243 293.506 231.953L287.076 228.243C286.546 227.933 285.726 227.873 285.076 228.083L283.866 228.473C283.736 228.513 283.606 228.573 283.506 228.633L272.566 234.953C272.086 235.233 272.086 235.693 272.566 235.973L289.396 245.693C289.886 245.973 290.676 245.973 291.156 245.693L301.086 239.963C301.736 239.583 301.736 238.973 301.086 238.593L301.066 238.573Z" fill="#FFE568"/>
<path d="M300.326 239.353L283.496 229.633C283.006 229.353 282.216 229.353 281.736 229.633L272.556 234.933C272.076 235.213 272.076 235.673 272.556 235.953L289.386 245.673C289.876 245.953 290.666 245.953 291.146 245.673L300.326 240.373C300.816 240.093 300.806 239.633 300.326 239.353Z" fill="#FFEC8B"/>
<path d="M289.206 167.043L275.166 158.943C272.066 157.153 272.456 154.003 276.036 151.933L288.166 144.923C291.746 142.853 297.206 142.633 300.306 144.423L314.346 152.523C317.446 154.313 317.056 157.463 313.476 159.533L301.346 166.543C297.766 168.613 292.306 168.833 289.206 167.043Z" fill="#F1F2F6"/>
<path d="M312.586 158.173L307.046 161.373C304.496 162.843 300.306 162.843 297.746 161.353L294.916 159.723L295.416 159.433C297.966 157.963 297.946 155.543 295.386 154.063L290.346 151.153L295.396 148.243C297.946 146.773 302.136 146.773 304.696 148.263L312.556 152.803C315.126 154.283 315.136 156.703 312.586 158.173Z" fill="#81D1EF"/>
<path d="M300.636 150.163L302.736 151.373L296.126 155.193L294.656 154.343L293.936 154.753L293.306 154.393L300.646 150.163H300.636ZM299.426 154.473C299.546 154.653 299.676 154.853 299.856 155.053C298.416 155.553 296.906 156.093 295.316 156.673L294.806 156.073C296.396 155.583 297.936 155.053 299.426 154.473ZM301.476 151.383L300.626 150.893L295.296 153.973L296.146 154.463L301.476 151.383ZM300.686 154.453L301.506 154.923L303.956 153.723C303.546 153.763 303.126 153.793 302.706 153.823C302.766 153.603 302.796 153.393 302.796 153.213C304.196 153.183 305.606 152.983 307.016 152.613L307.596 153.093C307.196 153.193 306.786 153.283 306.376 153.363L309.736 155.303L309.126 155.653L305.436 153.523C305.026 153.593 304.596 153.653 304.166 153.703L307.836 155.823C306.916 156.323 306.096 156.763 305.356 157.153L306.136 157.603L305.526 157.953L304.726 157.493C303.986 157.883 303.356 158.213 302.826 158.503L303.566 158.933L302.956 159.283L302.186 158.843C301.196 159.383 300.296 159.413 299.486 158.943C298.856 158.583 298.406 158.313 298.146 158.153C298.386 157.983 298.596 157.813 298.766 157.643C299.126 157.903 299.546 158.173 300.036 158.453C300.466 158.703 300.946 158.693 301.466 158.423L298.236 156.563L298.786 156.243L300.816 155.243L300.056 154.803L300.666 154.453H300.686ZM304.006 157.073L301.556 155.663L299.566 156.623L302.106 158.093C302.706 157.783 303.336 157.443 303.996 157.083L304.006 157.073ZM301.566 152.573C301.686 153.043 301.786 153.523 301.856 154.023C301.406 154.043 301.026 154.053 300.746 154.063C300.736 153.573 300.696 153.093 300.606 152.613L301.566 152.573ZM301.596 156.213L302.456 156.353C302.326 156.753 302.176 157.133 301.996 157.483L301.086 157.323C301.296 156.963 301.456 156.593 301.586 156.213H301.596ZM304.166 154.393L302.216 155.323L304.636 156.723C305.226 156.403 305.846 156.073 306.476 155.733L304.166 154.393ZM304.346 151.383C304.476 151.853 304.556 152.303 304.586 152.733C304.206 152.733 303.856 152.733 303.536 152.743C303.536 152.303 303.486 151.863 303.416 151.413L304.336 151.383H304.346ZM304.186 154.933L305.056 155.073C304.926 155.453 304.776 155.813 304.616 156.143L303.696 155.993C303.916 155.603 304.076 155.253 304.186 154.933Z" fill="white"/>
<path d="M295.416 159.433L294.916 159.723L289.876 156.813C287.306 155.333 287.296 152.913 289.846 151.443L290.336 151.153L295.376 154.063C297.936 155.543 297.956 157.963 295.406 159.433H295.416Z" fill="#A184C2"/>
<path d="M294.916 159.723L292.146 161.323C289.596 162.793 285.416 162.783 282.856 161.303L277.636 158.283C275.066 156.803 275.056 154.383 277.606 152.913L280.876 151.023C283.426 149.553 287.606 149.563 290.176 151.043L290.356 151.153L289.866 151.443C287.316 152.913 287.326 155.333 289.896 156.813L294.936 159.723H294.916Z" fill="#FF4C4A"/>
<path d="M279.006 154.323L283.996 153.273L284.396 153.503L282.596 156.393L281.706 155.873L281.946 155.493L280.556 154.693L279.906 154.833L279.016 154.313L279.006 154.323ZM281.646 154.463L282.346 154.863L282.746 154.233L281.646 154.463Z" fill="white"/>
<path d="M283.046 156.663L286.446 154.703L287.946 155.573C288.496 155.883 288.486 156.423 287.946 156.743C287.716 156.873 287.406 156.953 287.116 156.973C287.156 157.213 287.026 157.463 286.726 157.643C286.186 157.953 285.266 157.953 284.726 157.643L283.046 156.673V156.663ZM285.276 157.103C285.436 157.193 285.706 157.193 285.866 157.103C286.026 157.013 286.016 156.853 285.866 156.763L285.266 156.413L284.676 156.753L285.276 157.103ZM286.446 156.233C286.616 156.323 286.876 156.333 287.036 156.233C287.196 156.143 287.196 155.983 287.036 155.893L286.606 155.643L286.016 155.983L286.446 156.233Z" fill="white"/>
<path d="M290.656 158.423C290.656 158.263 290.536 158.103 290.316 157.963C289.846 157.693 289.186 157.693 288.716 157.963C288.256 158.233 288.256 158.623 288.716 158.883C288.946 159.013 289.236 159.083 289.516 159.083V159.813C288.906 159.813 288.286 159.673 287.816 159.403C286.876 158.863 286.876 157.983 287.816 157.443C288.756 156.903 290.276 156.903 291.216 157.443C291.676 157.713 291.916 158.063 291.916 158.423H290.656Z" fill="white"/>
<path d="M315.756 267.393L301.716 259.293C298.616 257.503 299.006 254.353 302.586 252.283L314.716 245.273C318.296 243.203 323.756 242.983 326.856 244.773L340.896 252.873C343.996 254.663 343.606 257.813 340.026 259.883L327.896 266.893C324.316 268.963 318.856 269.183 315.756 267.393Z" fill="#D2D6E1"/>
<path d="M320.066 259.443C319.976 259.173 320.256 258.913 320.716 258.843L323.366 258.433L323.656 256.883L321.226 256.133C320.806 256.003 320.636 255.713 320.816 255.463L321.896 254.013L319.976 252.903L317.466 253.533C317.036 253.643 316.536 253.533 316.316 253.303L315.026 251.903L312.336 252.073L311.626 253.603C311.506 253.863 311.056 254.023 310.596 253.973L307.896 253.673L306.466 254.993L308.096 256.273C308.376 256.493 308.316 256.793 307.966 256.973L305.896 258.003L306.796 259.483L309.536 259.553C310.006 259.563 310.386 259.783 310.406 260.053L310.526 261.633L313.086 262.153L314.876 260.953C315.186 260.753 315.706 260.713 316.086 260.873L318.306 261.813L320.596 260.983L320.086 259.423L320.066 259.443Z" fill="#6D7A9D"/>
<path d="M335.406 256.373L337.116 255.903L337.026 254.333L335.266 253.913C334.566 253.753 334.136 253.343 334.196 252.913L334.336 251.823L331.946 251.073L330.446 251.743C329.856 252.013 329.036 252.023 328.416 251.773L326.846 251.143L324.546 251.963L324.816 253.053C324.926 253.483 324.536 253.903 323.856 254.083L322.146 254.553L322.236 256.123L323.996 256.543C324.696 256.703 325.126 257.113 325.066 257.543L324.926 258.633L327.316 259.383L328.816 258.713C329.406 258.443 330.226 258.433 330.846 258.683L332.416 259.303L334.716 258.483L334.446 257.393C334.336 256.963 334.726 256.543 335.406 256.363V256.373Z" fill="#6D7A9D"/>
<path d="M317.256 258.423C315.916 259.203 313.726 259.193 312.376 258.423C311.026 257.643 311.016 256.383 312.356 255.603C313.696 254.823 315.886 254.833 317.236 255.603C318.586 256.383 318.596 257.643 317.256 258.423Z" fill="#D2D6E1"/>
<path d="M331.656 256.413C330.536 257.053 328.726 257.053 327.596 256.413C326.466 255.773 326.466 254.713 327.586 254.073C328.706 253.433 330.516 253.433 331.646 254.073C332.766 254.723 332.776 255.773 331.656 256.413Z" fill="#D2D6E1"/>
<path d="M383.906 129.023C386.506 127.523 390.726 127.523 393.356 129.043C395.986 130.563 395.996 132.993 393.396 134.503C392.386 135.083 391.066 135.453 389.606 135.573L372.636 137.253L380.646 141.883L380.186 142.143L371.286 137.003L389.426 135.193C390.696 135.103 391.916 134.783 392.896 134.213C395.236 132.863 395.226 130.673 392.866 129.313C390.506 127.953 386.716 127.943 384.376 129.303L383.886 129.023H383.906Z" fill="white"/>
<path d="M405.916 136.293L406.406 136.573L388.486 146.923L387.996 146.643L405.916 136.293Z" fill="white"/>
<path d="M396.276 150.313C396.536 150.463 396.546 150.743 396.276 150.893C396.016 151.043 395.556 151.033 395.296 150.883C395.026 150.733 395.026 150.483 395.296 150.333C395.556 150.183 396.016 150.163 396.276 150.323V150.313ZM404.756 145.413C405.016 145.563 405.026 145.843 404.756 145.993C404.496 146.143 404.036 146.133 403.776 145.983C403.506 145.833 403.506 145.583 403.776 145.433C404.046 145.283 404.496 145.273 404.756 145.423V145.413Z" fill="white"/>
<path d="M420.626 144.783L427.996 149.033L427.176 149.113L412.626 150.563C413.556 150.743 414.426 151.053 415.196 151.493C417.826 153.003 417.836 155.443 415.226 156.953C412.626 158.453 408.426 158.433 405.806 156.923C404.526 156.183 403.876 155.253 403.816 154.313H404.516C404.576 155.163 405.156 155.993 406.286 156.643C408.646 158.003 412.406 158.023 414.756 156.673C417.096 155.323 417.086 153.133 414.726 151.773C413.596 151.123 412.156 150.783 410.706 150.753V150.363L426.626 148.793L420.146 145.053L420.626 144.773V144.783Z" fill="white"/>
<path d="M427.856 165.293L417.766 159.473L441.906 157.073L442.486 157.403L428.846 165.283L432.176 167.203L431.676 167.493L428.346 165.573L424.566 167.753L424.086 167.473L427.866 165.293H427.856ZM428.356 165.003L441.306 157.523L419.186 159.703L428.356 165.003Z" fill="white"/>
<path d="M363.826 140.423L366.346 141.873L365.486 142.373L364.016 141.533L363.366 141.913L364.656 142.663L363.766 143.183L362.476 142.433L360.876 143.353L359.826 142.743L363.836 140.423H363.826Z" fill="white"/>
<path d="M365.426 145.983L365.866 145.013L365.206 144.633L364.146 145.243L363.096 144.633L367.106 142.313L368.796 143.293C369.606 143.763 369.606 144.523 368.796 144.993C368.366 145.243 367.796 145.353 367.236 145.343L366.636 146.673L365.416 145.973L365.426 145.983ZM366.126 144.103L366.786 144.483C367.106 144.663 367.616 144.673 367.936 144.483C368.256 144.303 368.256 144.003 367.936 143.813L367.276 143.433L366.126 144.093V144.103Z" fill="white"/>
<path d="M371.186 144.673L372.236 145.283L368.226 147.603L367.176 146.993L371.186 144.673Z" fill="white"/>
<path d="M373.056 145.753L374.546 146.613C375.656 147.253 375.656 148.293 374.546 148.933C373.446 149.573 371.646 149.573 370.536 148.933L369.046 148.073L373.056 145.753ZM371.146 148.073L371.586 148.333C372.106 148.633 372.966 148.633 373.486 148.333C374.006 148.033 374.006 147.543 373.486 147.233L373.046 146.973L371.146 148.073Z" fill="white"/>
<path d="M372.856 150.273L378.736 149.033L379.216 149.313L377.096 152.723L376.046 152.113L376.326 151.673L374.676 150.723L373.916 150.893L372.856 150.283V150.273ZM375.976 150.443L376.796 150.913L377.276 150.173L375.976 150.443Z" fill="white"/>
<path d="M381.006 153.273L379.536 154.123L378.496 153.523L379.966 152.673L381.036 150.363L382.256 151.063L381.686 152.283L383.796 151.963L385.016 152.663L381.016 153.283L381.006 153.273Z" fill="white"/>
<path d="M387.756 156.223C387.976 156.213 388.186 156.173 388.346 156.083C388.546 155.963 388.616 155.703 388.326 155.543C388.066 155.393 387.656 155.393 387.386 155.543L386.526 155.043C387.206 154.643 388.376 154.583 389.206 155.063C389.986 155.513 389.816 156.213 389.166 156.583C388.746 156.823 388.186 156.873 388.186 156.873L386.336 157.063L387.466 157.713L386.616 158.203L383.836 156.603L387.746 156.213L387.756 156.223Z" fill="white"/>
<path d="M394.276 158.013L393.416 158.513L388.446 159.283L387.466 158.723L392.446 157.953L390.316 156.723L391.166 156.233L394.266 158.023L394.276 158.013Z" fill="white"/>
<path d="M397.936 161.833L401.056 161.923L401.526 162.193L397.516 164.513L396.456 163.903L398.516 162.713L396.506 162.663L396.406 161.503L394.356 162.693L393.296 162.083L397.306 159.763L397.786 160.043L397.936 161.843V161.833Z" fill="white"/>
<path d="M398.086 164.833L403.966 163.603L404.436 163.873L402.316 167.283L401.266 166.673L401.546 166.233L399.896 165.283L399.136 165.453L398.076 164.843L398.086 164.833ZM401.206 165.003L402.026 165.473L402.506 164.733L401.206 165.003Z" fill="white"/>
<path d="M405.206 168.953L405.646 167.983L404.986 167.603L403.926 168.213L402.876 167.603L406.886 165.283L408.576 166.263C409.396 166.733 409.396 167.503 408.576 167.963C408.146 168.213 407.576 168.323 407.016 168.313L406.416 169.643L405.196 168.943L405.206 168.953ZM405.906 167.073L406.566 167.453C406.886 167.633 407.396 167.643 407.716 167.453C408.036 167.273 408.036 166.973 407.716 166.783L407.056 166.403L405.906 167.063V167.073Z" fill="white"/>
<path d="M412.116 169.843C412.116 169.653 411.976 169.463 411.696 169.303C411.156 168.993 410.356 168.983 409.816 169.303C409.266 169.613 409.266 170.073 409.816 170.393C410.096 170.553 410.426 170.633 410.766 170.633V171.493C410.046 171.493 409.316 171.333 408.756 171.013C407.656 170.373 407.656 169.333 408.756 168.693C409.866 168.053 411.666 168.053 412.766 168.693C413.316 169.013 413.596 169.423 413.606 169.843H412.126H412.116Z" fill="white"/>
<path d="M416.066 170.583L414.636 171.413L415.916 172.153L417.346 171.333L418.396 171.943L414.386 174.263L413.336 173.653L414.866 172.763L413.586 172.023L412.056 172.913L411.006 172.303L415.016 169.983L416.066 170.593V170.583Z" fill="white"/>
<defs>
<linearGradient id="paint0_linear_147_950" x1="132.816" y1="202.543" x2="543.446" y2="202.543" gradientUnits="userSpaceOnUse">
<stop stop-color="#B4B9CD"/>
<stop offset="0.01" stop-color="#A0A6C0"/>
<stop offset="0.3" stop-color="#A0A6C0"/>
<stop offset="0.31" stop-color="#A3A9C2"/>
<stop offset="0.33" stop-color="#B5BACE"/>
<stop offset="0.35" stop-color="#C0C4D5"/>
<stop offset="0.37" stop-color="#C4C8D8"/>
<stop offset="0.95" stop-color="#C4C8D8"/>
<stop offset="1" stop-color="#C4C8D8"/>
</linearGradient>
</defs>
</svg>
