<svg width="425" height="251" viewBox="0 0 425 251" fill="none" xmlns="http://www.w3.org/2000/svg">
<path d="M124.536 246.423L6.27582 178.143C-3.02418 172.773 -1.85418 163.303 8.89582 157.103L249.636 18.1026C260.376 11.9026 276.776 11.2226 286.086 16.5926L404.346 84.8727C413.646 90.2427 412.476 99.7126 401.726 105.913L160.976 244.913C150.236 251.113 133.836 251.793 124.526 246.423H124.536Z" fill="#F5F2E8"/>
<path d="M139.556 250.083H154.946V194.903L139.556 250.083Z" fill="#F5F2E8"/>
<path d="M424.446 81.0527L416.986 84.2327L299.906 16.6327C290.606 11.2627 274.206 11.9427 263.456 18.1427L22.7059 157.143C22.2359 157.413 21.8059 157.703 21.3659 157.983L13.8159 155.773V169.223H13.8259C13.8959 172.593 15.9459 175.793 20.0859 178.183L138.346 246.463C147.646 251.833 164.046 251.153 174.796 244.953L415.546 105.953C421.326 102.613 424.316 98.3227 424.406 94.2427H424.436V81.0527H424.446Z" fill="url(#paint0_linear_72_3674)"/>
<path d="M138.356 233.443L20.0959 165.173C10.7959 159.803 11.9659 150.333 22.7159 144.133L263.456 5.13268C274.196 -1.06732 290.596 -1.74732 299.906 3.62268L418.166 71.9027C427.466 77.2727 426.296 86.7427 415.546 92.9427L174.796 231.943C164.056 238.143 147.656 238.823 138.346 233.453L138.356 233.443Z" fill="#EFF0F5"/>
<path d="M415.546 91.6127L174.796 230.613C164.056 236.813 147.656 237.493 138.346 232.123L20.0959 163.843C16.1659 161.573 14.1259 158.563 13.8659 155.393C13.5959 159.053 15.6159 162.583 20.0959 165.163L138.356 233.443C147.656 238.813 164.056 238.133 174.806 231.933L415.556 92.9326C421.756 89.3526 424.746 84.6827 424.396 80.3427C424.106 84.2927 421.126 88.3927 415.556 91.6127H415.546Z" fill="#FDFDFE"/>
<path d="M416.846 85.9527C415.616 87.8527 413.636 89.6527 410.926 91.2427L352.296 125.083L277.706 168.143L171.836 229.263C162.846 234.463 149.146 235.033 141.356 230.533L33.2859 168.143L25.1459 163.453C17.3659 158.943 18.3559 151.043 27.3459 145.833L63.2759 125.083L131.056 85.9527L223.946 32.3227L266.416 7.81267C275.406 2.61267 289.126 2.06267 296.916 6.54267L341.566 32.3227L413.116 73.6227C418.556 76.7727 419.716 81.5727 416.856 85.9527H416.846Z" fill="#3A3F47"/>
<path d="M415.286 84.9327C415.066 85.2827 414.806 85.5927 414.536 85.9427C413.476 87.2627 411.936 88.4927 410.006 89.6427L348.626 125.063L273.996 168.143L170.896 227.633C166.456 230.233 160.516 231.723 154.566 231.723C149.766 231.723 145.366 230.713 142.286 228.903L36.9859 168.133L26.0759 161.843C23.2559 160.213 21.7659 158.103 21.7659 155.813C21.7659 152.863 24.1459 149.833 28.2759 147.413L66.9959 125.063L134.766 85.9427L227.696 32.3027L267.346 9.42268C271.786 6.82268 277.726 5.37268 283.676 5.37268C288.516 5.37268 292.876 6.34268 295.996 8.14268L337.846 32.3027L412.166 75.2027C414.496 76.5627 415.946 78.2427 416.346 80.0427C416.746 81.6227 416.346 83.3027 415.286 84.9227V84.9327Z" fill="#7C78F0"/>
<path d="M415.286 84.9327C415.066 85.2827 414.806 85.5927 414.536 85.9427H134.766L227.696 32.3027H337.836L412.156 75.2027C414.486 76.5627 415.936 78.2427 416.336 80.0427C416.736 81.6227 416.336 83.3027 415.276 84.9227L415.286 84.9327Z" fill="#8680FA"/>
<path d="M348.626 125.063L273.996 168.143H36.9959L26.0859 161.853C23.2659 160.223 21.7759 158.113 21.7759 155.823C21.7759 152.873 24.1559 149.843 28.2859 147.423L67.0059 125.073H348.626V125.063Z" fill="#8680FA"/>
<path d="M357.316 55.5727L328.186 38.7527C327.656 38.4427 327.726 37.9027 328.336 37.5527C328.946 37.2027 329.886 37.1627 330.416 37.4627L359.546 54.2827C360.076 54.5927 360.006 55.1327 359.396 55.4827C358.786 55.8327 357.846 55.8727 357.316 55.5727Z" fill="#2A2A2C"/>
<path d="M327.956 38.5426C328.036 38.4226 328.156 38.3126 328.326 38.2126C328.936 37.8626 329.876 37.8226 330.406 38.1226L359.536 54.9426C359.636 55.0026 359.706 55.0726 359.756 55.1526C359.976 54.8426 359.916 54.5026 359.536 54.2826L330.406 37.4626C329.876 37.1526 328.936 37.1926 328.326 37.5526C327.836 37.8426 327.716 38.2426 327.956 38.5426Z" fill="#404992"/>
<path d="M317.296 31.1726C315.546 32.1826 312.716 32.1726 310.956 31.1626C309.196 30.1526 309.196 28.5126 310.936 27.5026C312.676 26.4926 315.516 26.5026 317.276 27.5126C319.036 28.5226 319.046 30.1626 317.296 31.1726Z" fill="#3A3F47"/>
<path d="M316.126 30.5027C315.026 31.1427 313.226 31.1327 312.116 30.5027C311.006 29.8727 310.996 28.8227 312.106 28.1927C313.206 27.5527 315.006 27.5627 316.116 28.1927C317.226 28.8327 317.236 29.8727 316.126 30.5027Z" fill="#516F83"/>
<path d="M325.056 35.6627C323.826 36.3727 321.816 36.3727 320.576 35.6627C319.336 34.9527 319.326 33.7927 320.566 33.0827C321.806 32.3727 323.806 32.3727 325.046 33.0827C326.286 33.8027 326.296 34.9527 325.056 35.6727V35.6627Z" fill="#2A2A2C"/>
<path d="M397.136 113.983L379.856 123.963C378.446 124.773 377.296 123.903 377.296 122.023C377.296 120.143 378.446 117.943 379.856 117.123L397.136 107.143C398.546 106.333 399.696 107.203 399.696 109.083C399.696 110.963 398.546 113.163 397.136 113.983Z" fill="#EFF0F5"/>
<path d="M398.446 114.793L381.166 124.773C379.756 125.583 378.606 124.713 378.606 122.833C378.606 120.953 379.756 118.753 381.166 117.933L398.446 107.953C399.856 107.143 401.006 108.013 401.006 109.893C401.006 111.773 399.856 113.973 398.446 114.793Z" fill="#C4C8D8"/>
<path d="M287.166 177.423L269.886 187.403C268.476 188.213 267.326 187.343 267.326 185.463C267.326 183.583 268.476 181.383 269.886 180.563L287.166 170.583C288.576 169.773 289.726 170.643 289.726 172.523C289.726 174.403 288.576 176.603 287.166 177.423Z" fill="#EFF0F5"/>
<path d="M288.466 178.243L271.186 188.223C269.776 189.033 268.626 188.163 268.626 186.283C268.626 184.403 269.776 182.203 271.186 181.383L288.466 171.403C289.876 170.593 291.026 171.463 291.026 173.343C291.026 175.223 289.876 177.423 288.466 178.243Z" fill="#C4C8D8"/>
<path d="M88.0059 210.883C88.0059 212.493 87.0159 213.233 85.8059 212.533L70.9559 203.993C69.7459 203.293 68.7559 201.393 68.7559 199.783C68.7559 198.173 69.7459 197.413 70.9559 198.113L72.4159 198.963L85.8059 206.683C86.7359 207.213 87.5359 208.483 87.8559 209.753C87.9659 210.133 88.0059 210.533 88.0059 210.893V210.883Z" fill="#A0A6C0"/>
<path d="M87.856 209.743L74.466 202.003C73.536 201.473 72.736 200.223 72.416 198.953L85.806 206.673C86.736 207.203 87.536 208.473 87.856 209.743Z" fill="#191F28"/>
<path d="M309.756 117.903L219.306 65.6827C216.176 63.8727 216.566 60.6827 220.186 58.5927L250.676 40.9927C254.296 38.9027 259.816 38.6727 262.956 40.4827L353.406 92.7027C356.536 94.5127 356.146 97.7027 352.526 99.7927L322.036 117.393C318.416 119.483 312.896 119.713 309.756 117.903Z" fill="#989AF4"/>
<path d="M111.616 161.793C110.776 162.283 109.406 162.273 108.556 161.793C107.706 161.313 107.706 160.513 108.556 160.023C109.396 159.533 110.766 159.543 111.616 160.023C112.466 160.503 112.466 161.303 111.616 161.793Z" fill="#B9B8F8"/>
<path d="M119.966 166.613C119.126 167.103 117.756 167.093 116.906 166.613C116.056 166.133 116.056 165.333 116.906 164.843C117.746 164.353 119.116 164.363 119.966 164.843C120.816 165.333 120.816 166.123 119.966 166.603V166.613Z" fill="#D2D1FA"/>
<path d="M128.316 171.433C127.476 171.923 126.106 171.913 125.256 171.433C124.406 170.943 124.406 170.153 125.256 169.663C126.096 169.173 127.466 169.183 128.316 169.663C129.166 170.153 129.166 170.943 128.316 171.423V171.433Z" fill="#B9B8F8"/>
<path d="M136.666 176.253C135.826 176.743 134.456 176.733 133.606 176.253C132.756 175.773 132.756 174.973 133.606 174.483C134.446 173.993 135.816 174.003 136.666 174.483C137.516 174.973 137.516 175.763 136.666 176.243V176.253Z" fill="#B9B8F8"/>
<path d="M133.466 119.663L119.426 111.563C116.326 109.773 116.716 106.623 120.296 104.553L132.426 97.5427C136.006 95.4727 141.466 95.2527 144.566 97.0427L158.606 105.143C161.706 106.933 161.316 110.083 157.736 112.153L145.606 119.163C142.026 121.233 136.566 121.453 133.466 119.663Z" fill="#5A57BD"/>
<path d="M83.6559 186.813L69.6159 178.713C66.5159 176.923 66.9059 173.773 70.4859 171.703L82.6159 164.693C86.1959 162.623 91.6559 162.403 94.7559 164.193L108.796 172.293C111.896 174.083 111.506 177.233 107.926 179.303L95.7959 186.313C92.2159 188.383 86.7559 188.603 83.6559 186.813Z" fill="#5A57BD"/>
<path d="M50.476 167.573L36.436 159.473C33.336 157.683 33.726 154.533 37.306 152.463L49.436 145.453C53.016 143.383 58.476 143.163 61.576 144.953L75.616 153.053C78.716 154.843 78.326 157.993 74.746 160.063L62.616 167.073C59.036 169.143 53.576 169.363 50.476 167.573Z" fill="#5A57BD"/>
<path d="M270.456 156.243L256.416 148.143C253.316 146.353 253.706 143.203 257.286 141.133L269.416 134.123C272.996 132.053 278.456 131.833 281.556 133.623L295.596 141.723C298.696 143.513 298.306 146.663 294.726 148.733L282.596 155.743C279.016 157.813 273.556 158.033 270.456 156.243Z" fill="#5A57BD"/>
<path d="M150.656 225.413L136.616 217.313C133.516 215.523 133.906 212.373 137.486 210.303L149.616 203.293C153.196 201.223 158.656 201.003 161.756 202.793L175.796 210.893C178.896 212.683 178.506 215.833 174.926 217.903L162.796 224.913C159.216 226.983 153.756 227.203 150.656 225.413Z" fill="#5A57BD"/>
<path d="M203.596 117.563L189.556 109.463C186.456 107.673 186.846 104.523 190.426 102.453L202.556 95.4427C206.136 93.3727 211.596 93.1527 214.696 94.9427L228.736 103.043C231.836 104.833 231.446 107.983 227.866 110.053L215.736 117.063C212.156 119.133 206.696 119.353 203.596 117.563Z" fill="#5A57BD"/>
<path d="M233.786 177.423L219.746 169.323C216.646 167.533 217.036 164.383 220.616 162.313L232.746 155.303C236.326 153.233 241.786 153.013 244.886 154.803L258.926 162.903C262.026 164.693 261.636 167.843 258.056 169.913L245.926 176.923C242.346 178.993 236.886 179.213 233.786 177.423Z" fill="#5A57BD"/>
<path d="M155.146 152.033L141.206 160.083C138.126 161.863 133.076 161.853 129.976 160.063L115.936 151.963C112.836 150.173 112.826 147.253 115.896 145.483L129.836 137.433C132.916 135.653 137.966 135.663 141.066 137.453L155.106 145.553C157.616 147.003 158.106 149.193 156.556 150.923C156.226 151.293 155.806 151.633 155.296 151.943C155.246 151.973 155.196 152.003 155.146 152.033Z" fill="#5A57BD"/>
<path d="M96.6459 140.923L82.6059 132.823C79.5059 131.033 79.8959 127.883 83.4759 125.813L95.6059 118.803C99.1859 116.733 104.646 116.513 107.746 118.303L121.786 126.403C124.886 128.193 124.496 131.343 120.916 133.413L108.786 140.423C105.206 142.493 99.7459 142.713 96.6459 140.923Z" fill="#5A57BD"/>
<path d="M237.066 136.963L223.026 128.863C219.926 127.073 220.316 123.923 223.896 121.853L236.026 114.843C239.606 112.773 245.066 112.553 248.166 114.343L262.206 122.443C265.306 124.233 264.916 127.383 261.336 129.453L249.206 136.463C245.626 138.533 240.166 138.753 237.066 136.963Z" fill="#5A57BD"/>
<path d="M117.126 206.213L103.086 198.113C99.9859 196.323 100.376 193.173 103.956 191.103L116.086 184.093C119.666 182.023 125.126 181.803 128.226 183.593L142.266 191.693C145.366 193.483 144.976 196.633 141.396 198.703L129.266 205.713C125.686 207.783 120.226 208.003 117.126 206.213Z" fill="#5A57BD"/>
<path d="M177.896 116.203L191.936 124.303C195.036 126.093 195.046 129.013 191.976 130.783L178.026 138.833C174.946 140.613 169.896 140.603 166.796 138.813L152.756 130.713C149.656 128.923 149.646 126.003 152.716 124.233L166.666 116.183C169.746 114.403 174.796 114.413 177.896 116.203Z" fill="#5A57BD"/>
<path d="M200.176 158.243L186.136 150.143C183.036 148.353 183.426 145.203 187.006 143.133L199.136 136.123C202.716 134.053 208.176 133.833 211.276 135.623L225.316 143.723C228.416 145.513 228.026 148.663 224.446 150.733L212.316 157.743C208.736 159.813 203.276 160.033 200.176 158.243Z" fill="#5A57BD"/>
<path d="M163.386 179.343L149.346 171.243C146.246 169.453 146.636 166.303 150.216 164.233L162.346 157.223C165.926 155.153 171.386 154.933 174.486 156.723L188.526 164.823C191.626 166.613 191.236 169.763 187.656 171.833L175.526 178.843C171.946 180.913 166.486 181.133 163.386 179.343Z" fill="#5A57BD"/>
<path d="M170.206 98.2827L156.166 90.1827C153.066 88.3927 153.456 85.2427 157.036 83.1727L169.166 76.1627C172.746 74.0927 178.206 73.8727 181.306 75.6627L195.346 83.7627C198.446 85.5527 198.056 88.7027 194.476 90.7727L182.346 97.7827C178.766 99.8527 173.306 100.073 170.206 98.2827Z" fill="#5A57BD"/>
<path d="M196.756 198.633L182.716 190.533C179.616 188.743 180.006 185.593 183.586 183.523L195.716 176.513C199.296 174.443 204.756 174.223 207.856 176.013L221.896 184.113C224.996 185.903 224.606 189.053 221.026 191.123L208.896 198.133C205.316 200.203 199.856 200.423 196.756 198.633Z" fill="#5A57BD"/>
<path d="M133.466 117.423L119.426 109.323C116.326 107.533 116.716 104.383 120.296 102.313L132.426 95.3027C136.006 93.2327 141.466 93.0127 144.566 94.8027L158.606 102.903C161.706 104.693 161.316 107.843 157.736 109.913L145.606 116.923C142.026 118.993 136.566 119.213 133.466 117.423Z" fill="#00DD90"/>
<path d="M141.236 112.383H137.156L137.226 109.953H141.136L141.236 112.383Z" fill="#C1C5D5"/>
<path d="M141.236 112.383H137.156L136.856 116.003C136.836 116.763 137.896 117.393 139.216 117.393C140.536 117.393 141.586 116.773 141.556 116.013L141.236 112.383Z" fill="#FFB33D"/>
<path d="M150.126 104.013C150.146 107.513 145.246 110.343 139.186 110.333C133.126 110.323 128.196 107.473 128.176 103.973C128.156 100.473 133.056 97.6427 139.116 97.6527C145.176 97.6627 150.106 100.513 150.126 104.013Z" fill="#F1F2F6"/>
<path d="M147.966 104.013C147.986 106.823 144.046 109.093 139.176 109.083C134.306 109.083 130.346 106.793 130.336 103.983C130.316 101.173 134.256 98.9028 139.126 98.9128C143.996 98.9128 147.956 101.203 147.966 104.013Z" fill="#81D1EF"/>
<path d="M143.956 101.803C143.526 102.553 141.616 102.853 139.696 102.473C137.776 102.093 136.566 101.183 137.006 100.433C137.436 99.6827 139.346 99.3827 141.266 99.7627C143.186 100.143 144.396 101.053 143.956 101.803Z" fill="#B8E5F6"/>
<path d="M83.6559 184.573L69.6159 176.473C66.5159 174.683 66.9059 171.533 70.4859 169.463L82.6159 162.453C86.1959 160.383 91.6559 160.163 94.7559 161.953L108.796 170.053C111.896 171.843 111.506 174.993 107.926 177.063L95.7959 184.073C92.2159 186.143 86.7559 186.363 83.6559 184.573Z" fill="#81D1EF"/>
<path d="M106.336 171.273L88.396 172.073L89.436 174.793L106.336 171.273Z" fill="#F7393B"/>
<path d="M71.5059 175.593L89.4359 174.793L88.3959 172.073L71.5059 175.593Z" fill="#F1F2F6"/>
<path d="M91.946 174.273C90.956 175.163 88.906 175.413 87.366 174.843C85.826 174.273 85.366 173.083 86.356 172.193C87.346 171.303 89.396 171.053 90.936 171.623C92.476 172.193 92.936 173.383 91.946 174.273Z" fill="#F1F2F6"/>
<path d="M90.5858 173.763C90.0758 174.223 89.0258 174.353 88.2358 174.053C87.4458 173.753 87.2058 173.153 87.7158 172.693C88.2258 172.233 89.2758 172.103 90.0658 172.403C90.8558 172.703 91.0958 173.303 90.5858 173.763Z" fill="#F7393B"/>
<path d="M50.476 165.333L36.436 157.233C33.336 155.443 33.726 152.293 37.306 150.223L49.436 143.213C53.016 141.143 58.476 140.923 61.576 142.713L75.616 150.813C78.716 152.603 78.326 155.753 74.746 157.823L62.616 164.833C59.036 166.903 53.576 167.123 50.476 165.333Z" fill="#7CD14F"/>
<path d="M68.736 150.043C67.866 148.933 67.806 148.873 67.806 148.873L67.066 149.063L61.006 150.643C61.006 150.643 61.486 151.603 61.906 151.783C63.986 152.683 61.876 153.853 56.366 155.283C50.856 156.713 47.926 156.853 48.126 155.363C48.166 155.063 47.226 154.223 47.226 154.223L41.166 155.803L40.426 155.993C40.426 155.993 40.476 156.063 41.356 157.163C44.136 160.693 52.016 159.433 58.346 157.783C64.676 156.143 71.526 153.573 68.746 150.043H68.736Z" fill="#F1F2F6"/>
<path d="M270.456 154.003L256.416 145.903C253.316 144.113 253.706 140.963 257.286 138.893L269.416 131.883C272.996 129.813 278.456 129.593 281.556 131.383L295.596 139.483C298.696 141.273 298.306 144.423 294.726 146.493L282.596 153.503C279.016 155.573 273.556 155.793 270.456 154.003Z" fill="#F1F2F6"/>
<path d="M286.406 148.693C280.706 151.983 271.426 151.973 265.686 148.653C259.946 145.343 259.916 139.983 265.616 136.693C271.316 133.403 280.596 133.413 286.336 136.733C292.076 140.053 292.106 145.403 286.396 148.693H286.406Z" fill="#F7393B"/>
<path d="M288.556 141.803L266.536 139.093L269.966 143.123L271.496 144.163L271.056 144.363L273.136 149.113L288.556 141.803Z" fill="#F1F2F6"/>
<path d="M281.496 142.623L269.966 143.123L267.126 145.853L271.286 144.893L271.086 144.433L281.496 142.623Z" fill="#C4C8D8"/>
<path d="M150.656 223.173L136.616 215.073C133.516 213.283 133.906 210.133 137.486 208.063L149.616 201.053C153.196 198.983 158.656 198.763 161.756 200.553L175.796 208.653C178.896 210.443 178.506 213.593 174.926 215.663L162.796 222.673C159.216 224.743 153.756 224.963 150.656 223.173Z" fill="#F7393B"/>
<path d="M170.836 210.753L159.266 206.123L147.266 213.053L148.406 213.703L157.266 208.593L166.526 212.123L157.056 217.593L158.026 218.153L170.836 210.753Z" fill="#F1F2F6"/>
<path d="M149.046 213.103C148.516 214.063 146.406 214.513 144.336 214.123C142.266 213.733 141.026 212.643 141.556 211.683C142.086 210.723 144.196 210.273 146.266 210.663C148.336 211.053 149.576 212.143 149.046 213.103Z" fill="#F1F2F6"/>
<path d="M158.696 217.563C158.166 218.523 156.056 218.973 153.986 218.583C151.916 218.193 150.676 217.103 151.206 216.143C151.736 215.183 153.846 214.733 155.916 215.123C157.986 215.513 159.226 216.603 158.696 217.563Z" fill="#F1F2F6"/>
<path d="M203.596 115.323L189.556 107.223C186.456 105.433 186.846 102.283 190.426 100.213L202.556 93.2028C206.136 91.1328 211.596 90.9128 214.696 92.7028L228.736 100.803C231.836 102.593 231.446 105.743 227.866 107.813L215.736 114.823C212.156 116.893 206.696 117.113 203.596 115.323Z" fill="#F7393B"/>
<path d="M219.546 110.013C213.846 113.303 204.566 113.293 198.826 109.973C193.086 106.663 193.056 101.303 198.756 98.0127C204.456 94.7227 213.736 94.7327 219.476 98.0527C225.216 101.363 225.246 106.723 219.546 110.013Z" fill="#F1F2F6"/>
<path d="M211.886 105.013C210.896 105.903 208.846 106.153 207.306 105.583C205.756 105.013 205.306 103.823 206.296 102.933C207.286 102.043 209.336 101.793 210.876 102.363C212.426 102.933 212.876 104.123 211.886 105.013Z" fill="#D9CCDB"/>
<path d="M209.426 104.033L208.826 103.913L213.376 96.5728L213.976 96.7028L209.426 104.033Z" fill="#F7393B"/>
<path d="M209.086 103.613L209.096 104.333L195.236 104.313V103.593L209.086 103.613Z" fill="#383838"/>
<path d="M208.926 104.243L209.256 103.713L220.836 106.143L220.496 106.683L208.926 104.243Z" fill="#383838"/>
<path d="M210.526 104.513C210.016 104.973 208.966 105.103 208.176 104.803C207.386 104.513 207.146 103.903 207.656 103.443C208.166 102.983 209.216 102.853 210.006 103.153C210.796 103.443 211.036 104.053 210.526 104.513Z" fill="#666666"/>
<path d="M233.786 175.183L219.746 167.083C216.646 165.293 217.036 162.143 220.616 160.073L232.746 153.063C236.326 150.993 241.786 150.773 244.886 152.563L258.926 160.663C262.026 162.453 261.636 165.603 258.056 167.673L245.926 174.683C242.346 176.753 236.886 176.973 233.786 175.183Z" fill="#F1F2F6"/>
<path d="M237.266 154.123L232.266 157.013C230.526 158.013 231.776 159.733 234.236 159.743L244.276 159.763C246.736 159.763 247.966 158.053 246.216 157.043L241.186 154.133C240.106 153.503 238.356 153.503 237.276 154.133L237.266 154.123Z" fill="#FF8E8C"/>
<path d="M241.276 173.543L246.276 170.653C248.016 169.653 246.766 167.933 244.306 167.923L234.266 167.903C231.806 167.903 230.576 169.613 232.326 170.623L237.356 173.533C238.436 174.163 240.186 174.163 241.266 173.533L241.276 173.543Z" fill="#FF8E8C"/>
<path d="M237.266 154.123L232.266 157.013C230.526 158.013 231.776 159.733 234.236 159.743L244.276 159.763C246.736 159.763 247.966 158.053 246.216 157.043L241.186 154.133C240.106 153.503 238.356 153.503 237.276 154.133L237.266 154.123Z" fill="#FF8E8C"/>
<path d="M241.276 173.543L246.276 170.653C248.016 169.653 246.766 167.933 244.306 167.923L234.266 167.903C231.806 167.903 230.576 169.613 232.326 170.623L237.356 173.533C238.436 174.163 240.186 174.163 241.266 173.533L241.276 173.543Z" fill="#FF8E8C"/>
<path d="M222.466 164.933L227.496 167.843C229.246 168.853 232.216 168.143 232.206 166.723L232.176 160.923C232.176 159.503 229.186 158.783 227.446 159.783L222.446 162.673C221.366 163.293 221.376 164.303 222.456 164.933H222.466Z" fill="#FECB4C"/>
<path d="M256.076 162.733L251.046 159.823C249.296 158.813 246.326 159.523 246.336 160.943L246.366 166.743C246.366 168.163 249.356 168.883 251.096 167.883L256.096 164.993C257.176 164.373 257.166 163.363 256.086 162.733H256.076Z" fill="#FECB4C"/>
<path d="M155.146 149.793L141.206 157.843C138.126 159.623 133.076 159.613 129.976 157.823L115.936 149.723C112.836 147.933 112.826 145.013 115.896 143.243L129.836 135.193C132.916 133.413 137.966 133.423 141.066 135.213L155.106 143.313C157.616 144.763 158.106 146.953 156.556 148.683C156.226 149.053 155.806 149.393 155.296 149.703C155.246 149.733 155.196 149.763 155.146 149.793Z" fill="#81D1EF"/>
<path d="M134.246 152.083L123.336 153.993L115.936 149.723C112.836 147.933 112.826 145.013 115.896 143.243L117.786 142.153L134.236 152.093L134.246 152.083Z" fill="#F1F2F6"/>
<path d="M145.836 144.693L133.656 151.093L117.966 142.033L129.836 135.183C132.916 133.403 137.966 133.413 141.066 135.203L155.106 143.303C157.616 144.753 158.106 146.943 156.556 148.673C156.226 149.043 146.346 144.383 145.836 144.693Z" fill="#7CD14F"/>
<path d="M155.146 149.793L147.726 154.083L138.746 148.903L151.766 141.383L155.106 143.313C157.616 144.763 158.106 146.953 156.556 148.683C156.226 149.053 155.806 149.393 155.296 149.703C155.246 149.733 155.196 149.763 155.146 149.793Z" fill="#7CD14F"/>
<path d="M118.956 141.463L135.196 150.843L132.096 152.633L115.866 143.253L118.956 141.463Z" fill="#FFB33D"/>
<path d="M141.076 136.123C138.276 134.503 133.746 134.493 130.956 136.103C127.166 138.293 125.386 145.173 125.386 145.173C125.386 145.173 137.306 144.153 141.096 141.963C143.886 140.353 143.866 137.743 141.066 136.123H141.076Z" fill="#FF4C4A"/>
<path d="M138.976 140.733C137.366 141.663 134.736 141.663 133.116 140.723C131.496 139.783 131.486 138.273 133.096 137.343C134.706 136.413 137.336 136.413 138.956 137.353C140.576 138.293 140.586 139.803 138.976 140.733Z" fill="white"/>
<path d="M152.276 141.673L148.476 139.473L123.336 153.983L127.136 156.183L152.276 141.673Z" fill="#FFE43D"/>
<path d="M96.6459 138.683L82.6059 130.583C79.5059 128.793 79.8959 125.643 83.4759 123.573L95.6059 116.563C99.1859 114.493 104.646 114.273 107.746 116.063L121.786 124.163C124.886 125.953 124.496 129.103 120.916 131.173L108.786 138.183C105.206 140.253 99.7459 140.473 96.6459 138.683Z" fill="#CE7836"/>
<path d="M103.036 134.273L88.816 126.063C87.926 125.553 88.046 124.653 89.066 124.063L96.336 119.863C97.356 119.273 98.906 119.213 99.796 119.723L114.016 127.933C114.906 128.443 114.786 129.343 113.766 129.933L106.496 134.133C105.476 134.723 103.926 134.783 103.036 134.273Z" fill="#F1F2F6"/>
<path d="M103.746 133.003L91.0261 125.653C90.5561 125.383 90.6161 124.913 91.1561 124.603L97.2661 121.073C97.8061 120.763 98.6161 120.733 99.0861 120.993L111.806 128.343C112.276 128.613 112.216 129.083 111.676 129.393L105.566 132.923C105.026 133.233 104.216 133.263 103.746 133.003Z" fill="#CE7836"/>
<path d="M109.836 134.443L108.616 133.733C108.476 133.653 108.496 133.513 108.656 133.423L112.406 131.263C112.566 131.173 112.806 131.163 112.936 131.243L114.156 131.953C114.296 132.033 114.276 132.173 114.116 132.263L110.366 134.423C110.206 134.513 109.966 134.523 109.836 134.443Z" fill="#F1F2F6"/>
<path d="M94.126 126.913L91.666 125.493C91.536 125.423 91.556 125.283 91.706 125.203L98.296 121.393C98.446 121.303 98.676 121.293 98.806 121.373L101.276 122.793C101.406 122.863 101.386 123.003 101.236 123.083L94.646 126.893C94.496 126.983 94.266 126.993 94.136 126.913H94.126Z" fill="#F1F2F6"/>
<path d="M97.616 128.923L95.156 127.503C95.026 127.433 95.046 127.293 95.196 127.213L101.786 123.403C101.936 123.313 102.166 123.303 102.296 123.383L104.766 124.803C104.896 124.873 104.876 125.013 104.726 125.093L98.136 128.903C97.986 128.993 97.756 129.003 97.626 128.923H97.616Z" fill="#F1F2F6"/>
<path d="M101.096 130.933L98.636 129.513C98.506 129.443 98.526 129.303 98.676 129.223L105.266 125.413C105.416 125.323 105.646 125.313 105.776 125.393L108.246 126.813C108.376 126.883 108.356 127.023 108.206 127.103L101.616 130.913C101.466 131.003 101.236 131.013 101.106 130.933H101.096Z" fill="#F1F2F6"/>
<path d="M295.076 17.9427L287.626 13.6427C287.166 13.3727 287.216 12.9027 287.756 12.5927L291.566 10.3927C292.106 10.0827 292.916 10.0527 293.376 10.3127L300.826 14.6127C301.286 14.8827 301.236 15.3527 300.696 15.6627L296.886 17.8627C296.346 18.1727 295.536 18.2027 295.076 17.9327V17.9427Z" fill="#F1F2F6"/>
<path d="M298.636 18.0327L297.996 17.6627C297.926 17.6227 297.936 17.5527 298.016 17.5027L299.976 16.3727C300.056 16.3227 300.186 16.3227 300.256 16.3627L300.896 16.7327C300.966 16.7727 300.956 16.8427 300.876 16.8927L298.916 18.0227C298.836 18.0727 298.706 18.0727 298.636 18.0327Z" fill="#F1F2F6"/>
<path d="M237.066 134.723L223.026 126.623C219.926 124.833 220.316 121.683 223.896 119.613L236.026 112.603C239.606 110.533 245.066 110.313 248.166 112.103L262.206 120.203C265.306 121.993 264.916 125.143 261.336 127.213L249.206 134.223C245.626 136.293 240.166 136.513 237.066 134.723Z" fill="#D5D8E7"/>
<path d="M254.466 130.253C247.966 134.003 237.386 133.983 230.846 130.213C224.306 126.433 224.266 120.333 230.776 116.573C237.276 112.823 247.856 112.843 254.396 116.613C260.936 120.393 260.976 126.493 254.466 130.253Z" fill="#6DB6F3"/>
<path d="M253.636 129.783C247.586 133.273 237.756 133.253 231.666 129.743C225.576 126.233 225.546 120.553 231.596 117.063C237.646 113.573 247.476 113.593 253.566 117.103C259.656 120.613 259.686 126.293 253.636 129.783Z" fill="#81D1EF"/>
<path d="M252.676 129.223C247.156 132.413 238.176 132.393 232.626 129.183C227.066 125.973 227.046 120.793 232.566 117.603C238.086 114.413 247.066 114.433 252.616 117.643C258.166 120.853 258.196 126.033 252.676 129.223Z" fill="#B3E7FC"/>
<path d="M250.106 126.013C250.106 126.013 249.536 126.823 248.576 128.123C247.616 129.423 246.686 129.923 248.426 130.103C249.386 130.203 249.686 130.353 250.036 130.423C250.846 130.133 251.616 129.803 252.336 129.413C251.976 129.233 251.606 128.983 251.836 128.743C252.236 128.343 252.826 128.323 253.446 128.613C253.486 128.633 253.546 128.643 253.586 128.653C256.446 126.653 257.386 124.043 256.416 121.633C256.366 121.633 256.326 121.613 256.266 121.613C256.266 121.613 256.006 121.743 255.316 121.443C254.626 121.143 254.536 120.753 254.536 120.753C254.536 120.753 255.896 120.113 255.266 119.963C254.636 119.813 253.766 120.433 253.766 120.433C253.766 120.433 250.946 119.383 250.816 119.813C250.676 120.243 249.906 120.733 249.756 120.593C249.596 120.453 249.676 119.603 248.506 119.963C247.336 120.313 246.736 120.143 246.646 120.693L246.556 121.253C246.556 121.253 245.286 121.803 243.456 121.213C241.626 120.623 239.326 121.873 238.386 122.463C237.446 123.063 237.006 123.983 238.236 124.663C239.466 125.343 240.926 125.643 238.896 126.723C236.876 127.803 237.356 128.433 235.316 128.743C233.546 129.013 233.356 129.283 233.576 129.703C235.456 130.613 237.636 131.203 239.906 131.463C240.016 131.453 240.126 131.433 240.216 131.413C241.906 131.003 242.776 130.893 244.046 131.023C245.316 131.153 248.076 130.843 247.926 130.623C247.776 130.403 246.856 129.983 246.516 129.663C246.176 129.333 246.596 129.593 247.446 128.473C248.306 127.353 248.126 126.013 248.946 125.503C249.766 124.993 250.436 125.433 250.436 125.433C250.436 125.433 250.756 124.473 249.686 124.143C248.616 123.813 248.516 123.943 249.036 122.953C249.556 121.963 251.766 122.753 251.726 123.893C251.696 125.033 252.916 125.513 252.916 125.513C252.916 125.513 252.926 125.903 251.766 125.913C250.606 125.913 250.086 126.043 250.086 126.043L250.106 126.013Z" fill="#7CD14F"/>
<path d="M235.206 116.423C235.096 116.493 235.036 116.553 235.026 116.573C234.986 116.833 235.856 117.053 235.856 117.053C235.856 117.053 233.276 118.253 233.936 118.403C234.596 118.563 235.296 118.343 235.936 117.993C236.586 117.653 235.906 117.083 237.616 117.023C239.336 116.953 240.256 116.983 240.256 116.983L241.806 116.763L242.356 117.383C242.356 117.383 240.676 117.313 240.966 117.573C241.246 117.843 243.386 117.793 243.386 117.793C243.386 117.793 245.036 117.993 244.716 117.493C244.406 116.993 243.756 117.153 242.756 116.643C241.756 116.133 242.976 116.233 242.976 116.233L244.656 117.093C244.656 117.093 245.836 117.453 246.686 117.153C247.536 116.853 246.946 116.093 246.946 116.093L247.886 115.823C243.766 114.853 239.036 115.053 235.196 116.413L235.206 116.423Z" fill="#6EBA46"/>
<path d="M230.096 125.403C230.096 125.403 231.276 125.343 231.766 124.833C232.256 124.323 232.516 123.683 232.726 123.503C232.946 123.323 232.686 122.863 232.686 122.863C232.836 122.633 233.266 122.753 233.616 122.323C233.956 121.903 234.446 121.593 234.446 121.593C234.446 121.593 236.026 121.433 235.926 120.733C235.826 120.033 235.576 119.353 235.576 119.353C235.576 119.353 235.086 118.863 233.886 118.853C232.686 118.853 231.786 119.413 231.576 119.003C231.366 118.593 230.656 119.113 230.656 119.113C230.656 119.113 230.426 119.623 229.906 119.823C229.866 119.833 229.816 119.873 229.756 119.923C228.116 121.963 228.006 124.323 229.456 126.413C230.366 125.953 230.086 125.393 230.086 125.393L230.096 125.403Z" fill="#6EBA46"/>
<path d="M117.126 203.973L103.086 195.873C99.9859 194.083 100.376 190.933 103.956 188.863L116.086 181.853C119.666 179.783 125.126 179.563 128.226 181.353L142.266 189.453C145.366 191.243 144.976 194.393 141.396 196.463L129.266 203.473C125.686 205.543 120.226 205.763 117.126 203.973Z" fill="#7CD14F"/>
<path d="M137.716 195.263L128.616 200.513C126.926 201.493 124.166 201.483 122.456 200.503L113.976 195.603L104.956 195.033L109.856 193.903L110.696 193.713L115.346 192.643L109.416 192.973L109.096 192.783C107.396 191.803 107.386 190.203 109.086 189.233L118.186 183.973C119.886 182.993 122.636 182.993 124.336 183.973L137.706 191.693C139.406 192.673 139.426 194.273 137.726 195.253L137.716 195.263Z" fill="#F1F2F6"/>
<path d="M177.896 113.963L191.936 122.063C195.036 123.853 195.046 126.773 191.976 128.543L178.026 136.593C174.946 138.373 169.896 138.363 166.796 136.573L152.756 128.473C149.656 126.683 149.646 123.763 152.716 121.993L166.666 113.943C169.746 112.163 174.796 112.173 177.896 113.963Z" fill="#CE7836"/>
<path d="M178.796 114.483L191.926 122.063C195.026 123.853 195.036 126.773 191.966 128.543L178.016 136.593C174.936 138.373 169.886 138.363 166.786 136.573L153.656 128.993L178.806 114.473L178.796 114.483Z" fill="#FFE56F"/>
<path d="M184.306 117.663L175.766 122.593L180.236 123.193L181.206 125.603L189.636 120.733L184.306 117.663Z" fill="#FF4C4A"/>
<path d="M200.176 156.003L186.136 147.903C183.036 146.113 183.426 142.963 187.006 140.893L199.136 133.883C202.716 131.813 208.176 131.593 211.276 133.383L225.316 141.483C228.416 143.273 228.026 146.423 224.446 148.493L212.316 155.503C208.736 157.573 203.276 157.793 200.176 156.003Z" fill="#D2D6E1"/>
<path d="M216.126 150.693C210.426 153.983 201.146 153.973 195.406 150.653C189.666 147.343 189.636 141.983 195.346 138.693C201.046 135.403 210.326 135.413 216.066 138.733C221.806 142.043 221.836 147.403 216.136 150.693H216.126Z" fill="#586891"/>
<path d="M214.796 149.923C209.826 152.793 201.726 152.783 196.726 149.893C191.716 147.003 191.696 142.333 196.666 139.463C201.636 136.593 209.736 136.603 214.736 139.493C219.746 142.383 219.766 147.053 214.796 149.923Z" fill="#746EEE"/>
<path d="M212.916 148.843C208.976 151.123 202.556 151.113 198.586 148.813C194.616 146.513 194.596 142.823 198.546 140.543C202.486 138.263 208.906 138.273 212.876 140.573C216.846 142.863 216.866 146.563 212.916 148.843Z" fill="#455492"/>
<path d="M210.846 147.643C208.036 149.263 203.476 149.253 200.656 147.623C197.836 145.993 197.816 143.363 200.626 141.743C203.436 140.123 207.996 140.133 210.816 141.763C213.636 143.393 213.656 146.023 210.846 147.643Z" fill="#313C6D"/>
<path d="M210.016 142.983C209.656 143.573 208.026 143.773 206.376 143.433C204.716 143.093 203.666 142.343 204.016 141.753C204.366 141.163 206.006 140.963 207.656 141.303C209.316 141.643 210.366 142.393 210.016 142.983Z" fill="#8B96B3"/>
<path d="M163.386 177.103L149.346 169.003C146.246 167.213 146.636 164.063 150.216 161.993L162.346 154.983C165.926 152.913 171.386 152.693 174.486 154.483L188.526 162.583C191.626 164.373 191.236 167.523 187.656 169.593L175.526 176.603C171.946 178.673 166.486 178.893 163.386 177.103Z" fill="#CE7836"/>
<path d="M182.066 167.573L174.916 163.443C174.406 163.153 174.276 162.703 174.596 162.333L174.826 162.063C175.146 161.693 175.016 161.243 174.506 160.953L168.076 157.243C167.546 156.933 166.726 156.873 166.076 157.083L164.866 157.473C164.736 157.513 164.606 157.573 164.506 157.633L153.566 163.953C153.086 164.233 153.086 164.693 153.566 164.973L170.396 174.693C170.886 174.973 171.676 174.973 172.156 174.693L182.086 168.963C182.736 168.583 182.736 167.973 182.086 167.593L182.066 167.573Z" fill="#FFE568"/>
<path d="M181.326 168.353L164.496 158.633C164.006 158.353 163.216 158.353 162.736 158.633L153.556 163.933C153.076 164.213 153.076 164.673 153.556 164.953L170.386 174.673C170.876 174.953 171.666 174.953 172.146 174.673L181.326 169.373C181.816 169.093 181.806 168.633 181.326 168.353Z" fill="#FFEC8B"/>
<path d="M170.206 96.0427L156.166 87.9427C153.066 86.1527 153.456 83.0027 157.036 80.9327L169.166 73.9227C172.746 71.8527 178.206 71.6327 181.306 73.4227L195.346 81.5227C198.446 83.3127 198.056 86.4627 194.476 88.5327L182.346 95.5427C178.766 97.6127 173.306 97.8327 170.206 96.0427Z" fill="#F1F2F6"/>
<path d="M193.586 87.1727L188.046 90.3727C185.496 91.8427 181.306 91.8427 178.746 90.3527L175.916 88.7227L176.416 88.4327C178.966 86.9627 178.946 84.5427 176.386 83.0627L171.346 80.1527L176.396 77.2427C178.946 75.7727 183.136 75.7727 185.696 77.2627L193.556 81.8027C196.126 83.2827 196.136 85.7027 193.586 87.1727Z" fill="#81D1EF"/>
<path d="M181.636 79.1627L183.736 80.3727L177.126 84.1927L175.656 83.3427L174.936 83.7527L174.306 83.3927L181.646 79.1627H181.636ZM180.426 83.4727C180.546 83.6527 180.676 83.8527 180.856 84.0527C179.416 84.5527 177.906 85.0927 176.316 85.6727L175.806 85.0727C177.396 84.5827 178.936 84.0527 180.426 83.4727ZM182.476 80.3827L181.626 79.8927L176.296 82.9727L177.146 83.4627L182.476 80.3827ZM181.686 83.4527L182.506 83.9227L184.956 82.7227C184.546 82.7627 184.126 82.7927 183.706 82.8227C183.766 82.6027 183.796 82.3927 183.796 82.2127C185.196 82.1827 186.606 81.9827 188.016 81.6127L188.596 82.0927C188.196 82.1927 187.786 82.2827 187.376 82.3627L190.736 84.3027L190.126 84.6527L186.436 82.5227C186.026 82.5927 185.596 82.6527 185.166 82.7027L188.836 84.8227C187.916 85.3227 187.096 85.7627 186.356 86.1527L187.136 86.6027L186.526 86.9527L185.726 86.4927C184.986 86.8827 184.356 87.2127 183.826 87.5027L184.566 87.9327L183.956 88.2827L183.186 87.8427C182.196 88.3827 181.296 88.4127 180.486 87.9427C179.856 87.5827 179.406 87.3127 179.146 87.1527C179.386 86.9827 179.596 86.8127 179.766 86.6427C180.126 86.9027 180.546 87.1727 181.036 87.4527C181.466 87.7027 181.946 87.6927 182.466 87.4227L179.236 85.5627L179.786 85.2427L181.816 84.2427L181.056 83.8027L181.666 83.4527H181.686ZM185.006 86.0727L182.556 84.6627L180.566 85.6227L183.106 87.0927C183.706 86.7827 184.336 86.4427 184.996 86.0827L185.006 86.0727ZM182.566 81.5727C182.686 82.0427 182.786 82.5227 182.856 83.0227C182.406 83.0427 182.026 83.0527 181.746 83.0627C181.736 82.5727 181.696 82.0927 181.606 81.6127L182.566 81.5727ZM182.596 85.2127L183.456 85.3527C183.326 85.7527 183.176 86.1327 182.996 86.4827L182.086 86.3227C182.296 85.9627 182.456 85.5927 182.586 85.2127H182.596ZM185.166 83.3927L183.216 84.3227L185.636 85.7227C186.226 85.4027 186.846 85.0727 187.476 84.7327L185.166 83.3927ZM185.346 80.3827C185.476 80.8527 185.556 81.3027 185.586 81.7327C185.206 81.7327 184.856 81.7327 184.536 81.7427C184.536 81.3027 184.486 80.8627 184.416 80.4127L185.336 80.3827H185.346ZM185.186 83.9327L186.056 84.0727C185.926 84.4527 185.776 84.8127 185.616 85.1427L184.696 84.9927C184.916 84.6027 185.076 84.2527 185.186 83.9327Z" fill="white"/>
<path d="M176.416 88.4327L175.916 88.7227L170.876 85.8127C168.306 84.3327 168.296 81.9127 170.846 80.4427L171.336 80.1527L176.376 83.0627C178.936 84.5427 178.956 86.9627 176.406 88.4327H176.416Z" fill="#A184C2"/>
<path d="M175.916 88.7228L173.146 90.3228C170.596 91.7928 166.416 91.7828 163.856 90.3028L158.636 87.2828C156.066 85.8028 156.056 83.3828 158.606 81.9128L161.876 80.0228C164.426 78.5528 168.606 78.5628 171.176 80.0428L171.356 80.1528L170.866 80.4428C168.316 81.9128 168.326 84.3328 170.896 85.8128L175.936 88.7228H175.916Z" fill="#FF4C4A"/>
<path d="M160.006 83.3227L164.996 82.2727L165.396 82.5027L163.596 85.3927L162.706 84.8727L162.946 84.4927L161.556 83.6927L160.906 83.8327L160.016 83.3127L160.006 83.3227ZM162.646 83.4627L163.346 83.8627L163.746 83.2327L162.646 83.4627Z" fill="white"/>
<path d="M164.046 85.6628L167.446 83.7028L168.946 84.5728C169.496 84.8828 169.486 85.4228 168.946 85.7428C168.716 85.8728 168.406 85.9528 168.116 85.9728C168.156 86.2128 168.026 86.4628 167.726 86.6428C167.186 86.9528 166.266 86.9528 165.726 86.6428L164.046 85.6728V85.6628ZM166.276 86.1028C166.436 86.1928 166.706 86.1928 166.866 86.1028C167.026 86.0128 167.016 85.8528 166.866 85.7628L166.266 85.4128L165.676 85.7528L166.276 86.1028ZM167.446 85.2328C167.616 85.3228 167.876 85.3328 168.036 85.2328C168.196 85.1428 168.196 84.9828 168.036 84.8928L167.606 84.6428L167.016 84.9828L167.446 85.2328Z" fill="white"/>
<path d="M171.656 87.4227C171.656 87.2627 171.536 87.1027 171.316 86.9627C170.846 86.6927 170.186 86.6927 169.716 86.9627C169.256 87.2327 169.256 87.6227 169.716 87.8827C169.946 88.0127 170.236 88.0827 170.516 88.0827V88.8127C169.906 88.8127 169.286 88.6727 168.816 88.4027C167.876 87.8627 167.876 86.9827 168.816 86.4427C169.756 85.9027 171.276 85.9027 172.216 86.4427C172.676 86.7127 172.916 87.0627 172.916 87.4227H171.656Z" fill="white"/>
<path d="M196.756 196.393L182.716 188.293C179.616 186.503 180.006 183.353 183.586 181.283L195.716 174.273C199.296 172.203 204.756 171.983 207.856 173.773L221.896 181.873C224.996 183.663 224.606 186.813 221.026 188.883L208.896 195.893C205.316 197.963 199.856 198.183 196.756 196.393Z" fill="#D2D6E1"/>
<path d="M201.066 188.443C200.976 188.173 201.256 187.913 201.716 187.843L204.366 187.433L204.656 185.883L202.226 185.133C201.806 185.003 201.636 184.713 201.816 184.463L202.896 183.013L200.976 181.903L198.466 182.533C198.036 182.643 197.536 182.533 197.316 182.303L196.026 180.903L193.336 181.073L192.626 182.603C192.506 182.863 192.056 183.023 191.596 182.973L188.896 182.673L187.466 183.993L189.096 185.273C189.376 185.493 189.316 185.793 188.966 185.973L186.896 187.003L187.796 188.483L190.536 188.553C191.006 188.563 191.386 188.783 191.406 189.053L191.526 190.633L194.086 191.153L195.876 189.953C196.186 189.753 196.706 189.713 197.086 189.873L199.306 190.813L201.596 189.983L201.086 188.423L201.066 188.443Z" fill="#6D7A9D"/>
<path d="M216.406 185.373L218.116 184.903L218.026 183.333L216.266 182.913C215.566 182.753 215.136 182.343 215.196 181.913L215.336 180.823L212.946 180.073L211.446 180.743C210.856 181.013 210.036 181.023 209.416 180.773L207.846 180.143L205.546 180.963L205.816 182.053C205.926 182.483 205.536 182.903 204.856 183.083L203.146 183.553L203.236 185.123L204.996 185.543C205.696 185.703 206.126 186.113 206.066 186.543L205.926 187.633L208.316 188.383L209.816 187.713C210.406 187.443 211.226 187.433 211.846 187.683L213.416 188.303L215.716 187.483L215.446 186.393C215.336 185.963 215.726 185.543 216.406 185.363V185.373Z" fill="#6D7A9D"/>
<path d="M198.256 187.423C196.916 188.203 194.726 188.193 193.376 187.423C192.026 186.643 192.016 185.383 193.356 184.603C194.696 183.823 196.886 183.833 198.236 184.603C199.586 185.383 199.596 186.643 198.256 187.423Z" fill="#D2D6E1"/>
<path d="M212.656 185.413C211.536 186.053 209.726 186.053 208.596 185.413C207.466 184.773 207.466 183.713 208.586 183.073C209.706 182.433 211.516 182.433 212.646 183.073C213.766 183.723 213.776 184.773 212.656 185.413Z" fill="#D2D6E1"/>
<path d="M264.906 58.0227C267.506 56.5227 271.726 56.5227 274.356 58.0427C276.986 59.5627 276.996 61.9927 274.396 63.5027C273.386 64.0827 272.066 64.4527 270.606 64.5727L253.636 66.2527L261.646 70.8827L261.186 71.1427L252.286 66.0027L270.426 64.1927C271.696 64.1027 272.916 63.7827 273.896 63.2127C276.236 61.8627 276.226 59.6727 273.866 58.3127C271.506 56.9527 267.716 56.9427 265.376 58.3027L264.886 58.0227H264.906Z" fill="white"/>
<path d="M286.916 65.2926L287.406 65.5726L269.486 75.9226L268.996 75.6426L286.916 65.2926Z" fill="white"/>
<path d="M277.276 79.3127C277.536 79.4627 277.546 79.7427 277.276 79.8927C277.016 80.0427 276.556 80.0327 276.296 79.8827C276.026 79.7327 276.026 79.4827 276.296 79.3327C276.556 79.1827 277.016 79.1627 277.276 79.3227V79.3127ZM285.756 74.4127C286.016 74.5627 286.026 74.8427 285.756 74.9927C285.496 75.1427 285.036 75.1327 284.776 74.9827C284.506 74.8327 284.506 74.5827 284.776 74.4327C285.046 74.2827 285.496 74.2727 285.756 74.4227V74.4127Z" fill="white"/>
<path d="M301.626 73.7826L308.996 78.0326L308.176 78.1126L293.626 79.5626C294.556 79.7426 295.426 80.0526 296.196 80.4926C298.826 82.0026 298.836 84.4426 296.226 85.9526C293.626 87.4526 289.426 87.4326 286.806 85.9226C285.526 85.1826 284.876 84.2526 284.816 83.3126H285.516C285.576 84.1626 286.156 84.9926 287.286 85.6426C289.646 87.0026 293.406 87.0226 295.756 85.6726C298.096 84.3226 298.086 82.1326 295.726 80.7726C294.596 80.1226 293.156 79.7826 291.706 79.7526V79.3626L307.626 77.7926L301.146 74.0526L301.626 73.7726V73.7826Z" fill="white"/>
<path d="M308.856 94.2926L298.766 88.4726L322.906 86.0726L323.486 86.4026L309.846 94.2826L313.176 96.2026L312.676 96.4926L309.346 94.5726L305.566 96.7526L305.086 96.4726L308.866 94.2926H308.856ZM309.356 94.0026L322.306 86.5226L300.186 88.7026L309.356 94.0026Z" fill="white"/>
<path d="M244.826 69.4227L247.346 70.8727L246.486 71.3727L245.016 70.5327L244.366 70.9127L245.656 71.6627L244.766 72.1827L243.476 71.4327L241.876 72.3527L240.826 71.7427L244.836 69.4227H244.826Z" fill="white"/>
<path d="M246.426 74.9827L246.866 74.0127L246.206 73.6327L245.146 74.2427L244.096 73.6327L248.106 71.3127L249.796 72.2927C250.606 72.7627 250.606 73.5227 249.796 73.9927C249.366 74.2427 248.796 74.3527 248.236 74.3427L247.636 75.6727L246.416 74.9727L246.426 74.9827ZM247.126 73.1027L247.786 73.4827C248.106 73.6627 248.616 73.6727 248.936 73.4827C249.256 73.3027 249.256 73.0027 248.936 72.8127L248.276 72.4327L247.126 73.0927V73.1027Z" fill="white"/>
<path d="M252.186 73.6727L253.236 74.2827L249.226 76.6027L248.176 75.9927L252.186 73.6727Z" fill="white"/>
<path d="M254.056 74.7527L255.546 75.6127C256.656 76.2527 256.656 77.2927 255.546 77.9327C254.446 78.5727 252.646 78.5727 251.536 77.9327L250.046 77.0727L254.056 74.7527ZM252.146 77.0727L252.586 77.3327C253.106 77.6327 253.966 77.6327 254.486 77.3327C255.006 77.0327 255.006 76.5427 254.486 76.2327L254.046 75.9727L252.146 77.0727Z" fill="white"/>
<path d="M253.856 79.2727L259.736 78.0327L260.216 78.3127L258.096 81.7227L257.046 81.1127L257.326 80.6727L255.676 79.7227L254.916 79.8927L253.856 79.2827V79.2727ZM256.976 79.4427L257.796 79.9127L258.276 79.1727L256.976 79.4427Z" fill="white"/>
<path d="M262.006 82.2728L260.536 83.1228L259.496 82.5228L260.966 81.6728L262.036 79.3628L263.256 80.0628L262.686 81.2828L264.796 80.9628L266.016 81.6628L262.016 82.2828L262.006 82.2728Z" fill="white"/>
<path d="M268.756 85.2227C268.976 85.2127 269.186 85.1727 269.346 85.0827C269.546 84.9627 269.616 84.7027 269.326 84.5427C269.066 84.3927 268.656 84.3927 268.386 84.5427L267.526 84.0427C268.206 83.6427 269.376 83.5827 270.206 84.0627C270.986 84.5127 270.816 85.2127 270.166 85.5827C269.746 85.8227 269.186 85.8727 269.186 85.8727L267.336 86.0627L268.466 86.7127L267.616 87.2027L264.836 85.6027L268.746 85.2127L268.756 85.2227Z" fill="white"/>
<path d="M275.276 87.0127L274.416 87.5127L269.446 88.2827L268.466 87.7227L273.446 86.9527L271.316 85.7227L272.166 85.2327L275.266 87.0227L275.276 87.0127Z" fill="white"/>
<path d="M278.936 90.8327L282.056 90.9227L282.526 91.1927L278.516 93.5127L277.456 92.9027L279.516 91.7127L277.506 91.6627L277.406 90.5027L275.356 91.6927L274.296 91.0827L278.306 88.7627L278.786 89.0427L278.936 90.8427V90.8327Z" fill="white"/>
<path d="M279.086 93.8328L284.966 92.6028L285.436 92.8728L283.316 96.2828L282.266 95.6728L282.546 95.2328L280.896 94.2828L280.136 94.4528L279.076 93.8428L279.086 93.8328ZM282.206 94.0028L283.026 94.4728L283.506 93.7328L282.206 94.0028Z" fill="white"/>
<path d="M286.206 97.9527L286.646 96.9827L285.986 96.6027L284.926 97.2127L283.876 96.6027L287.886 94.2827L289.576 95.2627C290.396 95.7327 290.396 96.5027 289.576 96.9627C289.146 97.2127 288.576 97.3227 288.016 97.3127L287.416 98.6427L286.196 97.9427L286.206 97.9527ZM286.906 96.0727L287.566 96.4527C287.886 96.6327 288.396 96.6427 288.716 96.4527C289.036 96.2727 289.036 95.9727 288.716 95.7827L288.056 95.4027L286.906 96.0627V96.0727Z" fill="white"/>
<path d="M293.116 98.8428C293.116 98.6528 292.976 98.4628 292.696 98.3028C292.156 97.9928 291.356 97.9828 290.816 98.3028C290.266 98.6128 290.266 99.0728 290.816 99.3928C291.096 99.5528 291.426 99.6328 291.766 99.6328V100.493C291.046 100.493 290.316 100.333 289.756 100.013C288.656 99.3728 288.656 98.3328 289.756 97.6928C290.866 97.0528 292.666 97.0528 293.766 97.6928C294.316 98.0128 294.596 98.4228 294.606 98.8428H293.126H293.116Z" fill="white"/>
<path d="M297.066 99.5827L295.636 100.413L296.916 101.153L298.346 100.333L299.396 100.943L295.386 103.263L294.336 102.653L295.866 101.763L294.586 101.023L293.056 101.913L292.006 101.303L296.016 98.9827L297.066 99.5927V99.5827Z" fill="white"/>
<defs>
<linearGradient id="paint0_linear_72_3674" x1="13.8159" y1="131.543" x2="424.446" y2="131.543" gradientUnits="userSpaceOnUse">
<stop stop-color="#B4B9CD"/>
<stop offset="0.01" stop-color="#A0A6C0"/>
<stop offset="0.3" stop-color="#A0A6C0"/>
<stop offset="0.31" stop-color="#A3A9C2"/>
<stop offset="0.33" stop-color="#B5BACE"/>
<stop offset="0.35" stop-color="#C0C4D5"/>
<stop offset="0.37" stop-color="#C4C8D8"/>
<stop offset="0.95" stop-color="#C4C8D8"/>
<stop offset="1" stop-color="#C4C8D8"/>
</linearGradient>
</defs>
</svg>
