<svg width="125" height="128" viewBox="0 0 125 128" fill="none" xmlns="http://www.w3.org/2000/svg">
<path d="M123.193 61.16C120.803 53.3424 116.053 46.1633 109.678 40.5432C106.685 37.9028 103.083 36.2346 99.9519 33.8416C96.4255 31.1379 95.5345 27.5599 93.9972 23.723C92.4474 19.8573 89.6551 16.5094 86.5554 13.5296C81.2094 8.38691 74.6899 4.10133 67.2607 2.09947C59.8251 0.0976148 51.417 0.580822 44.8223 4.30842C39.6707 7.21916 31.5387 12.3101 28.3386 17.0214C16.63 34.2672 27.0083 54.9646 27.3472 65.7045C27.7174 77.4913 21.4176 88.9732 22.7917 100.691C23.8584 109.814 29.8696 118.345 38.4974 122.993C47.1314 127.641 58.1811 128.303 67.3924 124.713C73.184 122.458 78.1222 118.708 83.6941 116.033C92.7862 111.661 103.604 110.119 111.422 104.016C115.08 101.163 117.854 97.4523 119.968 93.5004C125.277 83.5601 126.444 71.8193 123.187 61.16H123.193Z" fill="#E9AA7C"/>
<path d="M41.6856 102.197C41.5815 103.642 51.3204 111.551 53.234 109.405C56.2355 106.044 60.9029 96.2733 60.9158 91.9702C60.921 89.1753 64.3626 71.8645 63.8916 71.1813C63.3335 70.3582 49.1146 65.768 48.7039 66.683C44.1503 76.7066 42.3177 93.5325 41.6794 102.198L41.6856 102.197Z" fill="#BF7855"/>
<path d="M48.1166 52.1874C48.9161 55.0963 50.0404 71.3965 50.8764 74.2951C56.6786 94.3824 62.5098 103.66 61.3362 121.714C61.2465 123.122 61.153 124.653 62.0291 125.796C63.1459 127.245 65.3574 127.485 67.3053 127.537C83.4571 128.008 99.8049 124.831 114.516 118.368C116.236 112.339 111.102 106.829 108.836 101.036C107.098 96.5868 107.054 91.7227 106.809 86.9708C105.95 70.7185 101.509 56.1657 95.3913 40.9989C90.879 40.1592 86.473 39.2078 82.0154 38.7556C82.0154 38.7556 74.0996 45.1467 68.0068 47.0957C63.2705 48.6145 53.925 47.555 53.925 47.555C51.066 49.9293 48.1159 52.1817 48.1159 52.1817L48.1166 52.1874Z" fill="#ADB6DF"/>
<path d="M43.4584 80.1267C42.9982 82.4682 42.5427 82.0613 42.6301 84.433C42.6484 84.8829 60.8436 87.539 61.0019 86.325C62.0686 78.2556 60.8278 69.9873 57.4423 62.5722C56.6596 60.8613 53.403 49.6156 48.1153 52.1887C46.0045 53.2117 44.9846 58.11 44.1879 61.9602C42.9809 67.792 44.6349 74.1015 43.4522 80.1274L43.4584 80.1267Z" fill="#ADB6DF"/>
<path d="M82.8189 55.8969C83.0108 59.6121 83.1958 63.3223 83.3877 67.0375C83.4084 67.406 84.031 67.3282 84.0103 66.9598C83.8184 63.2446 83.6335 59.5344 83.4416 55.8192C83.4209 55.4508 82.7982 55.5285 82.8189 55.8969Z" fill="#8F9CC1"/>
<path d="M79.7173 61.129C80.3714 63.6329 81.2611 66.0494 82.4074 68.3932C82.5691 68.7267 83.1546 68.5029 82.9859 68.1645C81.8585 65.8705 80.9751 63.5054 80.3337 61.0521C80.239 60.6987 79.6157 60.7707 79.7111 61.1298L79.7173 61.129Z" fill="#8F9CC1"/>
<path d="M55.057 85.5589C54.7224 84.7021 54.3816 83.8461 54.047 82.9893C53.9087 82.6413 53.3302 82.8701 53.4685 83.218C53.8031 84.0748 54.1439 84.9308 54.4785 85.7876C54.6168 86.1356 55.1953 85.9068 55.057 85.5589Z" fill="#8F9CC1"/>
<path d="M51.5653 62.7021C51.055 59.9311 50.6387 57.154 50.3089 54.3604C50.2633 53.9951 49.6407 54.0728 49.6863 54.4381C50.0098 57.2325 50.433 60.0145 50.9426 62.7799C51.0069 63.1429 51.6296 63.0651 51.5653 62.7021Z" fill="#8F9CC1"/>
<path d="M54.4743 51.1506C56.6829 52.1271 58.9483 53.1022 61.4359 53.325C63.8467 53.54 66.3739 53.2187 68.7196 52.6592C73.3681 51.5514 77.5646 49.2536 80.9308 46.0798C81.2136 45.8126 80.7209 45.4625 80.4381 45.7297C77.0836 48.8963 72.8041 51.187 68.1442 52.2035C66.0016 52.6681 63.7158 52.9477 61.5349 52.7504C59.1047 52.532 56.8975 51.5669 54.7298 50.6143C54.3687 50.4565 54.1186 50.9863 54.4798 51.1441L54.4743 51.1506Z" fill="#8F9CC1"/>
<path d="M60.0701 66.2964C63.3811 68.7585 66.6508 71.2952 70.0334 73.673C72.7444 75.5838 75.6815 77.2287 79.1451 77.6717C79.5433 77.7206 79.643 77.1516 79.2448 77.1028C75.5375 76.6322 72.4783 74.7185 69.6269 72.6454C66.5466 70.4097 63.5213 68.1091 60.4685 65.8409C60.1548 65.6076 59.7696 66.0673 60.077 66.3014L60.0701 66.2964Z" fill="#8F9CC1"/>
<path d="M67.6627 99.8224C72.4417 105.382 79.5598 108.911 87.3077 109.532C87.7099 109.563 87.8034 108.995 87.4074 108.963C79.8187 108.351 72.8519 104.92 68.1688 99.4694C67.9242 99.1811 67.4181 99.5341 67.669 99.8216L67.6627 99.8224Z" fill="#8F9CC1"/>
<path d="M67.5484 114.655C69.7737 116.017 72.9091 115.452 75.453 115.366C79.1742 115.238 82.8891 115.111 86.6102 114.982C87.0129 114.967 86.9417 114.396 86.5389 114.412C83.4219 114.517 80.3057 114.627 77.1949 114.732C75.6897 114.78 74.179 114.836 72.6738 114.884C71.0302 114.939 69.3633 115.06 67.9461 114.193C67.6173 113.991 67.2252 114.446 67.5547 114.654L67.5484 114.655Z" fill="#8F9CC1"/>
<path d="M58.1398 73.1509C57.2856 72.5387 54.232 67.9344 53.7755 66.861C52.9972 65.0335 50.9564 63.9317 48.9125 63.3637C43.4171 61.841 36.9648 63.4929 33.0061 67.4421C34.6819 68.4561 36.8564 67.2339 38.6541 66.3371C40.4525 65.4459 43.3686 65.3021 43.7848 67.1168C42.2869 67.8314 40.756 68.637 39.7833 69.912C38.8105 71.1871 38.5764 73.0598 39.6851 74.191C40.1521 74.3356 40.7061 74.2142 41.0579 73.8921C40.7458 75.647 41.7439 75.8412 42.0865 76.8129C42.7668 76.7918 43.449 76.5327 43.9513 76.099C43.881 78.1194 44.6371 80.1235 46.9834 78.2016C47.924 77.4291 49.5217 81.363 52.3935 80.6103C62.0395 89.2439 71.1566 98.0478 83.6512 102.755C93.7699 106.564 98.6527 103.989 100.102 101.571C102.076 98.2808 107.569 79.624 108.484 74.901C108.596 74.3305 104.211 72.4315 103.216 72.2658C98.3119 71.4752 92.9641 64.6007 88.0113 64.2335C87.5147 70.6897 88.0402 77.1285 86.5295 85.2881C76.2862 82.4567 66.4336 79.1591 58.1328 73.146L58.1398 73.1509Z" fill="#BF7855"/>
<path d="M104.999 46.8784C107.326 50.8835 109.114 56.1907 109.237 60.7204C109.377 65.8449 109.492 70.9668 108.145 78.5611C107.759 80.7369 86.7314 76.6198 86.6369 75.762C85.616 66.672 84.2873 59.3712 86.9069 50.2674C88.0526 46.275 90.9366 40.4541 95.3931 40.9993C100.176 41.5789 102.832 43.1489 104.999 46.8784Z" fill="#ADB6DF"/>
<path d="M41.7985 72.8378C42.1781 71.573 43.3858 70.4078 44.806 70.1841C45.203 70.1229 45.1318 69.5521 44.7347 69.6133C43.0109 69.8864 41.637 71.2405 41.1753 72.7591C41.0686 73.1202 41.6841 73.1883 41.7922 72.8386L41.7985 72.8378Z" fill="#9B5A43"/>
<path d="M44.1962 74.7756C44.5289 73.9456 44.6398 72.2506 45.8157 72.0459C46.212 71.979 46.1408 71.4082 45.7444 71.475C44.1839 71.7394 44.0682 73.4466 43.6182 74.5521C43.4782 74.9 44.05 75.1243 44.1892 74.7706L44.1962 74.7756Z" fill="#9B5A43"/>
<path d="M46.7951 77.3556C46.7767 76.6506 47.0591 75.1139 48.0596 75.0238C48.4595 74.9855 48.3882 74.4147 47.9883 74.453C46.5879 74.5814 46.1452 76.4048 46.1725 77.4333C46.1807 77.8033 46.8033 77.7255 46.7951 77.3556Z" fill="#9B5A43"/>
<path d="M88.0423 86.9192C90.0386 87.5627 91.6737 88.8079 92.7014 90.5057C92.8929 90.8238 93.4783 90.6 93.2799 90.277C92.1722 88.4442 90.4529 87.082 88.2916 86.3837C87.916 86.2625 87.6598 86.793 88.0416 86.9135L88.0423 86.9192Z" fill="#AA684B"/>
<path d="M86.444 75.6868C84.881 75.0704 85.9516 72.9077 86.1099 71.8967C86.2297 71.1339 86.2594 70.3591 86.2387 69.5849C86.193 67.6486 85.7909 65.7452 85.5017 63.8334C84.8566 59.5777 85.211 55.3248 86.6676 51.1893C86.7944 50.8372 86.2164 50.6138 86.0965 50.9707C84.4665 55.5916 84.2754 60.1894 85.0426 64.9168C85.4354 67.3548 85.9108 69.8461 85.4096 72.3145C85.1225 73.7127 84.378 75.4984 86.1939 76.2166C86.5599 76.3622 86.8161 75.8317 86.444 75.6868Z" fill="#8F9CC1"/>
<path d="M88.4369 48.1968C89.2408 46.7341 90.2576 45.4072 91.4867 44.2102C91.7688 43.9373 91.2769 43.593 90.9941 43.8601C89.7312 45.0903 88.6889 46.4668 87.8651 47.9725C87.6795 48.3087 88.2568 48.5265 88.4362 48.1911L88.4369 48.1968Z" fill="#8F9CC1"/>
<path d="M56.8846 45.4936C55.8584 46.1376 55.0198 46.967 53.918 47.5625C56.5104 50.1954 64.3286 51.3296 68.1188 50.3868C73.7913 48.9715 81.6359 44.1371 82.0084 38.7631L77.0379 38.1024C74.147 35.0546 65.0714 28.7612 62.217 26.0567C60.6033 30.9596 55.9692 35.1209 50.4812 35.8872C51.8956 38.3019 57.9405 44.8342 56.8846 45.4936Z" fill="#AA684B"/>
<path d="M41.5351 36.6301C43.058 41.8783 52.5015 46.4234 56.3551 47.0149C57.3454 47.169 61.4344 47.5274 64.4303 46.2303C69.273 44.1337 68.5804 39.9417 69.0552 35.782C69.5299 31.6222 66.9232 30.3436 64.8501 26.6681C63.1902 23.7246 61.3995 19.2785 58.3914 17.4568C56.8615 16.5346 55.0649 15.8519 53.2286 16.0348C51.9828 16.1594 50.8211 16.6745 49.685 17.1856C48.0882 17.9024 46.4832 18.6162 44.8864 19.333C28.4305 26.6924 38.6313 26.6196 41.5327 36.6248L41.5351 36.6301Z" fill="#BF7855"/>
<path d="M33.8886 29.0514C34.2156 30.2806 32.5174 31.2385 32.3094 32.4974C32.1047 33.7487 33.3966 34.705 34.5457 35.3819C35.4901 35.942 35.9752 38.0192 36.4955 38.9388C37.4785 40.6827 39.3949 40.5547 40.8557 39.9743C43.4712 38.9378 44.3736 35.9727 43.1255 35.1111C44.295 35.0738 45.5246 35.0183 46.5435 34.4611C47.5623 33.9039 48.2481 32.6698 47.719 31.7162C47.1021 30.6171 45.1069 30.0837 45.3941 28.8926C45.5055 28.4351 45.9204 28.0855 46.4069 27.9506C52.7881 26.1855 46.6452 23.6056 50.7208 21.6455C52.0302 20.7517 54.4025 20.8385 55.5369 22.1524C58.3642 25.4406 59.2082 25.6791 62.2475 26.0074C62.841 25.4354 64.2079 27.6545 64.7993 28.2079C65.3908 28.7613 66.2652 28.144 66.6359 28.8432C67.4679 30.4235 70.782 31.6149 73.1593 29.8692C75.5705 26.3979 71.2714 26.937 71.6192 25.6838C71.9484 24.4944 73.3085 23.3239 72.6369 22.2845C72.1523 21.5316 70.9254 21.5485 70.2215 20.9595C68.6706 19.6647 70.5942 16.5788 68.8042 15.5685C67.8744 15.0399 66.6097 15.5845 65.5596 15.2859C63.847 14.8002 63.77 12.6262 62.8618 11.208C61.5578 9.16956 57.8921 8.97044 56.2509 10.8547C56.0111 10.0525 54.6845 9.97234 53.9907 10.5351C53.3026 11.0954 53.0983 11.9905 52.9322 12.8201C51.818 11.0295 48.7045 10.7188 47.1204 12.2363C45.9732 13.3328 45.5486 15.1482 44.0173 15.6947C41.962 16.4288 40.3959 15.1902 38.3476 16.4151C37.0788 17.1737 35.3039 19.3184 34.229 20.4231C30.7921 23.9608 32.875 25.1896 33.9001 29.0467L33.8886 29.0514Z" fill="#8E401F"/>
<path d="M66.2361 25.2563C65.7434 24.8128 62.4203 20.7325 60.2706 23.373C58.2927 25.8062 62.0686 28.8906 62.0686 28.8906C62.5949 30.0015 65.5394 31.5366 66.7861 31.0868C69.1789 30.222 68.2046 27.0251 66.2419 25.254L66.2361 25.2563Z" fill="#BF7855"/>
<path d="M49.0799 36.4493C49.8396 37.5904 51.4297 37.6322 51.7989 39.0567C51.9835 39.769 51.8259 40.6764 52.2431 41.313C53.2059 42.7902 55.0463 41.0999 56.2457 40.9192C56.6428 40.8581 56.5657 40.2896 56.1687 40.3508C55.4998 40.4473 54.9456 40.8221 54.3332 41.0707C53.7092 41.3239 53.0375 41.5778 52.68 40.7733C52.5635 40.5207 52.6137 40.0942 52.5713 39.8241C52.4858 39.1778 52.3839 38.407 51.9801 37.8587C51.3849 37.0444 50.1571 36.9555 49.5772 36.085C49.3722 35.7746 48.8774 36.1442 49.0881 36.4522L49.0799 36.4493Z" fill="#9B5A43"/>
<path d="M57.0569 43.6888C57.0085 43.0337 56.9555 42.3243 57.621 41.923C57.9963 41.6957 58.3457 41.8288 58.7134 41.6296C59.4868 41.2095 59.1124 40.2494 60.2195 39.9875C60.6102 39.8977 60.5306 39.324 60.1424 39.4191C59.6346 39.5377 59.1903 39.7492 58.8778 40.1572C58.7415 40.3375 58.7103 40.5375 58.5937 40.716C58.1817 41.3393 58.0825 41.0797 57.5662 41.2393C56.404 41.6047 56.3672 42.8629 56.4391 43.7771C56.4659 44.1473 57.0894 44.0566 57.0593 43.694L57.0569 43.6888Z" fill="#9B5A43"/>
<path d="M58.4995 43.6334C59.1838 43.2433 59.7791 42.7643 60.31 42.2052C60.5771 41.9219 60.0736 41.5889 59.8123 41.8699C59.3203 42.3944 58.7509 42.8254 58.1162 43.1892C57.7741 43.3843 58.1631 43.8262 58.5053 43.6311L58.4995 43.6334Z" fill="#9B5A43"/>
<path d="M50.9391 35.1092C50.7237 33.2274 51.4238 31.2286 52.9839 29.7054C53.2609 29.4311 52.2488 28.8165 51.9718 29.0908C50.2685 30.7551 49.6273 33.0673 50.3272 35.2309C50.4393 35.5824 51.0554 35.465 50.9391 35.1092Z" fill="#8E401F"/>
<path d="M48.3492 37.2689C47.1338 36.8983 45.73 37.1176 44.5356 37.962C44.321 38.1115 44.0383 37.3691 44.2529 37.2196C45.5578 36.2979 47.1612 36.1554 48.5038 36.8799C48.7221 36.9966 48.5699 37.3888 48.3492 37.2689Z" fill="#8E401F"/>
<path d="M53.9596 33.2003C54.4618 33.5899 54.6468 34.1396 54.3797 34.4229C54.115 34.7115 53.4928 34.6267 52.993 34.2423C52.4908 33.8526 52.3058 33.3029 52.5729 33.0196C52.8376 32.731 53.4598 32.8158 53.9596 33.2003Z" fill="#5E443B"/>
<path d="M48.099 38.502C48.6012 38.8916 48.7862 39.4413 48.5191 39.7246C48.2544 40.0132 47.6322 39.9284 47.1325 39.544C46.6303 39.1543 46.4453 38.6046 46.7124 38.3213C46.9771 38.0327 47.5993 38.1175 48.099 38.502Z" fill="#5E443B"/>
<path d="M61.9416 25.3747C62.5498 24.7156 63.0518 24.5993 63.4442 25.0335C63.6332 25.1755 63.8039 25.3374 63.9515 25.5086C64.1997 25.764 64.4238 26.0416 64.6364 26.324C65.0576 26.8652 66.2055 28.0299 65.7489 28.765C65.5465 29.0845 66.0466 29.4251 66.2466 29.1003C66.6864 28.4032 66.4145 27.8139 65.9958 27.1592C65.3469 26.1543 64.5041 24.8033 63.336 24.2341C62.1032 23.6286 60.2942 24.7626 61.5546 25.8442C61.8481 26.0936 62.2211 25.6236 61.9301 25.3794L61.9416 25.3747Z" fill="#9B5A43"/>
<path d="M37.2121 30.4267C36.4316 31.337 37.1158 32.6711 38.2175 32.9924C39.6903 33.4193 40.9529 32.0822 41.246 30.8887C41.3393 30.526 40.7153 30.4669 40.6277 30.8273C40.4188 31.668 39.5428 32.6982 38.48 32.4611C37.7235 32.2933 37.1825 31.3884 37.7122 30.7673C37.9662 30.4705 37.4628 30.1376 37.2145 30.432L37.2121 30.4267Z" fill="#A55235"/>
<path d="M36.1094 23.1757C36.1702 24.363 36.4929 26.1625 38.1736 26.1926C39.1567 26.2121 39.6935 25.4133 40.3764 24.8862C41.7008 23.8615 43.3014 23.4055 45.0034 23.452C45.4065 23.4633 45.4865 22.8936 45.0835 22.8822C43.6949 22.846 42.3742 23.0759 41.1367 23.7093C40.5659 24.0034 40.1305 24.4425 39.5965 24.7717C39.0591 25.1085 38.2756 25.5514 37.5462 25.3976C36.7781 25.2345 36.7529 23.7079 36.7214 23.0897C36.7004 22.7171 36.0769 22.8078 36.1012 23.1727L36.1094 23.1757Z" fill="#A55235"/>
<path d="M42.9232 18.7174C44.3981 20.3679 47.0564 20.0637 48.1899 18.1792C48.3875 17.8492 47.8015 17.6497 47.6073 17.9721C46.6939 19.4861 44.5649 19.6442 43.4123 18.3502C43.1577 18.0662 42.6686 18.4333 42.9232 18.7174Z" fill="#A55235"/>
<path d="M52.2565 16.5423C54.1373 18.7902 57.8531 17.9382 58.5812 15.175C58.6745 14.8123 58.0562 14.7508 57.9629 15.1136C57.351 17.4298 54.2833 18.0063 52.7538 16.1781C52.5108 15.8893 52.0193 16.2513 52.2647 16.5452L52.2565 16.5423Z" fill="#A55235"/>
<path d="M57.9219 20.1723C59.2586 21.2854 61.25 21.3643 62.7719 20.4406C63.1092 20.235 62.7201 19.7931 62.3828 19.9987C61.0866 20.7872 59.4117 20.636 58.2974 19.7076C57.9982 19.4604 57.6251 19.9304 57.9219 20.1723Z" fill="#A55235"/>
<path d="M61.7952 17.2823C62.6197 18.0285 63.7831 18.3497 64.933 18.0767C65.3237 17.9869 65.2442 17.4131 64.8559 17.5082C63.9343 17.7261 62.9699 17.524 62.2925 16.918C62.0106 16.6638 61.5133 17.0281 61.8034 17.2852L61.7952 17.2823Z" fill="#A55235"/>
<path d="M37.6713 36.4606C38.5913 37.3991 40.2314 37.3708 41.1718 36.4206C41.4495 36.1455 40.9437 35.8072 40.6741 36.0853C40.0124 36.7474 38.8013 36.7392 38.1662 36.0911C37.8967 35.8193 37.4052 36.1812 37.677 36.4583L37.6713 36.4606Z" fill="#A55235"/>
<path d="M56.3313 12.4256C57.531 13.8067 59.8675 13.4144 60.506 11.7059C60.6379 11.3525 60.0553 11.1454 59.9234 11.4988C59.4436 12.7931 57.7453 13.1262 56.8229 12.0637C56.5741 11.7773 56.0826 12.1392 56.3338 12.4308L56.3313 12.4256Z" fill="#A55235"/>
<path d="M39.7561 27.5825C41.1365 28.7903 43.3136 28.0379 43.6822 26.339C43.7615 25.9757 43.1408 25.909 43.0639 26.2775C42.7756 27.6003 41.1508 28.0036 40.1373 27.1154C39.8497 26.8636 39.4766 27.3336 39.7618 27.5802L39.7561 27.5825Z" fill="#A55235"/>
<path d="M65.6816 21.2457C66.0907 22.5041 67.6481 23.1589 68.9894 22.7208C69.3713 22.5971 69.1285 22.0709 68.7466 22.1946C67.7039 22.5365 66.5647 21.9556 66.2593 21.0112C66.1444 20.658 65.5691 20.8978 65.6816 21.2457Z" fill="#A55235"/>
<path d="M16.8121 68.0555C21.1556 72.2032 31.0727 82.7043 31.0727 82.7043L42.9553 80.4326C44.1104 80.213 44.616 78.9441 43.8807 78.1199L31.5682 64.3352C30.6863 63.3496 29.2487 62.9262 27.8863 63.2586L17.5611 65.7476C16.438 66.0211 16.0218 67.2962 16.8121 68.0555Z" fill="#312553"/>
<path d="M53.1101 102.511C52.217 99.1557 47.9949 96.0306 45.216 93.7282C42.726 91.6622 40.8242 90.7634 38.1342 88.9195C37.0553 88.1788 33.0637 85.6336 32.5239 84.501C31.9667 83.33 30.4808 82.014 31.2173 80.8728C31.9339 79.7746 35.6351 77.7648 34.3431 77.242C33.2444 76.9502 30.0628 78.1589 29.4764 79.0843C29.0187 76.6835 34.637 74.8343 32.6792 73.183C31.0204 73.4191 28.6496 74.8919 27.3366 75.8732C27.0659 73.7041 32.3347 70.3217 29.7216 69.8537C28.1691 70.233 25.5414 72.4335 24.5219 73.5869C23.043 72.6816 29.4224 67.1026 26.8034 66.8904C25.1169 66.9561 21.7059 69.4167 20.573 71.79C19.4402 74.1633 19.2501 76.5406 19.2365 79.1162C19.2269 81.2682 20.9712 84.4012 22.5617 85.7446C30.6257 94.622 30.8753 102.852 39.6384 108.668C41.8106 110.113 47.5584 112.137 51.8217 110.324C55.2805 108.854 54.0032 105.866 53.1039 102.512L53.1101 102.511Z" fill="#BF7855"/>
<path d="M22.6772 75.22L22.5619 76.8286C22.5383 77.1968 23.1552 77.2763 23.1788 76.9081C23.2191 76.3698 23.2539 75.8379 23.2942 75.2995C23.3178 74.9314 22.7008 74.8519 22.6772 75.22Z" fill="#9B5A43"/>
<path d="M26.1096 76.681C25.8535 77.0608 25.544 77.4183 25.3212 77.8113C25.0983 78.2043 25.0555 78.6213 25.0529 79.0564C25.055 79.4272 25.6769 79.3437 25.6756 78.9787C25.6769 78.1785 26.1651 77.6828 26.5961 77.0319C26.8095 76.7154 26.3168 76.3653 26.1034 76.6818L26.1096 76.681Z" fill="#9B5A43"/>
<path d="M28.1198 79.4666C28.1113 79.8039 28.0973 80.1477 28.0888 80.4849C28.0777 80.8516 28.6946 80.9311 28.7058 80.5645C28.7143 80.2272 28.7283 79.8834 28.7367 79.5461C28.7479 79.1795 28.1309 79.1 28.1198 79.4666Z" fill="#9B5A43"/>
<path d="M44.0999 93.5487C46.856 95.3148 51.2498 97.2822 51.0379 100.903C51.0143 101.271 51.6375 101.35 51.6548 100.982C51.8844 97.0465 47.4952 95.0147 44.4921 93.0939C44.1626 92.8858 43.7766 93.3398 44.1006 93.5544L44.0999 93.5487Z" fill="#AA684B"/>
<path d="M10.9759 52.8828C10.6332 52.3021 10.123 51.8201 9.48448 51.588C8.58396 51.2616 7.71843 51.619 6.97086 52.1188C6.11894 52.6844 5.33416 53.3595 4.63133 54.1026C3.23655 55.5821 2.17219 57.3662 1.53274 59.3014C1.22885 60.2219 1.01751 61.1818 1.00142 62.157C1.00187 62.192 1.00015 62.2293 1.00281 62.2665C0.959771 62.501 0.918948 62.7377 0.889056 62.9722C0.771148 63.8685 0.765265 64.7846 0.967222 65.6721C1.02533 65.9328 1.10541 66.198 1.20518 66.4609C1.32633 66.8532 1.48892 67.2301 1.70583 67.5697C2.21782 68.3651 3.05188 68.8076 3.99139 68.7526C4.9769 68.6954 5.82488 68.1649 6.52888 67.5138C7.13107 66.9571 7.67539 66.3302 8.17993 65.6771C8.49539 65.322 8.78871 64.9494 9.06456 64.5811C9.24559 64.34 9.41996 64.0924 9.59216 63.8469C10.5551 64.6027 11.7472 65.1043 12.8556 65.5752C12.8842 65.5862 12.9056 65.5467 12.8791 65.5336C11.7663 65.0539 10.598 64.5238 9.67616 63.7307C10.5521 62.4661 11.3349 61.1225 11.8336 59.6673C12.138 58.7863 12.3191 57.8615 12.3357 56.9257C12.3475 56.128 12.1994 55.1638 11.572 54.6007C11.5361 54.1931 11.4543 53.7921 11.2895 53.413C11.206 53.2224 11.1007 53.0449 10.9825 52.885L10.9759 52.8828ZM8.04319 65.2651C7.18152 66.2712 6.03972 67.308 4.71662 67.7027C5.4583 67.2577 6.15515 66.7338 6.7898 66.1441C7.50245 65.4844 8.13743 64.7479 8.69494 63.9523C8.76845 63.8734 8.83974 63.7923 8.90227 63.7112C8.97561 63.6191 9.04457 63.5271 9.11132 63.4328C9.15571 63.4766 9.20226 63.5183 9.25103 63.5621C8.97397 64.007 8.67705 64.441 8.36897 64.8596C8.26111 64.9955 8.15326 65.1314 8.04097 65.2629L8.04319 65.2651ZM5.11739 55.4437C5.76552 54.8803 6.51714 54.3542 7.33079 54.0538C8.06372 53.7819 8.95257 53.7072 9.55854 54.3097C9.58518 54.336 9.6031 54.3667 9.62974 54.393C9.35942 54.507 9.10276 54.6604 8.87917 54.8292C8.8162 54.8753 8.75989 54.9279 8.69914 54.9761C8.33433 55.0704 7.98568 55.2283 7.65928 55.4124C6.8997 55.3118 6.12404 55.4982 5.44666 55.8293C4.82586 56.1296 4.26578 56.5505 3.76573 57.0393C3.90742 56.807 4.0535 56.5747 4.20623 56.3489C4.49145 56.0289 4.79222 55.7242 5.11739 55.4437ZM10.8484 55.9508C10.7342 55.9377 10.6181 55.9355 10.5042 55.9443C10.4959 55.8107 10.481 55.6748 10.4596 55.5411C10.6123 55.6572 10.739 55.7953 10.8484 55.9508ZM9.67721 62.6065C9.92231 62.2339 10.1608 61.8547 10.3859 61.4668C10.0811 62.1396 9.72998 62.7928 9.34135 63.4262C9.29918 63.3846 9.25701 63.3429 9.21484 63.3013C9.37412 63.0734 9.52458 62.841 9.67504 62.6087L9.67721 62.6065ZM8.40643 62.1181C8.40643 62.1181 8.39511 62.0896 8.39056 62.0765C8.44321 62.0808 8.49553 62.0589 8.52982 61.9975C9.00249 61.0792 9.48171 60.1587 9.85295 59.1922C10.1966 58.2936 10.4824 57.3293 10.5138 56.3563C10.6999 56.3366 10.8931 56.3628 11.0563 56.4461C11.0046 56.6893 10.9463 56.9304 10.8813 57.1649C10.3786 58.9927 9.55043 60.7372 8.52079 62.3219C8.48267 62.254 8.44677 62.1882 8.41297 62.1159L8.40643 62.1181ZM8.27308 61.8004C8.01876 61.1035 7.99619 60.3628 8.19522 59.6418C8.42987 58.7915 8.88624 57.9696 9.36785 57.2375C9.57207 56.9241 9.83976 56.6041 10.1862 56.4484C10.1789 56.558 10.1693 56.6654 10.1575 56.7706C9.9327 58.5698 9.09449 60.2136 8.27524 61.7982L8.27308 61.8004ZM9.06846 62.1311C9.63335 61.2259 10.1253 60.2703 10.5335 59.2841C10.2498 60.2418 9.88252 61.1733 9.42261 62.0609C9.33274 62.2319 9.23848 62.4028 9.14423 62.5738C9.069 62.6899 8.99593 62.8039 8.92286 62.9179C8.91854 62.9222 8.91421 62.9266 8.9121 62.9332C8.84524 62.8456 8.78276 62.7579 8.72022 62.6659C8.8385 62.4884 8.95462 62.313 9.06846 62.1311ZM8.79587 63.0998C8.62805 63.3453 8.44696 63.582 8.23264 63.7902C8.04433 63.9765 7.81636 64.1453 7.55875 64.2243C7.92132 63.7815 8.26834 63.3234 8.59545 62.85C8.66009 62.9355 8.7269 63.0187 8.79804 63.0976L8.79587 63.0998ZM11.3419 57.3598C11.3469 57.408 11.354 57.4541 11.359 57.5023C11.3644 57.5768 11.3653 57.6513 11.3685 57.728C11.3439 57.8639 11.3127 57.9975 11.2858 58.1225C11.1948 58.552 11.0665 58.9706 10.9073 59.3761C10.8881 59.4221 10.8668 59.4659 10.8498 59.5097C11.0622 58.8062 11.2262 58.0852 11.3419 57.3598ZM10.1873 56.0167C10.1873 56.0167 10.1633 56.0233 10.1524 56.0255C9.65497 56.2053 9.3075 56.6283 9.03688 57.0623C8.54933 57.8447 8.09369 58.7236 7.87724 59.6265C7.66285 60.5185 7.77514 61.4214 8.20636 62.2409C8.26024 62.3417 8.3185 62.4425 8.37888 62.5367C7.98314 63.1284 7.55872 63.7049 7.09446 64.2507C6.82847 64.1872 6.60036 64.0009 6.44394 63.7643C6.21372 63.4115 6.09002 62.9908 6.03412 62.5591C7.07714 61.1651 7.84129 59.5564 8.24045 57.8558C8.35067 57.389 8.4367 56.9156 8.48544 56.44C8.50873 56.2034 8.48192 55.9908 8.39208 55.8199C8.5735 55.6095 8.76824 55.4122 8.98079 55.2368C9.35469 55.1688 9.73626 55.1863 10.0954 55.3374C10.1486 55.5587 10.1778 55.7866 10.1851 56.0145L10.1873 56.0167ZM1.49503 63.5747C1.48593 63.5484 1.48121 63.5221 1.4765 63.4958C1.619 61.9486 2.07094 60.4342 2.71275 59.0294C2.72768 58.9965 2.74476 58.9614 2.75969 58.9286C3.52652 57.7034 4.59446 56.5461 5.95091 56.0154C6.302 55.8773 6.67119 55.783 7.05003 55.7588C7.07633 55.7588 7.10479 55.7566 7.13325 55.7544C6.47491 56.2038 5.87466 56.7408 5.36302 57.3524C4.23172 58.6982 3.48156 60.3726 3.26278 62.1258C3.15525 62.9761 3.11901 63.9184 3.36852 64.7533C3.20762 64.8542 3.03762 64.9287 2.85586 64.9397C2.13329 64.9924 1.67128 64.1642 1.49941 63.5747L1.49503 63.5747ZM7.89689 55.8288C7.54542 56.2825 7.24495 56.7822 6.97738 57.2841C6.12951 58.8577 5.42025 60.6461 5.61671 62.4803C5.6191 62.4956 5.62148 62.511 5.62387 62.5263C5.40822 62.8025 5.18591 63.0721 4.95029 63.3285C4.63898 63.6661 4.30771 63.9839 3.96084 64.282C3.8633 64.3675 3.75711 64.4618 3.64648 64.5516C3.57955 64.2865 3.54325 64.0169 3.52709 63.7803C3.47278 62.9563 3.54114 62.1279 3.72164 61.328C4.08281 59.7413 4.87709 58.2619 5.99968 57.0936C6.49285 56.5807 7.05471 56.127 7.67034 55.7652C7.75157 55.7762 7.83075 55.7981 7.89689 55.8288ZM8.13315 56.1399C8.1598 56.3393 8.11004 56.5628 8.08403 56.7579C8.04981 56.9968 8.00899 57.2334 7.9594 57.4701C7.87065 57.9019 7.75987 58.3248 7.62491 58.7412C7.24962 59.9072 6.69607 61.014 5.99436 62.0178C5.98908 61.7746 5.99922 61.5379 6.01824 61.31C6.09076 60.4641 6.33007 59.6356 6.64889 58.8554C6.98042 58.0401 7.3889 57.2445 7.87268 56.5103C7.95656 56.3854 8.04267 56.2626 8.13315 56.1399ZM3.7517 64.8979C4.48145 64.3761 5.13019 63.6879 5.69348 63.0018C5.69348 63.0018 5.69564 62.9996 5.6978 62.9975C5.83994 63.6614 6.14675 64.3495 6.77689 64.6123C6.7142 64.6803 6.65378 64.7548 6.59109 64.8227C6.15002 65.2962 5.52802 65.8464 4.83053 65.8027C4.27125 65.7699 3.94187 65.3756 3.75386 64.8957L3.7517 64.8979ZM9.68231 54.908C9.61645 54.8992 9.5507 54.8992 9.48273 54.897C9.60241 54.8291 9.7288 54.7721 9.85746 54.7216C9.9023 54.8005 9.9428 54.8838 9.97677 54.9693C9.88216 54.9408 9.78329 54.9211 9.68231 54.908ZM3.55723 67.8739C3.16485 67.8674 2.76702 67.7776 2.42684 67.5673C2.03139 67.3198 1.78507 66.9078 1.64367 66.474C1.42231 65.7837 1.39502 65.0167 1.42078 64.2848C1.48137 64.3965 1.54852 64.5061 1.62653 64.6091C1.84272 64.8917 2.11754 65.1327 2.46294 65.2356C2.81493 65.3407 3.1688 65.2486 3.47557 65.071C3.61563 65.3997 3.82548 65.7021 4.13044 65.8993C4.46413 66.1162 4.86589 66.1708 5.24401 66.0897C6.02433 65.9252 6.62774 65.2917 7.13333 64.7218C7.13982 64.7152 7.14848 64.7065 7.15497 64.6999C7.35027 64.7196 7.53409 64.6976 7.71308 64.6406C7.28139 65.1623 6.81202 65.6511 6.30487 66.0982C5.66766 66.6594 4.97265 67.1548 4.23057 67.5691C4.04127 67.6766 3.83676 67.7949 3.62737 67.8739C3.60545 67.8739 3.58137 67.8761 3.55945 67.8761L3.55723 67.8739ZM11.1495 55.85C10.9441 55.5476 10.6822 55.2934 10.3667 55.1248C10.3162 54.9495 10.2527 54.7785 10.1696 54.6186C10.5061 54.544 10.8614 54.5658 11.1598 54.7608C11.1833 55.061 11.185 55.3656 11.1692 55.6703C11.1633 55.7294 11.1576 55.793 11.1474 55.8522L11.1495 55.85ZM11.108 54.3116C10.738 54.1626 10.3393 54.1759 9.95487 54.2811C9.84344 54.1365 9.7146 54.0007 9.56196 53.889C8.8585 53.3763 7.95012 53.4664 7.18679 53.7602C6.51068 54.0189 5.88207 54.3938 5.30478 54.841C5.33496 54.8015 5.36514 54.7621 5.39532 54.7226C5.99074 53.9774 6.62315 53.2124 7.45411 52.7214C8.13499 52.3202 8.99831 52.1337 9.76889 52.4097C10.2686 52.5871 10.6174 52.953 10.8466 53.3956C10.9707 53.6827 11.0535 53.9894 11.1036 54.3072L11.108 54.3116ZM2.24632 58.3699C2.9826 56.6385 4.07599 55.0691 5.44027 53.7759C6.11159 53.1402 6.8597 52.5111 7.68711 52.0858C8.07032 51.8885 8.50476 51.7547 8.94375 51.8072C9.12374 51.8291 9.29974 51.8816 9.46941 51.9539C9.40572 51.943 9.34196 51.9277 9.27394 51.9211C7.23755 51.7199 5.81205 53.5413 4.72581 54.9835C4.40686 55.4087 4.09906 55.8493 3.80236 56.3008C3.48285 56.6822 3.18764 57.0789 2.92323 57.4844C2.46103 58.1923 2.06753 58.9594 1.74671 59.755C1.88755 59.2838 2.05259 58.8192 2.24632 58.3699ZM3.44086 68.3736C3.35957 68.3582 3.2804 68.3363 3.20338 68.3123C3.2319 68.3144 3.25826 68.3188 3.28672 68.3166C3.43125 68.3078 3.57113 68.2771 3.70861 68.2311C3.98687 68.2244 4.26257 68.1893 4.52478 68.1279C5.04044 68.0051 5.52003 67.8033 5.97049 67.5512C5.92927 67.5841 5.89027 67.6192 5.84682 67.6499C5.16523 68.1672 4.31735 68.5333 3.43869 68.3758L3.44086 68.3736ZM11.7912 58.4007C11.6839 58.9223 11.5238 59.4307 11.3329 59.926C11.4002 59.7069 11.4631 59.4833 11.515 59.2576C11.5587 59.0713 11.5914 58.8828 11.6196 58.6944C11.7496 58.2254 11.8485 57.7345 11.862 57.2458C11.8725 56.8623 11.769 56.4788 11.483 56.2224C11.483 56.2181 11.4851 56.2115 11.485 56.2071C11.4869 56.1874 11.4888 56.1633 11.4886 56.1413C11.5395 55.8367 11.575 55.5255 11.5841 55.21C11.7028 55.4094 11.7867 55.6307 11.8442 55.8476C12.0585 56.6694 11.9583 57.5788 11.789 58.3985L11.7912 58.4007Z" fill="#263238"/>
<path d="M43.3815 51.3032H33.0125C31.7348 51.3032 30.6955 52.3425 30.6955 53.6202V59.0676C30.6955 60.3493 31.7348 61.3846 33.0125 61.3846H36.603L35.8553 64.4164L39.6924 61.3846H43.3815C44.6632 61.3846 45.6985 60.3452 45.6985 59.0676V53.6202C45.6985 52.3384 44.6591 51.3032 43.3815 51.3032Z" fill="white"/>
<path d="M39.6717 54.314C39.0349 54.314 38.4803 54.6673 38.1969 55.1891C37.9134 54.6673 37.3588 54.314 36.722 54.314C35.7936 54.314 35.0459 55.0658 35.0459 55.9902C35.0459 57.3869 37.6998 58.907 38.1969 59.1C38.7186 58.8905 41.3478 57.6992 41.3478 55.9902C41.3478 55.0617 40.596 54.314 39.6717 54.314Z" fill="#E86688"/>
</svg>
