<svg width="109" height="124" viewBox="0 0 109 124" fill="none" xmlns="http://www.w3.org/2000/svg">
<g id="Group">
<path id="Vector" d="M20.1467 11.6899C16.0871 16.2738 13.8894 22.8846 15.8632 28.6823C17.2361 32.7124 20.3706 35.8411 23.0338 39.17C25.6969 42.4931 28.0537 46.5645 27.4174 50.7772C26.9578 53.8175 25.0076 56.3864 23.1398 58.8315C18.22 65.2597 13.3297 71.9824 11.1968 79.7952C9.06391 87.6021 10.7019 96.3575 16.1107 102.379C29.7801 117.61 47.0966 105.225 49.6007 103.334C57.3074 97.5123 67.5005 96.552 77.0926 95.403C86.6848 94.2541 96.9663 92.3333 103.612 85.3218C110.665 77.8803 111.072 64.4466 103.182 57.9006C100.36 55.5615 96.8308 54.2417 93.7905 52.1972C87.7571 48.1435 84.8583 41.0024 83.5797 33.8496C80.0799 14.2175 70.4995 6.89378 61.5555 3.08168C48.4989 -2.48035 29.5798 1.06073 20.1585 11.7016L20.1467 11.6899Z" fill="#D1E97C"/>
<g id="Group_2">
<g id="Group_3">
<path id="Vector_2" d="M21.6127 64.7388C17.8948 67.8616 12.6392 71.108 10.2883 72.6164C7.39533 74.4724 7.31284 76.3696 7.14787 79.8046C7.06538 81.5604 7.38355 83.5048 8.72692 84.636C9.5518 85.3254 11.3901 88.7604 12.4212 88.454C18.7727 86.5568 26.0022 83.6403 30.6274 81.1185C34.4041 79.0622 40.1901 76.2459 42.376 72.5398C43.9727 69.8236 44.6856 71.0904 44.9272 67.95C45.2218 64.1673 40.6084 49.1605 35.9243 51.1814C32.7956 52.5307 25.8078 61.2213 21.6127 64.7388Z" fill="#61C499"/>
<g id="Group_4">
<path id="Vector_3" d="M19.0187 20.5987L6.3544 22.4801C5.54329 22.6006 4.98343 23.3558 5.10393 24.1669L8.8061 49.0875C8.9266 49.8986 9.68183 50.4585 10.4929 50.338L23.1572 48.4566C23.9683 48.3361 24.5282 47.5809 24.4077 46.7697L20.7055 21.8492C20.585 21.038 19.8298 20.4782 19.0187 20.5987Z" fill="#312553"/>
<path id="Vector_4" d="M17.6182 23.7963L16.2041 24.0084C15.6739 24.085 15.3085 24.5799 15.3851 25.1102C15.4617 25.6405 15.9567 26.0058 16.4869 25.9292L17.901 25.7171C18.4313 25.6405 18.7966 25.1455 18.72 24.6153C18.6434 24.085 18.1485 23.7197 17.6182 23.7963Z" fill="#FAFAFA"/>
</g>
<path id="Vector_5" d="M13.9768 71.7572C12.4921 65.8593 8.92742 53.492 8.02595 46.5631C7.81973 44.9781 7.05377 42.0557 10.86 40.4119C12.0561 39.8934 13.3405 40.1408 14.0475 39.0449C13.694 37.2243 11.6024 38.5912 9.54018 38.603C9.72283 37.3893 15.8328 36.4171 15.3084 35.5451C14.7664 34.131 10.5065 36.2109 8.68585 36.1696C9.40467 35.3565 11.4551 34.3078 12.4626 33.9012C13.4701 33.4947 14.6014 33.1529 13.7883 32.4341C13.5349 32.2102 8.93331 32.6875 7.75491 33.3415C8.83904 31.5503 11.6966 31.7153 12.3683 30.4603C12.0089 29.4822 6.0816 29.6826 4.30811 32.0276C2.53463 34.3667 1.93954 37.3775 1.52121 40.2881C0.431195 47.8181 -0.205144 68.823 0.0599945 73.566C0.666868 84.366 4.31401 90.0164 12.4214 88.4668C16.2511 87.7362 15.5029 77.8141 13.9768 71.7689V71.7572Z" fill="#F49484"/>
<path id="Vector_6" d="M15.4734 73.5304C16.911 75.516 17.5474 77.7844 17.347 80.2296C17.3176 80.6067 17.9068 80.6067 17.9362 80.2296C18.1424 77.702 17.4708 75.2921 15.9801 73.2358C15.7621 72.9295 15.2495 73.2241 15.4734 73.5304Z" fill="#4EA87F"/>
<path id="Vector_7" d="M17.1697 72.7522C18.4541 74.072 19.7327 75.3918 21.0171 76.7116C21.2823 76.9827 21.7006 76.5643 21.4354 76.2933C20.151 74.9735 18.8724 73.6537 17.588 72.3339C17.3228 72.0629 16.9045 72.4812 17.1697 72.7522Z" fill="#4EA87F"/>
</g>
<g id="Group_5">
<path id="Vector_8" d="M74.0867 100.522C73.5447 98.5486 74.234 90.0642 74.9352 87.6544C76.6321 81.7978 79.3483 76.4714 78.5352 70.4321C77.9224 65.8717 77.5983 61.2642 77.5748 56.6626C77.563 54.2587 77.8988 50.7117 75.6127 49.987C71.8124 48.785 65.508 48.4551 65.508 48.4551C64.0645 49.3801 45.9172 49.3683 41.1447 49.5569C41.1447 49.5569 38.0985 50.3287 35.9303 51.1889C32.0887 52.7091 38.3519 64.9997 37.1676 69.5307C36.113 73.5726 34.2039 74.1676 34.0802 77.5909C33.821 85.0973 37.5624 86.0105 38.947 88.1552C38.947 88.1552 37.7273 104.329 36.8671 107.54C35.836 111.399 34.8167 119.995 34.1745 122.482C43.6429 123.737 50.8841 124.008 60.435 123.79C68.4481 123.607 73.3031 124.391 80.727 122.081C79.9492 115.523 76.0664 107.687 74.0926 100.511L74.0867 100.522Z" fill="#61C499"/>
<path id="Vector_9" d="M34.9642 60.0336C35.135 61.6892 36.1131 63.0974 36.7023 64.6234C37.4388 66.5206 38.2519 68.8244 37.592 70.8454C36.6434 73.7501 34.5458 75.989 34.3278 79.1648C34.3043 79.5419 34.8935 79.5419 34.917 79.1648C35.0467 77.2617 35.8656 75.5589 36.7435 73.8974C37.3386 72.772 38.0928 71.6231 38.3226 70.3504C38.6113 68.7655 38.1871 67.157 37.698 65.6545C37.0912 63.8103 35.7537 61.9485 35.5534 60.0277C35.5121 59.6565 34.9229 59.6506 34.9642 60.0277V60.0336Z" fill="#4EA87F"/>
<path id="Vector_10" d="M42.2944 88.349C44.0502 89.0855 46.0711 88.5965 47.3202 87.1648C47.5677 86.8819 47.1552 86.4636 46.9019 86.7464C45.7765 88.0427 44.0266 88.4374 42.4535 87.7775C42.1058 87.6302 41.9526 88.2017 42.2944 88.3431V88.349Z" fill="#4EA87F"/>
<path id="Vector_11" d="M50.6193 84.2851C51.8507 87.0602 55.763 87.8969 58.4556 88.2504C61.9378 88.7159 65.2491 87.5493 67.5057 84.8272C67.7473 84.5385 67.3289 84.1201 67.0874 84.4088C65.0664 86.854 62.1499 88.0265 59.0036 87.726C56.3817 87.4786 52.3103 86.6478 51.1319 83.9846C50.9787 83.637 50.472 83.9375 50.6252 84.2792L50.6193 84.2851Z" fill="#4EA87F"/>
<path id="Vector_12" d="M43.8425 97.6183C45.4628 99.8691 47.9256 101.171 50.4415 102.22C53.6114 103.546 56.958 104.376 60.287 105.201C60.6523 105.29 60.8114 104.724 60.4461 104.636C57.6415 103.94 54.8251 103.245 52.1089 102.249C49.2631 101.201 46.1816 99.8632 44.3551 97.3237C44.1371 97.0173 43.6245 97.3119 43.8484 97.6183H43.8425Z" fill="#4EA87F"/>
<path id="Vector_13" d="M45.6511 110.668C50.8478 111.828 56.1212 112.565 61.4357 112.877C61.8128 112.901 61.8128 112.311 61.4357 112.288C56.1683 111.976 50.9539 111.245 45.8102 110.102C45.439 110.019 45.2858 110.585 45.6511 110.668Z" fill="#4EA87F"/>
</g>
<g id="Group_6">
<path id="Vector_14" d="M33.7802 26.16C34.2457 30.7381 35.4535 33.5544 35.3651 38.1561C35.3239 40.2241 34.3164 43.3528 32.7373 45.0025C36.2843 46.069 40.0728 46.6169 43.6905 45.8451C47.3141 45.0732 50.7432 42.8343 52.3104 39.4818C53.1766 37.6317 53.4417 35.5695 53.6185 33.5368C53.8247 31.1682 53.9248 28.7878 53.9131 26.4075C53.8954 22.2183 53.3887 17.6579 50.4604 14.6589C48.9933 13.1564 48.4571 13.3921 46.5245 12.5613C36.7615 8.36623 33.0319 18.8775 33.7743 26.1659L33.7802 26.16Z" fill="#432E7D"/>
<path id="Vector_15" d="M63.7881 55.1892C62.7982 59.2605 61.0365 63.9918 58.3969 66.4075C55.8752 68.7054 54.8794 69.053 51.468 68.941C45.2637 68.7348 42.6713 63.0667 41.6402 57.9113C40.7858 53.6042 41.0156 49.6507 41.1452 49.5505C41.8817 48.9849 44.0677 49.0203 44.7099 47.7653C45.1046 46.9816 44.4389 34.8206 45.0163 34.8619C49.2408 35.1506 54.6379 30.2131 58.668 28.9404C58.4912 32.6877 59.3102 43.4524 60.8068 46.8992C62.0912 48.3604 64.6896 47.9715 64.6896 47.9715C64.9429 48.4782 64.666 51.5774 63.7822 55.1951L63.7881 55.1892Z" fill="#E58073"/>
<path id="Vector_16" d="M63.7876 55.1885C62.7977 59.2598 61.036 63.9911 58.3964 66.4068C55.8747 68.7047 54.8789 69.0523 51.4675 68.9403C45.2632 68.7341 42.6707 63.066 41.6396 57.9106C42.441 58.4232 43.3012 58.8651 44.132 59.2952C47.0308 60.7976 50.2537 61.9407 53.5709 61.5577C57.601 61.0922 61.095 58.4526 63.6815 55.3181C63.7169 55.271 63.7522 55.2297 63.7876 55.1885Z" fill="#FAFAFA"/>
<path id="Vector_17" d="M38.6599 35.0383C39.3964 37.4835 40.4982 39.8815 42.307 41.6786C44.1159 43.4756 45.0763 44.6776 47.5921 44.2592C49.8134 43.8939 54.4798 40.8596 55.7584 39.0095C57.0311 37.1594 56.6304 36.4288 57.196 34.2547C57.9149 31.4913 58.4157 28.6691 58.7044 25.8291C58.8988 23.8671 58.9872 21.8344 58.3568 19.9666C57.5731 17.6393 55.7171 15.7833 53.5666 14.599C51.416 13.4206 48.9767 12.8668 46.5375 12.5545C40.669 11.8062 39.6438 14.1336 38.6245 19.0003C37.4815 24.4622 37.0278 29.5941 38.6599 35.0383Z" fill="#F49484"/>
<path id="Vector_18" d="M44.5976 16.0549C45.9469 18.4824 48.4628 24.2389 51.0434 25.27C51.9744 25.6412 56.1164 29.6949 56.7881 26.796C57.6778 22.9368 56.6879 34.1787 55.9397 38.0674C55.1914 41.9561 54.7849 44.5191 51.5148 47.4651C56.2873 47.9953 61.1128 48.2369 65.196 43.488C68.3128 39.8585 71.6359 27.0847 63.0866 14.8C61.2012 12.0897 58.32 10.1748 55.1501 9.24382C51.9803 8.307 42.5354 5.03695 35.6065 15.1004C34.5282 16.6677 32.0065 20.1617 33.7858 26.1597C34.2808 27.833 45.3047 17.3689 44.6035 16.0608L44.5976 16.0549Z" fill="#432E7D"/>
<path id="Vector_19" d="M60.7997 26.8365C60.4638 25.664 59.6036 23.861 58.384 23.808C54.9372 23.6725 55.385 27.7321 55.2966 29.2993C55.2966 29.2993 55.0963 33.789 57.6828 33.8774C59.1087 33.9245 60.2635 32.5517 60.5699 31.1553C60.8763 29.7589 61.1944 28.2034 60.7997 26.8306V26.8365Z" fill="#F49484"/>
<path id="Vector_20" d="M42.4468 28.1569C42.3702 29.2469 42.5469 31.5153 41.7574 32.2754C41.3037 32.7173 40.7499 32.8764 40.526 33.5363C40.1253 34.7441 41.8929 34.9916 42.7532 35.0505C43.1303 35.0741 43.1303 34.4849 42.7532 34.4613C42.488 34.4436 42.2288 34.3847 41.9695 34.314C41.5276 34.202 41.0622 33.8544 41.3509 33.2888C41.5453 32.9058 42.1934 32.7998 42.4586 32.458C42.706 32.134 42.6825 31.7392 42.7296 31.3385C42.8592 30.278 42.9535 29.2174 43.0301 28.151C43.0595 27.7739 42.4704 27.7739 42.4409 28.151L42.4468 28.1569Z" fill="#D36D66"/>
<path id="Vector_21" d="M42.3362 35.9588C42.2361 36.1415 42.13 36.3182 42.0299 36.5009C41.9591 36.6305 41.9886 36.8367 42.1359 36.9015C43.3614 37.4554 44.693 37.4141 45.8714 36.766C45.73 36.6541 45.5827 36.5421 45.4413 36.4361C45.2233 37.2492 44.6871 37.8855 43.8976 38.1978C43.55 38.3333 43.7032 38.9048 44.0567 38.7634C45.0407 38.3745 45.7359 37.6145 46.0128 36.5892C46.0776 36.3359 45.8066 36.1356 45.5827 36.2593C44.5988 36.8014 43.4675 36.8544 42.4423 36.3948C42.4776 36.5303 42.513 36.6658 42.5484 36.7955C42.6485 36.6128 42.7546 36.4361 42.8547 36.2534C43.0433 35.9235 42.5307 35.6289 42.348 35.9588H42.3362Z" fill="#D36D66"/>
<path id="Vector_22" d="M38.6885 28.2051C39.3425 27.7573 40.1379 27.7632 40.786 28.2169C41.0983 28.4349 41.3929 27.9223 41.0806 27.7102C40.2734 27.1445 39.2011 27.1386 38.388 27.6984C38.0757 27.9105 38.3703 28.4231 38.6826 28.2051H38.6885Z" fill="#D36D66"/>
<path id="Vector_23" d="M46.1765 28.3334C46.9012 27.4908 48.0148 27.2316 49.04 27.6499C49.3935 27.7913 49.5408 27.2257 49.1991 27.0842C47.9971 26.5952 46.6066 26.937 45.7641 27.9209C45.5166 28.2096 45.9349 28.6279 46.1824 28.3392L46.1765 28.3334Z" fill="#D36D66"/>
<path id="Vector_24" d="M37.8746 25.3167C38.5699 25.14 39.2474 25.1694 39.9309 25.3933C40.2903 25.5112 40.4494 24.9396 40.09 24.8277C39.3122 24.5743 38.5168 24.5508 37.7214 24.7511C37.3561 24.8454 37.5093 25.411 37.8805 25.3167H37.8746Z" fill="#432E7D"/>
<path id="Vector_25" d="M45.5462 24.9709C46.1943 24.7588 46.8483 24.5467 47.4964 24.3405C47.8558 24.2226 47.7026 23.657 47.3373 23.7748C46.6892 23.987 46.0352 24.1991 45.3871 24.4053C45.0277 24.5231 45.1809 25.0888 45.5462 24.9709Z" fill="#432E7D"/>
<path id="Vector_26" d="M57.3484 28.2751C57.26 27.68 57.0538 26.5606 57.6842 26.2719C58.5857 25.8594 59.3104 27.8568 59.3398 28.6051C59.3693 29.318 58.9687 31.4273 57.9199 31.4686C57.5428 31.4862 57.5428 32.0754 57.9199 32.0578C58.8979 32.0165 59.2927 31.1563 59.605 30.3373C60.0528 29.1884 60.041 27.9452 59.3988 26.8669C59.0276 26.2365 58.0495 24.9579 57.2069 25.6119C56.4528 26.1894 56.659 27.6447 56.7768 28.4342C56.8358 28.8054 57.4014 28.6463 57.3425 28.2751H57.3484Z" fill="#D36D66"/>
<path id="Vector_27" d="M48.1744 15.6711C49.5531 17.6331 51.032 19.5185 52.6169 21.3215C52.8703 21.6043 53.2827 21.186 53.0353 20.9031C51.4857 19.1414 50.0362 17.2972 48.687 15.3765C48.469 15.0701 47.9623 15.3647 48.1803 15.6711H48.1744Z" fill="#53409B"/>
<path id="Vector_28" d="M51.3444 13.8459C53.059 16.2498 54.9562 18.5064 57.0361 20.604C57.3012 20.875 57.7196 20.4567 57.4544 20.1857C55.4099 18.1235 53.5421 15.914 51.857 13.5454C51.639 13.239 51.1264 13.5336 51.3503 13.84L51.3444 13.8459Z" fill="#53409B"/>
<path id="Vector_29" d="M54.4843 12.8676C57.6659 15.3658 60.824 18.2057 61.8964 22.2535C61.9907 22.6188 62.5622 22.4656 62.462 22.0944C61.3661 17.9406 58.1668 15.0123 54.9026 12.4434C54.608 12.2136 54.1897 12.626 54.4843 12.8617V12.8676Z" fill="#53409B"/>
<path id="Vector_30" d="M37.7922 20.775C39.0237 18.2473 40.5791 15.9436 42.4763 13.8696C42.7297 13.5927 42.3173 13.1744 42.058 13.4513C40.1313 15.5606 38.5346 17.9056 37.2855 20.4745C37.1205 20.8162 37.6273 21.1108 37.7922 20.7691V20.775Z" fill="#53409B"/>
<path id="Vector_31" d="M36.8507 17.3461C37.6226 15.714 38.6655 14.2704 39.9853 13.039C40.2622 12.7798 39.8439 12.3614 39.567 12.6207C38.2177 13.8875 37.1336 15.3722 36.3381 17.0515C36.1791 17.3932 36.6858 17.6937 36.8448 17.3461H36.8507Z" fill="#53409B"/>
<path id="Vector_32" d="M57.3782 44.9382C58.4505 42.3281 59.0574 39.6119 59.2047 36.7955C59.2224 36.4184 58.6332 36.4184 58.6155 36.7955C58.4741 39.5706 57.8672 42.2161 56.8125 44.785C56.6711 45.1327 57.2368 45.2858 57.3782 44.9441V44.9382Z" fill="#53409B"/>
<path id="Vector_33" d="M61.0776 42.5343C61.4664 40.2188 61.7493 37.8973 61.9319 35.5582C61.9614 35.1811 61.3722 35.1811 61.3427 35.5582C61.1719 37.8443 60.8949 40.1186 60.512 42.3752C60.4471 42.7464 61.0187 42.9055 61.0776 42.5343Z" fill="#53409B"/>
<path id="Vector_34" d="M66.0219 31.5628C66.1633 30.4256 66.0514 29.312 65.7037 28.2279C65.5859 27.8685 65.0203 28.0217 65.1381 28.387C65.474 29.4299 65.5682 30.4846 65.4386 31.5687C65.3915 31.9458 65.9807 31.9399 66.0278 31.5687L66.0219 31.5628Z" fill="#53409B"/>
<path id="Vector_35" d="M37.4809 43.4413C37.6577 41.7798 37.7637 40.1124 37.805 38.4391C37.8167 38.062 37.2276 38.062 37.2158 38.4391C37.1745 40.1124 37.0685 41.7739 36.8917 43.4413C36.8505 43.8184 37.4397 43.8125 37.4809 43.4413Z" fill="#53409B"/>
<path id="Vector_36" d="M40.5806 43.546C40.6042 42.8095 40.6277 42.073 40.6513 41.3365C40.6631 40.9594 40.0739 40.9594 40.0621 41.3365C40.0385 42.073 40.015 42.8095 39.9914 43.546C39.9796 43.9231 40.5688 43.9231 40.5806 43.546Z" fill="#53409B"/>
<path id="Vector_37" d="M42.7298 54.919C44.7095 54.7069 46.595 55.0722 48.3449 56.0385C48.6748 56.2211 48.9753 55.7144 48.6395 55.5317C46.8071 54.5242 44.8097 54.1118 42.7298 54.3357C42.3586 54.3769 42.3527 54.9661 42.7298 54.9249V54.919Z" fill="#D36D66"/>
<path id="Vector_38" d="M51.922 56.0557C53.4244 54.512 55.5573 54.1585 57.6018 53.858C57.973 53.8049 57.814 53.2334 57.4428 53.2923C55.2863 53.6046 53.0827 54.017 51.5036 55.6432C51.2385 55.9143 51.6568 56.3326 51.922 56.0616V56.0557Z" fill="#D36D66"/>
</g>
<g id="Group_7">
<path id="Vector_39" d="M85.8606 96.2283C81.9896 96.682 80.823 96.7233 77.659 94.449C77.2642 94.1603 74.3712 89.6529 74.3771 86.7246C74.3948 81.522 74.2357 77.6804 71.7375 72.9845C68.6266 67.1338 68.6501 48.2205 74.4066 49.6523C81.583 51.4376 83.9752 64.1937 86.3673 71.7825C88.0701 77.1914 92.9545 95.3976 85.8606 96.2283Z" fill="#61C499"/>
<path id="Vector_40" d="M89.79 89.5161C89.9314 83.465 83.786 75.664 81.5176 73.1069C77.8351 68.9531 70.6057 60.7868 71.4836 59.4611C72.7268 57.5874 73.2748 52.2964 73.5045 50.6054C73.9111 47.6123 71.7134 47.5239 71.7134 47.5239C71.46 43.5115 68.0957 45.8919 68.0957 45.8919C68.0368 43.7236 70.4761 35.7577 69.2859 35.1626C67.3356 34.1963 66.4283 42.7573 64.755 46.1393C64.9003 43.9239 65.0437 41.3825 65.1851 38.5151C65.2793 36.5943 66.2515 33.8015 64.1952 34.9917C63.8064 35.7753 63.005 40.8365 62.3687 44.955C61.8856 47.0113 61.7854 47.7125 61.3553 50.1046C61.0371 51.8958 60.1121 53.687 60.2888 54.9007C60.3713 58.2768 62.6397 61.3229 62.6397 61.3229C65.1851 65.795 72.609 90.7651 78.9369 94.2002C83.8332 96.8574 89.6545 95.5082 89.79 89.5043V89.5161Z" fill="#F49484"/>
<path id="Vector_41" d="M61.0258 56.0208C61.7564 54.9073 62.6049 52.9216 63.8186 52.3089C65.1325 51.6431 67.7486 51.3839 69.1626 51.9023C69.469 52.0143 70.1996 52.4621 70.1996 52.8686C70.1996 53.3046 69.5986 53.4755 69.2864 53.5698C68.6736 53.7583 68.0137 53.8172 67.3774 53.8761C65.816 54.0234 65.0618 54.8248 64.3194 56.1917C64.1368 56.5275 64.6494 56.8221 64.8261 56.4863C65.3093 55.5907 65.8395 54.7069 66.9119 54.5007C67.2242 54.4418 67.5659 54.4477 67.8841 54.4123C68.5852 54.3298 69.3629 54.2532 70.0052 53.9292C71.2955 53.2752 70.7181 51.9495 69.5751 51.4251C68.0432 50.718 65.3623 51.0834 63.8422 51.6608C62.2749 52.2559 61.3852 54.4005 60.5191 55.7203C60.3129 56.0385 60.8196 56.3331 61.0258 56.0149V56.0208Z" fill="#D36D66"/>
<path id="Vector_42" d="M67.8133 48.4017C67.4833 49.0616 67.1593 49.7215 66.8293 50.3814C66.6585 50.7173 67.1711 51.0177 67.336 50.676C67.666 50.0161 67.99 49.3562 68.32 48.6963C68.485 48.3605 67.9783 48.06 67.8133 48.4017Z" fill="#D36D66"/>
<path id="Vector_43" d="M69.9514 51.9738C70.3226 51.3315 70.7645 50.7364 71.1357 50.0942C71.3242 49.7643 70.8175 49.4697 70.6289 49.7996C70.2577 50.4418 69.8159 51.0369 69.4447 51.6792C69.2561 52.0091 69.7628 52.3037 69.9514 51.9738Z" fill="#D36D66"/>
<path id="Vector_44" d="M68.9088 53.7865C68.137 54.4523 68.7262 55.7073 69.663 55.7957C71.0417 55.9253 71.6486 54.4994 71.9668 53.4153C72.0728 53.05 71.5072 52.8968 71.4011 53.2562C71.2067 53.9161 70.9946 54.688 70.3524 55.0592C70.0401 55.2418 69.5805 55.3067 69.3095 55.0121C69.0974 54.7764 69.0797 54.4111 69.3213 54.2048C69.61 53.9574 69.1916 53.5391 68.9029 53.7865H68.9088Z" fill="#D36D66"/>
<path id="Vector_45" d="M64.6022 56.5208C65.6097 56.5208 66.523 56.9981 67.0886 57.8347C67.3007 58.147 67.8133 57.8524 67.5953 57.5401C66.9118 56.5326 65.8218 55.9375 64.5963 55.9375C64.2192 55.9375 64.2192 56.5267 64.5963 56.5267L64.6022 56.5208Z" fill="#D36D66"/>
</g>
</g>
</g>
</svg>
