<svg width="167" height="164" viewBox="0 0 167 164" fill="none" xmlns="http://www.w3.org/2000/svg">
<g id="Group 60">
<path id="Vector" d="M52.2895 121.999C59.955 125.408 68.7051 126.566 77.3342 125.42C81.3869 124.883 85.093 123.222 89.0462 122.412C93.5051 121.505 96.8775 123.223 100.883 124.615C104.92 126.017 109.387 126.111 113.775 125.72C121.344 125.047 129.035 122.892 135.563 118.498C142.095 114.1 147.351 107.279 148.876 99.677C150.068 93.7397 151.565 84.0337 150.053 78.3934C144.516 57.7509 121.51 51.8521 112.952 44.8922C103.561 37.2526 98.8727 24.6648 88.8625 17.8473C81.0708 12.5367 70.4274 11.4447 61.0438 14.9851C51.6561 18.5303 43.7429 26.6226 40.3587 36.1529C38.2294 42.1437 37.8318 48.4809 36.1753 54.5844C33.4778 64.5487 27.4292 73.943 26.9279 84.0874C26.6914 88.8322 27.7123 93.4698 29.3619 97.7609C33.5179 108.546 41.844 117.343 52.2938 121.994L52.2895 121.999Z" fill="#E97C7C"/>
<g id="crane">
<path id="Vector_2" d="M110.747 88.8481C110.747 88.8481 117.326 91.5911 125.735 89.8243C134.145 88.0523 137.121 82.9006 137.89 76.8894C138.66 70.8782 135.105 41.9258 135.105 41.9258L84.9463 48.7593L91.9231 63.2913C91.9231 63.2913 104.853 81.9243 105.012 82.3965C105.166 82.8687 110.747 88.8481 110.747 88.8481Z" fill="#CDB3B7"/>
<path id="Vector_3" d="M39.9769 34.2397C39.9769 34.2397 33.2283 51.8647 37.3135 79.0557C41.3988 106.247 72.9456 85.2844 72.9456 85.2844L73.9325 53.2813C73.9325 53.2813 60.8118 40.3092 59.8038 40.0121C58.7957 39.7203 45.9881 36.7227 45.9881 36.7227L39.9769 34.2344V34.2397Z" fill="#CDB3B7"/>
<path id="Vector_4" d="M115.835 114.93C110.959 124.634 100.502 132.348 86.1664 130.979C71.8361 129.611 59.6864 120.936 57.2565 108.325C55.0387 96.8117 57.0018 85.1024 59.1187 78.3484C60.2117 74.8573 61.1667 72.7298 61.1667 72.7298C61.1667 72.7298 64.8063 68.2466 67.1513 71.1753C65.9098 73.3187 64.8859 76.4119 64.1165 79.8393C62.4559 87.2405 62.371 95.5914 63.464 99.8571C64.1908 102.701 69.3744 109.837 75.2105 112.474C81.0466 115.111 90.7929 116.188 99.0271 111.837C107.261 107.486 107.935 100.223 108.365 94.0847C108.545 91.5168 108.269 86.1316 106.566 81.7705C104.2 75.7062 101.271 69.8966 101.271 69.8966C101.271 69.8966 97.8015 65.4294 109.315 72.9526C110.572 74.7778 111.803 77.2873 112.928 80.2053C117.077 90.9756 119.666 107.285 115.83 114.92L115.835 114.93Z" fill="#E2CCC1"/>
<path id="Vector_5" d="M112.938 80.2175L106.572 81.7773C104.206 75.7131 101.277 69.9035 101.277 69.9035C101.277 69.9035 97.8071 65.4362 109.32 72.9595C110.578 74.7846 111.808 77.2941 112.933 80.2122L112.938 80.2175Z" fill="#CDB3B7"/>
<path id="Vector_6" d="M67.1517 71.1823C65.9102 73.3257 64.8863 76.4189 64.117 79.8462L59.1191 78.3554C60.2121 74.8643 61.1671 72.7368 61.1671 72.7368C61.1671 72.7368 64.8067 68.2536 67.1517 71.1823Z" fill="#CDB3B7"/>
<path id="Vector_7" d="M132.935 73.9979C132.14 75.2765 131.158 76.1891 129.97 76.64C119.369 80.6617 105.469 73.2498 105.469 73.2498C105.469 73.2498 108.8 78.741 110.376 84.2959C110.61 85.1289 110.811 85.9566 110.949 86.7736C111.236 88.4502 110.424 90.1214 108.917 90.9067C105.792 92.5302 103.935 91.4107 99.5316 90.3602C94.12 89.0709 92.6344 86.9806 87.4191 86.8797C82.7502 86.7896 71.3857 95.3262 62.7695 92.3922C62.1381 92.1747 61.5916 91.8139 61.1672 91.3523C60.3554 90.4875 59.9628 89.2726 60.1804 88.0417C61.459 80.8473 64.9766 73.2392 64.9766 73.2392C63.1143 72.767 50.8214 81.3248 43.2185 76.5604C42.9532 76.396 42.6986 76.2156 42.4492 76.0193C34.9365 70.1142 37.0906 38.2013 39.9768 31.4155C40.1996 30.8955 40.4331 30.3756 40.6877 29.861C40.7832 29.67 40.8734 29.479 40.9742 29.288C44.0462 23.2609 49.1979 17.5574 56.2914 14.2892C64.2179 10.6389 79.6995 7.61478 99.5369 9.21706C110.291 10.0872 117.884 12.7771 123.083 16.0878C127.471 18.8838 130.155 22.1202 131.588 25.0807C131.933 25.7916 132.309 26.9217 132.697 28.3754C135.418 38.6576 138.512 65.127 132.935 74.0138V73.9979Z" fill="#E2CCC1"/>
<path id="Vector_8" d="M95.266 62.7402C93.5789 58.9308 90.0135 52.5005 85.1749 52.649C80.1399 52.8029 77.1263 60.045 75.7151 64.0878C75.0094 66.1092 74.6327 68.6028 76.2934 70.2794C77.7895 71.7861 80.2619 71.8127 82.0711 70.9054C83.0261 70.4279 83.8538 69.717 84.5806 68.9424C84.9679 68.5285 85.3393 68.0935 85.7054 67.6584C85.8168 67.5258 85.9283 67.3719 86.0556 67.2446C86.0662 67.2605 86.0768 67.2764 86.0927 67.2923C86.1882 67.4674 86.289 67.6372 86.3898 67.807C87.4722 69.6215 88.9524 71.4041 91.1065 71.8923C93.043 72.3326 95.2554 71.6906 96.2104 69.839C97.367 67.5948 96.1998 64.8571 95.2607 62.7402H95.266Z" fill="#F2ECC7"/>
<path id="Vector_9" d="M78.814 44.792C78.6602 43.7734 78.4161 42.7812 78.0872 41.8262C77.3815 39.7889 76.2621 37.9426 74.7182 36.4782C67.6989 29.8091 54.3077 32.6105 50.0792 40.9773C49.416 42.2931 48.9915 43.7203 48.7846 45.1952C48.0153 50.6387 50.1959 56.7614 54.3236 60.3532C59.1888 64.5817 66.988 64.916 72.3837 61.356C77.4664 57.9975 79.769 50.9942 78.8246 44.7973L78.814 44.792Z" fill="#523263"/>
<path id="Vector_10" d="M121.461 44.532C121.01 41.6299 119.816 38.9135 117.827 36.8496C117.678 36.6957 117.524 36.5419 117.36 36.3933C111.03 30.5148 99.5383 32.1595 94.2274 38.5261C93.6438 39.2265 93.1345 39.9852 92.7153 40.7969C89.6063 46.8081 91.7073 55.2864 96.9598 59.7537C101.825 63.892 109.624 64.2209 115.02 60.7299C120.103 57.4457 122.4 50.591 121.461 44.5267V44.532Z" fill="#523263"/>
<path id="Vector_11" d="M95.1119 64.0563C95.0217 63.8759 94.9262 63.6955 94.8254 63.5151C93.7802 61.6741 92.5758 59.9073 91.4404 58.1141C90.5491 56.7028 89.6047 55.2119 88.0555 54.4479C84.453 52.6759 81.8851 56.7718 80.32 59.345C79.3066 61.0109 77.3011 63.8228 76.7441 66.2581C76.5796 66.9637 76.5425 67.6375 76.6804 68.2424C77.2322 70.6405 80.458 70.8049 82.2884 69.8393C83.4025 69.2504 84.2514 68.2795 84.8775 67.2025C85.3072 66.465 85.4346 65.2394 86.1031 64.9848C86.2781 64.9158 86.4904 64.9105 86.7609 65.0007C86.8458 65.0272 86.9254 65.0696 87.005 65.128C87.838 65.6851 88.3526 67.4784 88.8513 68.1999C89.5835 69.2557 90.512 70.2479 91.8224 70.5025C93.4406 70.8209 94.8731 69.834 95.4939 68.375C96.104 66.9425 95.7645 65.4039 95.1119 64.0563Z" fill="#523263"/>
<path id="Vector_12" d="M108.923 90.9072C105.798 92.5307 103.941 91.4112 99.5373 90.3607C94.1256 89.0715 92.6401 86.9811 87.4247 86.8803C82.7558 86.7901 71.3913 95.3267 62.7751 92.3928C62.1438 92.1752 61.5973 91.8145 61.1729 91.3529C61.4116 89.4641 61.6291 85.9412 63.1518 85.9412C65.1626 85.9412 66.6641 91.6022 66.6641 91.6022C66.6641 91.6022 66.5474 82.742 69.7466 83.4317C72.9406 84.1214 74.0919 90.0583 74.0919 90.0583C74.0919 90.0583 73.296 84.3602 75.2273 82.8958C77.1267 81.458 80.3153 87.2941 80.4214 87.4904C80.3896 87.2729 79.3178 80.0839 81.769 79.5162C84.2573 78.9379 86.7934 85.9253 86.7934 85.9253C86.7934 85.9253 87.7006 78.0094 90.7301 78.524C93.7596 79.0387 94.062 86.5354 94.062 86.5354C94.062 86.5354 95.8659 80.7683 98.7468 81.5853C101.628 82.3971 101.293 89.3739 101.293 89.3739C101.293 89.3739 102.174 84.2275 105.018 84.4132C107.772 84.5989 107.427 89.6392 107.405 89.9575C107.453 89.6286 108.265 84.4397 110.382 84.3018C110.615 85.1348 110.817 85.9624 110.955 86.7795C111.241 88.456 110.43 90.1273 108.923 90.9125V90.9072Z" fill="white"/>
<path id="Vector_13" d="M64.7171 105.105C64.7171 105.105 61.4648 115.44 65.4387 115.514C68.3886 115.074 68.2771 113.238 68.2771 113.238C68.2771 113.238 69.1579 120.326 72.3571 119.042C75.5564 117.764 75.2221 116.867 75.2221 116.867C75.2221 116.867 76.6387 121.727 78.8511 121.345C81.0582 120.963 81.8859 118.156 81.8859 118.156C81.8859 118.156 82.4695 122.114 85.0268 122.178C87.5841 122.242 88.1942 117.907 87.8281 118.156C87.4567 118.406 89.6532 123.266 91.8179 122.178C93.9825 121.09 94.1311 117.318 94.1311 117.318C94.1311 117.318 94.6988 120.475 97.2826 119.695C99.8664 118.915 100.248 114.543 100.248 114.543C100.248 114.543 101.018 117.636 103.06 116.745C105.103 115.854 105.469 110.829 105.469 110.829C105.469 110.829 106.016 114.575 107.931 113.1C109.841 111.625 109.475 104.267 107.931 102.638C103.734 108.394 102.466 110.405 96.0464 112.23C89.6267 114.055 82.2254 113.588 78.4161 112.713C69.7362 110.729 67.4442 103.704 64.7171 105.105Z" fill="white"/>
<path id="Vector_14" d="M45.4415 41.0834C44.529 46.1184 37.5469 69.3514 43.4838 76.6359C43.3936 76.6094 43.3034 76.5829 43.2185 76.551C42.9532 76.3866 42.6986 76.2062 42.4492 76.0099C34.9365 70.1048 37.0906 38.1919 39.9768 31.4061C40.1996 30.8861 40.4331 30.3662 40.6877 29.8516C42.2688 31.7881 46.1737 37.0459 45.4415 41.0781V41.0834Z" fill="#CDB3B7"/>
<path id="Vector_15" d="M132.936 73.9983C135.308 65.5412 124.935 45.6083 125.816 38.5466C126.484 33.1986 130.686 29.7288 132.692 28.3652C135.414 38.6474 138.507 65.1168 132.931 74.0036L132.936 73.9983Z" fill="#CDB3B7"/>
<path id="Vector_16" d="M121.46 44.5311C121.009 41.6289 119.816 38.9125 117.826 36.8486C118.251 38.0901 118.829 39.2786 119.152 40.5572C119.609 42.3558 119.879 44.2764 119.895 46.1334C119.916 49.375 119.301 52.8608 115.693 53.7256C112.048 54.601 108.366 52.8767 104.716 52.829C102.726 52.8024 100.679 53.3118 98.7049 52.9563C97.2458 52.691 95.9566 51.8633 94.9698 50.7757C93.8556 49.5501 93.1871 47.9372 93.0332 46.2978C92.9377 45.3057 92.9643 44.287 93.1234 43.3002C93.2189 42.69 93.3197 42.0375 93.4577 41.3902C93.5373 41.2257 93.6222 41.0665 93.707 40.9074C93.8238 40.7005 93.8078 40.4988 93.723 40.3344C93.8556 39.894 94.0095 39.4696 94.2111 39.077C94.3119 38.8807 94.3066 38.6896 94.2323 38.5252C93.6487 39.2255 93.1393 39.9842 92.7202 40.7959C89.6112 46.8071 91.7122 55.2854 96.9647 59.7527C101.83 63.891 109.629 64.22 115.025 60.7289C120.107 57.4448 122.405 50.59 121.466 44.5258L121.46 44.5311Z" fill="#6F5076"/>
<path id="Vector_17" d="M78.8129 44.791C78.6591 43.7723 78.415 42.7802 78.0861 41.8252C77.6616 41.8995 77.3221 42.2178 77.46 42.7696C78.2505 45.9264 78.3832 49.6191 76.1973 52.2771C75.3219 53.3436 74.0857 54.1871 72.6956 54.3781C71.3692 54.5638 70.0588 54.0969 68.8597 53.5717C66.4032 52.4947 64.021 50.9507 61.2197 51.2903C59.7607 51.4654 58.4449 52.1763 57.1291 52.7759C55.8081 53.3754 54.4021 53.8529 53.1022 52.9403C51.7758 52.0172 50.9269 50.3459 50.2531 48.9293C49.6801 47.7197 49.2186 46.4569 48.7729 45.1942C48.0036 50.6377 50.1842 56.7603 54.3119 60.3522C59.1771 64.5807 66.9762 64.915 72.372 61.3549C77.4547 57.9965 79.7573 50.9932 78.8129 44.7963V44.791Z" fill="#6F5076"/>
<path id="Vector_18" d="M95.4952 68.3796C94.8745 69.8386 93.442 70.8307 91.8238 70.5071C90.5133 70.2471 89.5848 69.2603 88.8527 68.2045C88.3539 67.4829 87.8393 65.6897 87.0063 65.1326C86.9267 65.0424 86.8419 64.9681 86.7411 64.915C86.4917 64.7771 86.2848 64.8248 86.1044 64.9893C85.4359 65.2493 85.3086 66.4696 84.8788 67.207C84.2528 68.2841 83.4039 69.255 82.2897 69.8439C80.4646 70.8095 77.2335 70.6397 76.6817 68.2469C76.5438 67.6421 76.5862 66.9683 76.7454 66.2626C76.878 66.2626 77.016 66.3104 77.1274 66.3953C77.9232 67.0426 78.2469 67.9763 79.2708 68.4114C80.2205 68.8146 81.3347 68.6077 82.0934 67.918C83.0325 67.0691 82.9794 65.7374 83.441 64.6338C83.8707 63.6046 84.6507 62.6655 85.7701 62.3843C88.3911 61.7264 89.6379 64.7028 90.7096 66.4855C91.1765 67.2601 91.8397 67.971 92.8265 67.6792C94.0468 67.3185 93.6595 65.9974 93.8293 65.0636C93.946 64.3951 94.5084 63.976 95.1079 64.0662C95.7605 65.4138 96.1001 66.9524 95.4899 68.3849L95.4952 68.3796Z" fill="#6F5076"/>
<path id="Vector_19" d="M68.4517 77.0064C68.2979 76.6828 67.9583 76.4228 67.5922 76.4069C66.1756 76.3326 65.6398 77.85 65.2153 78.9695C64.7697 80.1526 64.3028 81.601 65.0456 82.7258C65.3374 83.1715 66.1173 83.198 66.4887 82.8532C67.2845 82.0998 67.3004 80.906 67.6983 79.9245C68.0856 78.9536 68.977 78.0835 68.457 77.0064H68.4517Z" fill="#CDB3B7"/>
<path id="Vector_20" d="M75.5986 75.8459C75.3492 74.8378 74.1184 74.615 73.4923 75.4161C73.0254 76.0157 72.9511 76.838 72.7177 77.549C72.4896 78.2493 72.2084 78.9284 71.9802 79.634C71.5982 80.8278 73.1262 81.5865 73.8902 80.6209C74.4367 79.9259 74.8081 79.1619 75.1317 78.3448C75.4341 77.5702 75.8002 76.6736 75.5933 75.8406L75.5986 75.8459Z" fill="#CDB3B7"/>
<path id="Vector_21" d="M79.8373 75.5595C79.7099 75.0926 79.0998 75.0449 78.7655 75.2624C78.3305 75.5436 78.113 76.0636 77.8901 76.5092C77.662 76.9761 77.4179 77.4377 77.3808 77.9629C77.3118 78.9073 78.5056 79.3901 79.0945 78.6261C79.4128 78.207 79.5455 77.7083 79.6887 77.2042C79.8479 76.6365 79.9911 76.1378 79.8373 75.5542V75.5595Z" fill="#CDB3B7"/>
<path id="Vector_22" d="M87.238 76.7251C87.0417 75.3457 86.734 73.3296 85.7471 72.2844C85.2113 71.7167 84.1979 71.8175 83.9273 72.6133C83.4445 74.0193 83.9804 76.0301 84.3942 77.4308C84.9354 79.2718 87.5086 78.5714 87.2433 76.7251H87.238Z" fill="#CDB3B7"/>
<path id="Vector_23" d="M95.6905 74.8048C95.1758 74.009 94.4543 73.0699 93.4409 73.0009C92.7618 72.9532 92.2578 73.5102 92.3374 74.1787C92.4329 74.9321 93.0218 75.5264 93.3826 76.1736C93.7487 76.8315 93.8813 77.5425 94.2155 78.2057C94.7832 79.3463 96.6667 78.959 96.6826 77.6645C96.6932 76.6777 96.221 75.6219 95.6905 74.7995V74.8048Z" fill="#CDB3B7"/>
<path id="Vector_24" d="M103.84 77.9839C103.018 76.6469 102.153 75.241 100.805 74.3762C100.094 73.9252 98.8583 74.4929 99.1342 75.4479C99.5639 76.9334 100.439 78.1802 101.177 79.5225C102.132 81.2575 104.885 79.6764 103.846 77.9839H103.84Z" fill="#CDB3B7"/>
<path id="Vector_25" d="M105.883 78.3438C105.654 77.9883 105.347 77.7973 104.922 77.792C104.508 77.792 104.355 78.2483 104.44 78.5719C104.471 78.6992 104.524 78.8107 104.599 78.9168C104.625 78.9592 104.657 79.0017 104.694 79.0441C104.699 79.0547 104.705 79.06 104.71 79.0653C104.71 79.0653 104.71 79.0706 104.71 79.0759C104.779 79.2829 104.843 79.5322 104.986 79.702C105.31 80.084 105.845 80.0203 106.084 79.5853C106.307 79.182 106.111 78.6939 105.883 78.3438Z" fill="#CDB3B7"/>
<path id="Vector_26" d="M120.091 27.0656C115.905 23.2668 109.931 21.3409 104.344 21.2242C98.131 21.0968 92.2419 23.9194 86.0184 23.3676C82.9147 23.0917 79.9542 21.9988 76.9194 21.3727C74.256 20.821 71.5343 20.5557 68.8178 20.7201C63.3743 21.0544 58.0741 22.4179 53.3362 25.1662C52.0258 25.9302 50.7577 26.7844 49.564 27.7235C48.4445 28.6042 47.1234 29.5804 46.7043 31.0076C46.2798 32.4507 47.203 33.862 48.6567 34.1326C49.495 34.2917 50.1317 34.0954 50.6622 33.7028C50.7365 33.6869 50.8161 33.6551 50.8904 33.602C52.8004 32.2491 54.7051 30.9174 56.8803 30.0155C59.1564 29.0711 61.6076 28.5352 64.0694 28.4185C66.4569 28.3071 68.9133 28.5883 71.2 29.2992C73.6883 30.0738 75.9273 31.4161 78.2564 32.5621C80.5909 33.7134 83.0579 34.5889 85.7001 34.4297C88.4484 34.2652 90.9314 32.9972 93.3454 31.7716C95.8178 30.5142 98.3379 29.4955 101.097 29.0711C103.845 28.6466 106.609 28.7368 109.347 29.2037C110.923 29.4743 112.467 29.9094 113.952 30.4877C115.294 31.0129 116.743 31.6178 118.186 31.0713C119.125 30.7158 119.916 29.8192 119.995 28.8111C120.494 28.3707 120.696 27.6068 120.101 27.0656H120.091Z" fill="#CDB3B7"/>
<path id="Vector_27" d="M99.5373 9.2073C79.6998 7.60502 64.2182 10.6292 56.2917 14.2794C49.1929 17.5476 44.0465 23.2564 40.9746 29.2782C41.224 29.4427 41.5688 29.501 41.8712 29.3578C42.3753 29.2623 42.8209 28.9227 42.9111 28.3869C46.6144 24.7526 51.1029 21.861 55.9363 19.9882C61.7246 17.7386 67.8685 17.4097 74.007 17.7439C80.7238 18.11 87.3504 18.9165 94.0885 18.4867C100.858 18.057 107.559 16.9269 114.319 16.3751C117.226 16.1363 120.16 16.0037 123.083 16.078C117.884 12.7673 110.292 10.0774 99.5373 9.2073Z" fill="#F2ECC7"/>
<path id="Vector_28" d="M133.943 66.9584C133.784 64.1889 133.269 61.4088 132.686 58.703C132.081 55.891 131.285 53.1321 130.383 50.4051C129.539 47.8584 128.653 45.3117 128.155 42.6696C127.184 37.5656 128.059 32.1062 132.548 28.9282C133.184 28.4772 132.5 27.5275 131.831 27.8193C127.942 29.5065 126.154 33.926 125.804 37.9158C125.353 43.1259 127.507 48.1078 129.014 52.9783C129.837 55.6311 130.505 58.3263 131.02 61.0533C131.508 63.6424 131.969 66.3164 131.863 68.9639C131.773 71.2188 131.11 73.4047 129.508 75.0441C128.086 76.4978 126.186 77.3785 124.223 77.8242C117.517 78.6624 111.766 76.0362 106.248 72.4284C103.77 70.8102 105.728 74.5188 106.084 75.3093C106.837 76.9859 107.627 78.6465 108.307 80.3549C108.811 81.623 109.277 82.9122 109.713 84.2068C108.784 84.7002 108.063 85.565 107.569 86.5624C107.553 86.4934 107.537 86.4245 107.521 86.3608C107.23 85.1564 106.704 83.6921 105.314 83.4375C103.77 83.1563 102.47 84.3288 101.669 85.825C101.558 85.0822 101.399 84.3447 101.187 83.6178C100.842 82.4294 100.258 80.843 98.8362 80.6361C97.2975 80.4133 96.2364 81.9731 95.5573 83.1191C95.2761 83.5966 95.0215 84.1007 94.8039 84.6153C94.6076 83.7187 94.3583 82.8326 94.0665 81.9625C93.5253 80.3762 92.7507 78.2805 90.8248 78.0099C89.1058 77.7658 87.9226 79.193 87.3072 80.6149C86.8668 81.6336 86.5803 82.7159 86.3734 83.8088C86.3734 83.8301 86.3628 83.8566 86.3575 83.8831C86.0232 82.9069 85.6041 81.9572 85.185 81.1083C84.5589 79.8562 83.4554 78.9171 81.991 79.3309C80.6434 79.7129 79.8423 80.9598 79.6088 82.2808C79.4656 83.1032 79.5345 83.9521 79.6088 84.7798C79.6141 84.8647 79.6194 84.9495 79.6247 85.0344C79.4337 84.6896 79.2427 84.3818 79.0836 84.1431C78.309 82.9599 77.1099 81.5168 75.5236 81.936C74.0539 82.3233 73.5234 83.9043 73.2899 85.236C73.2103 85.6764 73.1414 86.1698 73.0989 86.6791C72.8761 86.0053 72.6479 85.3315 72.4198 84.6736C71.9317 83.273 70.7963 81.9678 69.1728 82.5886C67.544 83.2146 66.7057 85.0928 66.329 86.6685C66.1221 87.5386 66.0266 88.4406 66.0107 89.3478C65.9895 89.2895 65.9683 89.2258 65.947 89.1674C65.6234 88.2018 65.2626 86.955 64.488 86.2335C63.6338 85.4376 62.7372 85.6127 62.0421 86.191C62.2013 85.0397 62.3923 83.8884 62.6364 82.753C62.9759 81.1455 63.3632 79.5485 63.8407 77.978C64.3288 76.3758 64.9761 74.8053 65.3846 73.1818C65.8781 72.5505 65.1512 71.4734 64.2758 71.8926C60.0101 73.9352 55.4261 75.3571 50.7519 76.0786C48.6668 76.397 46.2051 76.7472 44.746 74.8637C43.5682 73.3463 43.2074 71.2559 42.8626 69.4149C41.9872 64.7195 41.8863 59.833 42.592 55.1058C42.9368 52.766 43.4568 50.4528 44.1571 48.1927C44.8575 45.9378 45.7223 43.7254 46.1361 41.3909C46.8205 37.502 46.0406 32.971 42.1941 31.0557C41.568 30.7427 41.0587 31.7242 41.6158 32.1168C45.3084 34.7219 44.815 39.7834 43.6319 43.5397C42.9103 45.8317 42.0296 48.06 41.4248 50.3945C40.8199 52.7236 40.4273 55.1005 40.2098 57.4933C39.7641 62.3426 40.0718 67.3616 41.2762 72.0889C41.7113 73.8132 42.3957 75.6171 43.7221 76.8639C45.3509 78.4025 47.5474 78.5776 49.6749 78.3282C52.6407 77.978 55.5481 77.3095 58.3548 76.3545C56.4713 80.9545 55.4367 86.0372 54.8107 90.9183C54.1475 96.0594 54.2483 101.333 55.3784 106.405C56.4395 111.17 58.4609 115.706 61.5169 119.526C64.2652 122.964 67.8305 125.749 71.7513 127.739C80.7071 132.286 91.2545 132.477 100.709 129.394C105.224 127.919 109.957 125.813 113.119 122.141C116.095 118.688 117.422 114.226 117.878 109.764C118.445 104.198 117.963 98.4734 116.939 92.9874C115.984 87.8623 114.44 82.8485 112.339 78.0788C115.448 79.3999 118.705 80.3602 122.09 80.1852C126.202 79.9782 130.489 78.1319 132.574 74.4127C133.837 72.1632 134.097 69.5051 133.948 66.9743L133.943 66.9584ZM107.85 88.1382C108.004 87.6182 108.238 87.1195 108.54 86.6685C108.954 86.0425 109.468 85.6233 110.015 85.2042C110.238 86.0159 110.429 86.8914 110.742 87.6607C110.721 87.6872 110.705 87.719 110.683 87.7509C109.988 89.1038 108.89 89.8041 107.627 90.1065C107.898 89.5813 107.919 88.8491 107.845 88.1382H107.85ZM105.495 107.684C105.542 107.615 105.595 107.551 105.643 107.482C106.635 106.097 107.383 104.548 107.93 102.93C108.063 103.641 108.285 104.357 108.418 105.031C108.641 106.177 108.747 107.35 108.72 108.517C108.694 109.541 108.651 110.697 108.301 111.668C108.105 112.215 107.686 112.92 107.028 112.984C106.328 113.053 106.121 112.347 105.993 111.812C105.983 111.769 105.962 111.737 105.935 111.711C106.057 110.411 106.02 108.878 105.495 107.679V107.684ZM101.844 89.6609C101.86 89.3319 101.866 88.9977 101.866 88.6687C102.019 88.0214 102.205 87.3848 102.539 86.7799C102.99 85.9576 103.961 84.5357 105.033 84.7267C106.078 84.9124 106.275 86.5677 106.423 87.4431C106.566 88.2867 106.333 89.4858 106.731 90.2604C105.118 90.4196 103.341 90.08 101.834 89.698C101.834 89.6874 101.834 89.6768 101.839 89.6609H101.844ZM95.1488 86.9709C95.1859 86.8807 95.2178 86.7799 95.2602 86.6738C95.5255 85.9947 95.7748 85.3156 96.1144 84.6683C96.5229 83.8884 97.5416 81.7821 98.608 81.9201C99.7116 82.0633 100.035 84.2439 100.216 85.0769C100.518 86.4828 100.624 87.91 100.571 89.3425C98.677 88.7801 96.82 88.0851 94.9366 87.4962C95.048 87.337 95.117 87.1619 95.1488 86.9709ZM87.3443 84.9071C87.4982 84.0476 87.7157 83.2146 87.9916 82.387C88.4001 81.1667 89.2384 78.5935 91.0158 79.3893C92.4217 80.0207 92.8886 82.3498 93.2441 83.6868C93.4563 84.472 93.6261 85.2679 93.7534 86.069C93.8224 86.4881 93.8224 86.8754 93.9869 87.2097C93.3767 87.0346 92.7613 86.8754 92.1405 86.7428C90.4215 86.3714 88.7291 86.2653 87.0578 86.3873C87.2382 85.9258 87.2594 85.4111 87.3443 84.9071ZM81.7417 80.7794C84.2087 78.933 85.3494 84.854 85.9118 86.5041C84.6226 86.6791 83.3439 86.9869 82.06 87.4219C81.556 87.5917 81.0625 87.7774 80.5691 87.9684C81.4817 85.7825 79.6194 82.371 81.747 80.7794H81.7417ZM74.2502 86.9126C74.3245 85.7348 74.3882 83.6974 75.6137 83.0873C76.9242 82.4347 78.1816 84.5994 78.6538 85.5278C78.9191 86.0531 79.1419 86.6049 79.2905 87.1726C79.4072 87.6182 79.4444 87.9843 79.6566 88.3345C77.8845 89.0613 76.1496 89.8731 74.3722 90.5787C74.4624 89.3744 74.1759 88.1329 74.2502 86.9179V86.9126ZM69.0455 83.9202C70.9342 82.4824 71.5179 85.5544 71.8786 86.7693C72.2978 88.1859 72.6586 89.6396 73.1414 91.0403C72.7169 91.1942 72.2925 91.3374 71.8574 91.4701C70.2445 91.9688 68.6529 92.2394 67.0718 92.2553C67.0824 89.6078 66.6845 85.7082 69.0455 83.915V83.9202ZM70.1543 93.6082C74.0009 92.8336 77.4813 90.913 81.1103 89.5017C82.9566 88.7801 84.8825 88.1912 86.8615 87.9896C88.7768 87.7933 90.7027 88.048 92.5597 88.5202C96.0667 89.4115 99.3826 90.9395 102.948 91.6027C104.502 91.8892 106.184 92.0749 107.76 91.7778C107.691 92.5948 107.702 93.4172 107.665 94.2396C107.596 95.6031 107.495 96.9666 107.293 98.3142C106.948 100.612 106.317 102.898 105.208 104.951C102.89 109.244 98.7619 111.228 94.1354 112.119C85.2486 113.828 74.8922 112.756 68.4247 105.8C66.8384 104.092 65.5332 102.086 64.6949 99.9006C64.297 98.8501 63.9946 97.7465 63.7983 96.643C63.6126 95.6031 63.5861 94.5473 63.4322 93.5021C65.5863 94.1388 68.0215 94.0379 70.1543 93.6082ZM104.8 110.167C104.789 111.196 104.699 112.278 104.428 113.276C104.179 114.183 103.728 115.117 102.847 115.557C101.553 116.205 100.815 115.276 100.513 114.114C100.481 113.992 100.375 113.923 100.258 113.907C100.21 113.281 100.109 112.666 99.9768 112.087C101.738 111.254 103.346 110.151 104.688 108.665C104.736 109.164 104.8 109.663 104.8 110.167ZM94.2893 113.859C95.9022 113.552 97.4832 113.122 98.9741 112.522C99.2128 114.273 99.5259 116.093 98.4064 117.637C97.34 119.117 95.5149 119.186 94.528 117.95C94.7137 116.682 94.7403 115.096 94.284 113.859H94.2893ZM93.4245 118.077C93.2441 119.207 92.8356 120.396 91.9389 121.043C90.3579 122.189 89.2278 120.746 88.8776 119.282C88.8193 119.038 88.7768 118.794 88.745 118.544C88.989 117.34 88.9784 115.769 88.5752 114.539C90.0714 114.464 91.5675 114.31 93.0425 114.082C93.0902 114.077 93.1327 114.066 93.1804 114.061C93.2547 114.337 93.3343 114.618 93.3927 114.899C93.52 115.568 93.573 116.252 93.5412 116.931C93.4828 116.979 93.4404 117.043 93.4192 117.117C93.3396 117.451 93.3502 117.775 93.4245 118.083V118.077ZM87.5778 118.64C87.339 119.446 86.8933 120.194 86.1506 120.619C85.1107 121.213 83.8692 120.964 83.2378 119.918C82.5905 118.852 82.7815 117.531 82.4102 116.38C82.3995 116.342 82.373 116.316 82.3518 116.289C82.511 115.653 82.6436 115.005 82.7338 114.364C84.3095 114.544 85.9012 114.608 87.4929 114.57C87.5035 114.788 87.53 115 87.5565 115.218C87.3496 116.284 87.3974 117.515 87.5831 118.64H87.5778ZM81.8159 114.247C81.6674 115.409 81.3968 116.549 80.967 117.642C80.5585 118.677 79.5664 121.006 78.1286 120.401C76.8606 119.871 76.1337 117.897 75.757 116.693C75.3166 115.292 75.3166 113.891 75.1787 112.464C75.9745 112.793 76.7916 113.085 77.6299 113.334C79.004 113.743 80.4047 114.04 81.8159 114.241V114.247ZM69.0561 108.75C70.6053 110.077 72.3402 111.175 74.2025 112.04C73.7568 113.403 73.9001 114.984 74.2714 116.406C73.8205 117.043 73.3695 117.759 72.6745 118.014C71.2632 118.534 70.2233 116.969 69.8095 115.865C69.332 114.597 69.1834 113.228 69.1198 111.886C69.0773 110.92 69.2418 109.748 69.0561 108.745V108.75ZM65.9842 105.493C66.6792 106.416 67.4485 107.259 68.2709 108.039C67.5175 109.376 67.7509 111.541 67.8783 113.005C67.8995 113.249 67.926 113.504 67.9578 113.753C67.9419 113.769 67.926 113.78 67.9101 113.801C67.2522 114.613 66.6527 115.552 65.4324 114.979C64.1856 114.395 64.0264 112.958 64.175 111.743C64.4562 109.445 65.3263 107.185 65.5279 104.867C65.6764 105.079 65.825 105.286 65.9789 105.493H65.9842ZM63.2783 86.7216C64.1538 86.8012 64.419 87.8039 64.6949 88.5414C64.9761 89.2842 65.2096 90.0429 65.3953 90.8175C65.5014 91.2631 65.5597 91.7512 65.6658 92.2128C64.3076 92.0855 62.96 91.7565 61.623 91.1995C61.6442 90.9395 61.6389 90.6636 61.6548 90.3877C61.7026 89.5441 61.7663 88.7006 61.8511 87.857C62.1429 87.2362 62.4825 86.6526 63.2783 86.7269V86.7216ZM116.435 105.774C116.398 110.087 115.777 114.613 113.633 118.422C111.294 122.592 107.171 125.049 102.842 126.768C93.955 130.291 83.7843 130.938 74.8391 127.251C66.4935 123.813 60.2223 116.99 57.6544 108.32C56.1052 103.084 55.8453 97.598 56.3705 92.181C56.657 89.2205 57.1823 86.2918 57.8561 83.4003C58.4503 80.8749 59.1718 78.3813 59.7024 75.8452C61.0765 75.3253 62.4294 74.7416 63.7505 74.0891C63.2253 75.1767 62.8221 76.3386 62.4401 77.4634C61.8564 79.193 61.3577 80.9545 60.9863 82.7371C60.5301 84.9177 59.9677 87.3689 59.8244 89.5601C59.7661 90.4673 59.8934 91.1252 60.5035 91.8574C60.6574 92.0378 62.4772 93.2952 62.4931 93.2103C62.0687 95.3643 62.2172 97.3698 62.8698 99.4761C63.3261 100.951 63.9681 102.357 64.7639 103.673C64.7055 103.721 64.6525 103.79 64.6153 103.88C63.8248 105.747 63.5277 107.917 63.1139 109.896C62.7637 111.557 62.3923 113.387 63.3791 114.91C64.1113 116.035 65.4483 116.762 66.8012 116.438C67.3477 116.305 67.9207 115.96 68.3027 115.494C68.5414 116.369 68.8916 117.207 69.4222 117.908C70.2657 119.022 71.7142 119.674 73.0671 119.101C73.7409 118.815 74.2874 118.29 74.6694 117.658C75.2211 119.17 76.2027 121.282 77.8792 121.744C79.4603 122.179 80.6275 120.783 81.2111 119.515C81.349 119.213 81.4764 118.905 81.6037 118.597C81.7947 120.741 83.4341 122.73 85.8482 122.03C86.7872 121.759 87.5141 121.149 88.0181 120.369C88.5646 121.897 89.891 123.033 91.5941 122.508C93.0478 122.057 93.8383 120.704 94.2468 119.314C94.4432 119.483 94.666 119.627 94.8994 119.743C95.934 120.247 97.1437 120.046 98.0934 119.452C99.319 118.682 99.9397 117.457 100.178 116.109C100.359 116.327 100.571 116.512 100.799 116.645C101.908 117.308 103.335 116.905 104.243 116.088C104.964 115.435 105.367 114.56 105.617 113.631C105.845 113.865 106.126 114.045 106.407 114.125C107.818 114.523 109.044 113.308 109.463 112.077C110.015 110.464 109.983 108.57 109.861 106.893C109.744 105.259 109.479 102.988 108.307 101.715C108.476 101.089 108.625 100.458 108.747 99.8263C109.028 98.3461 109.198 96.8393 109.299 95.3378C109.389 94.0061 109.543 92.5948 109.405 91.2525C109.405 91.2207 111.872 89.0879 112.074 88.3875C112.514 86.8595 111.718 85.2307 111.256 83.7982C110.816 82.44 110.328 81.0924 109.808 79.7607C109.336 78.551 108.842 77.3361 108.291 76.1476C108.88 76.4447 109.479 76.7418 110.084 77.0336C114.196 86.0106 116.525 95.8684 116.435 105.769V105.774Z" fill="#BA9BA0"/>
<path id="Vector_29" d="M58.6361 67.0431C57.4211 65.86 54.3545 65.6106 53.2403 65.2127C51.4152 64.5601 49.7864 63.2815 48.7784 61.6208C48.3433 60.9099 47.9719 60.1353 47.1867 59.7533C44.2633 58.3367 44.3005 62.682 44.6453 64.2789C45.1706 66.7142 46.6933 68.9531 48.8579 70.2159C51.1818 71.5688 56.9277 72.3275 58.6785 69.5102C59.3682 68.3961 59.2144 67.6108 58.6361 67.0431Z" fill="#F2ECC7"/>
<path id="Vector_30" d="M107.644 71.208C108.137 71.6855 108.742 72.0994 109.368 72.4018C112.796 74.0784 118.632 75.4313 122.303 73.6804C125.736 72.0463 126.861 66.9689 127.046 63.5893C127.137 63.3028 127.227 63.011 127.312 62.7192C127.72 61.3238 127.954 59.8276 127.105 58.5384C126.309 57.334 124.733 56.8618 123.428 57.4932C122.24 58.0662 121.682 59.2387 121.03 60.3104C119.507 62.8147 117.056 64.7459 114.302 65.7274C112.27 66.4543 109.756 66.0033 107.872 67.1493C105.893 68.3537 106.387 69.9772 107.649 71.1974L107.644 71.208Z" fill="#F2ECC7"/>
<path id="Vector_31" d="M122.701 68.0882C122.638 67.9927 122.574 67.8919 122.51 67.7964C122.362 67.5736 122.044 67.4675 121.8 67.425C120.829 67.2553 119.783 68.587 118.929 68.9743C118.367 69.2289 117.746 69.3775 117.136 69.4411C116.324 69.5313 115.481 69.473 114.674 69.3722C113.719 69.2555 112.769 68.9371 111.799 68.9955C110.775 69.0592 109.889 70.5023 111.056 71.1495C112.982 72.2213 115.762 72.46 117.921 72.147C119.592 71.9029 121.842 71.0169 122.654 69.4146C122.855 69.0167 122.977 68.5021 122.707 68.0882H122.701Z" fill="white"/>
<path id="Vector_32" d="M103.68 12.0564C102.317 11.2818 100.576 11.3242 99.0431 11.1756C97.5575 11.0324 96.072 10.9157 94.5864 10.8255C91.488 10.6398 88.3842 10.592 85.2805 10.6504C82.1926 10.7035 79.0995 10.8626 76.0223 11.1597C74.5473 11.303 73.0671 11.4622 71.5975 11.6638C70.8653 11.7646 70.149 11.9184 69.4328 12.0776C68.6794 12.2474 68.1117 12.3057 67.5865 12.884C67.353 13.144 67.3955 13.6746 67.7032 13.8709C68.7537 14.5394 70.4939 14.1361 71.693 14.03C73.1997 13.8974 74.6959 13.7276 76.2027 13.6215C79.2428 13.4093 82.2828 13.266 85.3282 13.2448C88.3153 13.2236 91.297 13.3138 94.2734 13.4942C95.7589 13.5844 97.2498 13.6905 98.7301 13.8284C100.163 13.9611 101.85 14.428 103.256 14.0513C104.089 13.8284 104.587 12.571 103.68 12.0564Z" fill="white"/>
<path id="Vector_33" d="M112.318 13.1859C112.132 12.9684 111.878 12.8516 111.602 12.8145C111.405 12.7986 111.22 12.8304 111.039 12.9153C110.869 12.9949 110.732 13.1169 110.62 13.2708C110.509 13.4246 110.445 13.5944 110.419 13.7801C110.403 13.9552 110.429 14.125 110.503 14.2894C110.514 14.3107 110.525 14.3266 110.535 14.3478C110.663 14.5919 110.869 14.7935 111.135 14.889C111.458 15.0057 111.798 14.9579 112.084 14.7723C112.35 14.5972 112.557 14.3107 112.573 13.9764C112.588 13.6899 112.514 13.4087 112.318 13.1806V13.1859Z" fill="white"/>
</g>
</g>
</svg>
