<svg width="76" height="135" viewBox="0 0 76 135" fill="none" xmlns="http://www.w3.org/2000/svg">
<g id="Group 43">
<g id="_x30_2_2_">
<path id="Vector" d="M10.346 45.0904C10.346 45.0904 5.77538 45.9253 5.11649 51.8589C4.45639 57.7937 -5.76421 94.3915 5.11649 102.305C0.500656 109.888 -3.2118 131.649 5.23875 134.287C10.0624 133.297 22.5909 103.624 35.1194 104.613C43.6922 106.591 47.9792 108.9 52.2638 117.802C56.5508 126.703 56.8796 134.617 58.8587 134.287C60.8378 133.957 67.7616 129.013 62.8157 101.315C67.4303 104.612 77.9821 95.5454 75.6742 89.6925C73.3663 83.8408 71.3885 81.5329 71.3885 81.5329C71.3885 81.5329 67.1015 88.7867 62.8157 81.5329C59.5188 81.2029 59.602 64.3935 59.602 64.3935C59.602 64.3935 51.6049 51.2 45.0112 48.232C38.4163 45.264 39.2622 46.9766 39.2622 46.9766L19.9529 43.2861L10.346 45.0904Z" fill="#C64F24"/>
<g id="Group">
<path id="Vector_2" d="M10.8856 62.5751C10.8612 61.8698 10.6228 61.2268 10.316 60.5985C9.94434 59.8394 11.0824 59.1695 11.4552 59.9347C11.866 60.7757 12.1716 61.6302 12.2046 62.5751C12.2339 63.4259 10.9149 63.421 10.8856 62.5751Z" fill="#9D1C26"/>
<path id="Vector_3" d="M43.6817 100.963C38.715 99.4309 33.6298 98.0154 29.3464 94.9606C28.6606 94.4716 29.3183 93.3275 30.0114 93.8213C34.2043 96.8113 39.171 98.1902 44.0313 99.6901C44.8417 99.9395 44.497 101.213 43.6817 100.963Z" fill="#9D1C26"/>
<path id="Vector_4" d="M61.3305 87.3024C60.9846 92.2348 60.2707 98.7503 63.9404 102.662C64.521 103.282 63.5908 104.216 63.0065 103.595C59.0471 99.3725 59.6363 92.6333 60.0116 87.3024C60.0715 86.4589 61.3892 86.454 61.3305 87.3024Z" fill="#9D1C26"/>
<path id="Vector_5" d="M72.7054 92.9067C72.7091 92.0571 74.0269 92.0571 74.0244 92.9067C74.0232 93.4739 73.9902 94.0179 73.8374 94.5655C73.6064 95.3833 72.3338 95.0362 72.5648 94.2159C72.6883 93.7783 72.7042 93.3578 72.7054 92.9067Z" fill="#9D1C26"/>
<path id="Vector_6" d="M50.8713 103.955C49.7149 101.848 48.2884 99.9565 46.5232 98.3197C45.8986 97.739 46.8337 96.81 47.4559 97.387C49.2981 99.0935 50.8029 101.09 52.0106 103.29C52.4189 104.037 51.2808 104.702 50.8713 103.955Z" fill="#9D1C26"/>
<path id="Vector_7" d="M12.7747 113.682C12.2722 114.355 11.1256 113.699 11.6354 113.017C16.4725 106.549 24.9853 103.86 32.8564 104.758C31.8345 104.964 30.8163 105.358 29.8041 105.893C23.3278 105.91 16.6778 108.463 12.7747 113.682Z" fill="#9D1C26"/>
<path id="Vector_8" d="M38.4236 105.469C38.4786 105.463 38.5312 105.452 38.5923 105.46C45.8693 106.56 53.1073 108.91 57.8417 114.862C58.3661 115.519 57.4383 116.461 56.909 115.794C53.6732 111.727 49.2567 109.433 44.4685 108.057C42.7277 106.952 40.7535 106.15 38.4236 105.469Z" fill="#9D1C26"/>
<path id="Vector_9" d="M70.178 83.082C71.9481 85.1944 72.8845 87.77 73.6729 90.4238C73.9137 91.2404 72.6424 91.5888 72.4004 90.7747C71.6669 88.3078 70.8235 85.9119 69.1818 83.9487C69.5522 83.6822 69.8883 83.3815 70.178 83.082Z" fill="#9D1C26"/>
<path id="Vector_10" d="M5.28247 50.8106C5.39371 50.2825 5.54405 49.8156 5.71274 49.3779C8.028 51.6149 9.36653 54.4827 10.5327 57.4532C10.8432 58.2441 9.56826 58.5864 9.26143 57.8028C8.2615 55.2565 7.13198 52.8068 5.28247 50.8106Z" fill="#9D1C26"/>
<path id="Vector_11" d="M25.3153 43.9702C25.6649 45.4285 26.0585 46.9688 26.5279 48.5188C26.5976 48.4259 26.6856 48.3427 26.8103 48.2902C27.5621 47.9772 28.243 47.5396 28.8273 46.9761C29.4409 46.3869 30.3736 47.3171 29.76 47.9088C29.0021 48.6398 28.1293 49.1593 27.1611 49.5639C27.056 49.6067 26.9594 49.6177 26.8714 49.6092C27.1232 50.3829 27.3971 51.1531 27.6953 51.9122C27.732 51.8828 27.7601 51.845 27.809 51.8205C28.5143 51.4501 29.1512 50.9783 29.7869 50.5015C30.4678 49.9918 31.1242 51.1372 30.4506 51.6408C29.8138 52.1175 29.1793 52.5894 28.4728 52.9598C28.364 53.0173 28.2576 53.0344 28.1562 53.0344C28.6146 54.0979 29.1316 55.1296 29.7111 56.11C30.3907 55.3643 30.9677 54.5465 31.5276 53.7067C31.997 53.0026 33.1399 53.6615 32.6669 54.3717C31.9909 55.3863 31.3002 56.3923 30.4506 57.2724C31.0093 58.0866 31.6144 58.8579 32.2891 59.5547C32.563 58.0731 33.003 56.6307 33.4395 55.1834C33.6852 54.3717 34.9577 54.7164 34.712 55.533C34.2059 57.2065 33.657 58.8812 33.4456 60.6219C33.6375 60.7845 33.8257 60.9495 34.0299 61.0998C34.7364 61.6279 35.4552 61.9751 36.1593 62.167C35.8439 59.82 35.5701 57.4399 34.7596 55.2041C34.4699 54.4035 35.7461 54.06 36.0322 54.8533C36.9013 57.2578 37.1531 59.8285 37.5028 62.3454C38.6188 62.3247 39.6285 61.8724 40.4072 61.0412C39.1872 59.3408 37.8756 57.7089 36.6397 56.0219C36.1373 55.3362 37.2815 54.6785 37.779 55.3569C38.9012 56.8874 40.0772 58.3775 41.1969 59.9092C41.4182 59.4777 41.5991 58.9973 41.7262 58.4607C41.8191 58.0646 41.8814 57.6563 41.9291 57.2444C41.0453 56.4791 40.2092 55.6638 39.3816 54.8362C38.7802 54.2348 39.7129 53.3021 40.3143 53.9035C40.8742 54.4621 41.4401 55.011 42.0171 55.5489C41.9927 53.7984 41.6638 52.0161 41.1895 50.4245C40.9463 49.6079 42.22 49.262 42.4621 50.0749C43.0121 51.922 43.3703 54.3766 43.2334 56.6918C43.385 56.9216 43.3349 57.1783 43.1711 57.369C42.7872 61.0656 41.0233 64.2023 36.5395 63.5801C28.7723 62.5007 25.5463 50.559 24.044 44.3247C23.8447 43.4934 25.1148 43.1426 25.3153 43.9702Z" fill="#9D1C26"/>
<path id="Vector_12" d="M4.46432 103.491C4.6758 103.076 4.88851 102.682 5.10243 102.326C8.40784 103.664 12.2743 99.7332 14.3353 97.6599C17.3058 94.6711 19.7457 91.1408 21.8373 87.4589C19.4597 84.2684 17.3388 80.8982 14.9856 77.6906C11.4712 78.594 8.25381 80.3665 4.95451 81.9788C4.19417 82.3517 3.52428 81.2136 4.28951 80.8396C7.32966 79.3531 10.2903 77.7811 13.4515 76.7873C13.3207 73.9941 13.02 71.2168 12.6997 68.4419C12.6019 67.5984 13.9222 67.607 14.0187 68.4419C14.3243 71.0909 14.603 73.741 14.7436 76.4059C14.8011 76.3912 14.8597 76.3827 14.9184 76.3692C15.0211 76.3215 15.1335 76.2971 15.2497 76.2983C16.2936 76.0575 17.362 75.8741 18.4708 75.8057C18.5221 75.8032 18.56 75.8191 18.6052 75.8252C18.8179 75.7225 19.0697 75.747 19.2653 76C21.2627 78.5781 23.0047 81.3322 24.809 84.046C24.9691 84.2868 24.9349 84.5178 24.8126 84.6951C24.8102 84.7012 24.8114 84.7061 24.809 84.711C24.3298 85.6571 23.8213 86.5935 23.303 87.5237C23.2797 87.6423 23.221 87.7437 23.1293 87.8269C20.5036 92.4635 17.3449 96.83 13.3782 100.398C11.0861 102.457 7.59493 104.85 4.46432 103.491ZM23.4753 84.4139C21.8495 81.9568 20.2689 79.4619 18.4744 77.1222C18.472 77.1222 18.472 77.1234 18.4695 77.1234C17.7581 77.1662 17.0674 77.264 16.3841 77.3899C18.4891 80.287 20.429 83.2991 22.5401 86.1913C22.8592 85.6009 23.1697 85.008 23.4753 84.4139Z" fill="#9D1C26"/>
</g>
<path id="Vector_13" d="M53.5848 23.2847C53.5848 23.2847 53.806 40.429 38.4183 39.5501C38.1983 43.9459 38.4183 45.2648 38.4183 45.2648C38.4183 45.2648 43.7529 57.308 39.2642 59.1123C32.7047 61.7503 27.21 49.6631 27.21 43.727C27.8688 40.4302 30.2868 30.9773 30.2868 30.9773C30.2868 30.9773 23.4743 30.0972 25.2321 23.2847C26.99 16.4697 31.1669 20.6467 31.6058 23.2847C34.2437 21.7456 37.2533 19.3265 39.2654 12.2939C41.4975 20.6467 48.7513 24.8225 48.0925 19.3277C50.7268 26.1414 52.9259 25.2625 53.5848 23.2847Z" fill="#FDD2AF"/>
<g id="Group_2">
<path id="Vector_14" d="M30.815 32.2669C33.0398 35.532 35.2915 38.7457 39.268 39.9168C40.0822 40.1539 39.7643 41.4362 38.9466 41.1954C34.6106 39.9205 32.1242 36.5295 29.6904 32.9576C29.2088 32.251 30.3371 31.5665 30.815 32.2669Z" fill="#FB8C70"/>
<path id="Vector_15" d="M27.1962 22.3746C29.8073 21.8282 30.7889 24.5994 31.3048 26.6262C31.515 27.4501 30.2425 27.8009 30.0322 26.977C29.9809 26.7729 29.9161 26.5186 29.844 26.2509C29.4271 26.6739 29.4504 27.378 29.7547 27.9537C30.1508 28.7043 29.0127 29.3717 28.6154 28.62C27.9174 27.2997 28.1485 25.6874 29.3892 24.949C29.0103 24.1227 28.448 23.4589 27.5471 23.6472C26.717 23.8195 26.3638 22.5482 27.1962 22.3746Z" fill="#FB8C70"/>
</g>
<path id="Vector_16" d="M30.2834 30.9771C30.2834 30.9771 34.8955 39.9875 31.4923 43.7807C28.0903 47.5751 26.8777 45.9248 27.2066 49.7155C27.5366 53.5074 21.6005 54.3313 17.6448 49.7155C13.6891 45.0997 9.69304 45.4517 7.22132 46.9357C5.57228 45.7818 8.41439 40.3188 12.864 39.3299C17.316 38.3397 9.73093 30.9221 20.7779 24.3272C22.0969 23.6684 17.8099 -2.38001 37.2633 0.259177C43.692 -0.730976 54.0789 0.753023 58.0346 11.1386C61.9903 21.5255 61.4965 26.3051 61.0026 32.4049C60.5076 38.5035 63.9694 39.3287 65.9473 42.4617C67.9264 45.5947 63.1455 46.2536 62.6517 50.3744C62.1566 54.4963 67.4313 54.9902 65.2884 58.2883C63.1455 61.5851 57.7058 68.345 52.9249 64.3881C48.1441 60.4312 51.9348 54.8264 48.968 55.3203C46.0012 55.8153 37.9235 55.1552 38.4173 45.2635C38.4173 39.5487 38.4173 39.5487 38.4173 39.5487C38.4173 39.5487 45.0452 40.6183 49.9031 34.884C53.585 30.5359 53.585 23.2833 53.585 23.2833C53.585 23.2833 51.7172 28.9981 48.0903 19.3263C48.5303 25.4812 43.3644 22.8432 39.2632 13.2815C39.2632 13.2815 39.4612 21.0854 31.6036 23.2833C29.8702 20.3397 27.2078 16.6346 25.2299 23.2833C24.994 24.5155 24.4574 29.8794 30.2834 30.9771Z" fill="#2B2E4F"/>
<g id="Group_3">
<path id="Vector_17" d="M51.4414 70.1523L29.0578 64.5537L26.3832 87.1597L46.9894 91.2389L51.4414 70.1523Z" fill="#E2AC42"/>
<path id="Vector_18" d="M51.4407 70.1529L69.1816 61.4053L61.9352 83.0835L46.9887 91.2395L51.4407 70.1529Z" fill="#D78C1B"/>
<path id="Vector_19" d="M29.0572 64.5536L31.0534 61.9719L51.4407 67.0253L64.7944 60.4316L69.1816 61.4047L51.4407 70.1523L29.0572 64.5536Z" fill="white"/>
</g>
<path id="Vector_20" d="M20.0539 77.1732C20.0539 77.1732 22.7554 71.4768 26.3823 70.4866C30.0092 69.4977 36.4538 70.8167 36.7765 72.7958C37.0992 74.7736 31.5935 77.4544 27.0424 79.0594C24.4045 81.2023 23.4767 82.1497 23.4767 82.1497L20.0539 77.1732Z" fill="#FDD2AF"/>
<path id="Vector_21" d="M71.3886 81.5328C71.3886 81.5328 71.7076 78.3509 72.5364 76.1505C73.3664 73.949 73.4752 72.9613 71.4423 70.9809C69.4107 69.0031 65.7642 68.1792 64.1262 69.1681C62.4857 70.1583 56.5203 73.2057 64.0235 76.8363C62.9698 79.9889 62.652 81.5328 62.652 81.5328C62.652 81.5328 66.1138 89.1166 71.3886 81.5328Z" fill="#FDD2AF"/>
<path id="Vector_22" d="M64.0227 76.8369C64.574 77.0166 65.1424 77.1645 65.6827 77.3247C66.2389 77.4909 66.3245 78.2244 65.8404 78.53C64.9933 79.0654 65.5422 79.8575 66.2866 80.1533C67.0678 80.4638 66.7267 81.74 65.937 81.4258C64.5398 80.8709 63.7306 79.4651 64.3222 78.3026C64.0851 78.2341 63.8528 78.1522 63.6193 78.0752C63.7391 77.6926 63.8711 77.2868 64.0227 76.8369Z" fill="#FB8C70"/>
</g>
<path id="Vector_23" d="M40.2605 25.9193C40.039 26.4079 39.4583 26.6271 38.9687 26.4051C38.4791 26.1832 38.2613 25.602 38.4828 25.1134C38.7043 24.6248 39.285 24.4056 39.7746 24.6275C40.2642 24.8495 40.4819 25.4306 40.2605 25.9193Z" fill="#5E443B"/>
<path id="Vector_24" d="M48.587 27.1706C48.3715 27.6458 47.8069 27.859 47.3307 27.6431C46.8545 27.4273 46.6427 26.8621 46.8581 26.3869C47.0736 25.9117 47.6383 25.6985 48.1144 25.9143C48.5906 26.1302 48.8024 26.6954 48.587 27.1706Z" fill="#5E443B"/>
<path id="Vector_25" d="M35.5896 22.3009C37.028 22.4756 38.4606 22.6477 39.8991 22.8225C40.2974 22.8694 40.3788 22.2889 39.9722 22.2446C38.5338 22.0699 37.1011 21.8978 35.6627 21.723C35.2643 21.6761 35.183 22.2566 35.5896 22.3009Z" fill="#323146"/>
<path id="Vector_26" d="M46.3137 24.0465C47.466 24.3125 48.6296 24.3689 49.7665 24.1983C50.1917 24.1347 50.1022 23.4914 49.6744 23.5607C48.5796 23.7226 47.5023 23.6777 46.3931 23.4174C45.9582 23.3172 45.8788 23.9464 46.3137 24.0465Z" fill="#323146"/>
<path id="Vector_27" d="M39.0137 34.3112C40.5294 35.3265 42.1839 35.9129 43.9934 36.1217C44.3536 36.1607 44.3397 35.5931 43.9795 35.5541C42.279 35.3555 40.713 34.768 39.2923 33.8181C38.9852 33.6164 38.7067 34.1095 39.0082 34.3098L39.0137 34.3112Z" fill="#D37A71"/>
<path id="Vector_28" d="M43.7225 26.4456C43.5561 27.6111 43.4995 28.7899 43.5933 29.9881C43.6451 30.6564 43.7458 31.3286 43.8893 32.002C43.9611 32.3386 44.0435 32.668 44.1378 33.0027C43.7687 33.322 43.3223 33.4603 42.7988 33.4176C42.3893 33.4267 42.4928 33.9967 42.9023 33.9877C43.8748 33.9662 44.8261 33.9595 44.7709 32.9795C44.7157 31.9994 44.3034 30.9609 44.2204 29.9622C44.1286 28.8074 44.1969 27.6826 44.3547 26.568C44.4065 26.2143 43.7645 26.0814 43.7165 26.4429L43.7225 26.4456Z" fill="#E28A81"/>
</g>
</svg>
