<svg width="286" height="293" viewBox="0 0 286 293" fill="none" xmlns="http://www.w3.org/2000/svg">
<g clip-path="url(#clip0_35_7842)">
<path d="M222.81 82.7935C217.527 82.7935 213.206 79.3538 213.206 75.1512C213.206 70.9486 216.095 67.5089 219.632 67.5089C223.169 67.5089 226.058 64.0442 226.058 59.8124C226.058 55.5806 221.736 52.1159 216.454 52.1159H184.193C178.911 52.1159 174.589 48.6513 174.589 44.4195C174.589 40.1877 170.267 36.723 164.985 36.723H153.644C148.362 36.723 144.04 33.2583 144.04 29.0265C144.04 24.7947 139.718 21.33 134.436 21.33H92.4535C87.1713 21.33 82.8494 24.7947 82.8494 29.0265C82.8494 33.2583 78.5276 36.723 73.2454 36.723H57.0939C51.8117 36.723 47.4899 40.1877 47.4899 44.4195C47.4899 48.6513 51.8117 52.1159 57.0939 52.1159H75.851C81.1332 52.1159 85.4551 55.5598 85.4551 59.7707C85.4551 63.9817 81.1833 67.4255 75.9638 67.4255C70.7442 67.4255 66.4725 70.8819 66.4725 75.1095C66.4725 79.3371 62.2008 82.7935 56.9812 82.7935C51.7616 82.7935 47.4899 86.2581 47.4899 90.49C47.4899 94.7218 51.8117 98.1864 57.0939 98.1864H237.095C242.377 98.1864 246.699 94.7218 246.699 90.49C246.699 86.2581 242.377 82.7935 237.095 82.7935H222.814H222.81ZM112.363 44.1985C112.38 47.9175 108.07 50.9611 102.788 50.9611H99.9655C94.6833 50.9611 90.3615 47.8883 90.3615 44.136C90.3615 40.3836 94.6833 37.3359 99.9655 37.3651L102.73 37.3817C108.012 37.4109 112.346 40.4795 112.363 44.1985Z" fill="#F0F8D3"/>
<path d="M85.0959 217.89C80.0434 217.89 75.9095 222.018 75.9095 227.063V227.792C75.9095 232.837 71.7755 236.965 66.723 236.965H63.1528C58.1002 236.965 53.9663 241.092 53.9663 246.137V246.867C53.9663 251.912 58.1002 256.039 63.1528 256.039H176.105C181.157 256.039 185.291 251.912 185.291 246.867V246.137C185.291 241.092 189.425 236.965 194.478 236.965H226.405C231.457 236.965 235.591 232.837 235.591 227.792V227.063C235.591 222.018 239.725 217.89 244.778 217.89H262.044C267.097 217.89 271.231 213.763 271.231 208.718V207.988C271.231 202.944 267.097 198.816 262.044 198.816H253.263C248.21 198.816 244.076 194.688 244.076 189.644V189.018C244.076 183.973 239.942 179.846 234.89 179.846H75.066C70.0134 179.846 65.8795 183.973 65.8795 189.018V189.748C65.8795 194.793 70.0134 198.92 75.066 198.92H89.3927C94.4453 198.92 98.5792 203.048 98.5792 208.093V208.718C98.5792 213.763 94.4453 217.89 89.3927 217.89H85.1001H85.0959Z" fill="#F0F8D3"/>
<path d="M286 33.7169C286 32.5829 284.964 31.6531 283.703 31.6531C282.442 31.6531 281.407 30.6191 281.407 29.36C281.407 28.1009 280.476 27.0669 279.34 27.0669C278.204 27.0669 277.273 28.1009 277.273 29.36C277.273 30.6191 276.237 31.6531 274.976 31.6531C273.715 31.6531 272.68 32.5829 272.68 33.7169C272.68 34.851 273.715 35.7807 274.976 35.7807C276.237 35.7807 277.273 36.8147 277.273 38.0738C277.273 39.3329 278.204 40.3669 279.34 40.3669C280.476 40.3669 281.407 39.3329 281.407 38.0738C281.407 36.8147 282.442 35.7807 283.703 35.7807C284.964 35.7807 286 34.851 286 33.7169Z" fill="#F0F8D3"/>
<path d="M58.3299 274.372C58.3299 273.446 57.4864 272.687 56.455 272.687C55.4237 272.687 54.5802 271.845 54.5802 270.815C54.5802 269.785 53.8202 268.943 52.8932 268.943C51.9662 268.943 51.2062 269.785 51.2062 270.815C51.2062 271.845 50.3627 272.687 49.3314 272.687C48.3 272.687 47.4565 273.446 47.4565 274.372C47.4565 275.297 48.3 276.056 49.3314 276.056C50.3627 276.056 51.2062 276.898 51.2062 277.928C51.2062 278.958 51.9662 279.8 52.8932 279.8C53.8202 279.8 54.5802 278.958 54.5802 277.928C54.5802 276.898 55.4237 276.056 56.455 276.056C57.4864 276.056 58.3299 275.297 58.3299 274.372Z" fill="#F0F8D3"/>
<path d="M27.5302 10.7609C28.4488 10.8901 29.3174 10.1647 29.4635 9.14321C29.6097 8.12174 30.5617 7.40879 31.5848 7.55472C32.6078 7.70064 33.5473 7.06691 33.6768 6.14967C33.8062 5.23243 33.0797 4.36522 32.0566 4.2193C31.0336 4.07337 30.3195 3.12278 30.4657 2.10131C30.6118 1.07983 29.9771 0.141746 29.0585 0.0124986C28.1398 -0.116749 27.2713 0.608705 27.1252 1.63018C26.979 2.65165 26.027 3.3646 25.0039 3.21867C23.9809 3.07275 23.0414 3.70648 22.9119 4.62372C22.7825 5.54096 23.509 6.40817 24.5321 6.55409C25.5551 6.70002 26.2691 7.65061 26.123 8.67208C25.9768 9.69355 26.6115 10.6316 27.5302 10.7609Z" fill="#F0F8D3"/>
<path d="M275.644 290.965C276.129 290.173 275.803 289.089 274.922 288.551C274.041 288.014 273.761 286.859 274.296 285.979C274.83 285.099 274.625 283.986 273.832 283.502C273.039 283.019 271.953 283.344 271.414 284.224C270.876 285.103 269.719 285.383 268.838 284.849C267.957 284.315 266.842 284.52 266.358 285.312C265.873 286.104 266.199 287.188 267.08 287.726C267.961 288.264 268.241 289.419 267.706 290.298C267.172 291.178 267.376 292.291 268.17 292.775C268.963 293.258 270.049 292.933 270.588 292.054C271.126 291.174 272.283 290.895 273.164 291.428C274.045 291.962 275.16 291.758 275.644 290.965Z" fill="#F0F8D3"/>
<path d="M13.8966 213.279C13.8966 214.672 12.765 215.802 11.3703 215.802C9.97566 215.802 8.84406 214.672 8.84406 213.279C8.84406 211.887 9.97566 210.757 11.3703 210.757C12.765 210.757 13.8966 211.887 13.8966 213.279Z" fill="#F0F8D3"/>
<path d="M5.68309 112.691C8.82177 112.691 11.3662 110.151 11.3662 107.017C11.3662 103.883 8.82177 101.343 5.68309 101.343C2.5444 101.343 0 103.883 0 107.017C0 110.151 2.5444 112.691 5.68309 112.691Z" fill="#F0F8D3"/>
<path d="M203.75 87.7229L162.021 184.606L241.193 218.601L282.921 121.718L203.75 87.7229Z" fill="white"/>
<path d="M263.03 133.554C262.875 133.917 262.399 134.067 261.977 133.884L209.289 111.261C208.867 111.082 208.65 110.636 208.804 110.273C208.959 109.91 209.435 109.76 209.857 109.944L262.545 132.566C262.967 132.746 263.184 133.192 263.03 133.554Z" fill="#ECECF0"/>
<path d="M243.412 127.976C243.258 128.339 242.782 128.489 242.36 128.305L208.253 113.663C207.831 113.484 207.614 113.037 207.769 112.675C207.923 112.312 208.399 112.162 208.821 112.345L242.928 126.988C243.35 127.167 243.567 127.613 243.412 127.976Z" fill="#ECECF0"/>
<path d="M233.833 126.754C233.679 127.117 233.203 127.267 232.781 127.084L207.205 116.102C206.783 115.923 206.566 115.476 206.721 115.114C206.875 114.751 207.351 114.601 207.773 114.784L233.349 125.766C233.771 125.945 233.988 126.392 233.833 126.754Z" fill="#ECECF0"/>
<path d="M257.914 145.433C257.76 145.795 257.284 145.945 256.862 145.762L204.174 123.14C203.752 122.96 203.535 122.514 203.689 122.151C203.844 121.789 204.32 121.639 204.741 121.822L257.43 144.445C257.852 144.624 258.069 145.07 257.914 145.433Z" fill="#ECECF0"/>
<path d="M238.297 139.858C238.143 140.221 237.667 140.371 237.245 140.188L203.138 125.545C202.716 125.366 202.499 124.92 202.654 124.557C202.808 124.194 203.284 124.044 203.706 124.228L237.813 138.87C238.235 139.049 238.452 139.496 238.297 139.858Z" fill="#ECECF0"/>
<path d="M228.718 138.633C228.564 138.995 228.088 139.145 227.666 138.962L202.09 127.98C201.668 127.801 201.451 127.355 201.606 126.992C201.76 126.629 202.236 126.479 202.658 126.663L228.234 137.644C228.656 137.824 228.873 138.27 228.718 138.633Z" fill="#ECECF0"/>
<path d="M251.977 159.225C251.822 159.587 251.346 159.737 250.924 159.554L198.236 136.932C197.814 136.752 197.597 136.306 197.751 135.943C197.906 135.581 198.382 135.431 198.804 135.614L251.492 158.237C251.914 158.416 252.131 158.862 251.977 159.225Z" fill="#ECECF0"/>
<path d="M232.359 153.65C232.205 154.013 231.729 154.163 231.307 153.98L197.2 139.337C196.779 139.158 196.561 138.712 196.716 138.349C196.87 137.986 197.346 137.836 197.768 138.02L231.875 152.662C232.297 152.841 232.514 153.288 232.359 153.65Z" fill="#ECECF0"/>
<path d="M222.78 152.429C222.626 152.791 222.15 152.942 221.728 152.758L196.152 141.776C195.73 141.597 195.513 141.151 195.668 140.788C195.822 140.425 196.298 140.275 196.72 140.459L222.296 151.441C222.718 151.62 222.935 152.066 222.78 152.429Z" fill="#ECECF0"/>
<path d="M239.04 189.264C238.886 189.627 238.41 189.777 237.988 189.594L185.3 166.971C184.878 166.792 184.661 166.346 184.815 165.983C184.97 165.62 185.446 165.47 185.867 165.654L238.556 188.276C238.978 188.455 239.195 188.902 239.04 189.264Z" fill="#ECECF0"/>
<path d="M219.423 183.686C219.269 184.048 218.793 184.199 218.371 184.015L184.264 169.373C183.842 169.193 183.625 168.747 183.78 168.385C183.934 168.022 184.41 167.872 184.832 168.055L218.939 182.698C219.361 182.877 219.578 183.323 219.423 183.686Z" fill="#ECECF0"/>
<path d="M209.844 182.464C209.69 182.827 209.214 182.977 208.792 182.794L183.216 171.812C182.794 171.632 182.577 171.186 182.732 170.824C182.886 170.461 183.362 170.311 183.784 170.494L209.36 181.476C209.782 181.655 209.999 182.101 209.844 182.464Z" fill="#ECECF0"/>
<path d="M246.907 170.999C246.753 171.361 246.277 171.511 245.855 171.328L193.167 148.706C192.745 148.526 192.528 148.08 192.682 147.717C192.837 147.355 193.313 147.205 193.734 147.388L246.423 170.011C246.845 170.19 247.062 170.636 246.907 170.999Z" fill="#ECECF0"/>
<path d="M227.286 165.42C227.131 165.783 226.655 165.933 226.234 165.75L192.127 151.107C191.705 150.928 191.488 150.482 191.642 150.119C191.797 149.756 192.273 149.606 192.695 149.79L226.802 164.432C227.223 164.611 227.44 165.057 227.286 165.42Z" fill="#ECECF0"/>
<path d="M224.025 173C223.87 173.363 223.394 173.513 222.972 173.329L188.866 158.687C188.444 158.507 188.227 158.061 188.381 157.699C188.536 157.336 189.012 157.186 189.433 157.369L223.54 172.012C223.962 172.191 224.179 172.637 224.025 173Z" fill="#ECECF0"/>
<path d="M217.707 164.199C217.552 164.561 217.076 164.711 216.655 164.528L191.079 153.546C190.657 153.367 190.44 152.921 190.594 152.558C190.749 152.195 191.225 152.045 191.647 152.229L217.223 163.21C217.644 163.39 217.861 163.836 217.707 164.199Z" fill="#ECECF0"/>
<path d="M211.978 164.778C211.823 165.141 211.347 165.291 210.926 165.107L189.976 156.114C189.555 155.935 189.337 155.489 189.492 155.126C189.646 154.763 190.122 154.613 190.544 154.797L211.494 163.79C211.915 163.969 212.132 164.415 211.978 164.778Z" fill="#ECECF0"/>
<path d="M255.781 140.104C255.739 140.104 255.693 140.096 255.655 140.079C255.568 140.042 255.501 139.963 255.48 139.867L254.561 136.027C254.524 135.877 254.603 135.722 254.745 135.664C254.783 135.647 254.824 135.639 254.866 135.639C254.971 135.639 255.075 135.693 255.133 135.789L256.491 138.016L261.489 136.331C261.522 136.319 261.556 136.314 261.589 136.314C261.71 136.314 261.823 136.385 261.877 136.502C261.944 136.652 261.881 136.823 261.739 136.902L255.935 140.063C255.889 140.088 255.835 140.1 255.785 140.1L255.781 140.104Z" fill="#88BA34"/>
<path d="M254.862 135.956L256.349 138.399L261.585 136.635L255.781 139.796L254.862 135.956ZM254.862 135.331C254.783 135.331 254.703 135.347 254.624 135.376C254.34 135.493 254.181 135.802 254.252 136.102L255.171 139.942C255.217 140.129 255.346 140.288 255.526 140.367C255.605 140.405 255.693 140.421 255.781 140.421C255.885 140.421 255.989 140.396 256.081 140.346L261.869 137.194C262.073 137.09 262.211 136.881 262.211 136.635C262.211 136.302 261.948 136.027 261.614 136.01C261.602 136.01 261.593 136.01 261.581 136.01C261.551 136.01 261.518 136.01 261.489 136.018C261.447 136.023 261.405 136.035 261.368 136.048L256.624 137.649L255.397 135.635C255.28 135.443 255.075 135.335 254.862 135.335V135.331Z" fill="#88BA34"/>
<path d="M232.155 194.955C232.113 194.955 232.067 194.947 232.029 194.93C231.942 194.893 231.875 194.814 231.854 194.718L230.935 190.878C230.898 190.728 230.977 190.573 231.119 190.515C231.157 190.498 231.199 190.49 231.24 190.49C231.345 190.49 231.449 190.544 231.508 190.64L232.865 192.866L237.863 191.182C237.896 191.17 237.93 191.165 237.963 191.165C238.084 191.165 238.197 191.236 238.251 191.353C238.318 191.503 238.255 191.674 238.113 191.753L232.309 194.914C232.263 194.939 232.209 194.951 232.159 194.951L232.155 194.955Z" fill="#88BA34"/>
<path d="M231.24 190.807L232.727 193.25L237.963 191.486L232.159 194.647L231.24 190.807ZM231.24 190.181C231.161 190.181 231.082 190.198 231.002 190.227C230.718 190.344 230.56 190.653 230.631 190.953L231.549 194.793C231.595 194.98 231.725 195.139 231.904 195.218C231.984 195.256 232.071 195.272 232.159 195.272C232.263 195.272 232.368 195.247 232.46 195.197L238.247 192.045C238.452 191.941 238.589 191.732 238.589 191.486C238.589 191.153 238.326 190.878 237.992 190.861C237.98 190.861 237.971 190.861 237.959 190.861C237.93 190.861 237.896 190.861 237.867 190.869C237.825 190.874 237.784 190.886 237.746 190.899L233.002 192.5L231.775 190.486C231.658 190.294 231.453 190.186 231.24 190.186V190.181Z" fill="#88BA34"/>
<path d="M244.419 166.479C244.377 166.479 244.331 166.471 244.293 166.454C244.206 166.417 244.139 166.337 244.118 166.242L243.199 162.402C243.162 162.252 243.241 162.097 243.383 162.039C243.421 162.022 243.463 162.014 243.504 162.014C243.609 162.014 243.713 162.068 243.771 162.164L245.129 164.39L250.127 162.706C250.16 162.693 250.194 162.689 250.227 162.689C250.348 162.689 250.461 162.76 250.515 162.877C250.582 163.027 250.519 163.198 250.377 163.277L244.573 166.437C244.527 166.462 244.473 166.475 244.423 166.475L244.419 166.479Z" fill="#88BA34"/>
<path d="M243.504 162.331L244.991 164.774L250.227 163.01L244.423 166.171L243.504 162.331ZM243.504 161.705C243.425 161.705 243.346 161.722 243.266 161.751C242.982 161.868 242.824 162.176 242.895 162.477L243.813 166.317C243.859 166.504 243.989 166.663 244.168 166.742C244.248 166.779 244.335 166.796 244.423 166.796C244.527 166.796 244.632 166.771 244.724 166.721L250.511 163.569C250.716 163.465 250.853 163.256 250.853 163.01C250.853 162.677 250.59 162.402 250.256 162.385C250.244 162.385 250.235 162.385 250.223 162.385C250.194 162.385 250.16 162.385 250.131 162.393C250.089 162.397 250.048 162.41 250.01 162.422L245.266 164.023L244.039 162.01C243.922 161.818 243.717 161.709 243.504 161.709V161.705Z" fill="#88BA34"/>
<path d="M203.773 80.8089H103.348C101.311 80.8089 99.6607 82.4571 99.6607 84.4904V214.259C99.6607 216.292 101.311 217.941 103.348 217.941H203.773C205.809 217.941 207.46 216.292 207.46 214.259V84.4904C207.46 82.4571 205.809 80.8089 203.773 80.8089Z" fill="#13959C"/>
<path d="M207.456 209.723C207.456 211.687 205.806 213.279 203.769 213.279H103.344C101.31 213.279 99.6566 211.687 99.6566 209.723V84.3653C99.6566 82.4016 101.306 80.8089 103.344 80.8089H203.769C205.802 80.8089 207.456 82.4016 207.456 84.3653V209.727V209.723Z" fill="#24B7C4"/>
<path d="M201.2 88.2135H105.92V204.803H201.2V88.2135Z" fill="white"/>
<path d="M183.901 81.9596C183.901 78.9494 181.458 76.5104 178.443 76.5104H128.673C125.658 76.5104 123.216 78.9494 123.216 81.9596V91.549H183.901V81.9596Z" fill="#B4B3B3"/>
<path d="M160.371 84.4591C163.139 80.7008 162.332 75.4136 158.568 72.6499C154.803 69.8861 149.508 70.6923 146.74 74.4506C143.972 78.2089 144.78 83.4961 148.544 86.2599C152.308 89.0237 157.603 88.2175 160.371 84.4591Z" fill="#B4B3B3"/>
<path d="M156.149 76.8689C156.149 78.299 154.988 79.4581 153.556 79.4581C152.124 79.4581 150.963 78.299 150.963 76.8689C150.963 75.4389 152.124 74.2798 153.556 74.2798C154.988 74.2798 156.149 75.4389 156.149 76.8689Z" fill="#EDEFC7"/>
<path d="M183.901 84.8781H123.216V91.5531H183.901V84.8781Z" fill="#D2D2D2"/>
<path d="M184.548 113.488C184.548 113.925 184.172 114.28 183.713 114.28H120.13C119.671 114.28 119.295 113.921 119.295 113.488C119.295 113.054 119.671 112.696 120.13 112.696H183.713C184.172 112.696 184.548 113.054 184.548 113.488Z" fill="#ECECF0"/>
<path d="M162.183 116.377C162.183 116.815 161.807 117.169 161.348 117.169H120.13C119.671 117.169 119.295 116.811 119.295 116.377C119.295 115.943 119.671 115.585 120.13 115.585H161.348C161.807 115.585 162.183 115.943 162.183 116.377Z" fill="#ECECF0"/>
<path d="M151.923 119.312C151.923 119.75 151.548 120.104 151.088 120.104H120.13C119.671 120.104 119.295 119.746 119.295 119.312C119.295 118.879 119.671 118.52 120.13 118.52H151.088C151.548 118.52 151.923 118.879 151.923 119.312Z" fill="#ECECF0"/>
<path d="M184.16 132.262H134.006C133.544 132.262 133.17 132.635 133.17 133.096V133.888C133.17 134.348 133.544 134.722 134.006 134.722H184.16C184.621 134.722 184.995 134.348 184.995 133.888V133.096C184.995 132.635 184.621 132.262 184.16 132.262Z" fill="#ECECF0"/>
<path d="M184.16 144.649H134.006C133.544 144.649 133.17 145.022 133.17 145.483V146.275C133.17 146.735 133.544 147.109 134.006 147.109H184.16C184.621 147.109 184.995 146.735 184.995 146.275V145.483C184.995 145.022 184.621 144.649 184.16 144.649Z" fill="#ECECF0"/>
<path d="M184.16 157.257H134.006C133.544 157.257 133.17 157.63 133.17 158.091V158.883C133.17 159.343 133.544 159.717 134.006 159.717H184.16C184.621 159.717 184.995 159.343 184.995 158.883V158.091C184.995 157.63 184.621 157.257 184.16 157.257Z" fill="#ECECF0"/>
<path d="M184.16 169.018H134.006C133.544 169.018 133.17 169.392 133.17 169.852V170.644C133.17 171.105 133.544 171.478 134.006 171.478H184.16C184.621 171.478 184.995 171.105 184.995 170.644V169.852C184.995 169.392 184.621 169.018 184.16 169.018Z" fill="#ECECF0"/>
<path d="M128.009 129.047V136.765H120.28V129.047H128.009ZM128.991 128.068H119.295V137.749H128.991V128.068Z" fill="#ECECF0"/>
<path d="M128.009 141.597V149.314H120.28V141.597H128.009ZM128.991 140.617H119.295V150.298H128.991V140.617Z" fill="#ECECF0"/>
<path d="M128.009 154.134V161.851H120.28V154.134H128.009ZM128.991 153.154H119.295V162.835H128.991V153.154Z" fill="#ECECF0"/>
<path d="M128.009 166.834V174.551H120.28V166.834H128.009ZM128.991 165.854H119.295V175.535H128.991V165.854Z" fill="#ECECF0"/>
<path d="M124.184 135.56C124.088 135.56 123.997 135.514 123.938 135.435L120.744 131.153C120.652 131.028 120.664 130.857 120.773 130.748C120.836 130.686 120.915 130.653 120.998 130.653C121.061 130.653 121.124 130.673 121.178 130.711L124.13 132.808L129.504 127.988C129.563 127.934 129.638 127.909 129.713 127.909C129.788 127.909 129.868 127.938 129.926 127.993C130.043 128.105 130.06 128.284 129.959 128.414L124.439 135.443C124.381 135.518 124.289 135.564 124.193 135.564L124.184 135.56Z" fill="#88BA34"/>
<path d="M129.709 128.218L124.189 135.247L120.994 130.965L124.151 133.208L129.713 128.222M129.713 127.597C129.713 127.597 129.705 127.597 129.701 127.597C129.542 127.597 129.4 127.659 129.291 127.759L124.105 132.412L121.358 130.461C121.249 130.382 121.12 130.344 120.994 130.344C120.831 130.344 120.669 130.407 120.547 130.532C120.33 130.753 120.309 131.095 120.493 131.345L123.688 135.627C123.804 135.781 123.988 135.877 124.18 135.877C124.18 135.877 124.184 135.877 124.189 135.877C124.381 135.877 124.564 135.789 124.681 135.639L130.189 128.63C130.281 128.522 130.339 128.38 130.339 128.226C130.339 127.88 130.06 127.601 129.713 127.601V127.597Z" fill="#88BA34"/>
<path d="M124.184 147.125C124.088 147.125 123.997 147.08 123.938 147L120.744 142.718C120.652 142.593 120.664 142.422 120.773 142.314C120.836 142.251 120.915 142.218 120.998 142.218C121.061 142.218 121.124 142.239 121.178 142.277L124.13 144.374L129.504 139.554C129.563 139.5 129.638 139.475 129.713 139.475C129.788 139.475 129.868 139.504 129.926 139.558C130.043 139.671 130.06 139.85 129.959 139.979L124.439 147.009C124.381 147.084 124.289 147.13 124.193 147.13L124.184 147.125Z" fill="#88BA34"/>
<path d="M129.709 139.783L124.189 146.813L120.994 142.531L124.151 144.774L129.713 139.787M129.713 139.162H129.709C129.55 139.162 129.404 139.225 129.295 139.325L124.109 143.978L121.362 142.026C121.253 141.947 121.124 141.91 120.998 141.91C120.836 141.91 120.673 141.972 120.552 142.097C120.334 142.318 120.314 142.66 120.497 142.91L123.692 147.192C123.809 147.346 123.992 147.442 124.184 147.442C124.184 147.442 124.189 147.442 124.193 147.442C124.385 147.442 124.569 147.355 124.686 147.205L130.193 140.196C130.285 140.088 130.344 139.946 130.344 139.792C130.344 139.446 130.064 139.166 129.717 139.166L129.713 139.162Z" fill="#88BA34"/>
<path d="M105.92 176.202V204.678H119.792C119.182 204.678 106.755 190.507 105.92 176.202Z" fill="#DDDDE0"/>
<path d="M121.566 191.211C117.453 189.986 114.418 188.276 112.175 186.387C106.893 181.939 106.033 176.515 105.92 174.226V176.085C106.755 190.394 119.182 204.682 119.792 204.678C119.153 203.936 118.869 202.902 118.84 201.818C118.764 199.179 120.176 195.572 121.566 191.211Z" fill="#ECECF0"/>
<path d="M55.3903 254.618C53.4987 256.506 50.4338 256.511 48.5422 254.622C46.6506 252.733 46.6464 249.673 48.538 247.784L55.2525 241.072C57.1441 239.183 60.209 239.179 62.1006 241.068C63.9922 242.956 63.9963 246.016 62.1047 247.905L55.3903 254.618Z" fill="white"/>
<path d="M53.0227 243.244L49.7417 246.525L56.6468 253.41L59.9279 250.129L53.0227 243.244Z" fill="#D2D2D2"/>
<path d="M103.193 192.95L110.1 199.833L116.526 186.592L103.193 192.95Z" fill="#FDFFFE"/>
<path d="M116.656 186.387L112.48 188.38L114.647 190.536L116.656 186.387Z" fill="#543823"/>
<path d="M103.187 192.963L52.9973 243.268L59.9138 250.148L110.104 199.842L103.187 192.963Z" fill="#FCB040"/>
<path d="M105.128 194.897L54.9379 245.203L57.9702 248.219L108.16 197.913L105.128 194.897Z" fill="#E6A03A"/>
<path d="M118.718 197.815C118.718 197.815 118.718 197.828 118.71 197.849L118.718 197.815Z" fill="#ECECF0"/>
</g>
<defs>
<clipPath id="clip0_35_7842">
<rect width="286" height="293" fill="white"/>
</clipPath>
</defs>
</svg>
