<svg width="81" height="64" viewBox="0 0 81 64" fill="none" xmlns="http://www.w3.org/2000/svg">
<path d="M52.5862 55.0272C50.0133 55.2212 47.4246 55.2253 44.8505 55.0393C42.599 54.8799 40.3561 54.5846 38.098 54.7171C37.7285 54.7385 37.3551 54.7261 36.9815 54.6966C35.2868 54.5644 33.529 53.9749 31.926 53.5702C31.116 53.3662 30.4497 53.2589 29.7642 53.2502C29.6081 53.2453 29.4486 53.2472 29.2893 53.256C28.8518 53.2714 28.391 53.3279 27.873 53.419C24.3553 54.0417 20.7997 54.6241 17.2303 54.9013C16.3422 54.9731 15.4505 55.0212 14.5618 55.0489C9.92884 55.1931 5.28907 55.0592 0.655273 54.8573C1.78348 53.3168 2.96322 51.83 4.09146 50.293C4.08614 50.1336 4.08426 49.9775 4.08233 49.8181C4.01886 46.2495 4.37969 42.6961 4.83559 39.1484C5.02164 37.6973 5.22464 36.2461 5.42087 34.7949C5.45499 34.5299 5.4925 34.2648 5.52662 33.9997C5.74741 32.3345 5.83228 30.654 5.77811 28.9785C5.77275 28.8157 5.76743 28.6563 5.75868 28.4936C5.7098 27.5374 5.61687 26.5851 5.47305 25.6334C5.16664 23.581 4.90433 21.528 4.69279 19.4643C4.65844 19.1491 4.62753 18.8374 4.59658 18.5222C4.5541 18.0952 4.51501 17.6682 4.47931 17.2411C4.33747 15.6108 4.20577 13.977 4.13852 12.3424C4.09053 11.1792 3.77802 10.026 3.43523 8.8935C3.43511 8.88332 3.43159 8.87318 3.42807 8.86305L3.38564 8.72105L3.23714 8.22408C3.23714 8.22408 3.23007 8.20042 3.22651 8.1869C2.71015 6.44916 1.7562 4.72011 1.05395 3.0423C2.97279 2.63233 4.82537 2.07386 6.77001 1.83322C8.22005 1.65623 9.67348 1.47921 11.1235 1.29883C11.8587 1.20851 12.5844 1.17599 13.3105 1.18079C16.3812 1.1912 19.3781 1.83018 22.4741 1.3992C22.5825 1.38432 22.6943 1.3694 22.8026 1.35112C24.9258 1.00314 27.2206 0.259507 29.4092 0.273781C29.6128 0.271321 29.8199 0.282395 30.0202 0.296939C30.2953 0.317366 30.5705 0.351364 30.8425 0.398972C31.3219 0.474612 31.7948 0.580863 32.2677 0.687117C33.6252 0.996438 34.965 1.52312 36.3287 1.78147C36.3831 1.79439 36.4409 1.80387 36.4953 1.81339C37.8655 2.05131 39.3557 1.82973 40.7561 1.75174C44.1197 1.5686 47.8027 1.70732 51.1 1.09068C50.6368 2.9115 50.1593 4.67821 49.5392 6.42288C49.3324 7.00557 49.1087 7.58507 48.868 8.16139C48.7064 8.55013 48.5687 8.94538 48.4514 9.34717C48.334 9.73538 48.2404 10.1335 48.1604 10.5382C47.7545 12.6026 47.7642 14.8079 47.7567 16.9965C47.7544 17.3663 47.7554 17.7361 47.7497 18.106C47.7329 19.5245 47.6752 20.9265 47.4573 22.2659C47.1605 24.1017 46.8953 25.7369 46.8774 27.6236C46.8782 27.6914 46.8756 27.7593 46.8764 27.8272C46.8592 29.7681 46.8664 31.7733 46.8181 33.6739C46.8024 34.3357 46.8239 34.9971 46.8795 35.6614C47.0638 38.0037 47.6215 40.3551 48.1103 42.6157C48.6812 45.2179 49.0321 47.8602 49.3998 50.4988C49.4185 50.6377 49.4372 50.78 49.4592 50.9222C49.4708 51.0375 49.4891 51.1492 49.5041 51.2644C49.6622 51.4287 49.8101 51.6 49.9446 51.7748C50.8267 52.8974 51.3789 54.2309 52.5862 55.0272Z" fill="url(#paint0_linear_230_925)"/>
<path d="M47.7564 16.9953C47.754 17.3652 47.7551 17.735 47.7494 18.1049C47.7326 19.5234 47.6749 20.9253 47.457 22.2648C47.1602 24.1006 46.895 25.7358 46.877 27.6225C46.8779 27.6903 46.8753 27.7582 46.8761 27.826C46.8588 29.767 46.8661 31.7722 46.8178 33.6728C46.8021 34.3346 46.8236 34.996 46.8792 35.6603C42.3352 35.8713 38.1181 38.148 33.6695 39.2298C28.9874 40.3687 23.6917 40.1477 18.9134 39.7745C14.9943 39.4724 11.0717 39.1669 7.1492 38.8614C6.58544 38.8173 5.67189 39.0286 4.83527 39.1473C5.02132 37.6962 5.22432 36.245 5.42055 34.7938C5.45467 34.5288 5.49218 34.2637 5.5263 33.9986C5.74708 32.3334 5.83196 30.6529 5.77779 28.9774C5.77243 28.8146 5.76711 28.6552 5.75836 28.4925C5.70948 27.5362 5.61655 26.5839 5.47273 25.6323C5.16632 23.5798 4.90401 21.5269 4.69246 19.4631C6.3262 19.6063 7.9565 19.746 9.59023 19.8892C14.5457 20.3179 19.4978 20.7466 24.4533 21.1787C26.1481 21.3245 27.8498 21.4736 29.552 21.3886C31.9393 21.2749 34.2803 20.7038 36.5938 20.1024C40.3313 19.131 44.0439 18.0682 47.7564 16.9953Z" fill="url(#paint1_linear_230_925)"/>
<path d="M28.0941 40.5192C27.1187 41.5047 25.8559 42.297 24.7352 42.7753C21.6432 44.0918 18.0717 43.073 15.6021 40.8669C14.6075 39.9831 13.7796 38.5783 13.516 37.2616C13.2053 35.6978 13.65 34.0299 14.6824 32.7044C14.9062 32.4133 15.1743 32.1352 15.5188 32.0089C16.5932 31.6261 18.1156 32.9445 18.779 33.6592C19.3497 34.2766 19.8163 34.9835 20.2694 35.6939C20.3282 35.7916 20.3904 35.8825 20.4493 35.9802C21.39 34.6523 22.761 33.8283 24.3478 33.4562C25.9311 33.0808 27.7519 33.5372 28.7849 34.7937C30.4827 36.8666 29.6561 38.9395 28.0907 40.5158L28.0941 40.5192Z" fill="url(#paint2_linear_230_925)"/>
<path d="M28.0941 40.5192C26.4656 41.6483 24.5334 42.3467 22.5606 42.5029C22.1606 42.5349 21.7195 42.53 21.4144 42.2724C21.0134 41.9414 21.0233 41.3577 21.0677 40.8211C21.0737 40.7497 21.0796 40.6818 21.0889 40.6104C21.2519 38.9358 20.9565 37.2327 20.273 35.6971C20.3318 35.7948 20.394 35.8857 20.4529 35.9834C21.3936 34.6555 22.7646 33.8315 24.3514 33.4594C25.9347 33.084 27.7555 33.5405 28.7885 34.7969C30.4863 36.8699 29.6596 38.9429 28.0941 40.5192Z" fill="url(#paint3_linear_230_925)"/>
<path d="M14.7821 32.8013C14.4103 33.1993 14.0975 33.7087 13.878 34.0777C13.7849 34.2349 13.6954 34.4057 13.7044 34.5888C13.7169 34.7854 13.8446 34.9637 13.8402 35.1572C13.8362 35.3879 13.6526 35.6412 13.7973 35.8227C13.8895 35.3092 14.0463 34.8052 14.2644 34.3275C14.2975 34.2525 14.3372 34.174 14.4079 34.129C14.6032 34.0011 14.857 34.2254 15.0874 34.1988C15.3279 34.1722 15.4536 33.9026 15.4982 33.6646C15.5429 33.4265 15.5736 33.1581 15.7652 33.0099C16.0341 32.7997 16.4298 32.9815 16.6937 33.1989C16.9542 33.4197 17.2324 33.6945 17.5748 33.67C17.6384 33.6014 17.7398 33.5663 17.835 33.5821C17.8228 33.6942 17.9425 33.7776 18.0547 33.7966C18.167 33.819 18.2856 33.8073 18.3846 33.8604C18.6851 34.0197 18.986 34.4944 19.3008 34.7112C18.6973 34.1858 18.2245 33.5265 17.6244 33.001C17.1649 32.5994 16.3443 32.0834 15.6944 32.21C15.3661 32.2717 15.0567 32.5061 14.7821 32.8013Z" fill="url(#paint4_linear_230_925)" style="mix-blend-mode:screen"/>
<path d="M32.7717 27.671C33.6687 27.7756 34.6276 27.6656 35.3917 27.4494C37.495 26.8607 38.8895 24.893 39.2473 22.7714C39.3931 21.9181 39.2413 20.8715 38.8384 20.096C38.359 19.1755 37.4586 18.5112 36.3936 18.2594C36.1622 18.2045 35.9141 18.1702 35.6877 18.2476C34.9883 18.4901 34.7528 19.7755 34.7062 20.4105C34.6686 20.9539 34.7194 21.5029 34.7802 22.0484C34.7879 22.123 34.7956 22.1941 34.8032 22.2653C33.7886 21.9756 32.7588 22.1136 31.8007 22.5696C30.846 23.0222 30.1079 23.9947 30.0935 25.0501C30.0739 26.7909 31.3379 27.5051 32.7716 27.6676L32.7717 27.671Z" fill="url(#paint5_linear_230_925)"/>
<path d="M32.7717 27.671C34.0565 27.5809 35.321 27.1524 36.3844 26.4304C36.5998 26.2819 36.8215 26.1028 36.8727 25.8477C36.94 25.5178 36.699 25.2255 36.4584 24.9706C36.4274 24.937 36.3965 24.9068 36.3622 24.8733C35.5995 24.092 35.0583 23.1044 34.7775 22.0492C34.7852 22.1237 34.7928 22.1949 34.8005 22.2661C33.7859 21.9763 32.7561 22.1143 31.798 22.5704C30.8433 23.023 30.1052 23.9955 30.0908 25.0509C30.0711 26.7917 31.3351 27.5059 32.7689 27.6684L32.7717 27.671Z" fill="url(#paint6_linear_230_925)"/>
<path d="M36.3854 18.3474C36.7355 18.3974 37.1035 18.5287 37.3625 18.6274C37.475 18.6701 37.591 18.7196 37.6566 18.8172C37.7291 18.9215 37.7376 19.0639 37.8202 19.1613C37.9166 19.2755 38.1107 19.3308 38.1125 19.4801C37.8553 19.2559 37.5714 19.0659 37.2676 18.9101C37.2198 18.887 37.1686 18.8604 37.1144 18.8679C36.9619 18.8833 36.9271 19.0975 36.7958 19.1805C36.6645 19.2635 36.4904 19.1774 36.3704 19.077C36.2505 18.9767 36.1268 18.8493 35.9708 18.8545C35.7469 18.8572 35.621 19.1098 35.5795 19.3275C35.5346 19.5452 35.5071 19.7966 35.3255 19.9243C35.2643 19.9149 35.2001 19.9394 35.1565 19.984C35.2081 20.0377 35.1786 20.1263 35.1318 20.1811C35.085 20.236 35.021 20.2809 34.9913 20.3491C34.9021 20.5503 34.9438 20.9129 34.8721 21.1547C34.9643 20.6446 34.9342 20.1157 35.0264 19.6056C35.0964 19.2146 35.303 18.6217 35.6839 18.4203C35.8761 18.3196 36.1271 18.3098 36.3888 18.3473L36.3854 18.3474Z" fill="url(#paint7_linear_230_925)" style="mix-blend-mode:screen"/>
<path d="M30.5939 20.5387C30.2122 20.6791 29.7819 20.7351 29.4255 20.7225C28.4446 20.6902 27.6217 19.9809 27.2378 19.0932C27.0841 18.7354 27.0343 18.261 27.1281 17.8798C27.238 17.4272 27.5624 17.0399 27.9974 16.8141C28.0918 16.7655 28.1965 16.7235 28.3052 16.7324C28.638 16.7623 28.8786 17.2988 28.9667 17.5726C29.0408 17.8058 29.0777 18.0497 29.1112 18.2969C29.115 18.3308 29.1188 18.3613 29.1226 18.3952C29.5337 18.1595 30.0013 18.1098 30.4673 18.2059C30.9333 18.3021 31.3616 18.6464 31.4791 19.1064C31.6748 19.864 31.1985 20.3143 30.5905 20.5388L30.5939 20.5387Z" fill="url(#paint8_linear_230_925)"/>
<path d="M30.5939 20.5387C30.0217 20.6372 29.4242 20.5833 28.8823 20.3829C28.7732 20.3401 28.6572 20.2872 28.605 20.1793C28.5389 20.041 28.6151 19.8874 28.6914 19.7507C28.7014 19.7336 28.7114 19.7166 28.7213 19.6961C28.9707 19.2723 29.1005 18.7822 29.1115 18.2935C29.1153 18.3274 29.1191 18.3579 29.1229 18.3917C29.534 18.1561 30.0016 18.1063 30.4676 18.2024C30.9336 18.2986 31.3619 18.6429 31.4794 19.1029C31.6752 19.8606 31.1988 20.3108 30.5908 20.5353L30.5939 20.5387Z" fill="url(#paint9_linear_230_925)"/>
<path d="M28.0145 16.8554C27.8659 16.9149 27.7212 17.0116 27.6169 17.0807C27.5731 17.1118 27.526 17.1463 27.5097 17.194C27.49 17.2485 27.5009 17.3095 27.4743 17.3607C27.4446 17.4221 27.3637 17.4672 27.3814 17.5315C27.4681 17.4049 27.5719 17.2917 27.6895 17.1918C27.7062 17.1747 27.7264 17.1609 27.7501 17.1572C27.8178 17.1462 27.8563 17.2373 27.921 17.2603C27.9891 17.2832 28.0529 17.2248 28.0963 17.17C28.1364 17.1118 28.1796 17.0434 28.2473 17.029C28.3455 17.0075 28.428 17.1015 28.4698 17.1926C28.5117 17.2837 28.5503 17.3918 28.6457 17.4246C28.6727 17.4141 28.7033 17.4171 28.7272 17.4338C28.7106 17.4611 28.7314 17.4982 28.7588 17.5182C28.7862 17.5382 28.8168 17.548 28.8375 17.5749C28.8961 17.6523 28.9185 17.8183 28.9773 17.9125C28.8831 17.6999 28.8396 17.4663 28.742 17.2538C28.6688 17.0918 28.5166 16.8527 28.3295 16.8075C28.2342 16.7849 28.1259 16.81 28.0145 16.852L28.0145 16.8554Z" fill="url(#paint10_linear_230_925)" style="mix-blend-mode:screen"/>
<path d="M24.7344 29.8435C24.2384 29.5034 23.8017 29.0269 23.5114 28.586C22.7095 27.3708 22.87 25.7674 23.6186 24.5437C23.918 24.0515 24.4519 23.5904 24.9956 23.3768C25.6372 23.1248 26.3844 23.1836 27.0297 23.5219C27.1731 23.5948 27.31 23.6882 27.3897 23.8263C27.6357 24.2542 27.1902 25.0061 26.9398 25.345C26.7194 25.6361 26.4544 25.8903 26.186 26.1379C26.1491 26.1722 26.1155 26.2032 26.0786 26.2376C26.7167 26.5352 27.1743 27.059 27.4569 27.7036C27.7395 28.3483 27.6849 29.1632 27.2299 29.7014C26.4772 30.5859 25.5283 30.3938 24.7345 29.8469L24.7344 29.8435Z" fill="url(#paint11_linear_230_925)"/>
<path d="M24.7344 29.8435C24.1266 29.2367 23.6795 28.4658 23.4591 27.6372C23.4163 27.4681 23.3836 27.2819 23.47 27.1315C23.5795 26.9334 23.8301 26.8931 24.0606 26.8699C24.0911 26.8695 24.1216 26.8658 24.1521 26.862C24.8774 26.8024 25.5834 26.5428 26.1858 26.1351C26.1489 26.1695 26.1154 26.2004 26.0785 26.2348C26.7165 26.5325 27.1741 27.0562 27.4567 27.7009C27.7394 28.3455 27.6847 29.1605 27.2298 29.6987C26.4771 30.5831 25.5282 30.3904 24.7344 29.8435Z" fill="url(#paint12_linear_230_925)"/>
<path d="M26.9955 23.57C26.7972 23.4434 26.5552 23.348 26.3813 23.2822C26.3064 23.256 26.228 23.2298 26.1502 23.2477C26.069 23.269 26.002 23.3377 25.9173 23.3489C25.8191 23.3637 25.6963 23.3075 25.6293 23.3829C25.8566 23.3802 26.0843 23.4113 26.3021 23.4664C26.3362 23.4762 26.3736 23.4859 26.3977 23.5127C26.4665 23.5866 26.3899 23.7096 26.4216 23.8076C26.45 23.9091 26.5759 23.9415 26.6811 23.9402C26.7862 23.9389 26.9016 23.9342 26.9804 24.0045C27.0902 24.1049 27.0449 24.2853 26.9718 24.4151C26.8988 24.5449 26.802 24.6818 26.8377 24.8273C26.8719 24.8506 26.8961 24.891 26.8966 24.9317C26.8492 24.9357 26.8227 24.9937 26.8233 25.0412C26.8239 25.0887 26.8347 25.1395 26.8217 25.1871C26.7759 25.3268 26.598 25.4918 26.5286 25.6453C26.7049 25.348 26.9495 25.094 27.1291 24.7966C27.2655 24.5676 27.4202 24.179 27.3186 23.9122C27.2661 23.7771 27.1426 23.6632 26.9955 23.5666L26.9955 23.57Z" fill="url(#paint13_linear_230_925)" style="mix-blend-mode:screen"/>
<path d="M34.746 38.6632C35.3031 38.4393 35.8313 38.0665 36.2102 37.6955C37.2531 36.6786 37.4408 35.0782 36.9731 33.7233C36.7867 33.1793 36.3625 32.611 35.8768 32.2878C35.3021 31.9011 34.5613 31.8015 33.8579 31.9932C33.7023 32.0358 33.547 32.0954 33.4398 32.212C33.1083 32.5791 33.3796 33.4071 33.5539 33.7918C33.7072 34.1224 33.911 34.4287 34.1182 34.7282C34.1459 34.7686 34.1735 34.8089 34.2011 34.8493C33.5142 35.0035 32.956 35.414 32.5421 35.9857C32.1283 36.5573 32.0057 37.3595 32.3356 37.9832C32.8806 39.0081 33.8478 39.0235 34.7425 38.6599L34.746 38.6632Z" fill="url(#paint14_linear_230_925)"/>
<path d="M34.746 38.6632C35.4699 38.1998 36.072 37.5442 36.4632 36.7829C36.5428 36.6292 36.6153 36.4519 36.5624 36.2863C36.4953 36.07 36.2635 35.9778 36.0387 35.9058C36.008 35.896 35.9808 35.8896 35.9501 35.8798C35.2554 35.6642 34.6194 35.2614 34.1211 34.7347C34.1487 34.7751 34.1763 34.8154 34.204 34.8558C33.5171 35.01 32.9588 35.4205 32.545 35.9921C32.1312 36.5638 32.0085 37.366 32.3384 37.9897C32.8835 39.0146 33.8506 39.03 34.7454 38.6663L34.746 38.6632Z" fill="url(#paint15_linear_230_925)"/>
<path d="M33.8789 32.0474C34.0984 31.9633 34.3559 31.9262 34.5388 31.9003C34.6167 31.8892 34.7014 31.8813 34.7731 31.9178C34.8482 31.9542 34.9 32.035 34.9785 32.068C35.0705 32.1042 35.2025 32.0755 35.2511 32.1631C35.0299 32.1149 34.8024 32.0939 34.5751 32.1C34.5378 32.1005 34.5005 32.1009 34.4702 32.125C34.3861 32.1837 34.4352 32.3189 34.3854 32.4077C34.3356 32.4999 34.2068 32.5048 34.1013 32.4824C33.9993 32.4598 33.8869 32.4273 33.7959 32.4793C33.6679 32.5521 33.6735 32.742 33.7159 32.8806C33.7618 33.0225 33.8247 33.1779 33.7585 33.311C33.7179 33.3251 33.6878 33.3593 33.6781 33.4002C33.7258 33.4132 33.7367 33.4775 33.7271 33.5251C33.7175 33.5727 33.6943 33.6205 33.6983 33.668C33.7102 33.8137 33.8518 34.0156 33.8877 34.178C33.7785 33.8502 33.5917 33.5505 33.4826 33.2227C33.3981 32.9727 33.3286 32.5562 33.4886 32.3201C33.5686 32.2004 33.7135 32.1138 33.879 32.0541L33.8789 32.0474Z" fill="url(#paint16_linear_230_925)" style="mix-blend-mode:screen"/>
<path d="M49.4592 50.9222C49.2427 50.969 49.0293 51.0115 48.8127 51.0582C45.1982 51.8178 41.5003 51.5673 37.8052 51.5509C35.603 51.5402 33.3903 51.4957 31.2209 51.1079C30.466 50.9711 29.5016 50.9048 28.7465 50.751C27.9166 50.5812 27.0544 50.5509 26.2109 50.6561C25.6315 50.7276 25.0598 50.8634 24.4877 50.9755C23.1101 51.2466 21.7069 51.3722 20.3101 51.4603C19.2828 51.527 18.2209 52.0929 17.2104 51.8642C15.2099 51.4133 13.1417 51.2551 11.0941 51.3986C9.6262 51.5011 8.06834 51.7405 6.74751 51.0982C6.3277 50.8929 5.95105 50.6091 5.53459 50.4004C5.07039 50.1719 4.5498 50.0364 4.08233 49.8181C4.01886 46.2495 4.37969 42.6961 4.83559 39.1484C4.90379 38.6149 4.97524 38.084 5.04683 37.5504C5.16807 36.6329 5.29624 35.7125 5.42087 34.7949C5.457 34.6961 5.4963 34.5931 5.53921 34.4942C5.39146 36.0262 5.26751 37.5613 5.16734 39.0995C5.10659 39.9689 5.05602 40.8381 5.01223 41.7072C4.95194 42.8954 4.92313 44.1614 5.52591 45.1889C6.56533 46.9712 9.21155 48.0725 11.0225 48.8446C11.6978 49.135 12.3929 49.3777 13.1109 49.5454C13.3933 49.6099 15.1785 49.6528 15.2717 49.784C14.4259 48.5829 13.6911 47.3025 13.0778 45.9663C15.0098 46.9235 16.9914 47.7749 19.0191 48.5138C19.7825 48.793 20.5626 49.055 21.371 49.1301C22.0232 49.1901 22.6807 49.1244 23.3278 49.0488C26.218 48.7221 29.1284 48.3815 31.9385 47.5943C33.1525 47.2573 34.4383 46.967 35.5334 46.343C36.9487 45.5388 38.3675 44.7412 39.7898 43.9471C39.327 44.6822 38.553 45.2106 37.8567 45.7076C37.1402 46.2218 36.6513 46.7536 36.1032 47.449C35.7356 47.9115 34.6916 48.5552 34.6273 49.1294C34.5162 50.0502 36.0528 50.0113 36.7159 50.139C39.7937 50.7295 42.9718 50.3654 46.0184 49.7789C46.7349 47.0152 45.994 44.1062 45.2583 41.3465C45.1694 41.0083 45.0221 40.6097 44.6784 40.5324C44.1749 40.4164 43.4697 41.0254 43.1102 41.3148C43.0027 41.4009 41.7373 42.2644 41.6865 42.265C41.8843 40.9496 43.0739 39.4321 43.5845 38.1672C43.8745 37.4545 44.1269 36.7288 44.3249 35.9834C44.5492 35.1697 44.702 34.3332 44.7562 33.4877C44.8395 32.2381 44.7122 30.9673 44.9552 29.7395C45.0128 29.447 45.0907 29.1577 45.1823 28.875C45.5878 27.6215 46.2591 26.4496 46.634 25.1829C47.2988 22.9185 47.06 20.2723 47.7497 18.106C47.7329 19.5245 47.6752 20.9265 47.4573 22.2659C47.1605 24.1017 46.8953 25.7369 46.8774 27.6236C46.8782 27.6914 46.8756 27.7593 46.8764 27.8272L46.8764 27.84C46.871 28.2337 46.8691 28.6341 46.8671 29.031C46.8639 29.6079 46.8641 30.1881 46.8575 30.765C46.857 31.0093 46.8566 31.2569 46.8528 31.5013C46.8509 31.9085 46.8457 32.3157 46.837 32.7195C46.834 33.0385 46.8245 33.3583 46.8181 33.6739C46.8139 33.8877 46.813 34.1041 46.8156 34.3179C46.8182 34.5316 46.8243 34.7622 46.8372 34.986C46.8465 35.1963 46.8593 35.4065 46.8754 35.6166C46.8755 35.6302 46.8793 35.6479 46.8795 35.6614C47.0638 38.0037 47.6215 40.3551 48.1103 42.6157C48.6812 45.2179 49.0321 47.8602 49.3998 50.4988C49.4185 50.6377 49.4372 50.78 49.4592 50.9222Z" fill="url(#paint17_linear_230_925)"/>
<path d="M46.9947 11.2042C46.9811 13.4471 46.9641 15.6934 46.9471 17.9363C46.9392 19.2495 46.928 20.5661 46.7503 21.8678C46.6161 22.8364 46.3868 23.7925 46.1267 24.7355C45.8928 25.5934 45.6216 26.4585 45.1284 27.1973C44.6851 27.8575 44.0808 28.3907 43.4866 28.917C41.7375 30.4582 39.9918 31.9993 38.2427 33.5404C37.4739 34.2181 36.6883 34.9096 35.7572 35.3484C34.8564 35.7766 33.861 35.9515 32.8753 36.0889C28.6786 36.6757 24.4241 36.6932 20.1864 36.7071C18.032 36.7161 14.5259 37.1758 12.5787 36.0831C11.8443 35.6746 11.2061 34.8069 10.555 34.2685C9.5097 33.4058 8.46438 32.5396 7.41911 31.6769C6.35328 30.7974 6.2082 29.7537 5.75868 28.4936C5.7098 27.5374 5.61687 26.5851 5.47305 25.6334C5.05597 22.846 4.72358 20.0475 4.47931 17.2411C4.33747 15.6108 4.20577 13.977 4.13852 12.3424C4.11921 11.8676 4.056 11.3972 3.9621 10.9267C3.83169 10.2429 3.63671 9.56286 3.43523 8.8935C3.81502 8.87534 4.28644 8.84634 4.80172 8.80958C6.3069 8.70318 8.17785 8.54146 9.22517 8.45077C9.6048 8.41904 9.87599 8.3988 9.98107 8.39075C10.4863 8.3609 10.9825 8.42954 11.4733 8.33879C12.0218 8.23716 12.5701 8.12875 13.1185 8.02373C13.6567 7.92222 14.195 7.81733 14.7406 7.77002C14.9033 7.75448 15.0661 7.74912 15.2256 7.74719C16.2636 7.73465 17.2402 7.96715 18.2705 8.15149C19.4947 8.37421 20.7076 8.50884 21.9557 8.4734C23.9162 8.41579 25.8718 8.24627 27.8241 8.07C28.3087 8.02682 28.7967 7.98021 29.2848 7.93699C29.6949 7.9015 30.2428 7.75238 30.6443 7.84932C30.9948 7.93669 31.2481 8.12024 31.6385 8.13249C32.0797 8.14412 32.5163 8.05403 32.9462 7.97419C36.0437 7.3905 39.1868 7.49503 42.3147 7.73886C43.483 7.82992 45.2627 7.70324 46.3372 8.17206C46.5009 8.24133 46.6236 8.29414 46.7125 8.34396C47.0131 8.51337 46.9605 8.65311 46.9858 9.34836C47.0069 9.96562 47.0008 10.5866 46.9947 11.2042Z" fill="url(#paint18_linear_230_925)" style="mix-blend-mode:screen"/>
<path d="M14.985 9.72434C14.6878 10.9562 14.2203 12.1392 13.7595 13.3153C13.2295 14.6653 12.9828 15.8694 11.4547 16.3289C10.8192 16.5198 10.1479 16.5653 9.47969 16.5801C8.6758 16.6 7.87142 16.5792 7.06655 16.5177C6.76091 16.4942 6.43475 16.4574 6.18815 16.267C5.98951 16.1133 5.87133 15.8807 5.78026 15.6443C5.16082 14.0808 4.68298 12.4618 3.9621 10.9267C3.83169 10.2429 3.63671 9.56286 3.43523 8.8935C3.81502 8.87534 4.28644 8.84634 4.80172 8.80958C5.11133 8.88049 5.42085 8.92379 5.73647 8.93016C6.19461 8.9382 6.64838 8.86485 7.09876 8.79155C8.433 8.57864 9.77346 8.59977 11.1212 8.3833C11.6292 8.30252 12.1371 8.21835 12.6451 8.13757C13.0819 8.06782 13.5187 7.99469 13.9378 7.85391C14.4582 7.67797 14.9535 7.39377 15.4993 7.35664C15.3734 8.16907 15.1789 8.92465 14.985 9.72434Z" fill="url(#paint19_linear_230_925)" style="mix-blend-mode:screen"/>
<path d="M29.545 52.7678C29.7343 52.986 29.9572 53.1835 30.2357 53.2073C28.2351 53.0313 26.1197 53.7388 24.1353 54.0546C21.846 54.4181 19.5425 54.7242 17.2307 54.9048C17.3606 53.8616 17.6163 52.8372 17.9912 51.8555C20.1622 51.5307 22.3331 51.2025 24.5074 50.8777C25.3101 50.756 26.4926 50.338 27.2727 50.6C28.2402 50.9242 28.8078 51.847 29.4107 52.6031C29.4555 52.6569 29.5003 52.714 29.545 52.7678Z" fill="url(#paint20_linear_230_925)" style="mix-blend-mode:screen"/>
<path d="M36.9815 54.6966C35.2868 54.5644 33.529 53.9749 31.926 53.5702C31.116 53.3662 30.4497 53.2589 29.7642 53.2502C29.6954 53.173 29.6307 53.0889 29.5687 53.0083C28.9347 52.2084 28.3007 51.4085 27.6667 50.6053C28.567 50.9812 29.6888 51.1543 30.6604 51.2545C30.9559 51.2849 31.2512 51.2949 31.55 51.3082C32.5106 51.3475 33.5058 51.4339 34.4665 51.4732C35.3074 52.5487 36.1406 53.6211 36.9815 54.6966Z" fill="url(#paint21_linear_230_925)"/>
<path d="M30.5728 8.10088C28.4951 8.27866 26.4129 8.37167 24.3264 8.38331C24.6604 8.21981 24.8526 7.84766 24.8923 7.47735C24.932 7.11043 24.8427 6.74168 24.7433 6.38323C24.4133 5.18612 23.9582 4.02444 23.3952 2.91836C23.1728 2.47996 22.7181 1.93912 22.4741 1.3992C22.5825 1.38432 22.6943 1.3694 22.8026 1.35112C24.9258 1.00314 27.2206 0.259507 29.4092 0.273781C29.6128 0.271321 29.8199 0.282395 30.0202 0.296939C30.2953 0.317366 30.5705 0.351364 30.8425 0.398972C31.1212 2.96067 31.0307 5.56421 30.5728 8.10088Z" fill="url(#paint22_linear_230_925)" style="mix-blend-mode:screen"/>
<path d="M15.5128 7.13593C15.4206 7.64259 14.8331 7.88041 14.3183 7.96127C13.8713 8.03114 13.4135 8.05024 12.9594 8.09644C10.8243 8.30206 8.73013 9.08399 6.59705 8.89261C5.91092 8.82965 5.23378 8.66818 4.54838 8.66628C4.16156 8.66417 3.77234 8.71299 3.38564 8.72105L3.23714 8.22408C3.23714 8.22408 3.23007 8.20042 3.22651 8.1869C2.71015 6.44916 1.7562 4.72011 1.05395 3.0423C2.97279 2.63233 4.82537 2.07386 6.77001 1.83322C8.22005 1.65623 9.67348 1.47921 11.1235 1.29883C11.8587 1.20851 12.5844 1.17599 13.3105 1.18079C13.5045 1.51435 13.6879 1.83785 13.842 2.23296C14.3847 3.62429 14.9003 5.02274 15.3957 6.43161C15.4765 6.65796 15.5575 6.89789 15.5128 7.13593Z" fill="url(#paint23_linear_230_925)" style="mix-blend-mode:screen"/>
<path d="M36.3287 1.78147C36.3024 1.85643 36.2591 1.92857 36.2158 1.99356C35.3023 3.33463 34.3272 4.62894 33.3042 5.88311C32.7893 6.51703 31.8007 8.65634 30.8098 8.08473C30.3444 6.06816 30.5665 3.95507 30.3178 1.90195C30.284 1.63771 30.2435 1.37016 30.1388 1.12713C29.9886 0.772688 29.7241 0.497304 29.4092 0.273781C29.6128 0.271321 29.8199 0.282395 30.0202 0.296939C30.7775 0.352256 31.5226 0.519686 32.2677 0.687117C33.6252 0.996438 34.965 1.52312 36.3287 1.78147Z" fill="url(#paint24_linear_230_925)"/>
<path d="M49.9446 51.7748C49.7635 51.6718 49.5783 51.5793 49.3841 51.5104C48.8389 51.3202 48.2387 51.3512 47.6624 51.3887C47.3504 51.4061 47.0419 51.4267 46.7335 51.4508C44.3977 51.6148 42.1002 51.8563 39.7554 51.8337C37.3835 51.8115 35.0169 51.6704 32.6503 51.526C31.8388 51.4781 31.0272 51.4268 30.2281 51.277C28.9086 51.0283 27.5926 50.5013 26.2452 50.7449C24.7656 51.0071 23.2861 51.2727 21.8066 51.5382C20.6487 51.7456 19.484 51.9531 18.307 51.9809C16.5059 52.023 14.7667 51.5724 12.984 51.4616C11.9552 51.3994 10.9272 51.4016 9.89988 51.4649C9.34046 51.4988 8.78128 51.5531 8.22087 51.5056C7.07962 51.404 6.02492 50.884 4.99744 50.3705C7.55122 51.6833 10.5912 50.8357 13.3083 51.0573C13.9196 51.1076 14.5246 51.1987 15.1323 51.2287C15.7803 51.2208 16.4887 51.4464 17.1377 51.52C17.3721 51.5477 17.6201 51.5718 17.8396 51.4844C17.8599 51.4773 17.8767 51.4669 17.8901 51.4498C17.9301 51.395 17.8513 51.3315 17.7865 51.3052C16.8047 50.9167 15.9635 50.3806 15.2553 49.6087C15.5917 49.9304 16.1851 50.1879 16.5947 50.3831C17.1339 50.6446 17.703 50.8481 18.285 51.0006C18.85 51.1498 19.428 51.2446 20.0122 51.2952C20.5794 51.3427 21.0874 51.2653 21.6435 51.2382C22.6099 51.1892 23.5166 50.9713 24.4676 50.7766C25.307 50.607 26.1535 50.4576 27.0076 50.3829C28.0108 50.2927 28.9535 50.2474 29.945 50.0318C30.9805 49.8056 32.0127 49.5827 33.0482 49.3599C32.6495 49.497 32.2463 49.8208 31.879 50.0322C31.5016 50.2471 31.1715 50.4479 30.8355 50.7234C30.7985 50.751 30.7584 50.8024 30.7861 50.8428C30.7964 50.8562 30.8135 50.8628 30.8271 50.8694C31.2329 51.0375 31.6904 50.9913 32.1189 51.0777C32.5815 51.1705 33.0473 51.2531 33.5193 51.2814C34.6363 51.3425 35.7558 51.3256 36.8758 51.3562C37.9516 51.3771 39.0302 51.3437 40.1056 51.3307C41.7 51.3115 43.3005 51.2276 44.8942 51.1507C45.7013 51.1104 46.5117 51.0701 47.322 51.0162C47.9254 50.975 48.499 50.7068 49.0945 50.5741C49.1961 50.5525 49.2984 50.5272 49.3998 50.4988C49.4334 50.7529 49.4671 51.0104 49.5041 51.2644C49.6622 51.4287 49.8101 51.6 49.9446 51.7748Z" fill="url(#paint25_linear_230_925)"/>
<path d="M9.5403 33.486L7.18486 31.4583C6.89686 31.2107 6.60539 30.9564 6.39459 30.64C6.16312 30.2967 6.03951 29.8945 5.92615 29.4988C5.87657 29.3264 5.82737 29.1498 5.77779 28.9774C5.77243 28.8146 5.76711 28.6552 5.75836 28.4925C5.70948 27.5362 5.61655 26.5839 5.47273 25.6323C5.11844 23.2683 4.82551 20.9013 4.59658 18.5222C4.89261 19.4347 5.02044 20.5287 5.2438 21.3233C5.9426 23.8392 6.84103 26.3086 7.73582 28.7577C8.31479 30.342 8.91404 31.9192 9.5403 33.486Z" fill="url(#paint26_linear_230_925)"/>
<path d="M48.4748 9.35376C48.3649 9.80635 48.1764 10.4532 48.1604 10.5382C47.7545 12.6026 47.7642 14.8079 47.7567 16.9965C47.7544 17.3663 47.7554 17.7361 47.7497 18.106C47.7329 19.5245 47.6752 20.9265 47.4573 22.2659C47.1605 24.1017 46.8953 25.7369 46.8774 27.6236C46.8782 27.6914 46.8756 27.7593 46.8764 27.8272L46.8764 27.84C46.8668 28.1692 46.4003 28.6168 46.2887 28.9303C46.187 29.2165 46.1669 29.5221 46.0857 29.8183C45.8487 30.6999 45.4487 31.5734 45.065 32.3957C45.1052 31.2246 45.1421 30.046 45.1823 28.875C45.1844 28.7732 45.1897 28.6755 45.1919 28.5737C45.1946 28.5194 45.1905 28.4584 45.1494 28.4283C45.1016 28.3984 45.0408 28.4229 44.9902 28.4472C44.825 28.534 42.4403 30.2661 42.5125 30.3467C42.571 30.4138 42.4124 30.4836 42.3674 30.4061C42.3223 30.3286 42.3721 30.2364 42.4221 30.1611C44.355 27.264 46.1085 24.1213 46.5587 20.6652C46.686 19.6899 46.7081 18.7057 46.7301 17.7215C46.7352 17.5789 46.7369 17.4364 46.7351 17.2905C46.7373 15.7908 46.6058 14.174 46.8393 12.719C47.0851 11.1552 47.3829 9.68929 47.3092 8.07853C47.7496 8.30393 48.1669 8.5839 48.544 8.90506C48.568 8.92513 48.5329 9.11216 48.4748 9.35376Z" fill="url(#paint27_linear_230_925)"/>
<path d="M23.3596 13.7596C23.3383 13.9702 23.3415 14.2314 23.526 14.3378C23.6046 14.3843 23.6996 14.3866 23.7912 14.3855C24.7308 14.3605 25.5586 13.7907 26.3222 13.2454C27.0757 12.707 27.8325 12.1652 28.5034 11.5226C29.4862 10.5844 30.2765 9.44164 30.8008 8.18671C30.7349 8.34697 27.937 8.17041 27.6181 8.17766C26.8854 8.1899 25.417 7.97353 24.8052 8.44915C24.3044 8.8386 24.1578 9.90575 23.9984 10.4675C23.689 11.5434 23.475 12.6453 23.3596 13.7596Z" fill="url(#paint28_linear_230_925)" style="mix-blend-mode:screen"/>
<path d="M14.2559 12.0636C14.2497 12.1146 14.2402 12.1656 14.234 12.2166C14.4167 11.8887 14.514 11.5244 14.6115 11.1636C14.7673 10.5849 14.9232 10.0062 15.0791 9.42756C15.5271 7.75621 18.1467 8.33869 19.3903 8.48314C17.955 8.48012 16.7117 7.79619 15.2449 7.98356C14.3539 8.09611 13.4554 8.14768 12.5577 8.27049C12.9405 8.21837 13.4547 8.37502 13.8354 8.43149C14.2365 8.49111 14.5458 8.53827 14.6699 8.97785C14.7869 9.39377 14.5477 10.0956 14.485 10.5205C14.4132 11.0371 14.3345 11.5504 14.256 12.067L14.2559 12.0636Z" fill="#FFEFDE"/>
<path d="M31.8209 8.38084C32.5088 8.30806 33.1966 8.23189 33.8845 8.15912C33.1763 8.23553 32.405 8.13967 31.6891 8.14493C30.9936 8.14994 30.3709 8.27961 29.6859 8.31163C29.1298 8.33532 28.577 8.35896 28.0208 8.37925C28.5106 8.47851 29.9386 8.44429 30.0583 9.0875C30.0945 9.27029 30.0153 9.45446 29.9359 9.62507C29.8136 9.8912 29.6912 10.1539 29.5689 10.4201L30.6502 8.92767C30.7603 8.77366 30.8805 8.61613 31.0457 8.52592C31.1873 8.44957 31.3567 8.43056 31.5159 8.41167C32.5935 8.29686 33.6745 8.18541 34.752 8.06382C33.9717 8.07324 33.1957 8.15387 32.4308 8.3124L31.8107 8.38096L31.8209 8.38084Z" fill="#FFEFDE"/>
<path d="M39.2211 8.04779C39.4054 8.13039 39.5763 8.2369 39.7274 8.38436L40.5066 9.13157C40.319 8.7674 40.192 8.37196 40.1294 7.96556C40.1186 7.90802 42.1324 7.77851 42.3394 7.77601C42.0396 7.67784 41.7139 7.67838 41.3983 7.6788C40.6824 7.68066 39.9665 7.67914 39.2539 7.66739C38.6634 7.65756 38.0184 7.62803 37.4298 7.78103C37.4941 7.76329 37.5621 7.77265 37.6266 7.77865C37.7931 7.797 37.9562 7.81878 38.1227 7.83713C38.4761 7.88036 38.8936 7.89906 39.2177 8.04444L39.2211 8.04779Z" fill="#FFEFDE"/>
<path d="M40.9118 7.64708C40.2396 7.6077 40.1058 7.76878 40.2727 8.38089C40.4005 8.85096 40.5858 9.30338 40.8183 9.73486C41.2556 10.5473 41.8753 11.2828 42.4603 11.9612C42.6048 12.1291 42.7596 12.3036 42.9642 12.3928C43.4178 12.5875 43.9233 12.2963 44.3132 11.9931C45.0661 11.4072 45.7433 10.7272 46.3279 9.97366C46.5718 9.65857 46.8116 9.28584 46.7627 8.88946C46.7141 8.51682 46.4085 8.21515 46.0606 8.06667C45.7127 7.91819 45.3291 7.89568 44.9522 7.87309C43.6043 7.79777 42.2597 7.71901 40.9118 7.64368L40.9118 7.64708Z" fill="url(#paint29_linear_230_925)" style="mix-blend-mode:screen"/>
<path d="M49.5198 6.4464C48.976 7.76943 48.5208 9.12872 48.1642 10.5106C47.9242 10.0215 48.1779 9.39751 47.9413 8.905C47.6872 8.37537 47.007 8.24448 46.4226 8.1769C44.6728 7.9775 42.9197 7.77814 41.1616 7.73152C38.5855 7.66085 36.0098 7.90912 33.4368 8.08949C30.9179 8.26243 28.3948 8.36755 25.8715 8.44893C23.4668 8.52548 21.0732 8.67316 18.6868 8.30162C17.5583 8.12525 16.4526 7.88414 15.3028 7.91839C14.1564 7.9526 12.9794 8.25522 11.8415 8.43182C9.43357 8.8036 6.9674 9.12519 4.53502 9.15457C3.9617 9.1615 3.28974 8.86764 3.22858 8.29837C5.44929 8.7228 7.72831 8.63759 9.96429 8.3595C11.1128 8.2167 12.2572 8.02304 13.3948 7.8159C13.8383 7.7359 14.5298 7.68343 14.7929 7.26971C15.0858 6.80473 14.9719 5.79841 14.8708 5.29408C14.8203 5.04701 14.7461 4.80022 14.7803 4.54872C15.053 5.49206 15.4608 6.38966 15.8652 7.28051C16.151 7.90814 16.9169 7.83781 17.5323 7.94235C19.5076 8.27474 21.6107 8.23236 23.6056 8.22184C25.6955 8.21016 27.7876 8.09667 29.8682 7.87813C29.9835 7.86656 30.1054 7.85152 30.1927 7.77582C30.317 7.67253 30.3386 7.49244 30.3468 7.32948C30.3984 6.5417 30.45 5.75731 30.5015 4.96952C30.4526 5.6962 30.6198 6.61706 30.7777 7.32767C30.8782 7.7845 31.021 8.08814 31.4832 7.87219C31.8712 7.69107 32.0408 7.40402 32.2911 7.05831C32.578 6.65787 32.8751 6.25391 33.2789 5.97081C32.9444 6.37183 32.6716 6.82299 32.4705 7.30382C32.4144 7.44022 32.3691 7.6206 32.4755 7.7211C32.5476 7.78809 32.6596 7.79012 32.7613 7.78889C33.7483 7.75661 34.7327 7.514 35.7063 7.50224C36.8699 7.48818 38.0362 7.41302 39.1968 7.42953C41.7386 7.46668 44.2201 7.29759 46.7398 7.75574C47.1411 7.82893 47.556 7.91213 47.9519 7.82252C48.6456 7.66485 49.1095 7.03155 49.5129 6.4397L49.5198 6.4464Z" fill="url(#paint30_linear_230_925)"/>
<path d="M5.42087 34.7949C5.457 34.6961 5.4963 34.5931 5.53921 34.4942C5.39146 36.0262 5.26751 37.5613 5.16734 39.0995C5.05555 39.1145 4.94399 39.1335 4.83559 39.1484C4.90379 38.6149 4.97524 38.084 5.04683 37.5504C5.16807 36.6329 5.29624 35.7125 5.42087 34.7949Z" fill="url(#paint31_linear_230_925)"/>
<path d="M47.7567 16.9965C47.7544 17.3663 47.7554 17.7361 47.7497 18.106C47.7329 19.5245 47.6752 20.9265 47.4573 22.2659C47.1605 24.1017 46.8953 25.7369 46.8774 27.6236C46.8782 27.6914 46.8756 27.7593 46.8764 27.8272L46.8771 27.8408C46.8717 28.2345 46.8698 28.6348 46.8678 29.0318C46.8646 29.6087 46.8648 30.1889 46.8582 30.7658C46.8577 31.0101 46.8573 31.2577 46.8535 31.5021C46.8516 31.9093 46.8464 32.3165 46.8377 32.7203C46.8348 33.0393 46.8245 33.3583 46.8181 33.6739C46.8139 33.8877 46.8137 34.1049 46.8163 34.3187C46.8189 34.5324 46.825 34.763 46.8379 34.9868C46.8473 35.1971 46.86 35.4073 46.8761 35.6174C46.8762 35.631 46.8793 35.6479 46.8795 35.6614C46.0182 35.7024 45.1685 35.8179 44.3256 35.9842C44.5499 35.1705 44.7027 34.334 44.7569 33.4885C44.8402 32.2389 44.7129 30.9681 44.9559 29.7403C45.0135 29.4478 45.0914 29.1585 45.183 28.8758C45.1851 28.774 45.1907 28.6755 45.1929 28.5737C45.1956 28.5194 45.1915 28.4583 45.1504 28.4283C45.1026 28.3983 45.0418 28.4228 44.9912 28.4472C44.826 28.534 42.4413 30.2661 42.5136 30.3466C42.572 30.4138 42.4134 30.4836 42.3684 30.4061C42.3233 30.3286 42.3731 30.2364 42.4231 30.1611C44.356 27.2639 46.1095 24.1212 46.5597 20.6652C46.687 19.6899 46.7091 18.7057 46.7311 17.7214C46.7362 17.5789 46.7379 17.4364 46.7361 17.2905C47.0776 17.1947 47.4152 17.0956 47.7567 16.9965Z" fill="url(#paint32_linear_230_925)"/>
<path d="M39.9317 63.3263C39.9317 63.3263 77.3088 62.8832 77.6575 61.8722C78.003 60.8611 78.2321 56.5981 77.8058 56.1347C77.3812 55.6713 59.2774 45.2091 58.0389 45.2815C56.7987 45.3557 16.0652 57.5585 15.4856 58.1011C14.9059 58.6454 15.0306 62.9607 16.2169 63.1241C17.4014 63.2876 36.3342 63.3769 39.9317 63.3263Z" fill="#F5CCAC"/>
<path d="M15.4839 58.0993C14.9043 58.6436 15.029 62.9589 16.2152 63.1223C17.3998 63.2858 36.3326 63.3751 39.9301 63.3245C39.9301 63.3245 77.3071 62.8814 77.6559 61.8704C77.9508 61.0093 78.1597 57.7977 77.9541 56.571C54.31 60.0859 20.5069 58.4768 15.4822 58.0993H15.4839Z" fill="#EE9B3A"/>
<path d="M38.2689 62.0204C36.8872 62.0289 35.5021 62.0339 34.1204 62.0339C31.2879 62.0339 28.4554 62.0087 25.6246 61.9446C24.8815 61.9278 24.1384 61.9193 23.3936 61.8924C22.1349 61.8435 20.8762 61.7829 19.6209 61.7087C18.5104 61.643 17.1692 61.7222 16.143 61.2386C15.7672 61.0617 15.469 60.7735 15.1724 60.4888C15.2516 61.7475 15.5819 63.0365 16.2188 63.1241C17.4034 63.2876 36.3362 63.3769 39.9337 63.3263C39.9337 63.3263 77.3107 62.8832 77.6595 61.8722C77.7976 61.4678 77.919 60.5393 77.983 59.5435C76.517 60.5191 74.1108 60.5225 72.4427 60.7045C69.1047 61.0701 65.7464 61.2706 62.3949 61.4307C58.6643 61.6076 54.9337 61.7222 51.2031 61.8182C46.8945 61.9261 42.5808 61.9952 38.2689 62.0204Z" fill="#FFBB6F"/>
<path d="M17.193 52.7723C17.193 52.7723 17.1576 57.0068 17.3834 57.1769C17.6091 57.3438 76.9115 56.4659 76.8627 55.4346C76.8357 54.8567 76.2847 47.4949 76.2847 47.4949L17.193 52.774V52.7723Z" fill="#E16B44"/>
<path d="M21.4446 55.5948C23.0554 55.8173 24.481 55.091 26.0295 54.7793C27.4904 54.4861 28.7592 55.669 30.1746 55.7162C31.8141 55.7718 33.0712 55.0169 34.618 54.7473C35.7588 54.5468 36.4665 54.8922 37.4893 55.337C38.3992 55.7347 39.4001 55.9655 40.3892 55.6993C40.9722 55.5426 41.5569 55.3471 42.1686 55.3404C43.6295 55.3235 45.0415 55.6909 46.494 55.7313C48.056 55.7751 49.4192 55.0337 50.9677 54.9899C51.8557 54.9646 52.7589 55.0068 53.6216 54.7608C54.3832 54.5434 55.1314 54.2991 55.9115 54.1626C56.3934 54.0783 56.8467 54.1238 57.3118 54.2435C58.4458 54.5333 58.7474 53.9789 59.7298 53.9385C60.3179 53.9149 60.7458 54.139 61.3103 54.2165C61.9641 54.3075 62.6246 53.9182 63.238 53.7295C64.5354 53.3302 65.7503 54.5215 67.0461 54.1356C68.1531 53.8053 69.1035 53.1078 70.278 53.4616C71.3665 53.7885 71.9175 53.3892 72.8274 52.9612C73.156 52.8078 73.5385 52.609 73.9142 52.6393C74.8376 52.7151 75.8655 53.3201 76.7265 53.0252C76.5563 50.6645 76.2817 47.008 76.2817 47.008L17.1899 52.2872C17.1899 52.2872 17.1714 54.6209 17.2539 55.8931C18.4503 55.0405 19.7511 55.3606 21.4412 55.5948H21.4446Z" fill="#E05937"/>
<path d="M17.4205 57.937C25.4917 57.8645 66.3196 56.8872 76.8947 56.2081C76.8796 55.7717 76.8593 55.3168 76.8374 54.8568C66.7425 55.6268 24.7065 56.6361 17.3598 56.6681C17.38 57.0827 17.4002 57.509 17.4221 57.9386L17.4205 57.937Z" fill="#F79871"/>
<path d="M80.4956 46.4522C79.6312 45.6131 77.9815 45.7614 76.8559 45.9333C75.1693 45.6738 73.218 45.9889 71.6122 46.2332C68.8757 46.6494 66.1055 46.7808 63.3489 47.0252C60.6933 47.2594 58.0327 47.4397 55.3686 47.6031C54.7957 47.5947 54.2211 47.5981 53.6449 47.6267C48.5292 47.8727 43.4943 48.1474 38.3618 48.0446C36.0601 47.9974 33.7819 47.7076 31.4751 47.7126C29.3925 47.716 27.3317 47.8896 25.2524 48.0041C23.2438 48.1154 20.7938 48.1895 18.8999 48.8584C18.3303 49.0606 17.8838 49.4078 17.4305 49.765C16.4077 49.9099 15.481 50.3581 14.6975 51.1585C13.7319 52.1425 13.6915 54.0415 15.0682 54.7172C16.7784 55.5581 18.3303 54.7577 19.2824 53.4181C20.0086 54.4662 21.3752 55.1705 22.8159 54.938C23.7123 54.7948 24.4739 54.1983 24.8985 53.4467C25.5035 54.1865 26.6914 54.4358 27.5592 53.5832C27.6957 53.4501 27.8035 53.29 27.8894 53.1182C28.5483 54.6616 30.54 55.8277 32.2115 54.8049C32.9226 54.3701 33.3489 53.7753 33.5191 53.1013C33.8021 53.3035 34.1459 53.4333 34.5469 53.44C35.3389 53.4535 35.9438 53.0609 36.301 52.5099C36.4375 53.7366 37.7923 54.4493 39.0257 54.6482C40.3029 54.8537 41.7756 54.1005 42.3367 52.9665C42.7327 53.686 43.6005 54.2101 44.3604 54.4106C45.5248 54.7156 46.5796 54.2084 47.2772 53.3406C47.3918 53.5125 47.5333 53.6742 47.6968 53.8208C48.6926 54.7206 50.0036 54.8959 51.2286 54.3213C51.6532 54.1241 51.9767 53.8107 52.2076 53.44C52.3525 53.5832 52.5226 53.7113 52.7181 53.8208C53.4444 54.2269 54.3829 54.0314 54.762 53.2816C54.853 53.1013 54.9137 52.916 54.9491 52.7289C54.9811 52.7424 55.0064 52.7576 55.0418 52.7677C55.5692 52.9379 56.1134 52.7087 56.4319 52.3009C56.4605 52.2655 56.4824 52.2285 56.5043 52.1914C57.0031 53.6001 59.5896 54.0702 60.641 52.6228C60.7405 52.4846 60.8112 52.3313 60.8719 52.1729C61.0825 52.6885 61.5425 53.0878 62.2485 53.1468C63.2494 53.2294 63.9201 52.6767 64.1728 51.9606C64.6783 53.0086 65.9034 53.5276 67.0845 53.4686C67.8495 53.4316 68.4393 53.1266 68.8049 52.6598C69.2447 53.0305 69.8227 53.2732 70.3686 53.3153C71.6324 53.4114 72.4816 52.3077 72.6333 51.2495C72.6384 51.2208 72.6384 51.1956 72.64 51.1669C73.8448 52.9497 77.3261 53.5007 78.3438 51.0203C78.5258 50.5755 78.5426 50.1475 78.4432 49.7481C79.0262 49.5914 79.5874 49.3437 80.1384 48.9747C81.0853 48.3395 81.3212 47.2543 80.4956 46.4556V46.4522Z" fill="#3BB556"/>
<path d="M47.348 47.9162C44.3638 48.0342 41.3813 48.1069 38.3618 48.0446C36.0601 47.9974 33.7819 47.7076 31.4751 47.7126C29.3925 47.716 27.3317 47.8896 25.2524 48.0041C23.2438 48.1154 20.7938 48.1895 18.8999 48.8584C18.3303 49.0606 17.8838 49.4078 17.4305 49.765C16.4077 49.9099 15.481 50.3581 14.6975 51.1585C13.7319 52.1425 13.6915 54.0415 15.0682 54.7172C16.7784 55.5581 18.3303 54.7577 19.2824 53.4181C20.0086 54.4662 21.3752 55.1705 22.8159 54.938C23.7123 54.7948 24.4739 54.1983 24.8985 53.4467C25.5035 54.1865 26.6914 54.4358 27.5592 53.5832C27.6957 53.4501 27.8035 53.29 27.8894 53.1182C28.5483 54.6616 30.54 55.8277 32.2115 54.8049C32.9226 54.3701 33.3489 53.7753 33.5191 53.1013C33.8021 53.3035 34.1459 53.4333 34.5469 53.44C35.3389 53.4535 35.9438 53.0609 36.301 52.5099C36.4375 53.7366 37.7923 54.4493 39.0257 54.6482C40.3029 54.8537 41.7756 54.1005 42.3367 52.9665C42.7327 53.686 43.6005 54.2101 44.3604 54.4106C45.5248 54.7156 46.5796 54.2084 47.2772 53.3406C47.3918 53.5125 47.5333 53.6742 47.6968 53.8208C47.7119 53.836 47.7305 53.8475 47.7473 53.8609C47.6715 51.9013 47.6176 49.8759 47.348 47.9162Z" fill="#77C045"/>
<path d="M60.3206 49.9782C59.5421 48.5207 57.9986 47.8838 56.4417 47.6074C56.0844 47.6327 55.7272 47.658 55.3683 47.6816C54.7954 47.6731 54.2208 47.6765 53.6445 47.7052C48.5322 47.963 43.5058 48.2494 38.3749 48.1416C36.9663 48.8527 36.203 50.3237 36.2636 52.2446C36.2704 52.4839 36.2923 52.713 36.3226 52.9354C36.3277 52.9675 36.331 52.9978 36.3378 53.0298C36.3378 53.0332 36.3378 53.0365 36.3378 53.0416C36.604 54.1773 37.8644 54.8412 39.022 55.0367C40.2992 55.2507 41.7719 54.4638 42.333 53.2792C42.729 54.0324 43.5968 54.58 44.3567 54.7873C45.5211 55.1057 46.5759 54.575 47.2735 53.6718C47.3881 53.8487 47.5296 54.0189 47.6931 54.1722C48.6889 55.1125 49.9999 55.2945 51.2249 54.6946C51.6495 54.489 51.973 54.1621 52.2039 53.7746C52.3488 53.9245 52.519 54.0577 52.7144 54.1722C53.4407 54.5969 54.3792 54.393 54.7583 53.6094C54.8493 53.4207 54.91 53.2269 54.9454 53.0315C54.9774 53.045 55.0027 53.0618 55.0381 53.0736C55.5655 53.2522 56.1097 53.0113 56.4282 52.5866C56.4568 52.5496 56.4787 52.5091 56.5006 52.4721C56.9455 53.7847 59.0534 54.3121 60.2481 53.3365C60.8615 52.3979 60.9811 51.2184 60.3189 49.9799L60.3206 49.9782Z" fill="#A2CD3D"/>
<path d="M17.3588 50.8134C18.4406 51.6626 74.5465 50.4966 76.8954 48.9986C77.8997 48.36 76.8954 45.1332 76.8954 45.1332L16.7438 47.4922C16.7438 47.4922 16.2939 49.9726 17.3588 50.8117V50.8134Z" fill="#F47F72"/>
<path d="M17.2554 49.3289C18.3355 50.1781 74.4414 49.0104 76.7903 47.5141C77.7929 46.8755 76.7903 43.6487 76.7903 43.6487L16.6387 46.0077C16.6387 46.0077 16.1871 48.4898 17.2554 49.3289Z" fill="#F26D61"/>
<path d="M15.9855 45.1345C15.9855 45.1345 14.442 48.9258 17.1936 48.7573C19.9452 48.5871 66.7077 47.2458 69.5723 46.9493C72.4368 46.651 77.047 46.7032 77.4396 45.7849C77.9131 44.6846 77.7429 43.7022 74.2886 43.2793C70.8344 42.858 15.9838 45.1345 15.9838 45.1345H15.9855Z" fill="#FFEB6E"/>
<path d="M39.267 46.6107C39.267 46.6107 76.6103 44.988 76.9254 43.9652C77.2388 42.9441 77.3348 38.6743 76.8934 38.2244C76.4536 37.7745 58.0279 27.8902 56.7928 28.0014C55.556 28.1143 15.2269 41.5944 14.6658 42.1555C14.1047 42.7183 14.3625 47.0269 15.5538 47.1533C16.7434 47.2796 35.6695 46.7725 39.267 46.609V46.6107Z" fill="#F8EBCB"/>
<path d="M14.6672 42.157C14.1061 42.7198 14.3639 47.0284 15.5552 47.1547C16.7448 47.2811 35.6709 46.7739 39.2684 46.6105C39.2684 46.6105 76.6117 44.9878 76.9268 43.965C77.193 43.0972 77.3025 39.8788 77.0582 38.6606C53.5371 42.9169 19.7003 42.376 14.6689 42.157H14.6672Z" fill="#EE9B3A"/>
<path d="M37.5633 45.3554C36.1799 45.4093 34.7965 45.4565 33.4131 45.5003C30.5839 45.5913 27.7514 45.6536 24.9189 45.6806C24.1758 45.6873 23.4311 45.7025 22.688 45.6974C21.4276 45.689 20.1689 45.6671 18.9068 45.6317C17.7964 45.5997 16.4585 45.7227 15.4171 45.2711C15.0363 45.106 14.7313 44.828 14.4213 44.555C14.5426 45.8087 14.9116 47.0859 15.5519 47.155C16.7415 47.2814 35.6676 46.7742 39.2651 46.6107C39.2651 46.6107 76.6084 44.988 76.9235 43.9652C77.0482 43.5558 77.1392 42.6257 77.1746 41.6281C75.7406 42.6492 73.3361 42.7284 71.673 42.9643C68.3468 43.4345 65.0004 43.7411 61.6556 44.0057C57.9334 44.3006 54.2062 44.5331 50.4789 44.7454C46.1771 44.9914 41.8685 45.1936 37.5616 45.3571L37.5633 45.3554Z" fill="#FFBB6F"/>
<path d="M56.9528 30.2296C56.9427 30.2161 56.9343 30.2009 56.9225 30.1874C56.7658 29.9684 56.4102 30.0846 56.3799 30.3408C56.3445 30.6373 56.7472 30.8109 56.9275 30.5598C56.9376 30.5463 56.9477 30.5329 56.9562 30.5194C57.0219 30.4301 57.0185 30.3189 56.9562 30.2296H56.9528Z" fill="#F8EBCB"/>
<path d="M65.7147 36.0613C65.5394 35.8372 65.1165 35.9231 65.1013 36.2332C65.1013 36.2635 65.0996 36.2955 65.0996 36.3259C65.0963 36.5129 65.2176 36.6224 65.3996 36.619C65.4316 36.619 65.4653 36.6157 65.4956 36.6157C65.7635 36.6039 65.8629 36.25 65.7147 36.0613Z" fill="#F8EBCB"/>
<path d="M51.3936 34.0042C51.1813 34.0042 51.1408 34.3345 51.3548 34.3345C51.5688 34.3345 51.6076 34.0042 51.3936 34.0042Z" fill="#F8EBCB"/>
<path d="M23.3416 40.3683C23.3129 40.3649 23.2843 40.3615 23.2573 40.3598C22.9506 40.3312 22.9523 40.8114 23.2657 40.7811L23.3483 40.7727C23.5808 40.7525 23.569 40.3885 23.3432 40.3666L23.3416 40.3683Z" fill="#F8EBCB"/>
<path d="M40.055 38.7776C40.028 38.7826 39.9994 38.786 39.9724 38.791C39.7668 38.8231 39.7769 39.1196 39.9775 39.15C40.0061 39.155 40.0347 39.1584 40.0617 39.1634C40.3414 39.2072 40.3431 38.7304 40.0567 38.7759L40.055 38.7776Z" fill="#F8EBCB"/>
<path d="M38.1698 35.3067C38.1648 35.2797 38.1563 35.2527 38.1496 35.2258C38.0754 34.9326 37.7098 34.9511 37.639 35.2342C37.6323 35.2612 37.6255 35.2881 37.6171 35.3151C37.516 35.7144 38.276 35.7195 38.1715 35.3067H38.1698Z" fill="#F8EBCB"/>
<path d="M61.5944 31.6825C61.3232 31.6825 61.2676 32.1054 61.5422 32.1054C61.8169 32.1054 61.8674 31.6825 61.5944 31.6825Z" fill="#F8EBCB"/>
<path d="M72.7191 37.396C72.4259 37.396 72.3686 37.8509 72.6618 37.8509C72.955 37.8509 73.0123 37.396 72.7191 37.396Z" fill="#F8EBCB"/>
<path d="M57.1581 37.1631C56.5684 37.1631 56.4538 38.0831 57.0469 38.0831C57.64 38.0831 57.7563 37.1631 57.1581 37.1631Z" fill="#F8EBCB"/>
<path d="M46.8895 34.648C46.9468 34.1729 46.3032 33.8965 46.0167 34.2959C45.887 34.4762 45.8954 34.7239 46.0336 34.8924H46.0218C46.0656 34.953 46.1212 34.9935 46.1801 35.0238C46.3335 35.1165 46.5155 35.1097 46.6621 35.0036C46.6772 34.9935 46.6907 34.9834 46.7042 34.9733C46.7008 34.9733 46.6958 34.9733 46.6941 34.9733C46.7935 34.8991 46.8727 34.7879 46.8895 34.6497V34.648Z" fill="#F8EBCB"/>
<path d="M30.8582 39.3169C30.8498 39.3136 30.8397 39.3102 30.833 39.3068C30.5583 39.199 30.2432 39.3776 30.2078 39.6742C30.1657 40.0263 30.5229 40.274 30.8414 40.1476L30.8633 40.1375C31.2256 39.9943 31.2087 39.4551 30.8566 39.3169H30.8582Z" fill="#F8EBCB"/>
<path d="M46.4936 39.4128C46.2307 39.5072 46.3083 39.9453 46.6099 39.893C46.7935 39.8593 46.9081 39.7127 46.8896 39.5274C46.866 39.3016 46.6217 39.2898 46.4936 39.4128Z" fill="#F8EBCB"/>
<path d="M52.3154 30.2564C52.1604 30.2564 52.1301 30.4957 52.2868 30.4957C52.4435 30.4957 52.4705 30.2564 52.3154 30.2564Z" fill="#F8EBCB"/>
<path d="M56.1085 33.7798C55.9349 33.7798 55.8995 34.051 56.0764 34.051C56.2534 34.051 56.2854 33.7798 56.1085 33.7798Z" fill="#F8EBCB"/>
<path d="M20.2094 40.7859C20.2094 40.7859 56.5434 28.8594 57.0017 28.9824C57.4634 29.1037 73.5064 37.8287 73.5064 38.0849C73.5064 38.341 10.4229 43.1096 20.2077 40.7859H20.2094Z" fill="#FFDDB5"/>
<defs>
<linearGradient id="paint0_linear_230_925" x1="39.8434" y1="30.8787" x2="59.5723" y2="140.987" gradientUnits="userSpaceOnUse">
<stop stop-color="#E35832"/>
<stop offset="0.99" stop-color="#750A59"/>
</linearGradient>
<linearGradient id="paint1_linear_230_925" x1="39.985" y1="25.512" x2="125.797" y2="239.622" gradientUnits="userSpaceOnUse">
<stop stop-color="#594A56"/>
<stop offset="0.99" stop-color="#271830"/>
</linearGradient>
<linearGradient id="paint2_linear_230_925" x1="47.1166" y1="2.37474" x2="-2.542" y2="156.314" gradientUnits="userSpaceOnUse">
<stop stop-color="#FFBD24"/>
<stop offset="1" stop-color="#C7552C"/>
</linearGradient>
<linearGradient id="paint3_linear_230_925" x1="127.757" y1="-8.34378" x2="-52.2321" y2="110.4" gradientUnits="userSpaceOnUse">
<stop stop-color="#FFBD24"/>
<stop offset="1" stop-color="#C7552C"/>
</linearGradient>
<linearGradient id="paint4_linear_230_925" x1="75.3423" y1="-80.8754" x2="-2.18474" y2="106.973" gradientUnits="userSpaceOnUse">
<stop stop-color="#E3C492"/>
<stop offset="1"/>
</linearGradient>
<linearGradient id="paint5_linear_230_925" x1="18.5215" y1="20.6592" x2="126.547" y2="125.082" gradientUnits="userSpaceOnUse">
<stop stop-color="#FFBD24"/>
<stop offset="1" stop-color="#C7552C"/>
</linearGradient>
<linearGradient id="paint6_linear_230_925" x1="-51.1859" y1="45.7694" x2="151.452" y2="11.2293" gradientUnits="userSpaceOnUse">
<stop stop-color="#FFBD24"/>
<stop offset="1" stop-color="#C7552C"/>
</linearGradient>
<linearGradient id="paint7_linear_230_925" x1="-64.1223" y1="-23.7194" x2="84.4504" y2="86.1152" gradientUnits="userSpaceOnUse">
<stop stop-color="#E3C492"/>
<stop offset="1"/>
</linearGradient>
<linearGradient id="paint8_linear_230_925" x1="57.4132" y1="15.6955" x2="-29.8902" y2="131.171" gradientUnits="userSpaceOnUse">
<stop stop-color="#FFBD24"/>
<stop offset="1" stop-color="#C7552C"/>
</linearGradient>
<linearGradient id="paint9_linear_230_925" x1="135.291" y1="26.7636" x2="-77.218" y2="39.2888" gradientUnits="userSpaceOnUse">
<stop stop-color="#FFBD24"/>
<stop offset="1" stop-color="#C7552C"/>
</linearGradient>
<linearGradient id="paint10_linear_230_925" x1="120.236" y1="-46.619" x2="-14.6132" y2="80.2312" gradientUnits="userSpaceOnUse">
<stop stop-color="#E3C492"/>
<stop offset="1"/>
</linearGradient>
<linearGradient id="paint11_linear_230_925" x1="85.3064" y1="33.5239" x2="-130.891" y2="-9.8406" gradientUnits="userSpaceOnUse">
<stop stop-color="#FFBD24"/>
<stop offset="1" stop-color="#C7552C"/>
</linearGradient>
<linearGradient id="paint12_linear_230_925" x1="105.122" y1="92.3347" x2="4.44257" y2="-68.401" gradientUnits="userSpaceOnUse">
<stop stop-color="#FFBD24"/>
<stop offset="1" stop-color="#C7552C"/>
</linearGradient>
<linearGradient id="paint13_linear_230_925" x1="184.476" y1="44.222" x2="-43.9482" y2="-16.63" gradientUnits="userSpaceOnUse">
<stop stop-color="#E3C492"/>
<stop offset="1"/>
</linearGradient>
<linearGradient id="paint14_linear_230_925" x1="3.83286" y1="29.5118" x2="197.877" y2="76.2769" gradientUnits="userSpaceOnUse">
<stop stop-color="#FFBD24"/>
<stop offset="1" stop-color="#C7552C"/>
</linearGradient>
<linearGradient id="paint15_linear_230_925" x1="-36.1669" y1="80.5461" x2="107.285" y2="-51.928" gradientUnits="userSpaceOnUse">
<stop stop-color="#FFBD24"/>
<stop offset="1" stop-color="#C7552C"/>
</linearGradient>
<linearGradient id="paint16_linear_230_925" x1="-98.2085" y1="23.6866" x2="120.463" y2="55.2179" gradientUnits="userSpaceOnUse">
<stop stop-color="#E3C492"/>
<stop offset="1"/>
</linearGradient>
<linearGradient id="paint17_linear_230_925" x1="35.5282" y1="12.5173" x2="64.1053" y2="117.13" gradientUnits="userSpaceOnUse">
<stop stop-color="#E35832"/>
<stop offset="0.99" stop-color="#750A59"/>
</linearGradient>
<linearGradient id="paint18_linear_230_925" x1="7.8537" y1="-52.4157" x2="86.3143" y2="73.2359" gradientUnits="userSpaceOnUse">
<stop stop-color="#B36140"/>
<stop offset="1"/>
</linearGradient>
<linearGradient id="paint19_linear_230_925" x1="83.685" y1="-99.8365" x2="-1.7481" y2="104.352" gradientUnits="userSpaceOnUse">
<stop stop-color="#B36140"/>
<stop offset="1"/>
</linearGradient>
<linearGradient id="paint20_linear_230_925" x1="204.144" y1="-12.2805" x2="-46.1688" y2="-1.1504" gradientUnits="userSpaceOnUse">
<stop stop-color="#B36140"/>
<stop offset="1"/>
</linearGradient>
<linearGradient id="paint21_linear_230_925" x1="90.4438" y1="207.646" x2="-166.879" y2="-96.9766" gradientUnits="userSpaceOnUse">
<stop stop-color="#E35832"/>
<stop offset="0.99" stop-color="#750A59"/>
</linearGradient>
<linearGradient id="paint22_linear_230_925" x1="205.564" y1="18.8373" x2="-37.3128" y2="49.9512" gradientUnits="userSpaceOnUse">
<stop stop-color="#B36140"/>
<stop offset="1"/>
</linearGradient>
<linearGradient id="paint23_linear_230_925" x1="198.396" y1="8.55756" x2="-40.6462" y2="25.7727" gradientUnits="userSpaceOnUse">
<stop stop-color="#B36140"/>
<stop offset="1"/>
</linearGradient>
<linearGradient id="paint24_linear_230_925" x1="39.1686" y1="-4.9899" x2="52.6995" y2="199.565" gradientUnits="userSpaceOnUse">
<stop stop-color="#E35832"/>
<stop offset="0.99" stop-color="#750A59"/>
</linearGradient>
<linearGradient id="paint25_linear_230_925" x1="-21.5818" y1="-1543.32" x2="360.152" y2="-1490.02" gradientUnits="userSpaceOnUse">
<stop stop-color="#E35832"/>
<stop offset="0.99" stop-color="#750A59"/>
</linearGradient>
<linearGradient id="paint26_linear_230_925" x1="75.4492" y1="106.396" x2="67.6718" y2="-150.482" gradientUnits="userSpaceOnUse">
<stop stop-color="#594A56"/>
<stop offset="0.99" stop-color="#271830"/>
</linearGradient>
<linearGradient id="paint27_linear_230_925" x1="83.1466" y1="102.86" x2="76.9448" y2="-141.396" gradientUnits="userSpaceOnUse">
<stop stop-color="#E35832"/>
<stop offset="0.99" stop-color="#750A59"/>
</linearGradient>
<linearGradient id="paint28_linear_230_925" x1="91.9486" y1="-101.006" x2="7.58868" y2="119.078" gradientUnits="userSpaceOnUse">
<stop stop-color="#B36140"/>
<stop offset="1"/>
</linearGradient>
<linearGradient id="paint29_linear_230_925" x1="0.648382" y1="31.776" x2="80.978" y2="31.776" gradientUnits="userSpaceOnUse">
<stop stop-color="#B36140"/>
<stop offset="1"/>
</linearGradient>
<linearGradient id="paint30_linear_230_925" x1="11.7976" y1="-281.477" x2="352.443" y2="-169.343" gradientUnits="userSpaceOnUse">
<stop stop-color="#E35832"/>
<stop offset="0.99" stop-color="#750A59"/>
</linearGradient>
<linearGradient id="paint31_linear_230_925" x1="110.771" y1="355.688" x2="107.461" y2="-573.744" gradientUnits="userSpaceOnUse">
<stop stop-color="#594A56"/>
<stop offset="0.99" stop-color="#271830"/>
</linearGradient>
<linearGradient id="paint32_linear_230_925" x1="55.0012" y1="140.232" x2="53.5438" y2="-87.6259" gradientUnits="userSpaceOnUse">
<stop stop-color="#594A56"/>
<stop offset="0.99" stop-color="#271830"/>
</linearGradient>
</defs>
</svg>
