<svg width="37" height="59" viewBox="0 0 37 59" fill="none" xmlns="http://www.w3.org/2000/svg">
<path d="M4.56664 48.9811L15.4475 42.7009C18.0865 41.1768 21.0996 40.57 24.035 40.8663C26.9704 40.57 29.9834 41.1697 32.6225 42.7009L33.4904 43.202L35.1345 44.2816C37.4278 45.6011 37.4278 48.9105 35.1345 50.2371L24.2537 56.5172C21.8546 57.9002 18.3053 58.5282 14.8477 58.4083C12.1733 58.5282 9.47787 57.9002 7.07873 56.5172L5.13824 55.2682L4.56664 54.9366C2.27335 53.617 2.27335 50.3076 4.56664 48.9811Z" fill="#F5F2E8"/>
<path d="M20.9236 30.6629C21.5093 30.3242 21.8691 29.7033 21.8691 29.0259V7.05254C21.8691 0.744214 17.3954 -1.81016 11.8986 1.36517L9.98636 2.47301C4.48951 5.64835 0.0158138 13.3609 0.0158138 19.6763V31.6578L1.91396 30.5641V18.5825C1.91396 13.4738 5.53384 7.22895 9.98636 4.65341L11.8986 3.54556C16.3511 0.97707 19.971 3.0375 19.971 8.14626V30.1125C19.971 30.5994 20.5002 30.9099 20.9236 30.6629Z" fill="url(#paint0_linear_76_808)"/>
<path d="M0.890732 21.6661L12.0538 27.6427C12.0538 27.6427 11.4399 20.4101 16.845 14.4263C22.2501 8.44258 25.1997 8.06152 25.1997 8.06152L30.4072 7.27828L19.223 0.821777C19.223 0.821777 14.0084 0.871169 11.1294 2.64936C8.25045 4.42754 2.87353 7.73693 1.88565 14.7015C1.1024 16.4162 0.897795 21.6661 0.897795 21.6661H0.890732Z" fill="url(#paint1_linear_76_808)"/>
<path d="M31.7893 37.2607L20.231 30.6207L19.97 18.4416L19.9559 10.2845L26.3418 7.69482C26.3418 7.69482 31.2741 8.51336 32.0927 11.0748C32.9112 13.6292 31.7893 37.2607 31.7893 37.2607Z" fill="#736FEF"/>
<path d="M1.9058 30.5571V40.6406C1.9058 44.0135 3.48642 46.0457 5.84322 46.3068C6.3795 47.0548 6.86638 47.8027 7.42383 48.5013C3.16183 49.6585 0.00765467 47.0265 0.00765467 41.7343V31.6509L1.9058 30.5571Z" fill="#8E8BF2"/>
<path d="M9.47743 45.5021C9.64678 45.4175 9.81615 45.3398 9.98551 45.241C14.438 42.6726 18.0579 36.4207 18.0579 31.3119V15.654C18.0579 15.3294 18.2343 15.026 18.5165 14.8566L18.5801 14.8214C19.194 14.4686 19.9561 14.906 19.9561 15.6187V30.2182C19.9561 36.2302 15.8987 43.5052 10.7617 46.9275C10.2677 46.5394 9.85141 46.0455 9.47743 45.5092V45.5021Z" fill="#807CF2"/>
<path d="M14.7061 54.8944L2.73856 48.0074L1.05916 40.5771L12.0529 46.1022L14.7061 54.8944Z" fill="#8E8BF2"/>
<path d="M19.2935 14.7437L30.7529 21.3342L29.9062 39.2996C29.9062 39.2996 27.8669 47.7883 25.0302 50.3497C22.1936 52.9041 17.353 54.8234 15.9841 54.0049C14.6152 53.1864 12.0608 46.1089 12.0608 46.1089L16.0335 39.9911C16.0335 39.9911 18.1363 37.98 18.5455 33.0053C18.9548 28.0307 19.3076 14.7507 19.3076 14.7507L19.2935 14.7437Z" fill="#807CF2"/>
<path d="M11.3265 38.1781V48.2615C11.3265 48.7413 11.3547 49.1718 11.3971 49.5669C11.4253 49.828 11.4676 50.0609 11.5029 50.2867C11.5241 50.4137 11.5523 50.5407 11.5735 50.6606C11.6299 50.9217 11.6934 51.1546 11.7499 51.3522C11.7781 51.4368 11.7993 51.5145 11.8204 51.585C11.8557 51.6838 11.898 51.7826 11.9333 51.8814C11.9474 51.9237 11.9686 51.9661 11.9827 51.9943C11.9968 52.0366 12.018 52.079 12.0392 52.1143C12.0392 52.1284 12.0533 52.1425 12.0533 52.1425C13.5351 55.473 17.1197 56.3692 21.297 53.9559C26.7939 50.7806 31.2676 43.0681 31.2676 36.7527V22.1603C31.2676 21.4546 30.5055 21.0101 29.8916 21.3629L29.8281 21.3982C29.5459 21.5605 29.3694 21.8639 29.3694 22.1956V37.8535C29.3694 42.9622 25.7496 49.2071 21.297 51.7755C18.0582 53.6455 15.2568 53.0668 13.9726 50.6395C13.4928 49.7292 13.2246 48.5649 13.2246 47.1749V37.0914L11.3265 38.1851V38.1781Z" fill="#6865D9"/>
<path d="M11.3263 26.0902V38.1777L13.2245 37.0839V25.1023C13.2245 23.8604 13.4361 22.5409 13.8313 21.2355C15.0379 17.164 17.931 13.1207 21.2969 11.1803L23.2091 10.0724C27.6617 7.50393 31.2815 9.57142 31.2815 14.6802V36.6394C31.2815 37.1262 31.8107 37.4367 32.2341 37.1898C32.8198 36.8511 33.1797 36.2231 33.1797 35.5527V13.5794C33.1797 7.27107 28.706 4.71669 23.2021 7.89202L21.2898 8.99987C17.3594 11.2649 13.9654 15.8445 12.3354 20.5722C11.7567 22.2657 11.3969 23.9733 11.3263 25.6033C11.3263 25.7656 11.3122 25.935 11.3122 26.0902H11.3263Z" fill="#6865D9"/>
<path d="M31.9169 33.3868C32.3544 33.3868 32.7848 33.3021 33.1941 33.1327C34.189 32.7164 34.9229 31.8203 35.2263 30.6701C35.7978 28.4615 34.6971 25.8295 32.7072 24.6864L21.9322 18.4698C20.8879 17.87 19.7166 17.7641 18.7216 18.1805C17.7267 18.5968 16.9858 19.4929 16.6894 20.6431C16.1179 22.8517 17.2257 25.4837 19.2085 26.6268L29.9835 32.8434C30.6044 33.2033 31.2748 33.3868 31.9239 33.3868H31.9169ZM19.9988 20.1139C20.267 20.1139 20.5492 20.1986 20.8385 20.3609L31.6135 26.5775C32.7284 27.2266 33.434 28.8778 33.1094 30.1127C32.9824 30.6066 32.7142 30.9594 32.3544 31.1076C31.9874 31.2628 31.5358 31.1993 31.0842 30.9453L20.3093 24.7217C19.1874 24.0795 18.4887 22.4213 18.8133 21.1864C18.9403 20.6996 19.2085 20.3397 19.5684 20.1915C19.7024 20.1351 19.8506 20.1068 19.9988 20.1068V20.1139Z" fill="#6865D9"/>
<path d="M18.0579 17.2914V21.7157C18.8976 26.4787 29.3691 27.1491 29.3691 27.1491V22.4566C29.3691 22.4566 19.441 14.9911 18.0579 17.2844V17.2914Z" fill="#807CF2"/>
<path d="M0.213231 17.0724C0.48137 15.3295 2.43598 14.4263 3.93191 15.3578C5.80889 16.522 8.25743 18.0462 10.0286 19.147C11.2987 19.9373 11.962 21.4262 11.6586 22.8939C11.468 23.8042 11.3128 24.9402 11.3128 26.2103V48.2754C11.3128 48.2754 11.3128 48.6564 11.3763 49.2421C11.4892 50.3429 11.7291 52.4104 9.69689 51.2461L2.75352 47.1322C1.4975 46.3913 0.283799 44.4156 0.0862226 42.9761C0.0297728 42.5739 0.00155067 42.1576 0.00155067 41.7483V19.6833C0.00155067 19.6833 -0.0266895 18.5684 0.206168 17.0866L0.213231 17.0724Z" fill="#8E8BF2"/>
<path d="M10.7766 48.2612V26.1962C10.7766 25.0601 10.8966 23.9029 11.1294 22.7668C11.3834 21.5461 10.826 20.2689 9.74637 19.5986L3.64972 15.8093C3.3463 15.6188 3.00056 15.52 2.6548 15.52C1.83627 15.52 0.926013 16.0775 0.763718 17.143C0.544972 18.5542 0.566121 19.6338 0.566121 19.648V41.7271C0.566121 42.0799 0.594343 42.468 0.650793 42.8843C0.820145 44.1615 1.20824 46.4478 3.86846 48.0072L10.8754 52.1775C11.1576 52.3468 11.4893 52.0646 11.3693 51.7612C11.08 51.0203 10.7907 49.8701 10.7907 48.2612H10.7766Z" fill="#3A3F47"/>
<path d="M8.02441 45.3822C8.02441 47.104 7.06477 47.9437 5.87225 47.2592C4.68679 46.5747 3.72009 44.6201 3.72009 42.9055C3.72009 41.1908 4.67974 40.344 5.87225 41.0285C7.05771 41.7129 8.02441 43.6675 8.02441 45.3822Z" fill="#262C35"/>
<path d="M7.74219 45.1497C7.74219 46.5469 6.95896 47.2313 5.9993 46.6739C5.03259 46.1164 4.25642 44.5358 4.25642 43.1387C4.25642 41.7415 5.03965 41.0571 5.9993 41.6145C6.96602 42.172 7.74219 43.7526 7.74219 45.1497Z" fill="#333941"/>
<path d="M6.54943 44.797C6.97281 45.4532 7.02217 46.18 6.64818 46.4199C6.28126 46.6598 5.63915 46.3211 5.20871 45.6649C4.78534 45.0087 4.73593 44.2819 5.10992 44.042C5.47684 43.802 6.11899 44.1407 6.54943 44.797Z" fill="#43484F"/>
<path d="M0.890501 18.6037C0.890501 18.6037 1.00339 16.9384 1.27859 16.5715C1.70902 16.0493 2.32997 16.0493 2.32997 16.0493C2.32997 16.0493 2.12534 16.7832 2.46404 17.009C2.8098 17.2348 10.8187 22.0048 10.8187 22.0048C10.8187 22.0048 10.8399 22.7387 10.6352 23.4867L10.4306 24.2417L0.890501 18.6037Z" fill="#474C55"/>
<path d="M31.2676 22.1529C31.2676 22.1529 30.7101 18.279 26.0036 15.1036C21.4875 12.0553 18.0582 13.4595 18.0582 15.654C18.0582 17.8485 24.7194 20.8969 24.7194 20.8969L29.3694 22.6115L31.2676 22.1529Z" fill="#807CF2"/>
<path d="M29.2989 22.5834C29.0731 21.3133 27.7606 18.3356 23.9996 15.7953C21.8122 14.3205 19.7729 14.3487 18.418 14.511C19.3495 13.2338 22.3907 12.6693 26.0036 15.1038C30.7031 18.2791 31.2676 22.153 31.2676 22.153L29.3694 22.6117L29.2989 22.5834Z" fill="#6865D9"/>
<path d="M2.59759 25.3636V24.7145L3.19034 25.0532V24.2417L4.76388 25.1519V25.9634L5.35662 26.3092V26.9584L5.91406 27.2759V26.6267L6.50676 26.9654V26.1539L8.07328 27.0642V27.8757L8.66603 28.2144V28.8706L9.10352 29.1176V30.7476L8.66603 30.4936V31.5873L8.07328 31.2415V31.7919L7.54406 31.4885V32.0318L6.93016 31.679V32.3564L6.42209 32.0671V32.7445L4.84855 31.8413V31.1569L4.34052 30.8675V30.1831L3.71956 29.8232V29.2799L3.19034 28.9765V28.4261L2.59759 28.0874V26.9936L2.1601 26.7396V25.1096L2.59759 25.3636Z" fill="#FF8E8C"/>
<path d="M8.1084 29.4276L7.62151 29.1454V28.0234L8.1084 28.3057V29.4276Z" fill="#F4F4F5"/>
<path d="M7.62207 27.4663V28.0238L7.13518 27.7415V27.1841L7.62207 27.4663Z" fill="#F4F4F5"/>
<path d="M6.69111 35.045C6.56409 34.9744 6.50062 35.045 6.50062 35.1508V36.3998C6.38066 36.3292 6.29597 36.3292 6.22541 36.3645C6.15485 36.3998 6.12661 36.4845 6.12661 36.6185V37.6488C6.12661 37.9099 6.26776 38.1639 6.50062 38.2979L7.60846 38.9401C7.84132 39.0741 7.98242 38.9895 7.98242 38.7284V37.6982C7.98242 37.5641 7.94713 37.4371 7.88362 37.3242C7.81306 37.2113 7.72842 37.1125 7.60846 37.0419V35.793C7.60846 35.6801 7.54494 35.5389 7.41793 35.4684L6.68404 35.045H6.69111ZM6.50062 37.8746V36.8373L7.60846 37.4794V38.5167L6.50062 37.8746ZM6.87458 36.6256V35.5883L7.22739 35.793V36.8302L6.87458 36.6256Z" fill="#C3C4C7"/>
<path d="M3.79043 34.9112L5.08881 35.6591C5.19465 35.7226 5.2793 35.6591 5.2793 35.5533V34.4454C5.2793 34.3325 5.19465 34.1844 5.08881 34.1209L3.60696 33.267C3.50111 33.2035 3.41647 33.267 3.41647 33.3729V36.3083C3.41647 36.4283 3.49406 36.5694 3.60696 36.6329L3.79749 36.7387C3.91039 36.8023 3.98803 36.7458 3.98803 36.6329C3.98803 36.5059 3.91039 36.3718 3.79749 36.3083V34.9112H3.79043ZM3.79043 34.4807V33.8033L4.89827 34.4454V35.1228L3.79043 34.4807Z" fill="#C3C4C7"/>
<defs>
<linearGradient id="paint0_linear_76_808" x1="21.1776" y1="4.51228" x2="7.70715" y2="27.8474" gradientUnits="userSpaceOnUse">
<stop offset="0.2" stop-color="#8E8BF2"/>
<stop offset="0.33" stop-color="#9798F3"/>
<stop offset="0.36" stop-color="#9B9DF4"/>
<stop offset="0.41" stop-color="#9A9CF4"/>
<stop offset="0.47" stop-color="#9697F3"/>
<stop offset="0.53" stop-color="#8E8BF2"/>
</linearGradient>
<linearGradient id="paint1_linear_76_808" x1="19.7593" y1="3.69369" x2="6.24648" y2="27.0994" gradientUnits="userSpaceOnUse">
<stop offset="0.2" stop-color="#8E8BF2"/>
<stop offset="0.33" stop-color="#9798F3"/>
<stop offset="0.36" stop-color="#9B9DF4"/>
<stop offset="0.41" stop-color="#9A9CF4"/>
<stop offset="0.47" stop-color="#9697F3"/>
<stop offset="0.53" stop-color="#8E8BF2"/>
</linearGradient>
</defs>
</svg>
