<svg width="92" height="90" viewBox="0 0 92 90" fill="none" xmlns="http://www.w3.org/2000/svg">
<path d="M27.4431 56.9801C11.7391 56.3973 -0.562889 43.1471 0.0198797 27.4431C0.602648 11.7391 13.8529 -0.562889 29.5569 0.0198797C45.2609 0.602648 57.5629 13.8529 56.9801 29.5569C56.3973 45.2609 43.1471 57.5629 27.4431 56.9801ZM28.9085 17.4923C22.8389 17.267 17.7176 22.0218 17.4923 28.0915C17.267 34.1611 22.0218 39.2824 28.0915 39.5076C34.1611 39.7329 39.2824 34.9781 39.5077 28.9084C39.733 22.8387 34.9781 17.7176 28.9085 17.4923Z" fill="#FFA76C"/>
<path d="M28.5002 56.9998C44.215 56.9998 56.9999 44.2148 56.9999 28.5C56.9999 20.2743 53.4955 12.8528 47.903 7.64587C48.8741 9.95777 49.861 12.2629 50.528 14.6768C53.2001 24.348 50.0844 35.4462 42.6027 42.1316C35.1211 48.8171 24.2021 49.5847 15.1245 45.3104C8.9758 42.4152 3.62204 37.8458 1.52277 31.4118C0.852546 29.3576 0.531291 27.2237 0.205189 25.0912C0.0712711 26.2093 0.000570052 27.3465 0.000570052 28.5C0.000464688 44.2148 12.7853 56.9998 28.5002 56.9998Z" fill="#F28F4C"/>
<path d="M32.2843 13.5383C28.8881 12.9748 25.373 13.5455 22.1411 14.7318C15.5968 17.134 12.9764 23.5298 14.2883 30.1641C15.0326 33.928 16.6513 37.6159 19.439 40.2522C22.2268 42.8886 26.2924 44.3261 30.0152 43.3977C32.5708 42.7603 34.7572 41.1053 36.6287 39.252C39.3336 36.5735 41.5765 33.3246 42.5463 29.6434C43.5162 25.9623 43.0962 21.82 40.9151 18.7C38.9428 15.8785 35.6805 14.1019 32.2843 13.5383ZM28.1329 36.1505C23.6499 36.1505 19.6528 33.0882 19.6528 28.6053C19.6528 24.1224 23.2127 20.3876 27.6957 20.3876C32.1787 20.3876 36.7877 23.2481 36.7877 27.7311C36.7878 32.2141 32.616 36.1505 28.1329 36.1505Z" fill="#F28F4C"/>
<path d="M50.8662 40.546C52.4375 37.1429 55.5433 34.2924 55.7646 30.5505C55.9881 26.769 53.1866 23.5648 51.8489 20.0208C50.2982 15.9126 50.8843 11.5746 46.6348 7.90847C44.0918 5.71458 39.7168 5.30767 36.5306 4.38425C31.3377 2.87934 29.5341 1.22955 23.2402 1.78019C16.6133 2.3599 11.6539 8.31929 7.71255 13.0908C6.1402 14.9944 3.25069 17.5336 2.62472 19.9219C1.62924 23.7196 3.26102 27.0969 3.78868 30.9873C4.27378 34.5643 3.9128 38.3369 4.96234 41.7907C5.86425 44.759 7.81443 46.7321 10.4946 48.2944C12.5863 49.5138 15.2744 50.4055 17.4636 51.4398C19.7711 52.53 22.0739 54.4977 26.2477 55.1775C30.5705 55.8816 35.0863 54.3514 39.5832 52.2479C43.2053 50.5536 47.062 48.6455 48.979 45.1361C49.7726 43.6833 50.1722 42.0492 50.8662 40.546ZM28.0915 39.5076C22.0218 39.2824 17.267 34.1611 17.4923 28.0915C17.7176 22.0218 22.8389 17.267 28.9085 17.4923C34.9781 17.7176 39.733 22.8387 39.5077 28.9084C39.2824 34.9781 34.1611 39.7329 28.0915 39.5076Z" fill="#772A18"/>
<path d="M4.38967 23.5096C4.97222 24.9354 6.01586 26.1967 6.23954 27.7206C6.39106 28.753 6.14682 29.7962 6.01312 30.831C5.87941 31.8659 5.8752 32.9885 6.43953 33.8663C7.00386 34.7441 8.31585 35.1985 9.13073 34.5467C9.89599 33.9346 9.84816 32.7488 9.53144 31.8215C9.21471 30.8941 8.69505 29.9905 8.74773 29.012C8.79957 28.0509 9.39298 27.2197 9.81697 26.3555C10.241 25.4913 10.4787 24.3778 9.88167 23.6228C9.20143 22.7623 7.7295 22.7572 7.21469 21.7887C6.51897 20.4799 8.26338 18.9177 7.79061 17.5129C7.38127 16.2965 3.38017 21.0386 4.38967 23.5096Z" fill="#994F41"/>
<path d="M15.387 7.07351C14.8703 7.54586 14.332 8.0514 14.1272 8.72088C13.9224 9.39036 14.2027 10.2615 14.8778 10.4466C15.436 10.5996 16.0192 10.2315 16.3573 9.76167C16.6954 9.29185 16.8677 8.72478 17.1492 8.21903C17.7857 7.07562 19.0137 6.28339 20.3178 6.17508C20.9017 6.12661 21.4957 6.20605 22.0717 6.09879C22.6477 5.99164 23.2372 5.62813 23.3571 5.05474C23.4802 4.46639 23.0427 3.87003 22.4895 3.63485C21.9363 3.39968 21.3046 3.45004 20.7146 3.56499C18.281 4.03924 16.078 5.59094 14.8117 7.72256L15.387 7.07351Z" fill="#994F41"/>
<path d="M37.4959 38.8622C36.4727 40.1297 34.8169 40.7037 33.2116 40.9799C32.6054 41.0842 31.9727 41.1621 31.4511 41.488C30.9294 41.8139 30.5561 42.4774 30.7803 43.05C31.043 43.721 31.9538 43.8912 32.6394 43.6696C33.3251 43.448 33.891 42.9597 34.5465 42.6605C36.3602 41.8326 38.9079 42.3795 40.0674 40.7577C40.7548 39.7964 40.6141 38.4241 41.2921 37.4562C41.7679 36.7769 42.6339 36.3056 42.7399 35.4829C42.8086 34.9491 42.4739 34.3898 41.9713 34.1978C39.8185 33.3756 38.4087 37.7315 37.4959 38.8622Z" fill="#994F41"/>
<path d="M10.1877 13.0142C9.69343 13.3237 9.20707 13.7458 9.10065 14.3192C8.99423 14.8926 9.4867 15.5754 10.0552 15.4455C10.3214 15.3847 10.5237 15.1748 10.7095 14.9747C11.4153 14.2146 12.1211 13.4545 12.8268 12.6945C12.9079 12.6072 12.9927 12.5121 13.009 12.3942C13.0537 12.0702 12.6016 11.9328 12.2767 11.9716C11.6122 12.0508 10.9735 12.3351 10.4699 12.7758L10.1877 13.0142Z" fill="#994F41"/>
<path d="M42.6785 27.8022C42.0923 28.9613 42.0368 30.3759 42.5301 31.5775C42.6684 31.9142 42.9062 32.2747 43.269 32.3023C43.6583 32.3319 43.9518 31.9676 44.1572 31.6356C44.6146 30.8958 45.0233 30.0606 44.9349 29.1953C44.8465 28.3301 44.0672 27.4882 43.2099 27.6357L42.6785 27.8022Z" fill="#994F41"/>
<path d="M26.4267 42.4209C25.7069 42.2015 25.1068 43.2583 25.4987 43.9008C25.8905 44.5433 26.8043 44.674 27.5188 44.4377C27.8007 44.3445 28.085 44.189 28.2157 43.9224C28.5601 43.2194 27.6549 42.579 26.9189 42.3125L26.4267 42.4209Z" fill="#994F41"/>
<path d="M51.3202 18.343C51.2464 18.299 51.1742 18.2531 51.0991 18.2106C51.2267 18.4236 51.3475 18.6388 51.4619 18.8555C51.4121 18.6849 51.3655 18.514 51.3202 18.343Z" fill="#562217"/>
<path d="M51.1457 36.2188C48.9143 37.9657 47.2991 42.5133 46.21 43.8059C44.9728 45.2743 42.5982 45.0613 40.8879 45.934C38.4878 47.1586 36.109 51.6051 32.2623 51.9548C27.237 52.4117 25.5875 48.7484 20.7226 47.4089C17.9961 46.6582 14.7237 46.7094 12.0031 45.9375C8.25072 44.8729 5.89415 42.1077 4.35478 38.7397C4.477 39.7749 4.66015 40.7961 4.96234 41.7907C5.86425 44.759 7.81443 46.7321 10.4946 48.2944C12.5863 49.5138 15.2744 50.4055 17.4636 51.4398C19.7711 52.53 22.0739 54.4977 26.2477 55.1775C30.5705 55.8816 35.0863 54.3514 39.5832 52.2479C43.2053 50.5536 47.062 48.6455 48.979 45.1361C49.7726 43.6833 50.1722 42.0492 50.8662 40.546C52.4375 37.1429 55.5433 34.2924 55.7646 30.5505C55.9531 27.3624 53.9915 24.5849 52.5696 21.6679C54.3047 28.02 56.5517 31.9869 51.1457 36.2188Z" fill="#562217"/>
<path d="M40.2587 24.9286C39.7525 22.2316 38.3026 19.7876 36.5314 17.6917C34.7508 15.5847 32.1755 13.6415 29.4749 14.204C27.8151 14.5497 26.4175 15.8044 24.7301 15.9691C23.6468 16.0749 22.517 15.7189 21.4832 16.0592C20.2196 16.4753 19.508 17.7787 18.919 18.9717C18.2948 20.2358 17.6706 21.5 17.0464 22.7641C16.3434 24.1878 15.6286 25.6527 15.4852 27.2339C15.2595 29.723 16.5074 31.9533 18.1048 33.7557C18.2226 33.8887 18.7348 34.2524 19.3949 34.6891C18.1162 32.8131 17.4018 30.5293 17.4923 28.0915C17.7176 22.0218 22.8389 17.267 28.9085 17.4923C34.9564 17.7167 39.6977 22.8025 39.5087 28.8436C40.3045 27.8808 40.5071 26.2524 40.2587 24.9286Z" fill="#562217"/>
<path d="M7.08901 24.136L10.7521 26.8628C11.1204 27.1368 11.1972 27.6625 10.9231 28.0307L10.8562 28.1206C10.5822 28.4886 10.0565 28.5658 9.68824 28.2917L6.02536 25.5646C5.65712 25.2905 5.5801 24.765 5.85415 24.3967L5.92106 24.3071C6.19511 23.9388 6.72076 23.8617 7.08901 24.136Z" fill="#F95050"/>
<path d="M7.15144 24.7006L10.0654 26.8699C10.2195 26.9847 10.2517 27.2047 10.1371 27.3592C10.0222 27.5133 9.80229 27.5454 9.64772 27.4305L6.73377 25.2614C6.57963 25.1468 6.54749 24.9265 6.66244 24.7724C6.77697 24.6179 6.99729 24.5858 7.15144 24.7006Z" fill="#FF886C"/>
<path d="M6.89998 35.3093L11.1516 33.6426C11.579 33.475 12.0657 33.6878 12.2333 34.1151L12.2742 34.2194C12.4415 34.6466 12.229 35.1336 11.8017 35.3011L7.54997 36.9674C7.12261 37.135 6.63583 36.9224 6.46819 36.4951L6.42752 36.3909C6.25989 35.9636 6.47251 35.4767 6.89998 35.3093Z" fill="#13B3B7"/>
<path d="M7.41205 35.5546L10.7941 34.2288C10.9731 34.1588 11.1768 34.2479 11.2473 34.4267C11.3173 34.6058 11.2283 34.8094 11.049 34.8798L7.66693 36.2056C7.48823 36.2759 7.28424 36.1866 7.21418 36.0075C7.1439 35.8287 7.23314 35.6247 7.41205 35.5546Z" fill="#26C6C6"/>
<path d="M42.8305 33.6482L47.0822 31.9816C47.5096 31.814 47.9962 32.0268 48.1639 32.4541L48.2048 32.5584C48.3722 32.9856 48.1597 33.4726 47.7323 33.6401L43.4805 35.3064C43.0532 35.474 42.5664 35.2614 42.3988 34.8341L42.358 34.73C42.1904 34.3025 42.403 33.8156 42.8305 33.6482Z" fill="#3951FF"/>
<path d="M43.3423 33.8936L46.7244 32.5679C46.9034 32.4978 47.1071 32.5869 47.1775 32.7658C47.2475 32.9449 47.1586 33.1484 46.9793 33.2188L43.5972 34.5446C43.4185 34.6149 43.2145 34.5257 43.1445 34.3465C43.074 34.1676 43.1633 33.9635 43.3423 33.8936Z" fill="#628CE8"/>
<path d="M41.7287 41.9155L46.2593 42.4881C46.7146 42.5456 47.0401 42.9655 46.9826 43.4209L46.9686 43.532C46.9109 43.9872 46.4913 44.3129 46.0358 44.2554L41.5052 43.6825C41.0498 43.6249 40.7243 43.2053 40.7817 42.7498L40.7958 42.6388C40.8533 42.1835 41.2731 41.8578 41.7287 41.9155Z" fill="#FFE2DE"/>
<path d="M42.0606 42.3763L45.6646 42.8319C45.8553 42.8561 45.9915 43.0319 45.9677 43.2227C45.9434 43.4134 45.7678 43.5495 45.5766 43.5255L41.9726 43.07C41.7821 43.0461 41.6458 42.87 41.67 42.6793C41.694 42.4885 41.87 42.352 42.0606 42.3763Z" fill="#FFF6F5"/>
<path d="M18.4357 38.3227L14.0508 37.0473C13.6101 36.919 13.1446 37.175 13.0163 37.6157L12.985 37.7233C12.857 38.1638 13.1126 38.6296 13.5534 38.7579L17.9384 40.0329C18.3792 40.1611 18.8448 39.9054 18.9731 39.4646L19.0043 39.3573C19.1324 38.9164 18.8767 38.4507 18.4357 38.3227Z" fill="#3951FF"/>
<path d="M17.9478 38.6138L14.4596 37.5993C14.275 37.5458 14.0802 37.6528 14.0261 37.8374C13.9726 38.0221 14.0797 38.2168 14.2646 38.2707L17.7527 39.2852C17.9369 39.3391 18.1321 39.2317 18.1856 39.047C18.2398 38.8625 18.1324 38.6675 17.9478 38.6138Z" fill="#628CE8"/>
<path d="M18.7778 15.0117L15.4991 11.833C15.1695 11.5134 14.6384 11.5219 14.3189 11.8514L14.241 11.9318C13.9217 12.2613 13.9297 12.7925 14.2593 13.112L17.5383 16.2904C17.8678 16.6099 18.3989 16.6018 18.7186 16.2723L18.7964 16.1919C19.1157 15.8623 19.1076 15.3312 18.7778 15.0117Z" fill="#13B3B7"/>
<path d="M18.2108 15.0404L15.6025 12.5119C15.4644 12.3782 15.2422 12.3817 15.108 12.5195C14.9743 12.6577 14.9778 12.8799 15.1161 13.0141L17.7242 15.5426C17.8619 15.6764 18.0846 15.6728 18.2183 15.5346C18.3524 15.3968 18.3488 15.1742 18.2108 15.0404Z" fill="#26C6C6"/>
<path d="M51.4743 24.6282L48.1956 21.4495C47.866 21.1299 47.3348 21.1383 47.0154 21.4679L46.9374 21.5483C46.6181 21.8778 46.6262 22.409 46.9557 22.7285L50.2348 25.9069C50.5644 26.2264 51.0954 26.2182 51.4151 25.8888L51.4928 25.8084C51.8123 25.4789 51.8041 24.9477 51.4743 24.6282Z" fill="#13B3B7"/>
<path d="M50.9074 24.6569L48.2991 22.1283C48.161 21.9946 47.9387 21.9981 47.8046 22.1359C47.6709 22.2742 47.6744 22.4964 47.8128 22.6305L50.4209 25.159C50.5587 25.2928 50.7813 25.2893 50.915 25.151C51.0491 25.0132 51.0455 24.7906 50.9074 24.6569Z" fill="#26C6C6"/>
<path d="M30.2304 50.2434L26.9517 47.0647C26.6221 46.7451 26.091 46.7535 25.7715 47.0831L25.6936 47.1635C25.3743 47.493 25.3823 48.0242 25.7119 48.3438L28.9909 51.5222C29.3205 51.8417 29.8515 51.8336 30.1712 51.5041L30.249 51.4237C30.5683 51.0941 30.5602 50.5629 30.2304 50.2434Z" fill="#20AF64"/>
<path d="M29.6634 50.2721L27.0551 47.7436C26.917 47.6099 26.6946 47.6134 26.5606 47.7512C26.4269 47.8894 26.4304 48.1115 26.5687 48.2457L29.1769 50.7742C29.3146 50.908 29.5373 50.9044 29.671 50.7662C29.805 50.6285 29.8014 50.406 29.6634 50.2721Z" fill="#3BC476"/>
<path d="M10.7594 21.3739L14.6444 18.9738C15.0349 18.7325 15.5518 18.8549 15.7931 19.2453L15.852 19.3406C16.093 19.731 15.971 20.2481 15.5805 20.4894L11.6952 22.8892C11.3048 23.1304 10.7878 23.0083 10.5465 22.6178L10.4878 22.5227C10.2466 22.1322 10.3687 21.6151 10.7594 21.3739Z" fill="#FFE2DE"/>
<path d="M11.3069 21.5241L14.3975 19.6149C14.5611 19.514 14.7774 19.5652 14.8788 19.7286C14.9796 19.8923 14.9285 20.1086 14.7647 20.2099L11.6742 22.1191C11.511 22.2202 11.2943 22.1689 11.1935 22.0051C11.0921 21.8418 11.1434 21.6251 11.3069 21.5241Z" fill="#FFF6F5"/>
<path d="M36.3223 8.6982L40.8551 8.14293C41.3107 8.08709 41.7291 8.41435 41.7849 8.86995L41.7986 8.9811C41.8544 9.43649 41.5272 9.8552 41.0716 9.91105L36.5389 10.4659C36.0833 10.5217 35.6648 10.1947 35.6088 9.73899L35.5953 9.62793C35.5395 9.17244 35.8666 8.75384 36.3223 8.6982Z" fill="#F95050"/>
<path d="M36.7569 9.06372L40.3626 8.62214C40.5534 8.59885 40.7286 8.73583 40.7523 8.92675C40.7754 9.11767 40.6386 9.29267 40.4473 9.31617L36.8417 9.75786C36.6511 9.78135 36.4757 9.64417 36.4526 9.45325C36.4289 9.26233 36.566 9.087 36.7569 9.06372Z" fill="#FF886C"/>
<path d="M20.9329 7.29449L25.277 8.70289C25.7136 8.8444 25.9549 9.31769 25.8134 9.75432L25.7788 9.86084C25.6372 10.2973 25.1641 10.5389 24.7274 10.3974L20.3835 8.98853C19.9469 8.84703 19.7054 8.37395 19.8468 7.93722L19.8814 7.8309C20.023 7.39438 20.4962 7.15278 20.9329 7.29449Z" fill="#3951FF"/>
<path d="M21.1728 7.80904L24.6284 8.92948C24.8112 8.9889 24.9122 9.18699 24.8532 9.37001C24.7937 9.55281 24.5958 9.65385 24.4125 9.59443L20.957 8.47409C20.7743 8.41509 20.6732 8.21669 20.7326 8.03378C20.7915 7.85076 20.9899 7.74972 21.1728 7.80904Z" fill="#628CE8"/>
<path d="M41.2531 17.6209L44.2347 14.1619C44.5344 13.8142 45.0641 13.7751 45.4118 14.0748L45.4967 14.1479C45.8441 14.4476 45.8836 14.9773 45.584 15.325L42.6021 18.7837C42.3024 19.1314 41.7728 19.1707 41.425 18.8711L41.3404 18.7979C40.9925 18.4985 40.9532 17.9686 41.2531 17.6209Z" fill="#FFA727"/>
<path d="M41.8205 17.5989L44.1924 14.8474C44.318 14.7019 44.5398 14.6856 44.6856 14.8109C44.8311 14.9366 44.8475 15.1582 44.7218 15.3042L42.35 18.0557C42.2247 18.2012 42.0027 18.2175 41.8572 18.0918C41.7114 17.9664 41.6951 17.7444 41.8205 17.5989Z" fill="#FFBD52"/>
<path d="M32.7453 44.3522L35.3074 40.5719C35.5649 40.192 36.0865 40.0919 36.4666 40.3494L36.5593 40.4122C36.9391 40.6697 37.0395 41.1914 36.782 41.5714L34.2196 45.3514C33.9621 45.7313 33.4404 45.8316 33.0604 45.5741L32.9679 45.5113C32.5879 45.2539 32.4876 44.7322 32.7453 44.3522Z" fill="#13B3B7"/>
<path d="M33.3063 44.265L35.3445 41.258C35.4525 41.0989 35.6708 41.057 35.8301 41.1646C35.9892 41.2726 36.031 41.4909 35.923 41.6504L33.885 44.6575C33.7774 44.8165 33.5587 44.8585 33.3997 44.7504C33.2403 44.6428 33.1984 44.424 33.3063 44.265Z" fill="#26C6C6"/>
<path d="M27.8211 13.0118L31.2723 10.0212C31.6192 9.72061 32.149 9.75865 32.4497 10.1055L32.5231 10.1901C32.8235 10.5369 32.7858 11.0668 32.4389 11.3674L28.9874 14.3577C28.6405 14.6583 28.1107 14.6205 27.81 14.2736L27.7368 14.189C27.4362 13.8422 27.474 13.3123 27.8211 13.0118Z" fill="#13B3B7"/>
<path d="M28.3857 13.0723L31.1311 10.6933C31.2765 10.5675 31.4982 10.5836 31.6245 10.7285C31.7503 10.8739 31.7344 11.0956 31.5887 11.2219L28.8434 13.6008C28.6984 13.7267 28.4763 13.7107 28.3505 13.5651C28.2243 13.4201 28.2403 13.198 28.3857 13.0723Z" fill="#26C6C6"/>
<path d="M18.1403 45.3556L22.0253 42.9555C22.4158 42.7142 22.9327 42.8366 23.174 43.2271L23.2329 43.3223C23.4739 43.7127 23.3519 44.2298 22.9614 44.4711L19.0761 46.8709C18.6857 47.1121 18.1687 46.99 17.9274 46.5995L17.8687 46.5043C17.6276 46.1138 17.7496 45.5968 18.1403 45.3556Z" fill="#FFA727"/>
<path d="M18.6881 45.5058L21.7786 43.5966C21.9423 43.4957 22.1586 43.5469 22.2599 43.7103C22.3609 43.8739 22.3097 44.0903 22.1458 44.1915L19.0554 46.1007C18.8922 46.2018 18.6754 46.1505 18.5746 45.9867C18.4731 45.8234 18.5245 45.6068 18.6881 45.5058Z" fill="#FFBD52"/>
<path d="M14.6507 31.0016C14.0129 31.0952 13.4221 30.6678 13.3308 30.0468C13.2397 29.4259 13.6829 28.8465 14.3206 28.7529C14.9579 28.6593 15.5491 29.0871 15.6402 29.7076C15.7313 30.3286 15.2881 30.9077 14.6507 31.0016Z" fill="#FF7676"/>
<path d="M14.9918 30.6797C14.5626 30.9793 13.9718 30.8743 13.6721 30.4452C13.3724 30.0161 13.4775 29.4253 13.9068 29.1257C14.336 28.826 14.9267 28.9313 15.2262 29.3604C15.5258 29.7896 15.4206 30.3803 14.9918 30.6797Z" fill="#FFBD76"/>
<path d="M14.4356 30.623C14.112 30.6705 13.8113 30.4468 13.7637 30.1229C13.7161 29.7993 13.9398 29.4985 14.2637 29.451C14.5873 29.4036 14.8881 29.6272 14.9356 29.9511C14.983 30.2746 14.7594 30.5755 14.4356 30.623Z" fill="#FFEA80"/>
<path d="M10.2767 44.0634C9.63889 44.1569 9.04812 43.7296 8.95677 43.1086C8.86573 42.4876 9.30889 41.9082 9.94656 41.8147C10.584 41.721 11.1751 42.1487 11.2661 42.7694C11.3572 43.3903 10.9141 43.9695 10.2767 44.0634Z" fill="#FF7676"/>
<path d="M10.6177 43.7414C10.1886 44.0411 9.59782 43.9361 9.29806 43.507C8.9984 43.0778 9.10345 42.487 9.53281 42.1874C9.96196 41.8877 10.5527 41.993 10.8522 42.4221C11.1519 42.8513 11.0466 43.4421 10.6177 43.7414Z" fill="#FFBD76"/>
<path d="M10.061 43.6847C9.73744 43.7322 9.43673 43.5085 9.38911 43.1846C9.34148 42.8611 9.56517 42.5603 9.88917 42.5127C10.2127 42.4653 10.5134 42.6889 10.5611 43.0128C10.6086 43.3364 10.3849 43.6371 10.061 43.6847Z" fill="#FFEA80"/>
<path d="M22.7797 51.5201C22.1419 51.6136 21.5511 51.1863 21.4598 50.5652C21.3688 49.9443 21.8119 49.3649 22.4496 49.2714C23.0869 49.1777 23.6781 49.6055 23.7692 50.2261C23.8602 50.847 23.4171 51.4261 22.7797 51.5201Z" fill="#FF7676"/>
<path d="M23.1208 51.1981C22.6916 51.4977 22.1008 51.3927 21.8011 50.9637C21.5014 50.5345 21.6065 49.9437 22.0358 49.6441C22.465 49.3444 23.0558 49.4497 23.3552 49.8788C23.655 50.308 23.5496 50.8988 23.1208 51.1981Z" fill="#FFBD76"/>
<path d="M22.564 51.1414C22.2404 51.1889 21.9397 50.9652 21.8921 50.6413C21.8446 50.3178 22.0683 50.0169 22.3922 49.9694C22.7157 49.922 23.0165 50.1456 23.0641 50.4695C23.1116 50.7932 22.8879 51.0939 22.564 51.1414Z" fill="#FFEA80"/>
<path d="M21.1435 15.9376C20.5057 16.0312 19.9149 15.6038 19.8236 14.9828C19.7326 14.3619 20.1757 13.7825 20.8134 13.6889C21.4507 13.5953 22.0419 14.0231 22.133 14.6437C22.224 15.2646 21.7809 15.8437 21.1435 15.9376Z" fill="#FF7676"/>
<path d="M21.485 15.6157C21.0559 15.9153 20.4651 15.8103 20.1655 15.3812C19.8658 14.9521 19.9708 14.3613 20.4002 14.0617C20.8293 13.762 21.4201 13.8673 21.7196 14.2964C22.0191 14.7256 21.9138 15.3163 21.485 15.6157Z" fill="#FFBD76"/>
<path d="M20.9278 15.559C20.6042 15.6065 20.3034 15.3828 20.2559 15.0589C20.2084 14.7353 20.4321 14.4345 20.756 14.387C21.0795 14.3396 21.3804 14.5632 21.4279 14.8871C21.4754 15.2106 21.2517 15.5114 20.9278 15.559Z" fill="#FFEA80"/>
<path d="M7.82792 17.1371C7.19015 17.2307 6.59937 16.8033 6.50802 16.1823C6.41699 15.5614 6.86015 14.982 7.49782 14.8885C8.13527 14.7948 8.72636 15.2225 8.81739 15.8432C8.90853 16.464 8.46548 17.0432 7.82792 17.1371Z" fill="#FF7676"/>
<path d="M8.1697 16.8154C7.74055 17.1151 7.14977 17.0101 6.85011 16.581C6.55046 16.1518 6.65551 15.561 7.08487 15.2614C7.51402 14.9617 8.10479 15.067 8.40423 15.4961C8.70389 15.9253 8.59853 16.5161 8.1697 16.8154Z" fill="#FFBD76"/>
<path d="M7.61304 16.7587C7.28947 16.8062 6.98876 16.5825 6.94113 16.2586C6.89362 15.9351 7.11731 15.6342 7.4412 15.5867C7.76477 15.5393 8.06547 15.763 8.1131 16.0868C8.16051 16.4105 7.93693 16.7112 7.61304 16.7587Z" fill="#FFEA80"/>
<path d="M30.5857 7.54459C29.9479 7.63815 29.3571 7.21079 29.2658 6.58978C29.1747 5.96887 29.6179 5.38947 30.2556 5.2959C30.8929 5.20223 31.4841 5.62991 31.5751 6.25061C31.6663 6.87152 31.2232 7.45071 30.5857 7.54459Z" fill="#FF7676"/>
<path d="M30.9272 7.22216C30.4981 7.52182 29.9073 7.41677 29.6076 6.98773C29.308 6.55858 29.413 5.9678 29.8424 5.66804C30.2715 5.36839 30.8623 5.47365 31.1617 5.9028C31.4614 6.33205 31.356 6.92282 30.9272 7.22216Z" fill="#FFBD76"/>
<path d="M30.3706 7.16592C30.047 7.21344 29.7462 6.98975 29.6986 6.66586C29.6511 6.34229 29.8748 6.04147 30.1987 5.99396C30.5223 5.94654 30.8231 6.17023 30.8706 6.49402C30.918 6.81759 30.6943 7.1184 30.3706 7.16592Z" fill="#FFEA80"/>
<path d="M36.5027 16.7871C35.865 16.8807 35.2742 16.4533 35.1828 15.8323C35.0918 15.2114 35.535 14.632 36.1726 14.5384C36.8101 14.4448 37.4012 14.8726 37.4922 15.4932C37.5833 16.114 37.1403 16.6931 36.5027 16.7871Z" fill="#FF7676"/>
<path d="M36.8441 16.4645C36.4149 16.7642 35.8241 16.6592 35.5244 16.2301C35.2247 15.8009 35.3298 15.2102 35.7591 14.9104C36.1883 14.6107 36.779 14.716 37.0785 15.1452C37.3783 15.5744 37.2729 16.1652 36.8441 16.4645Z" fill="#FFBD76"/>
<path d="M36.2879 16.4083C35.9643 16.4558 35.6635 16.2321 35.616 15.9082C35.5684 15.5846 35.7921 15.2839 36.116 15.2363C36.4396 15.1889 36.7404 15.4126 36.7879 15.7364C36.8353 16.0599 36.6116 16.3607 36.2879 16.4083Z" fill="#FFEA80"/>
<path d="M44.1965 24.4805C43.5587 24.574 42.9679 24.1467 42.8766 23.5256C42.7856 22.9047 43.2287 22.3253 43.8664 22.2318C44.5037 22.1381 45.0949 22.5659 45.186 23.1865C45.2771 23.8074 44.834 24.3866 44.1965 24.4805Z" fill="#FF7676"/>
<path d="M44.5375 24.1585C44.1084 24.4581 43.5176 24.3532 43.2179 23.9241C42.9183 23.4949 43.0232 22.9041 43.4527 22.6045C43.8818 22.3048 44.4726 22.4101 44.772 22.8392C45.0717 23.2684 44.9663 23.8592 44.5375 24.1585Z" fill="#FFBD76"/>
<path d="M43.9814 24.1018C43.6578 24.1493 43.357 23.9256 43.3095 23.6017C43.262 23.2782 43.4856 22.9773 43.8095 22.9298C44.1331 22.8824 44.4339 23.1061 44.4814 23.4299C44.5288 23.7535 44.3052 24.0542 43.9814 24.1018Z" fill="#FFEA80"/>
<path d="M38.2507 47.2104C37.6129 47.304 37.0221 46.8766 36.9308 46.2556C36.8397 45.6347 37.2829 45.0553 37.9206 44.9617C38.5579 44.8681 39.1491 45.2958 39.2401 45.9164C39.3312 46.5373 38.8881 47.1164 38.2507 47.2104Z" fill="#FF7676"/>
<path d="M38.5916 46.8885C38.1625 47.1881 37.5717 47.0832 37.2721 46.654C36.9724 46.2249 37.0775 45.6341 37.5068 45.3344C37.936 45.0348 38.5267 45.1401 38.8262 45.5692C39.1258 45.9984 39.0205 46.5891 38.5916 46.8885Z" fill="#FFBD76"/>
<path d="M38.035 46.8318C37.7114 46.8793 37.4107 46.6556 37.3631 46.3317C37.3156 46.0081 37.5392 45.7073 37.8631 45.6598C38.1867 45.6124 38.4875 45.836 38.535 46.1599C38.5825 46.4834 38.3589 46.7841 38.035 46.8318Z" fill="#FFEA80"/>
<path d="M49.0922 39.5169C48.4544 39.6105 47.8637 39.1831 47.7723 38.5621C47.6813 37.9412 48.1244 37.3618 48.7621 37.2682C49.3996 37.1746 49.9907 37.6023 50.0817 38.2229C50.1727 38.8437 49.7297 39.4229 49.0922 39.5169Z" fill="#FF7676"/>
<path d="M49.4332 39.1945C49.0041 39.4941 48.4133 39.3892 48.1136 38.9601C47.814 38.5309 47.9189 37.9401 48.3484 37.6404C48.7775 37.3407 49.3683 37.446 49.6678 37.8751C49.9674 38.3045 49.8621 38.8953 49.4332 39.1945Z" fill="#FFBD76"/>
<path d="M48.8765 39.1382C48.553 39.1858 48.2522 38.9622 48.2046 38.6382C48.1571 38.3146 48.3808 38.0138 48.7047 37.9663C49.0283 37.9189 49.3291 38.1426 49.3766 38.4663C49.4241 38.7899 49.2004 39.0907 48.8765 39.1382Z" fill="#FFEA80"/>
<path d="M61.0087 54.4126C60.877 55.3017 60.9375 56.218 60.9513 57.123C60.9709 58.0635 60.9399 58.9902 60.5885 59.8625C59.7329 61.9766 58.4782 63.5791 57.2953 65.4959C57.247 65.569 56.428 67.0747 56.3403 66.9057C56.1944 66.6173 56.0589 66.3296 55.9217 66.0356C55.3345 64.8157 54.1183 63.5579 52.8997 63.014C51.0964 62.202 49.3283 61.3572 47.5412 60.5173C47.3532 60.4284 47.1721 60.3275 46.9957 60.2187C45.5065 59.308 44.484 57.8381 42.9921 56.9684C41.9847 56.383 40.8994 55.976 39.7834 55.6578C38.581 55.305 37.3495 55.0472 36.142 54.7394C37.1873 53.5213 38.0325 52.0257 38.2154 51.7593C39.0749 50.5123 39.9407 49.2636 40.82 48.0283C41.2367 47.4452 41.9261 47.353 42.549 47.019C43.1806 46.6794 43.7928 46.291 44.3706 45.8611C45.1798 45.2733 45.9249 44.5946 46.5999 43.8533C51.9782 45.8064 56.9732 50.3429 61.0087 54.4126Z" fill="url(#paint0_linear_230_924)"/>
<path d="M43.7352 53.0065C45.0284 54.3788 46.9747 54.9652 48.3407 56.2681C48.6708 56.5791 48.9781 56.9836 48.9353 57.4389C48.8551 58.2675 47.8079 59.8528 46.9949 60.2195C45.5057 59.3087 44.4832 57.8389 42.9913 56.9692C41.984 56.3838 40.8987 55.9768 39.7827 55.6586C40.3572 54.5061 41.2476 53.5068 42.3345 52.8096C42.5824 52.6507 42.8755 52.4969 43.1654 52.5762C43.3989 52.6331 43.5652 52.832 43.7352 53.0065Z" fill="url(#paint1_linear_230_924)" style="mix-blend-mode:screen"/>
<path d="M60.9451 54.4393C60.9823 54.5305 61.0103 54.6376 61.0219 54.7726C61.0564 55.1505 60.9602 55.4785 61.0438 55.8639C61.2205 56.7095 61.1892 57.3638 60.9316 58.2217C60.8046 58.6384 60.6392 59.0753 60.724 59.5041C60.2878 58.3727 59.9397 58.238 59.0952 59.0773C58.4007 59.7698 57.8204 60.5772 57.402 61.4636C56.9661 60.7595 56.1335 60.4314 55.3635 60.1239C53.3914 59.3357 51.4833 58.3928 49.6584 57.3172C49.5551 57.2566 49.4479 57.1937 49.3312 57.2106C49.1853 57.2319 49.0871 57.3718 49.0126 57.4989C48.8216 57.8247 48.6544 58.1644 48.511 58.5181C48.7935 57.7815 48.4753 56.9222 47.9294 56.3511C47.4066 55.8043 46.7374 55.6254 46.1377 55.2096C45.7115 54.9169 45.3269 54.5259 44.902 54.2126C44.0602 53.5908 43.1031 52.6557 42.1031 52.3309C41.6626 52.1899 41.189 52.1418 40.7808 51.9184C41.1191 52.1061 42.5416 49.9721 42.6937 49.7036C43.1228 48.9356 43.3117 48.0855 43.7405 47.2906C44.0049 46.7943 44.2095 46.3271 44.377 45.8594C45.1862 45.2716 45.9313 44.5928 46.6063 43.8516C50.1932 45.1544 53.361 47.4448 56.2345 49.9095C57.6828 51.1539 59.0726 52.4708 60.4231 53.8182C60.6728 54.066 60.8512 54.208 60.9474 54.4353L60.9451 54.4393Z" fill="url(#paint2_linear_230_924)"/>
<path d="M84.4761 18.932C84.6687 18.9221 83.7544 20.3719 83.7118 20.4536C82.6186 22.4177 81.8302 24.299 80.405 26.0737C79.2434 27.5172 77.3035 27.9758 75.8537 29.1007C70.8483 27.7133 65.1277 25.8157 60.8782 22.6935C60.4375 22.3709 60.01 22.0348 59.6021 21.6835C60.1535 20.0423 60.4198 18.3139 60.3877 16.6027C60.3751 15.896 60.119 15.2493 60.4269 14.597C61.0758 13.2266 61.7406 11.8654 62.4118 10.5026C62.555 10.2129 63.4455 8.74922 64.0006 7.23831C65.5203 8.83431 66.9469 10.5892 68.7923 11.821C68.9522 11.9308 69.1167 12.0326 69.2875 12.1328C70.8764 13.0646 72.7953 13.1971 74.3804 14.2175C74.4559 14.2617 74.5307 14.3163 74.6054 14.3708C76.2131 15.5165 77.8111 16.6513 79.4001 17.8288C79.5871 17.9652 79.793 18.0966 80.0121 18.2144C81.0507 18.7648 82.3995 19.0593 83.5147 18.9874C83.836 18.9676 84.1532 18.9455 84.4761 18.932Z" fill="url(#paint3_linear_230_924)"/>
<path d="M64.0006 7.23831C63.9322 7.42776 65.6796 9.04582 65.884 9.26176C66.4722 9.87903 67.0509 10.4853 67.6156 11.1155C67.7984 11.3135 67.9862 11.5304 68.022 11.797C68.0527 12.0178 67.9696 12.2414 67.8737 12.4413C67.2371 13.7817 66.3143 15.0182 65.5109 16.2607C64.6725 17.5628 63.8579 18.8789 62.9424 20.1304C62.295 21.0159 61.5982 21.8665 60.8782 22.6935C60.4375 22.3709 60.01 22.0348 59.6021 21.6835C60.1535 20.0423 60.4198 18.3139 60.3877 16.6027C60.3751 15.896 60.119 15.2493 60.4269 14.597C61.0758 13.2266 61.7406 11.8654 62.4118 10.5026C62.555 10.2129 63.4455 8.74922 64.0006 7.23831Z" fill="url(#paint4_linear_230_924)" style="mix-blend-mode:screen"/>
<path d="M74.3797 14.2187C74.4552 14.263 74.5299 14.3175 74.6047 14.3721C76.2124 15.5178 77.8104 16.6526 79.3994 17.8301C79.5864 17.9664 79.7923 18.0978 80.0114 18.2157C80.0013 18.3058 79.9659 18.4025 79.9289 18.4929C79.6139 19.2211 79.0384 19.8019 78.4706 20.3604C77.8755 20.9563 77.2765 21.5499 76.6774 22.1435C75.8012 21.4802 74.9227 20.8208 74.0442 20.1614C73.211 19.5339 72.2962 18.9547 71.3798 18.4599C72.0683 18.0416 72.2293 16.9295 72.6691 16.2798C73.1018 15.6421 73.6197 14.9048 74.148 14.3498C74.1972 14.2932 74.2567 14.2373 74.33 14.2216L74.3797 14.2187Z" fill="url(#paint5_linear_230_924)" style="mix-blend-mode:screen"/>
<path d="M77.755 22.5023C78.3637 23.0301 78.5635 23.9 78.2415 24.6401C72.8441 36.8925 66.3823 48.147 58.7159 58.2785C58.4555 58.6223 58.1929 58.9701 57.9285 59.3116C57.4225 59.965 56.5465 60.1934 55.7782 59.8922C55.603 59.8268 55.4261 59.7552 55.2556 59.6818C55.0304 59.5925 54.8075 59.4991 54.5847 59.4058C50.4887 57.6602 46.6633 55.3259 43.1033 52.4479C42.6391 52.0742 42.3895 51.5168 42.4044 50.9543C42.4076 50.7213 42.4566 50.483 42.5539 50.2625C47.8975 38.0746 54.7325 26.5479 62.894 15.6176C63.3243 15.0478 64.0436 14.7863 64.7344 14.9192C64.7629 14.9253 64.7953 14.9336 64.8278 14.942C64.8808 14.9517 64.9355 14.9678 64.9838 14.9855C64.9957 14.9924 65.0116 15.0017 65.0282 15.0008C66.7717 15.5963 68.4407 16.3188 70.0397 17.1606C72.8035 18.6107 75.3623 20.4103 77.755 22.5023Z" fill="url(#paint6_linear_230_924)"/>
<path d="M77.7535 22.5014C78.3622 23.0292 78.562 23.8991 78.24 24.6392C72.8426 36.8916 66.3808 48.1461 58.7144 58.2776C58.3663 58.2977 58.034 58.2363 57.7461 58.0354C57.1034 57.5837 57.0303 56.6707 57.0603 55.8821C57.1059 54.6757 57.2526 53.4697 57.499 52.285C57.551 52.0325 57.6133 51.7807 57.7454 51.5646C57.9257 51.2753 58.2215 51.0804 58.5192 50.9187C59.3739 50.4536 60.3116 50.1655 61.1607 49.6918C62.0081 49.2118 62.7891 48.49 62.9991 47.5402C63.0655 47.2267 63.03 46.8322 62.7449 46.681C62.6195 46.6128 62.4686 46.6151 62.3241 46.6157C60.9902 46.6235 59.0917 46.802 57.8441 46.1985C57.0402 45.8124 56.8269 44.7744 56.8306 43.885C56.8386 41.7596 57.5536 39.6484 58.8334 37.9486C59.6348 36.8917 60.7597 36.676 61.8983 37.5199C62.6806 38.1068 63.1853 38.9848 63.7729 39.7671C63.949 40.0039 64.1639 40.2473 64.4558 40.2958C64.7928 40.3493 65.1033 40.1203 65.3617 39.8981C66.5026 38.9177 67.7575 37.8065 68.5972 36.5479C69.3519 35.4156 70.2806 34.3694 70.9493 33.1653C71.1324 32.8349 71.2827 32.3785 71.0131 32.119C70.8871 31.9971 70.7059 31.9602 70.5302 31.9319C70.115 31.8752 69.6948 31.8636 69.275 31.9057C68.8781 31.9453 68.4516 32.0261 68.0967 31.8393C67.7236 31.6472 67.5423 31.2099 67.5042 30.7925C67.3783 29.3413 69.1625 27.6009 70.1831 26.7527C70.4016 26.5712 70.6528 26.3342 70.5948 26.0599C70.5692 25.9488 70.4932 25.8508 70.4141 25.7671C69.3294 24.549 67.3815 24.202 65.943 24.9707C62.711 26.6947 64.3186 30.2801 64.612 32.9293C64.6445 33.1833 64.6349 33.482 64.4383 33.6443C64.3051 33.753 64.1221 33.7738 63.95 33.785C62.6697 33.8562 61.3721 33.6291 60.1896 33.1331C59.9064 33.0151 59.6207 32.8742 59.4366 32.6328C59.2063 32.3428 59.1535 31.9595 59.1348 31.5909C59.0332 29.2517 60.1095 27.0161 61.4217 25.079C61.9985 24.2321 62.5443 23.2923 63.1515 22.4846C63.8568 21.5369 64.8964 20.9295 65.533 19.8987C66.1835 18.8442 66.4588 17.4735 65.9185 16.3558C65.6427 15.7883 65.1999 15.3417 64.7312 14.912C64.7597 14.9181 64.7922 14.9264 64.8247 14.9348C64.8777 14.9445 64.9323 14.9606 64.9807 14.9783C64.9926 14.9853 65.0085 14.9946 65.0251 14.9936C66.7686 15.5891 68.4375 16.3116 70.0366 17.1534C72.8004 18.6035 75.3591 20.4031 77.7518 22.4951L77.7535 22.5014Z" fill="url(#paint7_linear_230_924)"/>
<path d="M70.0397 17.1606C70.1924 17.3462 70.3039 17.556 70.3458 17.7941C70.4142 18.1599 70.3105 18.5369 70.1996 18.8989C68.936 23.0106 66.9248 26.8494 64.8459 30.6217C63.7986 32.5167 62.7378 34.3983 61.6388 36.2629C59.4433 39.9882 57.1223 43.6453 54.577 47.1388C53.3086 48.8827 51.983 50.5877 50.5929 52.2388C50.0683 52.8601 49.389 54.0366 48.6774 54.4307C48.0663 54.7717 47.1482 54.025 46.5807 53.7456C46.2831 53.5977 45.9831 53.4538 45.6964 53.2963C44.7983 52.8069 44.041 52.1866 43.2067 51.6066C42.9187 51.4057 42.6504 51.1896 42.4103 50.9527C42.4135 50.7196 42.4625 50.4814 42.5598 50.2609C47.9034 38.073 54.7384 26.5463 62.8999 15.616C63.3505 15.0208 64.1171 14.7604 64.8337 14.9404C64.8867 14.9501 64.9414 14.9662 64.9897 14.9838C65.0016 14.9908 65.0175 15.0002 65.0341 14.9992C66.7776 15.5947 68.4466 16.3172 70.0456 17.159L70.0397 17.1606Z" fill="url(#paint8_linear_230_924)" style="mix-blend-mode:screen"/>
<path d="M61.8914 48.7642C61.8298 47.7404 61.4575 46.764 61.0477 45.8243C60.3662 44.2555 59.5636 42.7384 58.7627 41.2276C57.9472 39.687 57.1301 38.14 56.3146 36.5994C55.8107 35.6472 55.2724 34.6535 54.3871 34.0329C54.0459 33.7954 53.6469 33.6201 53.2332 33.6337C52.5006 33.6631 51.9363 34.2611 51.4593 34.8195C53.4731 31.5589 55.4869 28.2982 57.5046 25.0398C56.986 26.4066 56.4592 27.8327 56.5678 29.2952C56.6367 30.179 56.939 31.029 57.2529 31.8591C58.9714 36.3477 61.2552 40.5914 63.5335 44.8264C63.6035 44.9529 63.6791 45.088 63.8069 45.1523C63.9926 45.2452 64.2113 45.1545 64.3951 45.0595C66.0788 44.1731 67.2738 42.5997 68.418 41.0766C66.3567 45.5106 62.8568 49.1115 60.4962 53.3914C60.2705 53.8035 60.0679 54.2399 59.785 54.6132C59.6536 53.9542 60.9129 52.5626 61.2174 51.8978C61.6649 50.9163 61.9544 49.8582 61.8907 48.7745L61.8914 48.7642Z" fill="url(#paint9_linear_230_924)" style="mix-blend-mode:screen"/>
<path d="M77.7535 22.5014C78.3622 23.0292 78.562 23.8991 78.24 24.6392C72.6557 37.3105 65.9352 48.915 57.927 59.3106C57.421 59.964 56.545 60.1924 55.7767 59.8912C55.3763 59.7365 54.9806 59.5738 54.5832 59.4048C55.1502 59.4757 55.7421 59.3585 56.2344 59.0653C56.8877 58.6796 57.3321 58.022 57.7562 57.3899C64.5102 47.3212 71.2999 37.1826 76.1987 26.0899C76.6822 25.0014 77.2154 23.9741 76.4085 22.9831C75.4322 21.7805 74.1614 20.7522 72.9271 19.8255C70.4044 17.9189 67.6086 16.4233 64.8263 14.941C64.8793 14.9507 64.934 14.9668 64.9823 14.9845C69.7571 16.6103 73.9688 19.1873 77.7535 22.5014Z" fill="#D5C6F2"/>
<path d="M65.0282 15.0008C64.6839 15.0872 64.3699 15.2767 64.1085 15.5131C63.7311 15.847 63.4447 16.2716 63.1646 16.6946C59.1316 22.7429 54.7477 28.5428 51.1018 34.8502C48.4319 39.4664 46.3006 44.3292 44.0475 49.1632C43.8689 49.5496 43.6857 49.944 43.686 50.3712C43.6813 52.5093 47.074 54.4617 48.585 55.4173C49.8027 56.1901 51.0646 56.8876 52.301 57.6287C52.9461 58.0124 53.5843 58.408 54.2045 58.8251C54.5043 59.033 54.8873 59.4178 55.2556 59.6818C55.0304 59.5925 54.8075 59.4991 54.5847 59.4058C50.4887 57.6602 46.6633 55.3259 43.1033 52.4479C42.4512 51.9213 42.2219 51.0288 42.5539 50.2625C47.8975 38.0746 54.7325 26.5479 62.894 15.6176C63.3446 15.0224 64.1112 14.762 64.8278 14.942C64.8808 14.9517 64.9355 14.9678 64.9838 14.9855C64.9957 14.9924 65.0116 15.0017 65.0282 15.0008Z" fill="url(#paint10_linear_230_924)" style="mix-blend-mode:screen"/>
<path d="M45.4869 53.4986C45.5792 53.5688 45.6715 53.6389 45.7622 53.7028C46.2927 54.0726 46.8849 54.2918 47.451 54.5918C48.0568 54.9151 48.6157 55.355 49.1952 55.7322C50.4671 56.5583 51.764 57.3509 53.0779 58.1055C53.6545 58.433 54.2518 58.7619 54.9089 58.843C53.1072 58.192 51.542 57.0285 50.0086 55.8836C49.5742 55.5594 49.1301 55.2242 48.8561 54.7539C48.7749 54.6102 48.699 54.4482 48.556 54.3644C48.4607 54.3084 48.3444 54.2883 48.236 54.2728C46.839 54.0514 45.5224 53.3379 44.5752 52.2859C44.2621 51.9368 43.9849 51.5447 43.8832 51.09C43.7244 50.3776 44.0205 49.6543 44.3068 48.9841C45.0694 47.2105 45.836 45.4392 46.6009 43.6616C45.8536 44.9904 45.158 46.3495 44.5123 47.7326C44.1821 48.4411 43.8639 49.1567 43.5599 49.8753C43.3732 50.321 43.0369 50.9673 43.2346 51.4676C43.3068 51.6541 43.4716 51.7828 43.6307 51.9028C44.269 52.3893 44.893 53.0275 45.4909 53.5009L45.4869 53.4986Z" fill="#FBFFFA"/>
<path d="M52.1671 33.2489C52.9702 31.8887 53.7931 30.5402 54.624 29.1964C55.6072 27.6109 56.7107 26.0479 57.6755 24.4302C58.61 22.8642 59.8872 21.4511 60.9703 19.9776C59.6448 21.7734 58.5273 23.7607 57.2902 25.6243C56.0693 27.4602 54.8276 29.2678 53.6862 31.1502C53.3917 31.6342 53.0989 32.1244 52.8123 32.613C51.997 34.0033 51.2253 35.4192 50.4575 36.8374C49.6945 38.2478 48.6692 39.5043 47.9499 40.9402C49.2584 38.3177 50.6798 35.7666 52.1671 33.2489Z" fill="#FBFFFA"/>
<path d="M64.346 15.3594C64.7627 14.9312 65.4948 15.4032 65.9382 15.5939C66.6505 15.8995 67.3226 16.283 67.9946 16.6664C67.1958 16.3261 66.3587 15.9419 65.5146 15.7245C64.9342 15.5763 64.3113 15.6007 63.8872 16.078C63.2086 16.8438 62.6421 17.6914 61.9921 18.49C62.3861 18.0004 62.5842 17.3531 62.9798 16.8698C63.4089 16.3474 63.8676 15.8476 64.3437 15.3634L64.346 15.3594Z" fill="#FBFFFA"/>
<path d="M78.0308 45.331L91.4245 64.0709C91.6894 64.4416 91.5254 64.9627 91.0959 65.1148L31.802 86.1134C31.4967 86.2215 31.1575 86.1011 30.9888 85.8248L17.9708 64.3067C17.7392 63.9274 17.9244 63.4314 18.3479 63.2968L74.9216 44.2963C76.0728 43.9304 77.3284 44.3483 78.0308 45.331Z" fill="#6D2F1D"/>
<path d="M18.024 63.463L31.5369 86.0143L91.5921 64.7993L89.7439 67.8884C89.4966 68.3109 89.1076 68.632 88.6459 68.7949L31.3167 89.0096C30.372 89.3427 29.3244 88.9516 28.8292 88.0809L17.1232 67.157C16.7724 66.5404 16.7619 65.7872 17.0952 65.1611L18.024 63.463Z" fill="#562217"/>
<path d="M76.6348 45.5242L79.9385 50.5308L61.8687 56.5877L58.5649 51.5811L76.6348 45.5242Z" fill="#6D4640"/>
<path d="M61.8702 56.5884L62.5124 54.3409L79.2537 49.0897L79.94 50.5315L61.8702 56.5884Z" fill="#562217"/>
<path d="M62.5113 54.3395L60.4375 50.7203L58.5649 51.5811L61.8687 56.5877L62.5113 54.3395Z" fill="#5E271E"/>
<path d="M60.9461 50.5594L76.3397 45.6206C76.5165 45.5638 76.7098 45.6265 76.8197 45.7762L78.8957 48.6036C79.071 48.8423 78.9594 49.1826 78.6768 49.2712L62.8431 54.2377C62.6497 54.2985 62.44 54.2164 62.3392 54.0404L60.7033 51.1854C60.5667 50.947 60.6845 50.6434 60.9461 50.5594Z" fill="#874032"/>
<path d="M81.2047 52.1124L84.5085 57.119L66.4388 63.1759L63.135 58.1692L81.2047 52.1124Z" fill="#6D4640"/>
<path d="M66.4388 63.1759L67.0805 60.9281L83.8218 55.6769L84.5085 57.119L66.4388 63.1759Z" fill="#562217"/>
<path d="M67.0805 60.9281L65.0076 57.3085L63.135 58.1692L66.4388 63.1759L67.0805 60.9281Z" fill="#5E271E"/>
<path d="M65.5145 57.1458L80.9081 52.2069C81.0849 52.1501 81.2782 52.2128 81.3881 52.3625L83.4641 55.1899C83.6394 55.4286 83.5279 55.7689 83.2452 55.8575L67.4115 60.824C67.218 60.8847 67.0084 60.8026 66.9075 60.6267L65.2716 57.7717C65.1352 57.5333 65.2529 57.2297 65.5145 57.1458Z" fill="#874032"/>
<path d="M85.5107 59.1905L88.8144 64.1971L70.7446 70.2541L67.4408 65.2474L85.5107 59.1905Z" fill="#6D4640"/>
<path d="M70.7427 70.2544L71.3849 68.0068L88.1262 62.7557L88.8125 64.1974L70.7427 70.2544Z" fill="#562217"/>
<path d="M71.3867 68.0069L69.313 64.3877L67.4408 65.2474L70.7446 70.2541L71.3867 68.0069Z" fill="#5E271E"/>
<path d="M69.8198 64.2249L85.2135 59.286C85.3903 59.2292 85.5836 59.2919 85.6935 59.4416L87.7695 62.269C87.9448 62.5077 87.8332 62.848 87.5506 62.9366L71.7169 67.903C71.5234 67.9637 71.3138 67.8816 71.2129 67.7057L69.577 64.8507C69.4405 64.6124 69.5583 64.3088 69.8198 64.2249Z" fill="#874032"/>
<path d="M57.3242 52.0317L60.6279 57.0384L42.5582 63.0953L39.2545 58.0886L57.3242 52.0317Z" fill="#6D4640"/>
<path d="M42.5582 63.0967L43.2004 60.8492L59.9417 55.598L60.628 57.0398L42.5582 63.0967Z" fill="#562217"/>
<path d="M43.2002 60.848L41.1264 57.2289L39.2545 58.0886L42.5582 63.0953L43.2002 60.848Z" fill="#5E271E"/>
<path d="M41.6354 57.0672L57.0289 52.1283C57.2057 52.0715 57.399 52.1342 57.5089 52.2839L59.5849 55.1113C59.7602 55.35 59.6487 55.6903 59.366 55.7789L43.5325 60.7454C43.339 60.8061 43.1294 60.724 43.0285 60.5481L41.3926 57.6931C41.2561 57.4547 41.3738 57.1511 41.6354 57.0672Z" fill="#874032"/>
<path d="M61.8943 58.62L65.1981 63.6267L47.1283 69.6835L43.8245 64.6769L61.8943 58.62Z" fill="#6D4640"/>
<path d="M47.1263 69.6839L47.7685 67.4363L64.5098 62.1852L65.1961 63.627L47.1263 69.6839Z" fill="#562217"/>
<path d="M47.7703 67.4363L45.6966 63.8172L43.8245 64.6769L47.1283 69.6835L47.7703 67.4363Z" fill="#5E271E"/>
<path d="M46.4296 63.581L61.4641 58.7573C61.7199 58.6752 61.9994 58.7659 62.1585 58.9823L63.9928 61.4805C64.2463 61.8259 64.0849 62.3181 63.6762 62.4462L48.2478 67.2856C47.968 67.3734 47.6647 67.2546 47.5188 67.0002L46.0785 64.4864C45.8808 64.1415 46.0511 63.7024 46.4296 63.581Z" fill="#874032"/>
<path d="M66.1988 65.6986L69.5026 70.7053L51.4327 76.7621L48.129 71.7555L66.1988 65.6986Z" fill="#6D4640"/>
<path d="M51.4327 76.761L52.075 74.5135L68.8163 69.2623L69.5025 70.7042L51.4327 76.761Z" fill="#562217"/>
<path d="M52.0748 74.5149L50.0011 70.8958L48.129 71.7555L51.4327 76.7621L52.0748 74.5149Z" fill="#5E271E"/>
<path d="M50.507 70.7326L65.9006 65.7937C66.0774 65.737 66.2707 65.7996 66.3806 65.9493L68.4566 68.7767C68.6319 69.0155 68.5203 69.3558 68.2377 69.4444L52.404 74.4108C52.2106 74.4715 52.0009 74.3894 51.9 74.2134L50.2642 71.3585C50.1276 71.1201 50.2454 70.8165 50.507 70.7326Z" fill="#874032"/>
<path d="M37.644 58.6454L40.9477 63.652L22.8779 69.709L19.5741 64.7023L37.644 58.6454Z" fill="#6D4640"/>
<path d="M22.8779 69.7078L23.5201 67.4602L40.2614 62.2091L40.9477 63.6508L22.8779 69.7078Z" fill="#562217"/>
<path d="M23.5201 67.4602L21.4469 63.8417L19.5741 64.7023L22.8779 69.709L23.5201 67.4602Z" fill="#5E271E"/>
<path d="M21.955 63.6766L37.3485 58.7378C37.5254 58.6811 37.7186 58.7437 37.8285 58.8934L39.9046 61.7208C40.0798 61.9595 39.9683 62.2998 39.6858 62.3885L23.852 67.355C23.6585 67.4157 23.4489 67.3336 23.348 67.1576L21.7122 64.3026C21.5756 64.0643 21.6933 63.7606 21.955 63.6766Z" fill="#874032"/>
<path d="M42.2149 65.2341L45.5187 70.2408L27.4489 76.2977L24.1452 71.291L42.2149 65.2341Z" fill="#6D4640"/>
<path d="M27.4489 76.2965L28.0911 74.049L44.8324 68.7978L45.5187 70.2397L27.4489 76.2965Z" fill="#562217"/>
<path d="M28.0911 74.049L26.0179 70.4303L24.1452 71.291L27.4489 76.2977L28.0911 74.049Z" fill="#5E271E"/>
<path d="M26.5252 70.2665L41.9187 65.3276C42.0956 65.2709 42.2888 65.3335 42.3987 65.4833L44.4747 68.3106C44.65 68.5494 44.5385 68.8897 44.2559 68.9783L28.4222 73.9447C28.2288 74.0054 28.0191 73.9233 27.9183 73.7474L26.2824 70.8924C26.1459 70.6541 26.2637 70.3504 26.5252 70.2665Z" fill="#874032"/>
<path d="M46.5183 72.3123L49.822 77.319L31.7523 83.3759L28.4485 78.3692L46.5183 72.3123Z" fill="#6D4640"/>
<path d="M31.753 83.3736L32.3952 81.1261L49.1365 75.8749L49.8227 77.3168L31.753 83.3736Z" fill="#562217"/>
<path d="M32.3939 81.1294L30.3201 77.5103L28.4479 78.3703L31.7517 83.377L32.3939 81.1294Z" fill="#5E271E"/>
<path d="M30.8301 77.3442L46.2236 72.4054C46.4005 72.3486 46.5938 72.4113 46.7037 72.561L48.7797 75.3884C48.9549 75.6271 48.8434 75.9674 48.5608 76.056L32.7271 81.0225C32.5337 81.0833 32.324 81.0012 32.2232 80.8252L30.5873 77.9703C30.4507 77.7318 30.5685 77.4282 30.8301 77.3442Z" fill="#874032"/>
<path d="M38.6092 56.5487L38.2576 56.7782L53.1974 79.6664L53.549 79.4369L38.6092 56.5487Z" fill="#562217"/>
<path d="M56.9486 50.2547L56.5941 50.4797L71.2436 73.5678L71.5981 73.3429L56.9486 50.2547Z" fill="#562217"/>
<path d="M58.2329 49.8803L57.8783 50.1052L72.5278 73.1934L72.8823 72.9684L58.2329 49.8803Z" fill="#562217"/>
<path d="M37.4667 57.0005L37.1151 57.23L52.0549 80.1182L52.4065 79.8887L37.4667 57.0005Z" fill="#562217"/>
<path d="M60.1482 71.9824C59.428 71.4708 58.8327 70.926 58.8762 70.0814C58.9215 69.2008 59.7371 68.4702 60.0266 67.6789L53.4785 69.7799C53.477 69.9363 53.501 70.0912 53.5635 70.2446C53.9204 71.1201 55.2848 71.268 55.5606 72.1723C55.7264 72.7159 55.4407 73.1565 55.0401 73.5847L60.1482 71.9824Z" fill="#994F41"/>
<path d="M56.5949 63.2106C56.7939 62.9877 57.092 62.8882 57.3543 62.745C58.3012 62.2276 58.7927 61.0006 58.4647 59.9726C58.44 59.8951 58.4119 59.8201 58.3806 59.7472L48.3521 62.9648C48.226 64.1572 49.7251 65.0157 50.9702 65.3246C51.5193 65.4608 52.1271 65.6421 52.6535 65.9043L56.762 64.6156C56.3822 64.1724 56.2205 63.6298 56.5949 63.2106Z" fill="#994F41"/>
<path d="M52.8898 54.9286C52.7678 54.4025 52.8371 53.8945 53.0277 53.411L48.9548 54.7178C48.9604 54.8934 48.9384 55.069 48.8845 55.2334C48.6184 56.0438 47.8557 56.5842 47.0882 56.9561C47.5306 57.6103 48.3072 57.9326 48.9755 58.3533C49.193 58.4902 49.4072 58.6558 49.594 58.8432L54.9957 57.1489C54.0051 56.6013 53.1335 55.9788 52.8898 54.9286Z" fill="#994F41"/>
<path d="M41.1366 77.6869C41.3158 76.7636 42.5809 76.5076 43.0461 75.6903C43.4439 74.9914 43.1023 74.1724 42.4899 73.6054L34.1928 76.2674C33.9047 76.6936 33.5854 77.106 33.7056 77.5777C33.8963 78.3261 34.9232 78.3681 35.609 78.7232C36.0576 78.9555 36.3654 79.3585 36.5389 79.8289L41.9541 78.1303C41.7502 77.8853 41.4746 77.7177 41.1366 77.6869Z" fill="#994F41"/>
<path d="M36.4907 69.7541C36.7837 69.2149 37.4667 68.7338 37.2399 68.1636C37.0163 67.6013 36.1232 67.6356 35.635 67.3445L29.3184 69.3711C29.5402 69.6227 29.8238 69.8149 30.1524 69.9037C30.9 70.1061 31.9524 69.9829 32.1976 70.7177C32.4016 71.3288 31.7612 71.9268 31.7932 72.5703C31.7985 72.6781 31.8217 72.7764 31.8569 72.8681L36.6643 71.3602C36.3278 70.8647 36.2048 70.2801 36.4907 69.7541Z" fill="#994F41"/>
<path d="M77.8375 55.4291C77.0152 55.2135 76.1311 55.2897 75.3245 55.0211C74.9425 54.8938 74.5763 54.6378 74.3261 54.3195L67.96 56.362C68.2286 56.9245 68.8716 57.3182 69.5022 57.4876C70.3069 57.7039 71.1728 57.6974 71.9366 58.0307C72.3944 58.2306 72.8077 58.6244 72.997 59.073L79.3656 57.0754C79.4108 56.2858 78.6227 55.6349 77.8375 55.4291Z" fill="#994F41"/>
<path d="M81.3746 64.2557C80.5937 64.0603 79.666 63.878 79.3285 63.1471C79.8099 62.6258 79.6595 61.7665 79.1962 61.2169L73.1422 63.1592C73.3859 63.2899 73.5682 63.469 73.6247 63.7511C73.7633 64.4447 72.9027 65.0441 73.0348 65.739C73.1544 66.3677 73.9853 66.6113 74.4105 67.0586L82.2372 64.6036C81.9702 64.4447 81.6641 64.328 81.3746 64.2557Z" fill="#994F41"/>
<path d="M73.8268 48.6538C73.8285 48.2377 74.1823 47.9236 74.4152 47.5788C74.6994 47.1578 74.763 46.6461 74.664 46.1574L67.3287 48.5109C67.3827 48.6473 67.4191 48.7904 67.4278 48.9386C67.4844 49.8963 65.9463 49.9876 65.7029 50.9156C65.4262 51.9708 67.1343 52.2437 68.4717 52.4715L75.7362 50.1929C75.1235 49.6265 73.8231 49.5065 73.8268 48.6538Z" fill="#994F41"/>
<path d="M33.2854 64.3986C33.2901 64.3679 33.2944 64.3369 33.2973 64.3054C32.8492 64.03 32.4011 63.7548 31.953 63.4794C32.6033 62.8648 33.3972 62.403 34.2528 62.1415C34.8146 61.9698 35.5517 61.6927 35.4943 61.1081C35.4241 60.3932 34.3019 60.4096 33.8433 59.8649L27.396 61.9335C27.4254 61.9508 27.4547 61.968 27.4841 61.9853C27.6039 62.0558 27.7301 62.1328 27.7923 62.2572C27.9334 62.5394 27.6749 62.85 27.4392 63.0598C26.7879 63.6393 25.3981 63.9311 25.4854 64.7985C25.5518 65.459 26.6333 65.4657 27.2072 65.7993C27.0325 66.027 26.853 66.2511 26.6712 66.4731L33.2854 64.3986Z" fill="#994F41"/>
<defs>
<linearGradient id="paint0_linear_230_924" x1="27.39" y1="-14.3577" x2="52.4888" y2="226.456" gradientUnits="userSpaceOnUse">
<stop stop-color="#E34668"/>
<stop offset="0.99" stop-color="#821151"/>
</linearGradient>
<linearGradient id="paint1_linear_230_924" x1="5.7668" y1="195.69" x2="17.942" y2="-5.28263" gradientUnits="userSpaceOnUse">
<stop stop-color="#B36140"/>
<stop offset="1"/>
</linearGradient>
<linearGradient id="paint2_linear_230_924" x1="18.1221" y1="-86.1821" x2="35.2118" y2="141.97" gradientUnits="userSpaceOnUse">
<stop stop-color="#E34668"/>
<stop offset="0.99" stop-color="#821151"/>
</linearGradient>
<linearGradient id="paint3_linear_230_924" x1="29.1106" y1="-39.6472" x2="54.2028" y2="201.168" gradientUnits="userSpaceOnUse">
<stop stop-color="#E34668"/>
<stop offset="0.99" stop-color="#821151"/>
</linearGradient>
<linearGradient id="paint4_linear_230_924" x1="4.55414" y1="238.432" x2="149.771" y2="121.735" gradientUnits="userSpaceOnUse">
<stop stop-color="#B36140"/>
<stop offset="1"/>
</linearGradient>
<linearGradient id="paint5_linear_230_924" x1="20.9651" y1="192.657" x2="38.7533" y2="-6.24257" gradientUnits="userSpaceOnUse">
<stop stop-color="#B36140"/>
<stop offset="1"/>
</linearGradient>
<linearGradient id="paint6_linear_230_924" x1="39.0647" y1="-40.826" x2="130.496" y2="213.839" gradientUnits="userSpaceOnUse">
<stop stop-color="#E34668"/>
<stop offset="0.99" stop-color="#821151"/>
</linearGradient>
<linearGradient id="paint7_linear_230_924" x1="40.8804" y1="-15.0109" x2="86.1414" y2="103.184" gradientUnits="userSpaceOnUse">
<stop stop-color="#FFBD24"/>
<stop offset="1" stop-color="#C7552C"/>
</linearGradient>
<linearGradient id="paint8_linear_230_924" x1="43.3279" y1="235.194" x2="86.7374" y2="38.4135" gradientUnits="userSpaceOnUse">
<stop stop-color="#B36140"/>
<stop offset="1"/>
</linearGradient>
<linearGradient id="paint9_linear_230_924" x1="16.365" y1="-76.9895" x2="87.2754" y2="88.4208" gradientUnits="userSpaceOnUse">
<stop stop-color="#B36140"/>
<stop offset="1"/>
</linearGradient>
<linearGradient id="paint10_linear_230_924" x1="39.161" y1="-82.9066" x2="102.126" y2="101.792" gradientUnits="userSpaceOnUse">
<stop stop-color="#B36140"/>
<stop offset="1"/>
</linearGradient>
</defs>
</svg>
