<svg width="76" height="55" viewBox="0 0 76 55" fill="none" xmlns="http://www.w3.org/2000/svg">
<path d="M72.6502 29.1937L62.1537 23.1346C61.4608 22.7365 60.3404 22.7365 59.6475 23.1346L57.7752 24.2181C57.274 24.5056 57.0086 25.0437 57.3698 25.3164C58.5197 26.1641 59.3158 27.0487 59.8318 27.9627L51.4802 23.142C50.7873 22.7439 49.667 22.7439 48.9741 23.142L47.1018 24.2255C46.6005 24.513 46.3352 25.0511 46.6964 25.3238C54.2076 30.8301 46.6374 38.2381 43.7627 40.2652L39.8412 42.5281C37.6298 43.7517 34.1506 45.4618 29.6911 46.2948C27.8409 45.9557 25.9023 45.4176 23.8974 44.6436C23.7573 44.592 23.6099 44.5625 23.4625 44.5478H23.4551H23.433C23.3888 44.5478 23.3519 44.5478 23.3077 44.5478H20.0349C18.5754 44.393 17.2191 43.995 16.165 43.3832L12.2436 41.1202L11.2337 40.5379L10.4966 40.1104C4.725 36.7786 4.69549 31.3755 10.4303 28.0659L35.3005 13.7069C36.6642 12.9182 38.2416 12.3211 39.9296 11.9157C44.0501 11.7535 48.2812 12.5791 51.436 14.3998L59.817 19.2352C60.4436 19.1026 60.4878 19.2205 60.9817 19.508L60.2814 18.675C60.0824 18.3507 63.134 17.2155 62.8023 17.0313L60.5763 15.7487C60.9301 15.7782 61.2618 15.8666 61.5345 16.0214L65.0137 18.0337C64.8147 17.7094 64.5419 17.4441 64.2102 17.2524L57.1634 13.1835C53.0503 10.81 47.2713 9.97706 42.0083 10.6847C37.2539 10.9574 32.5732 12.0557 29.5658 13.7953L4.69552 28.1544C-1.59208 31.781 -1.56262 37.7074 4.76921 41.3635L5.50633 41.791L6.51617 42.3733L10.4376 44.6363C10.6661 44.7689 10.9094 44.8869 11.16 45.0048L9.46463 45.9852C8.77174 46.3832 8.76437 47.0319 9.45726 47.4299L19.9538 53.489C21.4649 54.3662 23.4256 54.8306 25.4232 54.8969H25.5411C25.8139 54.9043 26.0866 54.9043 26.352 54.8969H36.2146C36.4873 54.9043 36.76 54.9043 37.0254 54.8969H37.8362L37.7846 54.8601C39.5758 54.72 41.3154 54.2556 42.6865 53.4595L72.6207 36.1742C75.9451 34.2503 75.9672 31.1175 72.6576 29.2084L72.6502 29.1937ZM30.5683 14.3555C32.0278 13.5152 33.7231 12.8887 35.5364 12.4759C35.1089 12.6749 34.6887 12.8961 34.2907 13.1246L16.6073 22.4122L30.5683 14.3555Z" fill="#F5F2E8"/>
<path d="M59.9196 42.0413L56.8975 40.9282C56.8975 40.9282 56.9417 39.4245 58.4085 39.2992C59.8754 39.1812 61.4676 40.766 59.9196 42.0413Z" fill="#A0A6C0"/>
<path d="M8.52781 28.0066C8.52781 28.0066 7.05362 27.955 6.54501 25.9353C6.0364 23.9156 6.00692 21.0704 7.87919 19.4118C9.75147 17.7533 31.5185 5.21499 31.5185 5.21499C31.5185 5.21499 37.8208 1.24931 41.9339 0.748069C46.0396 0.24683 50.8014 0.350027 53.3224 1.35988C55.8433 2.36973 63.7747 7.12412 63.7747 7.12412L57.723 12.4756C57.723 12.4756 55.4158 10.419 50.9857 9.91779C46.5556 9.41655 43.7693 8.49516 36.612 11.7164C29.4546 14.9376 8.54257 28.0066 8.54257 28.0066H8.52781Z" fill="#41464F"/>
<path d="M57.2588 7.45605V21.0337L63.2958 16.2867L59.9492 7.7509L57.2588 7.45605Z" fill="#B0B5CE"/>
<path d="M58.1136 8.79736C58.1136 8.79736 57.6492 10.021 57.5681 11.2888C57.4871 12.5567 58.1652 13.6107 57.4723 16.5592C56.7794 19.5077 42.2582 27.756 37.2385 28.1245C32.2187 28.4931 31.7101 29.4882 30.0516 29.2597C28.3931 29.0312 25.8574 27.6012 24.5011 28.4784C23.1448 29.3555 36.5456 35.3409 41.6169 33.4981C46.6883 31.6553 61.379 19.9057 61.7034 18.6673C62.0277 17.429 61.0105 10.4706 58.1062 8.80474L58.1136 8.79736Z" fill="#464B54"/>
<path d="M75.1124 32.3258V14.9741L67.2327 17.4066C67.2327 17.4066 66.5914 32.628 75.1124 32.3258Z" fill="#DADEF0"/>
<path d="M57.7686 40.4424L57.9012 40.3687L57.7686 40.4424Z" fill="url(#paint0_linear_76_1023)"/>
<path d="M74.9655 31.2576C74.6632 30.3215 73.8893 32.039 72.6436 31.324L63.8498 26.2526C63.1569 25.8546 62.0365 25.8546 61.3436 26.2526L59.4713 27.3362C58.9701 27.6237 58.8153 28.0512 59.0659 28.4345C62.1839 33.1373 60.4517 36.1005 53.8766 39.8966L49.9477 42.1596C43.3727 45.9557 32.0211 45.9705 23.876 44.1719C23.2199 44.0245 22.4754 44.1203 21.9816 44.4078L20.4484 45.2923L20.4116 45.3145L20.1093 45.4914C19.4164 45.8894 19.409 46.5381 20.1019 46.9361L30.5985 52.9952C33.9081 54.9043 39.3333 54.897 42.6651 52.9731L50.8323 48.2629L53.3311 46.8182C55.0191 45.8452 56.1912 44.1646 56.5302 42.2407L56.5449 42.1522C56.6703 41.4446 57.0978 40.8328 57.7244 40.4716L57.8349 40.4053L57.8939 40.3684C58.3435 40.1104 58.9111 40.361 59.0216 40.8623C59.2796 42.0269 60.5844 42.6019 61.6237 42.0195H61.6311L64.867 40.1473L72.5993 35.6803C74.2063 34.7516 75.0392 33.5427 75.1055 32.3265C75.1055 32.2749 75.1055 32.2306 75.1055 32.179C75.1055 31.8695 75.054 31.5599 74.9581 31.2576H74.9655Z" fill="url(#paint1_linear_76_1023)"/>
<path d="M60.2671 20.5841C60.0902 20.621 59.9281 20.68 59.7807 20.7463C59.7364 20.7684 59.6922 20.7905 59.6554 20.8126L57.7831 21.8962C57.2818 22.1837 57.127 22.6112 57.3777 22.9871C57.4072 23.0314 57.4366 23.083 57.4661 23.1272L54.1122 26.1715L36.9669 31.0512L19.6152 29.1052V44.8205L20.4408 45.2923L30.3403 50.9681L30.6204 51.1302C33.93 53.0393 39.3552 53.032 42.687 51.1081L53.2056 45.0343C54.3481 44.3709 55.1442 43.2357 55.3727 41.9384C55.5865 40.7295 56.3162 39.6828 57.3777 39.071L57.7757 38.8425C58.7856 38.2602 60.0681 38.8277 60.3114 39.9629C60.4072 40.3904 60.8864 40.6042 61.2623 40.3831L64.4613 38.5329L72.6138 33.8227C73.0856 33.55 73.491 33.2552 73.8301 32.9382C74.3977 32.4075 74.7736 31.8325 74.9726 31.2428C75.0758 30.9332 75.12 30.631 75.12 30.3214V17.3408L60.2671 20.5694V20.5841Z" fill="url(#paint2_linear_76_1023)"/>
<path d="M19.5996 46.2059V28.8984L23.698 29.9451L22.5038 46.9283L19.5996 46.2059Z" fill="#A0A6C0"/>
<path d="M21.8262 31.9282V46.3757L26.3447 48.9851V34.5376L21.8262 31.9282Z" fill="#A0A6C0"/>
<path d="M24.922 45.6456L24.0816 45.3802L20.0791 43.0657L20.1159 42.874L24.922 45.6456Z" fill="#D9DBE6"/>
<path d="M72.6503 13.8171L69.805 12.1733C68.1686 13.5886 66.5322 15.0039 65.0064 16.5371C62.4339 19.117 60.1341 21.8443 56.7949 23.466C56.7433 23.4881 56.6917 23.5028 56.6401 23.5249C56.0283 24.0851 55.3133 24.6085 54.4804 25.0876L50.5589 27.3506C43.9838 31.1467 32.0426 31.0656 23.8974 29.2671C23.2414 29.1196 22.4969 29.2155 22.0031 29.5029L20.1308 30.5865C19.4379 30.9845 19.4305 31.6332 20.1234 32.0312L30.6199 38.0903C33.9296 39.9995 39.3548 39.9921 42.6865 38.0682L72.6208 20.7829C75.9452 18.859 75.9673 15.7262 72.6576 13.8171H72.6503Z" fill="url(#paint3_linear_76_1023)"/>
<path d="M21.9958 27.3362C22.497 27.0487 23.2636 26.8645 23.8902 27.1003C36.4138 31.9284 46.0331 27.4542 50.5074 24.9848L54.4289 22.7219C57.311 20.6874 64.8738 13.2868 57.3626 7.78053C56.994 7.51517 57.2668 6.97707 57.768 6.68223L59.6403 5.59867C60.3332 5.20062 61.4536 5.19325 62.1465 5.59867L72.643 11.6578C75.9527 13.5669 75.9306 16.6996 72.6062 18.6235L42.6719 35.9089C39.3475 37.8327 33.9149 37.8401 30.6053 35.931L20.1088 29.8719C19.4159 29.4738 19.4233 28.8252 20.1161 28.4271L21.9884 27.3436L21.9958 27.3362Z" fill="url(#paint4_linear_76_1023)"/>
<path d="M36.6119 36.6896C34.4005 36.6896 32.3366 36.2031 30.796 35.3112L20.2995 29.2521C20.0857 29.1342 19.9678 28.9868 19.9678 28.8541C19.9678 28.7214 20.0931 28.5666 20.3069 28.4487L22.1791 27.3651C22.4961 27.1808 22.9015 27.0703 23.2553 27.0703C23.4396 27.0703 23.6091 27.0998 23.7566 27.1587C27.4937 28.6035 31.2899 29.3332 35.0344 29.3332C42.8773 29.3332 48.7521 26.0899 50.6834 25.0211L54.6122 22.7508C56.8088 21.2028 60.9219 17.215 60.9588 13.0651C60.9809 10.8242 59.8458 8.84877 57.5828 7.19026C57.546 7.12392 57.6492 6.88804 57.9514 6.71113L59.8236 5.62757C60.1037 5.4654 60.4944 5.37695 60.8998 5.37695C61.3053 5.37695 61.6886 5.4654 61.9613 5.62757L72.4578 11.6867C73.932 12.5343 74.7429 13.6548 74.7429 14.8268C74.7429 15.9988 73.9173 17.1487 72.421 18.0111L42.4867 35.2965C40.924 36.1958 38.8379 36.697 36.6045 36.697L36.6119 36.6896Z" fill="#F6F6F8"/>
<path d="M24.922 34.2872L24.0816 35.1717L20.0791 32.8572L20.9194 31.98L24.922 34.2872Z" fill="#D9DBE6"/>
<path d="M20.0791 32.8569V44.7171L24.0816 47.0317V35.1715L20.0791 32.8569Z" fill="#A0A6C0"/>
<path d="M20.5068 33.5791V44.5548L23.448 46.2501V35.2818L20.5068 33.5791Z" fill="#757EA9"/>
<path d="M21.0303 34.0142V44.2527L23.308 45.5648V35.3262L21.0303 34.0142Z" fill="#373C45"/>
<path d="M24.0811 35.1716V47.0318L24.9214 47.3046V34.2871L24.0811 35.1716Z" fill="#C4C8D8"/>
<path d="M57.2592 11.532V12.6745L56.7875 12.4018C51.0159 9.07002 41.6619 9.05527 35.9271 12.3649L12.8627 25.6772L11.8603 26.2522L11.0494 26.7166C5.31468 30.0262 5.34414 35.4293 11.1158 38.7611L16.7768 42.0338C17.9857 42.7341 19.5926 43.169 21.288 43.2648L21.1627 44.083C19.1356 43.9725 17.2191 43.4491 15.7743 42.6162L10.1133 39.3434C3.78884 35.6946 3.75937 29.7682 10.0396 26.1343L10.8504 25.6699L11.8529 25.0949L34.9173 11.7826C41.028 8.25182 50.9053 8.17074 57.2592 11.532Z" fill="#41464F"/>
<path d="M5.34375 23.6724V33.0411C5.34375 33.0411 6.64107 36.1738 7.77622 37.1468C8.91138 38.1198 17.0344 42.8005 17.0344 42.8005L21.1622 44.0831V35.0166L18.0369 34.1689L8.11527 28.5742L6.60419 25.6994L5.34375 23.6724Z" fill="#41464F"/>
<path d="M21.2875 34.1982L22.1794 34.7142V44.083H21.1621L19.7764 43.8397L20.7641 34.81L21.2875 34.1982Z" fill="#41464F"/>
<path d="M12.8552 30.7046L11.8453 30.1223L11.1082 29.6948C5.33654 26.363 5.30708 20.9599 11.0418 17.6503L35.9121 3.29126C41.6469 -0.0183868 51.0082 -0.00364243 56.7725 3.32812L60.2885 5.36256C60.9151 5.22988 61.6375 5.3036 62.1387 5.59107L65.6179 7.6034C65.4189 7.27906 65.1462 7.0137 64.8144 6.82205L57.7676 2.75317C51.4432 -0.902923 41.1825 -0.917664 34.8949 2.70895L10.0246 17.068C3.73702 20.6946 3.76649 26.621 10.0983 30.2771L10.8354 30.7046L11.8453 31.2869L15.7667 33.5499C17.2115 34.3828 19.128 34.9062 21.155 35.0167L21.2804 34.1985C19.5777 34.1027 17.9781 33.6678 16.7692 32.9676L12.8478 30.7046H12.8552Z" fill="#5C6068"/>
<path d="M21.1622 35.0164C21.1622 35.0164 22.0615 35.0386 22.1868 34.7142L21.2949 34.1982L20.7568 34.6553L21.1696 35.0164H21.1622Z" fill="#5C6068"/>
<path d="M22.1724 35.0167V44.2748C22.1724 44.2748 22.1724 44.2969 22.1724 44.3043V44.3264C22.1872 44.4222 22.2535 44.5181 22.3788 44.5918C22.6221 44.7318 22.9833 44.754 23.2634 44.6581V35.3336L22.165 35.0093L22.1724 35.0167Z" fill="#545961"/>
<path d="M22.2685 34.7661C22.099 34.9283 22.1358 35.142 22.3791 35.2747C22.6223 35.4074 22.9835 35.4369 23.2636 35.3411L22.2685 34.7661Z" fill="#5C6068"/>
<defs>
<linearGradient id="paint0_linear_76_1023" x1="57.7686" y1="40.4055" x2="57.9012" y2="40.4055" gradientUnits="userSpaceOnUse">
<stop offset="0.09" stop-color="#41464F"/>
<stop offset="0.25" stop-color="#41464F"/>
<stop offset="0.26" stop-color="#4D515A"/>
<stop offset="0.28" stop-color="#545761"/>
<stop offset="0.33" stop-color="#565963"/>
<stop offset="0.36" stop-color="#545761"/>
<stop offset="0.37" stop-color="#4D515A"/>
<stop offset="0.38" stop-color="#464B54"/>
<stop offset="0.82" stop-color="#464B54"/>
<stop offset="0.97" stop-color="#464B54"/>
<stop offset="1" stop-color="#5E626A"/>
</linearGradient>
<linearGradient id="paint1_linear_76_1023" x1="19.6007" y1="40.1841" x2="75.1203" y2="40.1841" gradientUnits="userSpaceOnUse">
<stop offset="0.01" stop-color="#A0A6C0"/>
<stop offset="0.23" stop-color="#A0A6C0"/>
<stop offset="0.25" stop-color="#B9BED5"/>
<stop offset="0.27" stop-color="#CBD0E4"/>
<stop offset="0.29" stop-color="#D6DAED"/>
<stop offset="0.31" stop-color="#DADEF0"/>
<stop offset="0.63" stop-color="#DADEF0"/>
<stop offset="0.65" stop-color="#DADEF0"/>
<stop offset="1" stop-color="#DADEF0"/>
</linearGradient>
<linearGradient id="paint2_linear_76_1023" x1="19.6079" y1="34.9579" x2="75.12" y2="34.9579" gradientUnits="userSpaceOnUse">
<stop offset="0.09" stop-color="#41464F"/>
<stop offset="0.25" stop-color="#41464F"/>
<stop offset="0.26" stop-color="#4D515A"/>
<stop offset="0.28" stop-color="#545761"/>
<stop offset="0.33" stop-color="#565963"/>
<stop offset="0.36" stop-color="#545761"/>
<stop offset="0.37" stop-color="#4D515A"/>
<stop offset="0.38" stop-color="#464B54"/>
<stop offset="0.82" stop-color="#464B54"/>
<stop offset="0.97" stop-color="#464B54"/>
<stop offset="1" stop-color="#5E626A"/>
</linearGradient>
<linearGradient id="paint3_linear_76_1023" x1="19.3347" y1="25.8395" x2="76.0557" y2="25.8395" gradientUnits="userSpaceOnUse">
<stop offset="0.01" stop-color="#A0A6C0"/>
<stop offset="0.23" stop-color="#A0A6C0"/>
<stop offset="0.25" stop-color="#B9BED5"/>
<stop offset="0.27" stop-color="#CBD0E4"/>
<stop offset="0.29" stop-color="#D6DAED"/>
<stop offset="0.31" stop-color="#DADEF0"/>
<stop offset="0.63" stop-color="#DADEF0"/>
<stop offset="0.65" stop-color="#DADEF0"/>
<stop offset="1" stop-color="#DADEF0"/>
</linearGradient>
<linearGradient id="paint4_linear_76_1023" x1="29.4185" y1="57.6538" x2="44.9938" y2="27.0635" gradientUnits="userSpaceOnUse">
<stop stop-color="#C4C7D8"/>
<stop offset="0.19" stop-color="#B1B5CB"/>
<stop offset="0.54" stop-color="#D9DBE6"/>
<stop offset="1" stop-color="#E5E6EE"/>
</linearGradient>
</defs>
</svg>
