<svg width="20" height="20" viewBox="0 0 20 20" fill="none" xmlns="http://www.w3.org/2000/svg">
<path d="M11.9959 10L17.5824 4.41348C17.8475 4.14881 17.9967 3.78966 17.997 3.41503C17.9973 3.0404 17.8488 2.68099 17.5841 2.41585C17.3195 2.15072 16.9603 2.00158 16.5857 2.00125C16.2111 2.00092 15.8517 2.14942 15.5865 2.41409L10 8.00061L4.41348 2.41409C4.14834 2.14895 3.78874 2 3.41378 2C3.03882 2 2.67922 2.14895 2.41409 2.41409C2.14895 2.67922 2 3.03882 2 3.41378C2 3.78874 2.14895 4.14834 2.41409 4.41348L8.00061 10L2.41409 15.5865C2.14895 15.8517 2 16.2113 2 16.5862C2 16.9612 2.14895 17.3208 2.41409 17.5859C2.67922 17.851 3.03882 18 3.41378 18C3.78874 18 4.14834 17.851 4.41348 17.5859L10 11.9994L15.5865 17.5859C15.8517 17.851 16.2113 18 16.5862 18C16.9612 18 17.3208 17.851 17.5859 17.5859C17.851 17.3208 18 16.9612 18 16.5862C18 16.2113 17.851 15.8517 17.5859 15.5865L11.9959 10Z" fill="#47570F"/>
</svg>
