<svg width="20" height="20" viewBox="0 0 20 20" fill="none" xmlns="http://www.w3.org/2000/svg">
<path fill-rule="evenodd" clip-rule="evenodd" d="M2.8711 5.97747C4.46846 4.43945 6.82068 3 9.99987 3C13.1791 3 15.5313 4.43945 17.1286 5.97747C18.2476 7.06383 19.1738 8.33238 19.8679 9.72897C20.044 10.0932 20.044 10.5112 19.8679 10.8745C19.1742 12.2714 18.2482 13.5402 17.1296 14.6269C15.5313 16.1649 13.1791 17.6044 9.99987 17.6044C6.82068 17.6044 4.46846 16.1649 2.8711 14.6269C1.7522 13.5405 0.825949 12.272 0.131868 10.8754C0.0450912 10.6969 0 10.5011 0 10.3027C0 10.1042 0.0450912 9.90835 0.131868 9.72989C0.825586 8.33305 1.75244 7.0642 2.8711 5.97747ZM9.99987 13.0405C10.7261 13.0405 11.4226 12.752 11.9362 12.2385C12.4497 11.7249 12.7382 11.0284 12.7382 10.3022C12.7382 9.57595 12.4497 8.87944 11.9362 8.36591C11.4226 7.85237 10.7261 7.56387 9.99987 7.56387C9.27362 7.56387 8.57712 7.85237 8.06358 8.36591C7.55005 8.87944 7.26155 9.57595 7.26155 10.3022C7.26155 11.0284 7.55005 11.7249 8.06358 12.2385C8.57712 12.752 9.27362 13.0405 9.99987 13.0405Z" fill="#47570F"/>
</svg>
