<svg width="25" height="25" viewBox="0 0 25 25" fill="none" xmlns="http://www.w3.org/2000/svg">
<path d="M12.0959 7.83838C10.9616 7.83838 9.87376 8.28898 9.07168 9.09106C8.2696 9.89314 7.819 10.981 7.819 12.1153C7.819 13.2496 8.2696 14.3375 9.07168 15.1395C9.87376 15.9416 10.9616 16.3922 12.0959 16.3922C13.2302 16.3922 14.3181 15.9416 15.1202 15.1395C15.9222 14.3375 16.3728 13.2496 16.3728 12.1153C16.3728 10.981 15.9222 9.89314 15.1202 9.09106C14.3181 8.28898 13.2302 7.83838 12.0959 7.83838Z" fill="white"/>
<path fill-rule="evenodd" clip-rule="evenodd" d="M5.21384 0.38026C9.78792 -0.126753 14.404 -0.126753 18.9781 0.38026C21.477 0.65923 23.4916 2.62649 23.7851 5.13459C24.3275 9.77266 24.3275 14.4582 23.7851 19.0962C23.4916 21.6043 21.477 23.5716 18.9794 23.8519C14.4049 24.359 9.78835 24.359 5.21384 23.8519C2.71496 23.5716 0.700324 21.6043 0.40688 19.0975C-0.135627 14.459 -0.135627 9.7731 0.40688 5.13459C0.700324 2.62649 2.71496 0.65923 5.21384 0.38026ZM18.6754 4.22004C18.3264 4.22004 17.9917 4.35868 17.745 4.60546C17.4982 4.85223 17.3595 5.18694 17.3595 5.53593C17.3595 5.88493 17.4982 6.21963 17.745 6.46641C17.9917 6.71319 18.3264 6.85183 18.6754 6.85183C19.0244 6.85183 19.3591 6.71319 19.6059 6.46641C19.8527 6.21963 19.9913 5.88493 19.9913 5.53593C19.9913 5.18694 19.8527 4.85223 19.6059 4.60546C19.3591 4.35868 19.0244 4.22004 18.6754 4.22004ZM5.84547 12.1154C5.84547 10.4577 6.504 8.86783 7.6762 7.69564C8.84839 6.52344 10.4382 5.86491 12.096 5.86491C13.7537 5.86491 15.3435 6.52344 16.5157 7.69564C17.6879 8.86783 18.3465 10.4577 18.3465 12.1154C18.3465 13.7731 17.6879 15.363 16.5157 16.5352C15.3435 17.7074 13.7537 18.3659 12.096 18.3659C10.4382 18.3659 8.84839 17.7074 7.6762 16.5352C6.504 15.363 5.84547 13.7731 5.84547 12.1154Z" fill="white"/>
</svg>
