<svg width="60" height="60" viewBox="0 0 60 60" fill="none" xmlns="http://www.w3.org/2000/svg">
<path d="M37.3851 30.0004L58.0552 9.33025C59.0362 8.35098 59.588 7.02212 59.5892 5.63599C59.5905 4.24987 59.041 2.92004 58.0617 1.93904C57.0825 0.958039 55.7536 0.406231 54.3675 0.405007C52.9814 0.403783 51.6515 0.953243 50.6705 1.93251L30.0004 22.6027L9.33025 1.93251C8.34925 0.951512 7.01872 0.400391 5.63138 0.400391C4.24404 0.400391 2.91351 0.951512 1.93251 1.93251C0.951512 2.91351 0.400391 4.24404 0.400391 5.63138C0.400391 7.01872 0.951512 8.34925 1.93251 9.33025L22.6027 30.0004L1.93251 50.6705C0.951512 51.6515 0.400391 52.9821 0.400391 54.3694C0.400391 55.7567 0.951512 57.0873 1.93251 58.0683C2.91351 59.0493 4.24404 59.6004 5.63138 59.6004C7.01872 59.6004 8.34925 59.0493 9.33025 58.0683L30.0004 37.3981L50.6705 58.0683C51.6515 59.0493 52.9821 59.6004 54.3694 59.6004C55.7567 59.6004 57.0873 59.0493 58.0683 58.0683C59.0493 57.0873 59.6004 55.7567 59.6004 54.3694C59.6004 52.9821 59.0493 51.6515 58.0683 50.6705L37.3851 30.0004Z" fill="#E97C7C"/>
</svg>
