<svg width="215" height="50" viewBox="0 0 215 50" fill="none" xmlns="http://www.w3.org/2000/svg">
<path d="M58.8 18.16H64.74C66.7 18.16 67.68 18.9867 67.68 20.64V24.32C67.68 25.9733 66.7 26.8 64.74 26.8H62.3V31H58.8V18.16ZM64.18 23.86V21.1C64.18 20.8067 64.0133 20.66 63.68 20.66H62.3V24.3H63.68C64.0133 24.3 64.18 24.1533 64.18 23.86ZM75.4181 31L75.0181 29.08H71.9381L71.5181 31H68.0781L71.3781 18.16H75.6381L78.9381 31H75.4181ZM72.4781 26.6H74.4781L73.4981 21.98L72.4781 26.6ZM85.0775 18.16H88.5775V28.52C88.5775 30.1733 87.5975 31 85.6375 31H82.6775C80.7175 31 79.7375 30.1733 79.7375 28.52V18.16H83.2375V28.06C83.2375 28.3533 83.4042 28.5 83.7375 28.5H84.5775C84.9108 28.5 85.0775 28.3533 85.0775 28.06V18.16ZM95.1067 28.06V26.24C95.1067 25.9467 94.9401 25.8 94.6067 25.8H92.6867C91.7001 25.8 91.0001 25.5867 90.5867 25.16C90.1867 24.72 89.9867 24.0933 89.9867 23.28V20.64C89.9867 18.9867 90.9601 18.16 92.9067 18.16H95.6467C97.5934 18.16 98.5667 18.9867 98.5667 20.64V22.18H95.0667V21.1C95.0667 20.8067 94.9001 20.66 94.5667 20.66H93.9867C93.6534 20.66 93.4867 20.8067 93.4867 21.1V23C93.4867 23.2933 93.6534 23.44 93.9867 23.44H95.8667C96.8534 23.44 97.5534 23.6467 97.9667 24.06C98.3934 24.4733 98.6067 25.08 98.6067 25.88V28.52C98.6067 30.1733 97.6334 31 95.6867 31H92.9667C91.0067 31 90.0267 30.1733 90.0267 28.52V26.98H93.5267V28.06C93.5267 28.3533 93.6934 28.5 94.0267 28.5H94.6067C94.9401 28.5 95.1067 28.3533 95.1067 28.06ZM103.511 28.5H107.891V31H100.011V18.16H107.711V20.66H103.511V23.28H107.131V25.78H103.511V28.5ZM121.599 22.96H118.099V20.9C118.099 20.6067 117.933 20.46 117.599 20.46H116.899C116.566 20.46 116.399 20.6067 116.399 20.9V28.26C116.399 28.5533 116.566 28.7 116.899 28.7H117.599C117.933 28.7 118.099 28.5533 118.099 28.26V26.28H121.599V28.52C121.599 30.1733 120.619 31 118.659 31H115.839C113.879 31 112.899 30.1733 112.899 28.52V20.64C112.899 18.9867 113.879 18.16 115.839 18.16H118.659C120.619 18.16 121.599 18.9867 121.599 20.64V22.96ZM125.782 18.16H128.742C130.702 18.16 131.682 18.9867 131.682 20.64V28.52C131.682 30.1733 130.702 31 128.742 31H125.782C123.822 31 122.842 30.1733 122.842 28.52V20.64C122.842 18.9867 123.822 18.16 125.782 18.16ZM128.182 28.06V21.1C128.182 20.8067 128.015 20.66 127.682 20.66H126.842C126.508 20.66 126.342 20.8067 126.342 21.1V28.06C126.342 28.3533 126.508 28.5 126.842 28.5H127.682C128.015 28.5 128.182 28.3533 128.182 28.06ZM139.074 18.16H142.274V31H139.274L136.414 24.26V31H133.214V18.16H136.214L139.074 25.02V18.16ZM149.738 18.16H152.938V31H149.938L147.078 24.26V31H143.878V18.16H146.878L149.738 25.02V18.16ZM158.042 28.5H162.422V31H154.542V18.16H162.242V20.66H158.042V23.28H161.662V25.78H158.042V28.5ZM172.127 22.96H168.627V20.9C168.627 20.6067 168.46 20.46 168.127 20.46H167.427C167.093 20.46 166.927 20.6067 166.927 20.9V28.26C166.927 28.5533 167.093 28.7 167.427 28.7H168.127C168.46 28.7 168.627 28.5533 168.627 28.26V26.28H172.127V28.52C172.127 30.1733 171.147 31 169.187 31H166.367C164.407 31 163.427 30.1733 163.427 28.52V20.64C163.427 18.9867 164.407 18.16 166.367 18.16H169.187C171.147 18.16 172.127 18.9867 172.127 20.64V22.96ZM181.169 18.16V20.66H178.689V31H175.189V20.66H172.729V18.16H181.169Z" fill="white"/>
<circle cx="25" cy="25" r="25" fill="#1A547F"/>
<path d="M40.5 21L13 43H3L31 21H40.5Z" fill="#113855"/>
<path d="M50 26L29 43H19L47 21L50 26Z" fill="#113855"/>
<path fill-rule="evenodd" clip-rule="evenodd" d="M20 0.606952C31.1612 3.11266 39.5 13.0825 39.5 25C39.5 36.9175 31.1612 46.8873 20 49.393C21.7697 49.7904 23.6104 50 25.5 50C39.3071 50 50.5 38.8071 50.5 25C50.5 11.1929 39.3071 0 25.5 0C23.6104 0 21.7697 0.209647 20 0.606952Z" fill="#D1E97C"/>
<rect x="3" y="9" width="10" height="34" fill="#99D98C"/>
<rect x="19" y="9" width="10" height="34" fill="#D1E97C"/>
<path fill-rule="evenodd" clip-rule="evenodd" d="M20 0.606952C31.1612 3.11266 39.5 13.0825 39.5 25C39.5 36.9175 31.1612 46.8873 20 49.393C21.7697 49.7904 23.6104 50 25.5 50C39.3071 50 50.5 38.8071 50.5 25C50.5 11.1929 39.3071 0 25.5 0C23.6104 0 21.7697 0.209647 20 0.606952Z" fill="#D1E97C"/>
</svg>
